<?xml version="1.0" encoding="utf-8"?><!-- Uploaded to: SVG Repo, www.svgrepo.com, Generator: SVG Repo Mixer Tools -->
<svg fill="#000000" width="800px" height="800px" viewBox="0 0 24 24" id="processor" data-name="Flat Color" xmlns="http://www.w3.org/2000/svg" class="icon flat-color"><path id="secondary" d="M3,13a1,1,0,0,1,0-2H6a1,1,0,0,1,0,2Zm3,2H4a1,1,0,0,0,0,2H6a1,1,0,0,0,0-2Zm2,2a1,1,0,0,0-1,1v2a1,1,0,0,0,2,0V18A1,1,0,0,0,8,17ZM4,9H6A1,1,0,0,0,6,7H4A1,1,0,0,0,4,9ZM16,7a1,1,0,0,0,1-1V4a1,1,0,0,0-2,0V6A1,1,0,0,0,16,7Zm2,2h2a1,1,0,0,0,0-2H18a1,1,0,0,0,0,2Zm2,6H18a1,1,0,0,0,0,2h2a1,1,0,0,0,0-2Zm1-4H18a1,1,0,0,0,0,2h3a1,1,0,0,0,0-2Zm-5,6a1,1,0,0,0-1,1v2a1,1,0,0,0,2,0V18A1,1,0,0,0,16,17ZM12,2a1,1,0,0,0-1,1V6a1,1,0,0,0,2,0V3A1,1,0,0,0,12,2ZM8,3A1,1,0,0,0,7,4V6A1,1,0,0,0,9,6V4A1,1,0,0,0,8,3Zm4,14a1,1,0,0,0-1,1v3a1,1,0,0,0,2,0V18A1,1,0,0,0,12,17Z" style="fill: rgb(44, 169, 188);"></path><rect id="primary" x="5" y="5" width="14" height="14" rx="2" style="fill: rgb(0, 0, 0);"></rect><rect id="secondary-2" data-name="secondary" x="9" y="9" width="6" height="6" rx="1" style="fill: rgb(44, 169, 188);"></rect></svg>