<?xml version="1.0" encoding="utf-8"?><!-- Uploaded to: SVG Repo, www.svgrepo.com, Generator: SVG Repo Mixer Tools -->
<svg fill="#000000" width="800px" height="800px" viewBox="0 0 24 24" id="mobile-phone" data-name="Flat Line" xmlns="http://www.w3.org/2000/svg" class="icon flat-line"><path id="secondary" d="M17,3H14l-.5,2h-3L10,3H7A1,1,0,0,0,6,4V20a1,1,0,0,0,1,1H17a1,1,0,0,0,1-1V4A1,1,0,0,0,17,3Z" style="fill: rgb(44, 169, 188); stroke-width: 2;"></path><path id="primary" d="M13,17H11M14,3H10l.5,2h3Zm4,17V4a1,1,0,0,0-1-1H7A1,1,0,0,0,6,4V20a1,1,0,0,0,1,1H17A1,1,0,0,0,18,20Z" style="fill: none; stroke: rgb(0, 0, 0); stroke-linecap: round; stroke-linejoin: round; stroke-width: 2;"></path></svg>