<svg version="1.2" xmlns="http://www.w3.org/2000/svg" viewBox="0 0 512 512" width="512" height="512">
	<title>snigdhaos</title>
	<style>
		tspan { white-space:pre } 
		.s0 { fill: #000000 } 
	</style>
	<filter id="f0">
		<feFlood flood-color="#754ffe" flood-opacity="1" />
		<feBlend mode="normal" in2="SourceGraphic"/>
		<feComposite in2="SourceAlpha" operator="in" />
	</filter>
	<g id="graphics" filter="url(#f0)">
		<path id="Layer" class="s0" d="m303.2 29c-18.6-5.9-38-9.2-57.5-9.9-19.5-0.6-39 1.3-58 5.8-19 4.6-37.3 11.6-54.4 21-17.1 9.5-32.8 21.1-46.8 34.7q5.5 1.8 10.7 4.4 5.2 2.6 10 6 4.7 3.4 8.8 7.6 4.1 4.1 7.5 8.8 2.4 3.4 4.4 6.9 2 3.6 3.7 7.4 1.7 3.8 2.9 7.7 1.3 3.9 2.2 7.9 11.6-6.3 24-11.2 12.4-4.8 25.2-8.1 12.9-3.3 26.1-5 13.2-1.7 26.5-1.7c10-0.3 20.1 0.4 30 2 9.9 1.7 19.6 4.3 29 7.9 9.5 3.5 18.5 8 27 13.3 8.6 5.3 16.6 11.5 23.9 18.4 60.3 55.3 40 98.8 30.6 170.7-1.5 8.2-1.8 16.5-1 24.8 0.8 8.3 2.7 16.4 5.8 24.2 3 7.7 7.1 15 12.2 21.6 5.1 6.6 11 12.5 17.7 17.4-9.5-44.4 23.4-111.7 27.2-119.2 8.4-26.4 11.6-54.1 9.2-81.7-2.3-27.5-10.1-54.3-22.9-78.8-12.9-24.5-30.4-46.3-51.7-63.9-21.3-17.7-45.8-31-72.3-39z"/>
		<path id="Layer" class="s0" d="m336.1 165.4c-29.8-29.5-72-39.4-112.6-36.1l-12.1 8.6c14.6 0.5 29.1 3.1 43 7.5 13.9 4.4 27.1 10.7 39.3 18.7 12.3 8 23.4 17.5 33.1 28.5 9.6 10.9 17.8 23.1 24.2 36.2q1.3 2.5 2.5 5.2 1.2 2.6 2.2 5.3 1.1 2.6 2.1 5.3 1 2.7 1.8 5.5l12.6-23.7c-3.2-26-14.7-39.2-36.1-61z"/>
		<path id="Layer" class="s0" d="m340.6 248.7c-58.5-147.8-276-110.5-279.6 51 0.2 11.1-0.1 34 0 45.1 0.1 1.7 0.6 3.4 1.7 4.9 1 1.4 2.4 2.5 4.1 3.1 1.6 0.7 3.4 0.8 5.1 0.4 1.7-0.4 3.3-1.3 4.5-2.6l42-47.4q0.3-0.4 0.7-0.6 0.3-0.3 0.7-0.5 0.4-0.2 0.8-0.3 0.4-0.1 0.9-0.1l8.6-0.5-18.4 29.7q-1 1.7-1.7 3.6-0.8 1.9-1.1 3.9-0.4 1.9-0.4 3.9 0 2.1 0.4 4c2.2 12.6 4.8 43.9-21 64.6q-1.9 1.5-3.5 3.4-1.5 1.9-2.6 4.1-1.1 2.2-1.6 4.6-0.6 2.3-0.7 4.8v42.7c0.1 2.9 0.6 5.7 1.8 8.4 1.1 2.7 2.7 5.1 4.7 7.1 2.1 2 4.5 3.7 7.2 4.8 2.6 1.1 5.5 1.6 8.4 1.6 98.5-19.9 153.3-77.6 165.4-96.8q0.3-0.5 0.7-0.8 0.4-0.3 0.9-0.6 0.4-0.2 0.9-0.3 0.5-0.2 1.1-0.2h53.1c3.5 0 6.8-0.7 10-2 3.2-1.3 6-3.2 8.4-5.7 2.5-2.4 4.4-5.2 5.7-8.4 1.4-3.1 2.1-6.5 2.1-9.9-1.4-32.7 4.6-88.7-9.3-119z"/>
	</g>
</svg>