<svg version="1.2" xmlns="http://www.w3.org/2000/svg" viewBox="0 0 900 900" width="900" height="900">
	<title>snigdhaos-tools-banner</title>
	<style>
		.s0 { fill: #ffffff } 
	</style>
	<g id="_Artboards_">
	</g>
	<filter id="f0">
		<feFlood flood-color="#754ffe" flood-opacity="1" />
		<feBlend mode="normal" in2="SourceGraphic"/>
		<feComposite in2="SourceAlpha" operator="in" />
	</filter>
	<g id="Layer 3" filter="url(#f0)">
		<g id="&lt;Group&gt;">
			<path id="&lt;Path&gt;" class="s0" d="m531.7 641.4c0 6.6-5.3 12-12 12h-132.5c-6.6 0-12-5.4-12-12 0-6.6 5.4-12 12-12h132.5c6.7 0 12 5.4 12 12z"/>
			<path id="&lt;Path&gt;" class="s0" d="m531.7 676.4c0 6.6-5.3 12-12 12h-132.5c-6.6 0-12-5.4-12-12 0-6.6 5.4-12 12-12h132.5c6.7 0 12 5.4 12 12z"/>
			<path id="&lt;Path&gt;" class="s0" d="m531.7 711.4c0 6.6-5.3 12-12 12h-132.5c-6.6 0-12-5.4-12-12 0-6.6 5.4-12 12-12h132.5c6.7 0 12 5.4 12 12z"/>
			<path id="&lt;Path&gt;" class="s0" d="m495.7 746.4c0 6.6-5.3 12-12 12h-60.5c-6.6 0-12-5.4-12-12 0-6.6 5.4-12 12-12h60.5c6.7 0 12 5.4 12 12z"/>
		</g>
		<path id="&lt;Compound Path&gt;" fill-rule="evenodd" class="s0" d="m620.1 344.5q0 0.8 0 1.6 0 0.8 0 1.6c-0.9 0.4-2 0.7-2.9 1-1.1 0.3-2.1 0.6-3 0.9l-0.3 0.2v0.3c-0.1 1.8-0.3 3.4-0.5 4.9l-0.1 0.3 0.3 0.2c0.8 0.5 1.8 1.1 2.7 1.6 0.9 0.5 1.8 1 2.5 1.5q-0.3 1.7-0.7 3.3c-0.9 0.1-2 0.2-3 0.3-1.1 0-2.1 0.1-3.1 0.2l-0.3 0.1-0.1 0.3q-0.7 2.3-1.7 4.6l-0.1 0.3 0.3 0.3c0.6 0.7 1.4 1.4 2.2 2.2 0.8 0.7 1.5 1.4 2.2 2q-0.7 1.6-1.5 3c-0.9-0.1-2-0.2-3-0.4-1-0.1-2.1-0.3-3-0.4h-0.4l-0.2 0.3q-1.2 2.1-2.6 4.1l-0.2 0.3 0.2 0.3c0.5 0.8 1.2 1.7 1.8 2.6 0.5 0.9 1.1 1.7 1.6 2.5-0.6 0.8-1.3 1.7-2.1 2.6-0.9-0.3-1.9-0.7-2.8-1-1-0.4-2-0.8-2.9-1.1l-0.3-0.2-0.3 0.3q-1.7 1.8-3.4 3.5l-0.3 0.2 0.1 0.3c0.3 1 0.7 1.9 1.1 2.9 0.4 1 0.8 2 1.1 2.9-1 0.8-1.8 1.4-2.6 2-0.8-0.5-1.7-1-2.5-1.6-0.9-0.6-1.8-1.2-2.6-1.7l-0.3-0.2-0.3 0.2q-2 1.3-4.2 2.6l-0.3 0.2 0.1 0.3c0.1 1 0.2 2 0.4 3.1 0.1 1 0.3 2 0.4 3q-1.5 0.7-3 1.4c-0.7-0.6-1.4-1.4-2.1-2.1-0.7-0.8-1.4-1.6-2.1-2.3l-0.3-0.2-0.3 0.1q-2.4 0.9-4.6 1.6l-0.4 0.1v0.4c-0.1 0.9-0.2 2-0.3 3-0.1 1.1-0.2 2.1-0.3 3.1q-1.5 0.3-3.2 0.7c-0.5-0.8-1-1.7-1.5-2.6-0.6-0.9-1.1-1.8-1.6-2.7l-0.2-0.3-0.4 0.1c-1.5 0.2-3.1 0.4-4.8 0.5h-0.4l-0.1 0.4c-0.3 0.9-0.6 1.9-0.9 2.9-0.4 1-0.7 2-1 2.9q-1.7 0.1-3.3 0h-0.1c-0.3-0.9-0.6-1.9-0.9-2.9-0.3-1-0.6-2-1-2.9l-0.1-0.4h-0.3c-1.8-0.1-3.4-0.3-4.9-0.5l-0.3-0.1-0.2 0.3c-0.6 0.9-1.1 1.8-1.6 2.7-0.6 0.9-1.1 1.8-1.6 2.6q-1.7-0.4-3.2-0.7c-0.1-1-0.2-2-0.3-3.1-0.1-1-0.1-2.1-0.3-3v-0.4l-0.3-0.1q-2.3-0.7-4.6-1.6l-0.4-0.1-0.2 0.2c-0.7 0.7-1.5 1.5-2.2 2.3-0.7 0.7-1.4 1.5-2.1 2.1q-1.5-0.7-3-1.4c0.1-1 0.3-2 0.5-3 0.1-1.1 0.3-2.1 0.4-3.1v-0.3l-0.3-0.2q-2.2-1.2-4.1-2.6l-0.3-0.2-0.3 0.2c-0.9 0.5-1.7 1.1-2.6 1.7-0.9 0.6-1.7 1.1-2.5 1.6-0.8-0.6-1.7-1.2-2.6-2 0.3-0.9 0.7-1.9 1-2.9 0.4-1 0.8-1.9 1.1-2.9l0.1-0.3-0.2-0.2q-1.8-1.7-3.5-3.5l-0.2-0.3-0.4 0.2c-0.9 0.3-1.9 0.7-2.9 1-0.9 0.4-1.9 0.8-2.8 1.1-0.8-0.9-1.5-1.8-2.1-2.6 0.5-0.8 1.1-1.7 1.7-2.5 0.6-0.9 1.2-1.8 1.7-2.6l0.2-0.3-0.2-0.3q-1.4-1.9-2.6-4.1l-0.2-0.3h-0.3c-1 0.1-2 0.3-3.1 0.4-1 0.2-2.1 0.3-3 0.4q-0.8-1.4-1.5-3c0.7-0.6 1.5-1.3 2.2-2 0.8-0.8 1.6-1.5 2.3-2.2l0.2-0.3-0.1-0.3q-0.9-2.3-1.6-4.6l-0.1-0.3-0.4-0.1c-0.9-0.1-2-0.2-3.1-0.2-1-0.1-2-0.2-3-0.3q-0.4-1.6-0.7-3.3c0.8-0.5 1.7-1 2.5-1.5 1-0.5 1.9-1.1 2.7-1.6l0.3-0.2v-0.3c-0.3-1.5-0.4-3.1-0.5-4.9l-0.1-0.3-0.3-0.2c-0.9-0.3-1.9-0.6-2.9-0.9-1-0.3-2-0.6-2.9-1v-0.1q-0.1-0.7-0.1-1.5 0-0.8 0.1-1.6v-0.1c0.9-0.3 1.9-0.7 2.9-1 1-0.3 2-0.6 2.9-0.9l0.3-0.1 0.1-0.4c0.1-1.8 0.2-3.3 0.5-4.8v-0.4l-0.3-0.2c-0.8-0.5-1.7-1.1-2.7-1.6-0.8-0.5-1.7-1-2.5-1.5q0.3-1.7 0.7-3.3c1-0.1 2-0.2 3.1-0.2 1-0.1 2.1-0.2 3-0.3l0.4-0.1 0.1-0.3q0.7-2.3 1.6-4.6l0.1-0.3-0.2-0.3c-0.7-0.7-1.5-1.4-2.3-2.1-0.7-0.7-1.5-1.5-2.2-2.1q0.7-1.5 1.5-3c0.9 0.1 2 0.2 3 0.4 1.1 0.2 2.1 0.3 3.1 0.4l0.3 0.1 0.2-0.4q1.2-2.1 2.6-4.1l0.2-0.3-0.2-0.3c-0.5-0.8-1.1-1.7-1.7-2.6-0.6-0.8-1.2-1.7-1.7-2.5 0.6-0.8 1.3-1.6 2.1-2.6 0.9 0.3 1.9 0.7 2.8 1.1 1 0.4 2 0.7 2.9 1.1l0.4 0.1 0.2-0.3q1.7-1.8 3.5-3.4l0.2-0.3-0.1-0.3c-0.3-0.9-0.7-1.9-1.1-2.9-0.3-1-0.7-2-1-2.8 0.9-0.8 1.8-1.5 2.6-2.1 0.8 0.5 1.6 1.1 2.5 1.6 0.9 0.6 1.7 1.2 2.6 1.7l0.3 0.2 0.3-0.2q1.9-1.3 4.1-2.6l0.3-0.1v-0.4c-0.1-1-0.3-2-0.4-3.1-0.2-1-0.4-2-0.5-3q1.5-0.7 3-1.4c0.7 0.6 1.4 1.4 2.1 2.1 0.7 0.8 1.5 1.6 2.2 2.3l0.2 0.3 0.4-0.2q2.3-0.9 4.6-1.6l0.3-0.1v-0.4c0.2-0.9 0.2-2 0.3-3 0.1-1 0.2-2.1 0.3-3q1.5-0.4 3.2-0.8c0.5 0.8 1 1.7 1.5 2.6 0.6 0.9 1.1 1.8 1.7 2.7l0.2 0.3 0.3-0.1c1.5-0.2 3.1-0.4 4.9-0.5h0.3l0.1-0.4c0.4-0.9 0.7-1.9 1-2.9 0.3-1 0.6-2 0.9-2.9h0.1q1.6 0 3.3 0c0.3 0.9 0.6 1.9 0.9 2.9 0.4 1 0.7 2 1 2.9l0.1 0.4h0.4c1.7 0.1 3.3 0.3 4.8 0.5l0.4 0.1 0.2-0.3c0.5-0.9 1-1.8 1.6-2.7 0.5-0.9 1-1.8 1.5-2.6q1.7 0.4 3.2 0.8c0.1 0.9 0.2 2 0.3 3 0.1 1 0.2 2.1 0.3 3.1v0.3l0.4 0.1q2.2 0.7 4.6 1.6l0.3 0.2 0.3-0.3c0.7-0.7 1.4-1.5 2.1-2.3 0.7-0.7 1.4-1.4 2.1-2.1q1.5 0.7 3 1.4c-0.1 1-0.3 2-0.4 3-0.2 1.1-0.3 2.1-0.4 3.1l-0.1 0.4 0.3 0.1q2.2 1.3 4.2 2.6l0.3 0.2 0.3-0.2c0.8-0.5 1.7-1.1 2.6-1.7 0.8-0.5 1.7-1.1 2.5-1.6 0.8 0.6 1.6 1.3 2.6 2.1-0.3 0.8-0.7 1.8-1.1 2.8-0.4 1-0.8 2-1.1 2.9l-0.1 0.3 0.3 0.3q1.8 1.6 3.4 3.4l0.3 0.3 0.3-0.1c0.9-0.4 1.9-0.8 2.9-1.1 1-0.4 1.9-0.8 2.8-1.1 0.8 1 1.5 1.8 2.1 2.6-0.5 0.8-1.1 1.7-1.6 2.5-0.7 0.9-1.3 1.8-1.8 2.6l-0.2 0.3 0.2 0.3q1.4 2 2.6 4.1l0.2 0.4 0.4-0.1c0.9-0.1 2-0.2 3-0.4 1-0.2 2.1-0.3 3-0.4q0.8 1.5 1.5 3c-0.7 0.6-1.4 1.4-2.2 2.1-0.8 0.7-1.6 1.4-2.2 2.1l-0.3 0.3 0.1 0.3q1 2.3 1.7 4.6l0.1 0.3 0.3 0.1c1 0.1 2 0.2 3.1 0.3 1 0 2.1 0.1 3 0.2q0.4 1.6 0.7 3.3c-0.7 0.5-1.6 1-2.5 1.5-0.9 0.5-1.9 1.1-2.7 1.6l-0.3 0.2 0.1 0.4c0.2 1.5 0.4 3 0.5 4.8v0.4l0.3 0.1c0.9 0.3 1.9 0.6 3 0.9 0.9 0.3 2 0.7 2.9 1zm-60.3-15.1l0.5 0.1q2.7 0.6 5.1 2.1l0.4 0.3 0.3-0.4c4.7-5.3 8.9-11.3 12.3-17.8l0.3-0.5-0.4-0.3c-4.3-2.8-8.9-4.7-13.9-5.7l-0.5-0.1-0.1 0.5c-2.1 7-3.4 14.2-4 21.3zm-25.7-16.2l0.3 0.4c3.5 6.3 7.7 12.3 12.3 17.8l0.3 0.4 0.4-0.2q2.4-1.5 5.2-2.1l0.4-0.1v-0.5c-0.4-7.1-1.7-14.3-3.9-21.4l-0.2-0.4-0.5 0.1c-4.9 1-9.6 2.9-13.8 5.7zm-16.8 25.3l0.5 0.2c7 2 14.2 3.3 21.3 3.9h0.5l0.1-0.4q0.6-2.8 2.1-5.2l0.3-0.4-0.4-0.3c-5.2-4.7-11.3-8.8-17.8-12.3l-0.5-0.2-0.2 0.4c-2.9 4.2-4.8 8.9-5.8 13.8zm24.3 17.3l0.4-0.4-0.3-0.4q-1.4-2.4-2.1-5.1l-0.1-0.4h-0.4c-7.1 0.4-14.3 1.7-21.4 3.9l-0.5 0.1 0.1 0.5c1 5 3 9.7 5.8 13.9l0.2 0.4 0.5-0.2c6.3-3.5 12.3-7.7 17.8-12.3zm11.2 7l-0.5-0.1q-2.7-0.6-5.1-2.1l-0.4-0.3-0.3 0.4c-4.7 5.2-8.9 11.2-12.3 17.8l-0.3 0.5 0.4 0.2c4.3 2.9 8.9 4.8 13.9 5.8l0.5 0.1 0.1-0.5c2.1-7 3.4-14.2 4-21.3zm12.1-8c4.8-4.8 4.8-12.6 0-17.4-2.3-2.3-5.4-3.6-8.7-3.6-3.2 0-6.3 1.3-8.7 3.6-2.3 2.3-3.6 5.4-3.6 8.7 0 3.3 1.3 6.4 3.6 8.7 2.4 2.3 5.5 3.6 8.7 3.6 3.3 0 6.4-1.3 8.7-3.6zm13.6 24.2l-0.3-0.4c-3.5-6.3-7.7-12.4-12.3-17.9l-0.3-0.3-0.4 0.2q-2.4 1.5-5.2 2.1l-0.4 0.1v0.5c0.4 7.1 1.7 14.3 3.9 21.4l0.2 0.4 0.5-0.1c4.9-1 9.6-2.9 13.8-5.7zm16.8-25.3l-0.5-0.2c-7-2-14.2-3.3-21.3-3.9h-0.5l-0.1 0.4q-0.6 2.8-2.1 5.1l-0.3 0.4 0.4 0.4c5.2 4.7 11.3 8.8 17.8 12.3l0.5 0.2 0.2-0.4c2.9-4.2 4.8-8.9 5.8-13.8zm0.1-15l-0.1-0.5c-1-5-3-9.7-5.8-13.9l-0.2-0.4-0.5 0.2c-6.3 3.5-12.3 7.7-17.8 12.3l-0.4 0.3 0.3 0.4q1.4 2.5 2.1 5.2l0.1 0.4h0.4c7.1-0.4 14.3-1.7 21.4-3.9z"/>
		<path id="&lt;Compound Path&gt;" fill-rule="evenodd" class="s0" d="m481.5 603.1q0 0.2 0 0.5 0 0.2 0 0.5-0.4 0.2-0.9 0.3-0.4 0.1-0.9 0.3h-0.1v0.1q0 0.8-0.1 1.5v0.1 0.1q0.4 0.2 0.9 0.5 0.4 0.2 0.8 0.5-0.1 0.5-0.3 1-0.4 0-0.9 0-0.5 0.1-0.9 0.1h-0.1l-0.1 0.1q-0.2 0.7-0.5 1.5v0.1h0.1q0.3 0.4 0.7 0.7 0.3 0.3 0.6 0.6-0.2 0.5-0.4 1-0.5-0.1-1-0.2-0.4 0-0.9-0.1h-0.1l-0.1 0.1q-0.3 0.7-0.8 1.3v0.1q0.3 0.4 0.6 0.9 0.2 0.3 0.5 0.7-0.3 0.4-0.7 0.8-0.4-0.1-0.8-0.3-0.5-0.2-0.9-0.3l-0.1-0.1-0.1 0.1q-0.5 0.6-1.1 1.1v0.1q0.1 0.5 0.3 0.9 0.2 0.5 0.4 0.9-0.5 0.4-0.8 0.6-0.4-0.2-0.8-0.5-0.4-0.2-0.8-0.5l-0.1-0.1-0.1 0.1q-0.6 0.4-1.3 0.8l-0.1 0.1v0.1q0.1 0.4 0.2 0.9 0 0.5 0.1 0.9-0.5 0.3-0.9 0.5-0.3-0.3-0.7-0.7-0.3-0.4-0.6-0.7l-0.1-0.1-0.1 0.1q-0.7 0.3-1.4 0.5h-0.1v0.1q-0.1 0.5-0.1 1-0.1 0.5-0.1 0.9-0.5 0.1-1 0.2-0.2-0.3-0.5-0.8-0.2-0.4-0.5-0.8v-0.1h-0.1q-0.7 0.1-1.5 0.2h-0.1l-0.1 0.1q-0.1 0.4-0.3 0.9-0.1 0.5-0.3 0.9-0.5 0-1 0-0.1-0.4-0.3-0.9-0.1-0.5-0.3-0.9v-0.1h-0.1q-0.8-0.1-1.5-0.2h-0.1l-0.1 0.1q-0.2 0.4-0.5 0.8-0.2 0.5-0.4 0.8-0.6-0.1-1-0.2-0.1-0.4-0.1-0.9-0.1-0.5-0.1-1v-0.1h-0.1q-0.7-0.2-1.4-0.5l-0.1-0.1-0.1 0.1q-0.3 0.3-0.7 0.7-0.3 0.4-0.6 0.7-0.5-0.2-0.9-0.5 0-0.4 0.1-0.9 0.1-0.5 0.1-0.9v-0.1l-0.1-0.1q-0.6-0.4-1.2-0.8l-0.1-0.1-0.1 0.1q-0.4 0.3-0.8 0.5-0.4 0.3-0.8 0.5-0.4-0.2-0.8-0.6 0.1-0.4 0.3-0.9 0.2-0.4 0.4-0.9v-0.1h-0.1q-0.5-0.5-1-1.1l-0.1-0.1-0.1 0.1q-0.5 0.1-0.9 0.3-0.5 0.2-0.9 0.3-0.3-0.4-0.6-0.8 0.2-0.4 0.5-0.8 0.3-0.4 0.5-0.8h0.1l-0.1-0.1q-0.4-0.6-0.8-1.3v-0.1h-0.2q-0.4 0.1-0.9 0.1-0.5 0.1-0.9 0.2-0.3-0.5-0.5-1 0.3-0.3 0.7-0.6 0.4-0.3 0.7-0.7h0.1l-0.1-0.1q-0.3-0.8-0.5-1.5v-0.1h-0.1q-0.5 0-1-0.1-0.4 0-0.9 0-0.1-0.5-0.2-1 0.4-0.3 0.8-0.5 0.4-0.3 0.8-0.5l0.1-0.1v-0.1q-0.1-0.7-0.2-1.5v-0.1h-0.1q-0.4-0.2-0.9-0.3-0.5-0.1-0.9-0.3 0-0.3 0-0.5 0-0.3 0-0.5 0.4-0.2 0.9-0.3 0.5-0.2 0.9-0.3h0.1v-0.2q0.1-0.8 0.2-1.4v-0.2h-0.1q-0.4-0.3-0.8-0.5-0.4-0.2-0.8-0.5 0.1-0.5 0.2-1 0.5 0 1-0.1 0.4 0 0.9 0l0.1-0.1v-0.1q0.2-0.7 0.5-1.4l0.1-0.1-0.1-0.1q-0.3-0.3-0.7-0.6-0.4-0.3-0.7-0.7 0.2-0.4 0.5-0.9 0.4 0.1 0.9 0.1 0.5 0.1 0.9 0.2h0.2v-0.1q0.4-0.7 0.8-1.3l0.1-0.1-0.1-0.1q-0.2-0.4-0.5-0.8-0.3-0.4-0.5-0.7 0.3-0.4 0.6-0.8 0.4 0.1 0.9 0.3 0.4 0.2 0.9 0.3l0.1 0.1 0.1-0.1q0.5-0.6 1-1.1l0.1-0.1v-0.1q-0.2-0.4-0.4-0.9-0.2-0.4-0.3-0.8 0.4-0.4 0.8-0.7 0.4 0.3 0.8 0.5 0.4 0.3 0.8 0.6h0.1 0.1q0.6-0.4 1.2-0.8l0.1-0.1v-0.1q0-0.4-0.1-0.9-0.1-0.5-0.1-1 0.4-0.2 0.9-0.4 0.3 0.3 0.6 0.7 0.4 0.3 0.7 0.7h0.1 0.1q0.7-0.3 1.4-0.5h0.1v-0.1q0-0.5 0.1-1 0-0.5 0.1-0.9 0.4-0.1 1-0.2 0.2 0.3 0.4 0.7 0.3 0.5 0.5 0.9l0.1 0.1 0.1-0.1q0.7-0.1 1.5-0.1h0.1v-0.1q0.2-0.4 0.3-0.9 0.2-0.5 0.3-0.9 0.5 0 1 0 0.2 0.4 0.3 0.9 0.2 0.5 0.3 0.9l0.1 0.1h0.1q0.8 0 1.5 0.1l0.1 0.1v-0.1q0.3-0.4 0.5-0.9 0.3-0.4 0.5-0.7 0.5 0.1 1 0.2 0 0.4 0.1 0.9 0 0.5 0.1 1v0.1h0.1q0.7 0.2 1.4 0.5h0.1 0.1q0.3-0.4 0.6-0.7 0.4-0.4 0.7-0.7 0.4 0.2 0.9 0.4-0.1 0.5-0.1 1-0.1 0.5-0.2 0.9v0.1l0.1 0.1q0.7 0.4 1.3 0.8h0.1 0.1q0.4-0.3 0.8-0.6 0.4-0.2 0.8-0.5 0.3 0.3 0.8 0.7-0.2 0.4-0.4 0.8-0.2 0.5-0.3 0.9v0.1 0.1q0.6 0.5 1.1 1.1l0.1 0.1 0.1-0.1q0.4-0.1 0.9-0.3 0.4-0.2 0.8-0.3 0.4 0.4 0.7 0.8-0.3 0.3-0.5 0.7-0.3 0.4-0.6 0.8v0.1 0.1q0.5 0.6 0.8 1.3l0.1 0.1h0.1q0.5-0.1 0.9-0.2 0.5 0 1-0.1 0.2 0.5 0.4 0.9-0.3 0.4-0.6 0.7-0.4 0.3-0.7 0.6l-0.1 0.1v0.1q0.3 0.7 0.5 1.4l0.1 0.1 0.1 0.1q0.4 0 0.9 0 0.5 0.1 0.9 0.1 0.2 0.5 0.3 1-0.4 0.3-0.8 0.5-0.5 0.2-0.9 0.5v0.2q0.1 0.6 0.1 1.4v0.2h0.1q0.5 0.1 0.9 0.3 0.5 0.1 0.9 0.3zm-18.5-4.7l0.1 0.1q0.9 0.2 1.6 0.6l0.1 0.1 0.1-0.1q2.2-2.5 3.8-5.5l0.1-0.1-0.1-0.1q-2-1.3-4.3-1.8h-0.1l-0.1 0.1q-0.9 3.3-1.2 6.6zm-7.9-5l0.1 0.1q1.6 3 3.8 5.5l0.1 0.1 0.1-0.1q0.7-0.4 1.6-0.6h0.1v-0.2q-0.2-3.2-1.2-6.5v-0.2h-0.2q-2.3 0.5-4.3 1.8zm-5.1 7.8h0.1q3.3 1 6.6 1.3h0.1l0.1-0.2q0.2-0.8 0.6-1.6l0.1-0.1-0.1-0.1q-2.5-2.2-5.5-3.8h-0.1l-0.1 0.1q-1.3 2-1.8 4.2zm7.5 5.3l0.1-0.1-0.1-0.1q-0.4-0.7-0.6-1.6l-0.1-0.1h-0.1q-3.3 0.2-6.6 1.2l-0.1 0.1v0.1q0.5 2.3 1.8 4.3l0.1 0.1 0.1-0.1q2.9-1.6 5.5-3.8zm3.4 2.2h-0.1q-0.9-0.2-1.6-0.7l-0.1-0.1-0.1 0.2q-2.2 2.4-3.8 5.4l-0.1 0.2 0.2 0.1q1.9 1.3 4.2 1.7l0.2 0.1v-0.2q0.9-3.3 1.2-6.5zm3.8-2.5c1.4-1.5 1.4-3.9 0-5.4-0.7-0.7-1.7-1.1-2.7-1.1-1 0-2 0.4-2.7 1.1-0.7 0.8-1.1 1.7-1.1 2.7 0 1 0.4 2 1.1 2.7 0.7 0.7 1.7 1.1 2.7 1.1 1 0 2-0.4 2.7-1.1zm4.1 7.5l-0.1-0.2q-1.6-2.9-3.7-5.5l-0.1-0.1-0.2 0.1q-0.7 0.5-1.5 0.6l-0.2 0.1v0.1q0.2 3.3 1.2 6.6l0.1 0.1h0.1q2.3-0.5 4.3-1.8zm5.2-7.8h-0.2q-3.3-0.9-6.6-1.2h-0.1v0.1q-0.2 0.9-0.7 1.6l-0.1 0.1 0.1 0.1q2.5 2.2 5.5 3.8l0.2 0.1v-0.1q1.3-2 1.8-4.3zm0-4.6v-0.2q-0.5-2.3-1.8-4.2v-0.2l-0.2 0.1q-2.9 1.6-5.5 3.8l-0.1 0.1 0.1 0.1q0.5 0.8 0.6 1.6l0.1 0.1h0.1q3.3-0.2 6.6-1.2z"/>
		<path id="&lt;Compound Path&gt;" fill-rule="evenodd" class="s0" d="m549.2 218q0 0.3 0 0.6 0 0.3 0 0.5v0.1q-0.5 0.1-1 0.3-0.5 0.2-1 0.3l-0.1 0.1-0.1 0.1q0 0.9-0.1 1.7l-0.1 0.1h0.2q0.4 0.3 0.9 0.6 0.4 0.3 0.9 0.5-0.2 0.6-0.3 1.1-0.5 0.1-1 0.1-0.6 0.1-1.1 0.1l-0.1 0.1-0.1 0.1q-0.2 0.7-0.5 1.6l-0.1 0.1 0.1 0.1q0.4 0.3 0.8 0.7 0.4 0.4 0.8 0.7-0.3 0.6-0.5 1.1-0.5-0.1-1.1-0.2-0.5-0.1-1-0.1h-0.2v0.1q-0.5 0.7-0.9 1.4l-0.1 0.1 0.1 0.1q0.3 0.4 0.6 0.9 0.3 0.4 0.5 0.9-0.3 0.4-0.7 0.9-0.5-0.2-1-0.4-0.5-0.2-1-0.4h-0.1l-0.1 0.1q-0.5 0.6-1.1 1.2h-0.1v0.2q0.2 0.4 0.4 1 0.2 0.5 0.3 0.9-0.4 0.5-0.9 0.8-0.4-0.3-0.8-0.6-0.5-0.3-0.9-0.6l-0.1-0.1-0.1 0.1q-0.7 0.5-1.5 0.9l-0.1 0.1 0.1 0.1q0 0.5 0.1 1 0.1 0.6 0.1 1.1-0.5 0.2-1 0.5-0.3-0.4-0.7-0.8-0.4-0.4-0.8-0.7v-0.1h-0.2q-0.8 0.3-1.5 0.6h-0.2v0.1q0 0.5-0.1 1.1 0 0.5-0.1 1-0.5 0.2-1.1 0.3-0.3-0.4-0.5-0.9-0.3-0.5-0.6-0.9v-0.1h-0.2q-0.7 0.1-1.6 0.2h-0.2v0.1q-0.2 0.5-0.3 1-0.2 0.5-0.4 1-0.5 0-1.1 0-0.2-0.5-0.3-1-0.2-0.5-0.4-1v-0.1h-0.1q-0.9-0.1-1.7-0.2h-0.1l-0.1 0.1q-0.3 0.4-0.6 0.9-0.2 0.5-0.5 0.9-0.6-0.1-1.1-0.3-0.1-0.5-0.1-1 0-0.6-0.1-1.1v-0.1h-0.1q-0.8-0.3-1.6-0.6h-0.1-0.1q-0.4 0.4-0.8 0.8-0.3 0.4-0.7 0.8-0.5-0.3-1-0.5 0-0.5 0.1-1.1 0.1-0.5 0.2-1v-0.1l-0.1-0.1q-0.8-0.4-1.4-0.9l-0.2-0.1-0.1 0.1q-0.4 0.3-0.9 0.6-0.4 0.3-0.8 0.6-0.4-0.3-0.9-0.8 0.1-0.4 0.3-0.9 0.3-0.6 0.4-1l0.1-0.2h-0.1q-0.6-0.6-1.2-1.2l-0.1-0.1h-0.1q-0.5 0.2-1 0.4-0.5 0.2-1 0.4-0.4-0.5-0.7-0.9 0.3-0.5 0.6-0.9 0.3-0.5 0.5-0.9l0.1-0.1-0.1-0.1q-0.4-0.7-0.9-1.4v-0.1h-0.1q-0.5 0-1.1 0.1-0.5 0.1-1 0.2-0.3-0.5-0.5-1.1 0.3-0.3 0.7-0.7 0.4-0.4 0.8-0.7l0.1-0.1-0.1-0.1q-0.3-0.9-0.5-1.6l-0.1-0.1-0.1-0.1q-0.5 0-1-0.1-0.6 0-1.1-0.1-0.1-0.5-0.2-1.1 0.4-0.2 0.8-0.5 0.5-0.3 1-0.6h0.1v-0.1q-0.2-0.8-0.2-1.7v-0.1l-0.2-0.1q-0.4-0.1-1-0.3-0.5-0.2-1-0.3v-0.1q0-0.2 0-0.5 0-0.3 0-0.6 0.5-0.2 1-0.3 0.6-0.2 1-0.4h0.2v-0.1q0-0.9 0.2-1.7v-0.1l-0.1-0.1q-0.5-0.3-1-0.5-0.4-0.3-0.8-0.6 0.1-0.6 0.2-1.1 0.5 0 1.1-0.1 0.5 0 1-0.1h0.1l0.1-0.1q0.2-0.8 0.5-1.6l0.1-0.1-0.1-0.1q-0.4-0.4-0.8-0.7-0.4-0.4-0.7-0.8 0.2-0.5 0.5-1 0.5 0.1 1 0.1 0.6 0.1 1.1 0.2h0.1v-0.1q0.5-0.8 0.9-1.4l0.1-0.1-0.1-0.1q-0.2-0.5-0.5-0.9-0.3-0.5-0.6-0.9 0.3-0.4 0.7-0.9 0.5 0.2 1 0.4 0.5 0.2 1 0.3l0.1 0.1 0.1-0.1q0.6-0.6 1.2-1.2l0.1-0.1-0.1-0.1q-0.1-0.5-0.4-1-0.2-0.5-0.3-1 0.5-0.4 0.9-0.7 0.4 0.3 0.8 0.6 0.5 0.3 0.9 0.6h0.1 0.2q0.6-0.5 1.4-0.9l0.1-0.1v-0.1q-0.1-0.5-0.2-1.1-0.1-0.5-0.1-1 0.5-0.3 1-0.5 0.4 0.3 0.7 0.7 0.4 0.4 0.8 0.8l0.1 0.1h0.1q0.8-0.4 1.6-0.6h0.1v-0.2q0.1-0.5 0.1-1 0-0.6 0.1-1.1 0.5-0.1 1.1-0.2 0.3 0.4 0.5 0.9 0.3 0.5 0.6 0.9l0.1 0.1h0.1q0.8-0.1 1.7-0.2h0.1v-0.1q0.2-0.5 0.4-1 0.1-0.6 0.3-1 0.6-0.1 1.1 0 0.2 0.4 0.4 1 0.1 0.5 0.3 1v0.1h0.2q0.9 0.1 1.6 0.2h0.2v-0.1q0.3-0.4 0.6-0.9 0.2-0.5 0.5-0.9 0.6 0.1 1.1 0.2 0.1 0.5 0.1 1.1 0.1 0.5 0.1 1v0.2h0.2q0.7 0.2 1.5 0.6h0.2v-0.1q0.4-0.4 0.8-0.8 0.4-0.4 0.7-0.7 0.5 0.2 1 0.5 0 0.5-0.1 1-0.1 0.6-0.1 1.1l-0.1 0.1 0.1 0.1q0.8 0.4 1.5 0.9h0.1 0.1q0.4-0.3 0.9-0.6 0.4-0.3 0.8-0.6 0.5 0.3 0.9 0.7-0.1 0.5-0.3 1-0.2 0.5-0.4 1v0.1l0.1 0.1q0.6 0.6 1.1 1.2l0.1 0.1 0.1-0.1q0.5-0.1 1.1-0.3 0.5-0.2 0.9-0.4 0.4 0.5 0.7 0.9-0.2 0.4-0.5 0.9-0.3 0.4-0.6 0.9l-0.1 0.1 0.1 0.1q0.4 0.6 0.9 1.4v0.1h0.2q0.5-0.1 1-0.2 0.6 0 1.1-0.1 0.2 0.5 0.5 1-0.4 0.4-0.8 0.8-0.4 0.3-0.8 0.7l-0.1 0.1 0.1 0.1q0.3 0.8 0.5 1.6l0.1 0.1h0.1q0.5 0.1 1.1 0.1 0.5 0.1 1 0.1 0.1 0.5 0.3 1.1-0.5 0.3-0.9 0.6-0.5 0.2-0.9 0.5l-0.2 0.1 0.1 0.1q0.1 0.8 0.1 1.7l0.1 0.1h0.1q0.4 0.2 1 0.4 0.5 0.1 1 0.3zm-20.8-5.2h0.1q1 0.2 1.8 0.8h0.1l0.1-0.1c1.7-1.8 3.1-3.9 4.3-6.1l0.1-0.2-0.2-0.1q-2.2-1.5-4.7-2h-0.2l-0.1 0.1c-0.7 2.5-1.1 5-1.3 7.4zm-8.9-5.6l0.1 0.2c1.2 2.2 2.6 4.2 4.2 6.1l0.2 0.2 0.1-0.1q0.8-0.5 1.8-0.8h0.1v-0.2c-0.1-2.4-0.6-4.9-1.3-7.3l-0.1-0.2h-0.2q-2.5 0.6-4.8 2zm-5.8 8.8h0.2c2.5 0.7 4.9 1.2 7.4 1.4h0.1l0.1-0.2q0.2-0.9 0.7-1.7l0.1-0.2-0.1-0.1c-1.8-1.6-3.9-3.1-6.2-4.3h-0.1l-0.1 0.1q-1.5 2.2-2 4.8zm8.4 5.9l0.1-0.1-0.1-0.1q-0.5-0.8-0.7-1.8v-0.1h-0.2c-2.4 0.1-4.9 0.6-7.4 1.3l-0.1 0.1v0.2q0.5 2.5 2 4.7l0.1 0.2 0.1-0.1c2.2-1.2 4.3-2.6 6.2-4.3zm3.9 2.5h-0.2q-1-0.3-1.8-0.8l-0.1-0.1-0.1 0.1c-1.6 1.9-3.1 3.9-4.3 6.2l-0.1 0.2 0.2 0.1q2.2 1.4 4.8 2h0.1l0.1-0.2c0.7-2.4 1.1-4.9 1.3-7.3zm4.3-2.8c1.6-1.7 1.6-4.4 0-6-0.9-0.8-1.9-1.3-3.1-1.3-1.1 0-2.2 0.5-3 1.3-0.8 0.8-1.2 1.8-1.2 3 0 1.1 0.4 2.2 1.2 3 0.8 0.8 1.9 1.2 3 1.2 1.2 0 2.2-0.4 3.1-1.2zm4.6 8.4l-0.1-0.2c-1.2-2.2-2.6-4.3-4.2-6.2l-0.1-0.1-0.2 0.1q-0.8 0.5-1.7 0.7l-0.2 0.1v0.1c0.1 2.5 0.6 5 1.4 7.4v0.2l0.2-0.1q2.6-0.5 4.8-1.9zm5.8-8.8h-0.2c-2.4-0.7-4.9-1.2-7.4-1.4h-0.1l-0.1 0.1q-0.2 1-0.7 1.8l-0.1 0.2 0.1 0.1c1.8 1.6 3.9 3 6.2 4.2l0.1 0.1 0.1-0.1q1.5-2.2 2-4.8zm0.1-5.2l-0.1-0.2q-0.5-2.6-2-4.8l-0.1-0.1-0.1 0.1c-2.2 1.2-4.3 2.6-6.2 4.2l-0.1 0.1 0.1 0.2q0.5 0.8 0.7 1.7v0.2h0.2c2.4-0.1 4.9-0.6 7.4-1.4z"/>
		<path id="&lt;Compound Path&gt;" fill-rule="evenodd" class="s0" d="m529.2 596.8q0 0.2 0 0.5 0 0.3 0 0.6-0.5 0.2-1 0.3-0.5 0.2-1 0.4h-0.1v0.1q-0.1 0.9-0.2 1.7v0.1l0.1 0.1q0.4 0.3 0.9 0.5 0.5 0.3 0.9 0.6-0.1 0.6-0.3 1.1-0.5 0-1 0.1-0.6 0-1.1 0.1h-0.1v0.1q-0.3 0.8-0.6 1.6l-0.1 0.1 0.1 0.1q0.4 0.4 0.8 0.7 0.4 0.4 0.8 0.8-0.3 0.5-0.5 1-0.5-0.1-1.1-0.1-0.5-0.1-1-0.2h-0.2v0.1q-0.4 0.8-0.9 1.4l-0.1 0.1 0.1 0.1q0.3 0.5 0.6 0.9 0.3 0.5 0.5 0.9-0.3 0.4-0.7 0.9-0.4-0.2-0.9-0.4-0.6-0.2-1-0.3l-0.2-0.1-0.1 0.1q-0.5 0.6-1.1 1.2l-0.1 0.1v0.1q0.2 0.5 0.4 1 0.2 0.5 0.3 1-0.4 0.4-0.8 0.7-0.5-0.3-0.9-0.6-0.5-0.3-0.9-0.6h-0.1-0.1q-0.7 0.5-1.4 0.9l-0.2 0.1 0.1 0.1q0 0.5 0.1 1.1 0.1 0.5 0.1 1-0.5 0.3-1 0.5-0.3-0.3-0.7-0.7-0.4-0.5-0.8-0.8v-0.1h-0.2q-0.8 0.4-1.5 0.6h-0.2v0.2q0 0.5-0.1 1 0 0.6-0.1 1.1-0.5 0.1-1.1 0.2-0.2-0.4-0.5-0.9-0.3-0.5-0.6-0.9v-0.1h-0.2q-0.7 0.1-1.6 0.2h-0.2v0.1q-0.2 0.5-0.3 1-0.2 0.6-0.3 1h-0.1q-0.5 0.1-1.1 0-0.2-0.4-0.3-1-0.2-0.5-0.4-1v-0.1h-0.1q-0.9-0.1-1.7-0.2h-0.1l-0.1 0.1q-0.3 0.4-0.6 0.9-0.2 0.5-0.5 0.9-0.6-0.1-1.1-0.2-0.1-0.5-0.1-1.1 0-0.5-0.1-1v-0.2h-0.1q-0.8-0.2-1.6-0.6h-0.1l-0.1 0.1q-0.4 0.3-0.8 0.8-0.3 0.4-0.7 0.7-0.5-0.2-1-0.5 0-0.5 0.1-1 0.1-0.6 0.2-1.1v-0.1l-0.1-0.1q-0.8-0.4-1.4-0.9h-0.1-0.2q-0.4 0.3-0.9 0.6-0.4 0.3-0.8 0.6-0.4-0.3-0.9-0.7 0.2-0.5 0.4-1 0.2-0.5 0.3-1l0.1-0.1-0.1-0.1q-0.6-0.6-1.2-1.2l-0.1-0.1-0.1 0.1q-0.5 0.1-1 0.3-0.5 0.2-1 0.4-0.4-0.5-0.7-0.9 0.3-0.4 0.6-0.9 0.3-0.4 0.6-0.9v-0.1l-0.1-0.1q-0.4-0.6-0.8-1.4l-0.1-0.1h-0.1q-0.5 0.1-1.1 0.2-0.5 0-1 0.1-0.3-0.5-0.5-1 0.3-0.4 0.7-0.8 0.4-0.3 0.8-0.7l0.1-0.1-0.1-0.1q-0.3-0.8-0.5-1.6l-0.1-0.1h-0.1q-0.5-0.1-1-0.1-0.6-0.1-1.1-0.1-0.1-0.5-0.2-1.1 0.4-0.3 0.8-0.6 0.5-0.2 1-0.5l0.1-0.1v-0.1q-0.2-0.8-0.2-1.7v-0.1h-0.1q-0.5-0.2-1-0.4-0.6-0.1-1.1-0.3 0-0.3 0-0.6 0-0.3 0-0.5v-0.1q0.5-0.1 1.1-0.3 0.5-0.2 1-0.3l0.1-0.1v-0.1q0-0.9 0.2-1.7v-0.1h-0.1q-0.5-0.3-1-0.6-0.4-0.3-0.8-0.5 0.1-0.6 0.2-1.1 0.5-0.1 1.1-0.1 0.5-0.1 1-0.1l0.1-0.1 0.1-0.1q0.2-0.8 0.5-1.6l0.1-0.1-0.1-0.1q-0.4-0.3-0.8-0.7-0.4-0.4-0.7-0.7 0.2-0.6 0.5-1.1 0.5 0.1 1 0.2 0.6 0.1 1.1 0.1h0.1l0.1-0.1q0.4-0.7 0.8-1.4l0.1-0.1v-0.1q-0.3-0.4-0.6-0.9-0.3-0.4-0.6-0.9 0.3-0.4 0.7-0.9 0.5 0.2 1 0.4 0.5 0.2 1 0.4h0.1l0.1-0.1q0.6-0.6 1.2-1.2h0.1l-0.1-0.2q-0.1-0.4-0.3-1-0.2-0.5-0.4-0.9 0.5-0.5 0.9-0.8 0.4 0.3 0.9 0.6 0.4 0.3 0.8 0.6l0.2 0.1 0.1-0.1q0.6-0.5 1.4-0.9l0.1-0.1v-0.1q-0.1-0.5-0.2-1-0.1-0.6-0.1-1.1 0.5-0.2 1-0.5 0.4 0.4 0.7 0.8 0.4 0.4 0.8 0.7l0.1 0.1h0.1q0.8-0.3 1.6-0.6h0.1v-0.1q0.1-0.5 0.1-1.1 0-0.5 0.1-1 0.5-0.2 1.1-0.3 0.3 0.4 0.5 0.9 0.3 0.5 0.6 0.9l0.1 0.1h0.1q0.8-0.1 1.7-0.2h0.1v-0.1q0.2-0.5 0.4-1 0.1-0.5 0.3-1 0.6 0 1.1 0h0.1q0.1 0.5 0.3 1 0.1 0.5 0.3 1v0.1h0.2q0.9 0.1 1.6 0.2h0.2v-0.1q0.3-0.4 0.6-0.9 0.3-0.5 0.5-0.9 0.6 0.1 1.1 0.3 0.1 0.5 0.1 1 0.1 0.6 0.1 1.1v0.1h0.2q0.7 0.3 1.5 0.6h0.2v-0.1q0.4-0.3 0.8-0.7 0.4-0.4 0.7-0.8 0.5 0.3 1 0.5 0 0.5-0.1 1.1-0.1 0.5-0.1 1l-0.1 0.1 0.2 0.1q0.7 0.4 1.4 0.9l0.1 0.1 0.1-0.1q0.4-0.3 0.9-0.6 0.4-0.3 0.9-0.6 0.4 0.3 0.8 0.8-0.1 0.4-0.3 0.9-0.2 0.6-0.4 1v0.2h0.1q0.6 0.6 1.1 1.2l0.1 0.1h0.2q0.4-0.2 1-0.4 0.5-0.2 0.9-0.4 0.4 0.5 0.7 0.9-0.2 0.5-0.5 0.9-0.3 0.5-0.6 0.9l-0.1 0.1 0.1 0.1q0.5 0.7 0.9 1.4v0.1h0.2q0.5 0 1-0.1 0.6-0.1 1.1-0.2 0.2 0.5 0.5 1.1-0.4 0.3-0.8 0.7-0.4 0.4-0.8 0.7l-0.1 0.1 0.1 0.1q0.3 0.8 0.6 1.6v0.1l0.1 0.1q0.5 0 1.1 0.1 0.5 0 1 0.1 0.2 0.5 0.3 1.1-0.5 0.2-0.9 0.5-0.5 0.3-0.9 0.6h-0.1v0.1q0.1 0.8 0.2 1.7v0.1l0.1 0.1q0.5 0.1 1 0.3 0.5 0.2 1 0.3zm-20.8-5.2l0.1 0.1q1 0.2 1.8 0.7l0.1 0.1 0.1-0.1c1.7-1.9 3.1-3.9 4.3-6.2l0.1-0.2-0.2-0.1q-2.2-1.4-4.7-2h-0.2l-0.1 0.2c-0.7 2.4-1.1 4.9-1.3 7.4zm-8.9-5.7l0.1 0.2c1.2 2.2 2.6 4.3 4.3 6.2l0.1 0.1 0.1-0.1q0.8-0.5 1.8-0.7l0.1-0.1v-0.1c-0.1-2.5-0.6-4.9-1.3-7.4l-0.1-0.2-0.2 0.1q-2.5 0.5-4.7 1.9zm-5.8 8.8l0.1 0.1c2.5 0.6 4.9 1.1 7.4 1.3h0.2v-0.1q0.2-1 0.7-1.8l0.1-0.1-0.1-0.2c-1.8-1.6-3.9-3-6.2-4.2l-0.1-0.1-0.1 0.1q-1.5 2.3-2 4.8zm8.4 6l0.1-0.1-0.1-0.2q-0.5-0.8-0.7-1.7v-0.2h-0.2c-2.4 0.2-4.9 0.6-7.4 1.4h-0.1v0.2q0.5 2.6 2 4.8l0.1 0.1 0.1-0.1c2.2-1.2 4.3-2.6 6.2-4.2zm3.9 2.4h-0.2q-0.9-0.2-1.8-0.8h-0.1l-0.1 0.1c-1.6 1.8-3.1 3.9-4.3 6.1l-0.1 0.2 0.2 0.1q2.2 1.5 4.8 2h0.1l0.1-0.1c0.7-2.5 1.1-5 1.3-7.4zm4.3-2.8c1.6-1.6 1.6-4.3 0-6-0.8-0.8-1.9-1.2-3-1.2-1.2 0-2.3 0.4-3.1 1.2-0.8 0.8-1.2 1.9-1.2 3 0 1.2 0.4 2.2 1.2 3 0.8 0.8 1.9 1.3 3.1 1.3 1.1 0 2.2-0.5 3-1.3zm4.6 8.4l-0.1-0.2c-1.2-2.1-2.6-4.2-4.2-6.1l-0.1-0.1h-0.2q-0.8 0.6-1.7 0.8h-0.2v0.2c0.2 2.4 0.6 4.9 1.4 7.3v0.2h0.2q2.6-0.6 4.8-2zm5.8-8.8h-0.2c-2.4-0.7-4.9-1.2-7.4-1.4h-0.1l-0.1 0.2q-0.2 0.9-0.7 1.7l-0.1 0.2 0.1 0.1c1.9 1.6 3.9 3.1 6.2 4.3h0.2v-0.1q1.5-2.2 2-4.8zm0.1-5.2l-0.1-0.1q-0.5-2.6-2-4.8l-0.1-0.2-0.1 0.1c-2.2 1.2-4.3 2.7-6.2 4.3l-0.1 0.1 0.1 0.1q0.5 0.8 0.7 1.8l0.1 0.1h0.1c2.5-0.1 4.9-0.6 7.4-1.3z"/>
		<path id="&lt;Compound Path&gt;" fill-rule="evenodd" class="s0" d="m434.7 455.3q0.1 0.7 0.1 1.4 0 0.6-0.1 1.3v0.1c-0.7 0.2-1.6 0.5-2.4 0.8-0.9 0.2-1.7 0.5-2.4 0.8l-0.3 0.1-0.1 0.3c-0.1 1.4-0.2 2.8-0.4 4v0.3l0.2 0.2c0.7 0.4 1.5 0.9 2.3 1.3 0.7 0.5 1.4 0.9 2.1 1.3q-0.3 1.4-0.6 2.7c-0.8 0.1-1.7 0.2-2.5 0.2-0.9 0.1-1.8 0.2-2.6 0.3h-0.3l-0.1 0.3q-0.6 1.9-1.4 3.9l-0.1 0.2 0.2 0.3c0.6 0.5 1.3 1.1 1.9 1.8 0.7 0.5 1.3 1.1 1.8 1.7q-0.5 1.3-1.2 2.5c-0.8-0.1-1.6-0.2-2.5-0.3-0.9-0.2-1.7-0.3-2.5-0.4h-0.3l-0.2 0.2q-1 1.9-2.2 3.5l-0.1 0.2 0.1 0.3c0.5 0.7 1 1.4 1.5 2.2 0.4 0.7 0.9 1.4 1.4 2.1-0.6 0.7-1.1 1.4-1.8 2.2-0.7-0.3-1.6-0.6-2.4-0.9-0.8-0.3-1.6-0.7-2.4-0.9l-0.3-0.1-0.2 0.2q-1.4 1.5-2.9 2.9l-0.2 0.2 0.1 0.3c0.3 0.7 0.6 1.6 0.9 2.4 0.3 0.8 0.7 1.6 0.9 2.4-0.8 0.6-1.5 1.2-2.2 1.7-0.6-0.4-1.4-0.9-2.1-1.4-0.7-0.5-1.5-1-2.1-1.4l-0.3-0.2-0.3 0.2q-1.6 1.1-3.4 2.2l-0.3 0.1 0.1 0.3c0.1 0.8 0.2 1.7 0.3 2.6 0.1 0.8 0.3 1.7 0.4 2.5q-1.3 0.6-2.6 1.2c-0.5-0.6-1.1-1.2-1.7-1.8-0.6-0.7-1.2-1.3-1.8-1.9l-0.2-0.2-0.3 0.1q-2 0.8-3.8 1.4h-0.3l-0.1 0.3c-0.1 0.8-0.1 1.7-0.2 2.6-0.1 0.9-0.1 1.8-0.2 2.5q-1.3 0.4-2.7 0.7c-0.5-0.7-0.9-1.4-1.3-2.2-0.5-0.8-0.9-1.5-1.4-2.2l-0.1-0.3-0.3 0.1c-1.3 0.1-2.6 0.3-4.1 0.4h-0.3l-0.1 0.3c-0.2 0.8-0.5 1.6-0.8 2.4-0.2 0.9-0.5 1.7-0.8 2.5q-1.4 0-2.8 0c-0.3-0.8-0.5-1.6-0.8-2.5-0.3-0.8-0.5-1.6-0.8-2.4l-0.1-0.3h-0.3c-1.5-0.1-2.8-0.3-4-0.4l-0.3-0.1-0.2 0.3c-0.4 0.7-0.9 1.4-1.3 2.2-0.5 0.7-0.9 1.5-1.3 2.2q-1.5-0.3-2.7-0.7c-0.1-0.7-0.2-1.6-0.3-2.5 0-0.9-0.1-1.8-0.2-2.6v-0.3h-0.3q-1.9-0.6-3.9-1.4l-0.3-0.1-0.2 0.2c-0.6 0.6-1.2 1.2-1.8 1.9-0.6 0.6-1.2 1.2-1.7 1.8q-1.3-0.6-2.5-1.2c0.1-0.8 0.2-1.7 0.3-2.5 0.2-0.9 0.3-1.8 0.4-2.6v-0.3l-0.3-0.1q-1.8-1.1-3.4-2.2l-0.3-0.2-0.2 0.2c-0.7 0.4-1.5 0.9-2.2 1.4-0.7 0.5-1.4 1-2.1 1.4-0.7-0.5-1.4-1.1-2.2-1.7 0.3-0.8 0.6-1.6 0.9-2.4 0.3-0.8 0.7-1.7 0.9-2.4l0.1-0.3-0.2-0.2q-1.5-1.4-2.9-2.9l-0.2-0.2-0.3 0.1c-0.7 0.2-1.6 0.5-2.4 0.9-0.8 0.3-1.6 0.6-2.4 0.9-0.6-0.8-1.2-1.5-1.7-2.2 0.4-0.7 0.9-1.4 1.4-2.1 0.5-0.8 1-1.5 1.4-2.2l0.2-0.3-0.2-0.2q-1.1-1.6-2.2-3.5l-0.1-0.2h-0.3c-0.8 0.1-1.7 0.2-2.6 0.4-0.8 0.1-1.7 0.2-2.5 0.3q-0.6-1.2-1.2-2.5c0.5-0.6 1.2-1.2 1.8-1.7 0.7-0.6 1.3-1.3 1.9-1.8l0.2-0.3-0.1-0.2q-0.8-2-1.4-3.9l-0.1-0.3h-0.3c-0.8-0.1-1.6-0.2-2.5-0.3-0.9 0-1.8-0.1-2.6-0.2q-0.3-1.3-0.6-2.7c0.7-0.4 1.4-0.8 2.2-1.3 0.7-0.4 1.5-0.9 2.2-1.3l0.3-0.2-0.1-0.3c-0.2-1.2-0.3-2.6-0.4-4v-0.3l-0.3-0.1c-0.8-0.3-1.6-0.6-2.4-0.8-0.9-0.3-1.7-0.6-2.5-0.8v-0.1q0-0.7 0-1.3 0-0.7 0-1.4c0.8-0.3 1.6-0.6 2.4-0.8 0.9-0.3 1.7-0.6 2.5-0.8l0.3-0.1v-0.3c0.1-1.5 0.2-2.8 0.4-4.1l0.1-0.3-0.3-0.2c-0.7-0.4-1.5-0.8-2.2-1.3-0.8-0.4-1.5-0.9-2.2-1.3q0.3-1.4 0.6-2.7c0.8-0.1 1.7-0.2 2.6-0.2 0.9-0.1 1.7-0.2 2.5-0.2l0.3-0.1 0.1-0.3q0.6-1.9 1.4-3.8l0.1-0.3-0.2-0.2c-0.6-0.6-1.2-1.2-1.9-1.8-0.6-0.6-1.3-1.2-1.8-1.8q0.6-1.2 1.2-2.5c0.8 0.1 1.7 0.2 2.5 0.4 0.9 0.1 1.8 0.2 2.6 0.3l0.3 0.1 0.1-0.3q1.1-1.8 2.2-3.5l0.2-0.2-0.2-0.3c-0.4-0.7-0.9-1.4-1.4-2.1-0.5-0.8-1-1.5-1.4-2.2 0.5-0.6 1.1-1.3 1.7-2.1 0.8 0.2 1.6 0.6 2.4 0.9 0.8 0.3 1.7 0.6 2.4 0.9l0.3 0.1 0.2-0.3q1.4-1.5 2.9-2.8l0.2-0.2-0.1-0.3c-0.2-0.8-0.6-1.6-0.9-2.5-0.3-0.8-0.6-1.6-0.9-2.3 0.8-0.7 1.5-1.3 2.2-1.8 0.7 0.4 1.4 0.9 2.1 1.4 0.7 0.5 1.5 1 2.2 1.5l0.2 0.1 0.3-0.2q1.6-1.1 3.4-2.1l0.3-0.2v-0.3c-0.1-0.8-0.2-1.7-0.4-2.5-0.1-0.9-0.2-1.8-0.3-2.6q1.2-0.6 2.5-1.2c0.5 0.6 1.1 1.2 1.7 1.8 0.6 0.7 1.2 1.4 1.8 1.9l0.2 0.2 0.3-0.1q2-0.7 3.9-1.3l0.3-0.1v-0.3c0.1-0.8 0.2-1.7 0.2-2.6 0.1-0.8 0.2-1.7 0.3-2.5q1.2-0.3 2.7-0.6c0.4 0.6 0.8 1.4 1.2 2.1 0.5 0.8 1 1.6 1.4 2.3l0.2 0.2h0.3c1.2-0.2 2.5-0.4 4-0.5h0.3l0.1-0.3c0.3-0.7 0.5-1.6 0.8-2.4 0.3-0.8 0.5-1.7 0.8-2.4q1.4-0.1 2.8 0c0.3 0.7 0.6 1.6 0.8 2.4 0.3 0.8 0.6 1.7 0.8 2.4l0.1 0.3h0.3c1.5 0.1 2.8 0.3 4.1 0.5h0.3l0.1-0.2c0.5-0.7 0.9-1.5 1.4-2.3 0.4-0.7 0.8-1.5 1.3-2.1q1.4 0.3 2.7 0.6c0.1 0.8 0.1 1.7 0.2 2.5 0.1 0.9 0.1 1.8 0.2 2.6l0.1 0.3 0.3 0.1q1.8 0.6 3.8 1.3l0.3 0.1 0.2-0.2c0.6-0.5 1.2-1.2 1.8-1.9 0.6-0.6 1.2-1.2 1.7-1.8q1.3 0.6 2.6 1.2c-0.1 0.8-0.3 1.7-0.4 2.6-0.1 0.8-0.2 1.7-0.3 2.5l-0.1 0.3 0.3 0.2q1.8 1 3.5 2.1l0.2 0.2 0.3-0.1c0.6-0.5 1.4-1 2.1-1.5 0.7-0.5 1.5-1 2.1-1.4 0.7 0.5 1.4 1.1 2.2 1.8-0.2 0.7-0.6 1.5-0.9 2.3-0.3 0.9-0.6 1.7-0.9 2.5l-0.1 0.3 0.2 0.2q1.5 1.4 2.9 2.8l0.2 0.3 0.3-0.1c0.8-0.3 1.6-0.6 2.5-0.9 0.7-0.4 1.6-0.7 2.3-0.9 0.7 0.8 1.2 1.5 1.8 2.1-0.5 0.7-1 1.4-1.4 2.1-0.5 0.8-1 1.5-1.5 2.2l-0.1 0.3 0.1 0.2q1.2 1.7 2.2 3.5l0.2 0.3 0.3-0.1c0.8-0.1 1.6-0.2 2.5-0.3 0.9-0.2 1.7-0.3 2.5-0.4q0.7 1.3 1.3 2.5c-0.6 0.6-1.2 1.2-1.9 1.8-0.6 0.6-1.3 1.2-1.9 1.8l-0.2 0.2 0.1 0.3q0.8 1.9 1.4 3.8l0.1 0.3 0.3 0.1c0.8 0 1.7 0.1 2.5 0.2 0.9 0 1.8 0.1 2.6 0.2q0.3 1.3 0.6 2.7c-0.7 0.4-1.4 0.9-2.1 1.3-0.8 0.5-1.6 0.9-2.3 1.3l-0.2 0.2v0.3c0.2 1.3 0.3 2.6 0.4 4.1l0.1 0.3 0.3 0.1c0.7 0.2 1.5 0.5 2.4 0.8 0.8 0.2 1.7 0.5 2.4 0.8zm-50.5-12.7l0.4 0.1q2.3 0.5 4.3 1.8l0.4 0.2 0.2-0.3c4-4.4 7.4-9.4 10.4-15l0.1-0.3-0.3-0.3c-3.6-2.3-7.5-3.9-11.6-4.8l-0.4-0.1-0.1 0.4c-1.7 6-2.8 12-3.3 17.9zm-21.6-13.6l0.2 0.4c3 5.3 6.5 10.3 10.4 14.9l0.2 0.3 0.4-0.2q2-1.2 4.3-1.7l0.3-0.1v-0.4c-0.3-5.9-1.4-12-3.2-17.9l-0.2-0.4-0.4 0.1c-4.1 0.8-8 2.4-11.6 4.8zm-14.1 21.2l0.4 0.1c6 1.7 12 2.8 17.9 3.3h0.4l0.1-0.3q0.5-2.3 1.8-4.3l0.2-0.4-0.3-0.2c-4.4-4-9.4-7.5-14.9-10.4l-0.4-0.2-0.2 0.4c-2.4 3.5-4 7.4-4.9 11.6zm20.4 14.4l0.3-0.2-0.2-0.4q-1.2-2-1.8-4.3v-0.4l-0.4 0.1c-5.9 0.3-12 1.4-17.9 3.2l-0.4 0.2 0.1 0.4c0.8 4.1 2.4 8 4.8 11.6l0.2 0.4 0.4-0.3c5.3-2.9 10.3-6.4 14.9-10.3zm9.4 5.9h-0.4q-2.3-0.6-4.3-1.8l-0.3-0.3-0.3 0.3c-4 4.5-7.4 9.5-10.3 15l-0.2 0.4 0.3 0.2c3.6 2.4 7.5 4 11.6 4.8l0.4 0.1 0.2-0.4c1.6-5.9 2.7-11.9 3.2-17.9zm10.3-6.7c4-4 4-10.5 0-14.5-2-2-4.6-3.1-7.3-3.1-2.8 0-5.4 1.1-7.3 3.1-2 1.9-3.1 4.5-3 7.2 0 2.8 1 5.4 3 7.3 1.9 2 4.5 3.1 7.3 3.1 2.7 0 5.3-1.1 7.3-3.1zm11.3 20.3l-0.2-0.3c-3-5.3-6.5-10.4-10.4-15l-0.2-0.3-0.4 0.2q-2 1.3-4.3 1.8l-0.3 0.1v0.4c0.3 5.9 1.4 11.9 3.3 17.9l0.1 0.4 0.4-0.1c4.1-0.9 8-2.5 11.6-4.8zm14.1-21.3l-0.4-0.1c-6-1.7-12-2.8-17.9-3.3h-0.4l-0.1 0.4q-0.5 2.3-1.8 4.3l-0.2 0.3 0.3 0.3c4.4 3.9 9.4 7.4 15 10.3l0.3 0.2 0.3-0.3c2.3-3.6 3.9-7.5 4.8-11.6zm0-12.6l-0.1-0.4c-0.8-4.2-2.4-8.1-4.7-11.7l-0.3-0.3-0.4 0.2c-5.3 3-10.3 6.4-14.9 10.3l-0.3 0.3 0.2 0.3q1.2 2 1.8 4.3v0.4h0.4c6-0.4 12-1.5 17.9-3.3z"/>
		<path id="&lt;Compound Path&gt;" fill-rule="evenodd" class="s0" d="m596.5 434.8q0 0.3 0 0.6 0 0.3 0 0.6-0.5 0.2-1.1 0.4-0.6 0.2-1.1 0.3l-0.1 0.1v0.1q-0.1 1-0.2 1.9v0.1l0.1 0.1q0.5 0.3 1 0.6 0.5 0.3 1 0.6-0.2 0.6-0.3 1.2-0.6 0.1-1.2 0.1-0.6 0-1.1 0.1h-0.2v0.1q-0.3 0.9-0.6 1.8l-0.1 0.1 0.1 0.1q0.4 0.4 0.9 0.8 0.4 0.4 0.8 0.8-0.3 0.6-0.5 1.2-0.6-0.1-1.2-0.2-0.6-0.1-1.2-0.1l-0.1-0.1-0.1 0.2q-0.4 0.8-0.9 1.5l-0.1 0.1v0.2q0.4 0.4 0.7 1 0.3 0.4 0.6 0.9-0.3 0.5-0.8 1-0.5-0.2-1-0.4-0.6-0.2-1.1-0.4l-0.2-0.1-0.1 0.1q-0.6 0.7-1.3 1.3l-0.1 0.1 0.1 0.2q0.2 0.5 0.4 1.1 0.2 0.5 0.4 1-0.5 0.5-1 0.8-0.5-0.3-1-0.6-0.5-0.3-0.9-0.6l-0.2-0.1-0.1 0.1q-0.7 0.5-1.5 0.9l-0.2 0.1 0.1 0.2q0 0.5 0.1 1.1 0.1 0.6 0.2 1.2-0.6 0.2-1.2 0.5-0.4-0.4-0.8-0.8-0.4-0.5-0.8-0.9l-0.1-0.1-0.1 0.1q-0.9 0.3-1.8 0.6h-0.1v0.2q-0.1 0.5-0.1 1.1-0.1 0.6-0.1 1.2-0.6 0.1-1.2 0.3-0.3-0.5-0.6-1-0.3-0.5-0.6-1l-0.1-0.1h-0.1q-0.9 0.1-1.9 0.2h-0.1l-0.1 0.1q-0.2 0.5-0.3 1.1-0.2 0.6-0.4 1.1-0.6 0.1-1.3 0-0.2-0.5-0.3-1.1-0.2-0.6-0.4-1.1v-0.1h-0.2q-1-0.1-1.8-0.2h-0.2v0.1q-0.3 0.5-0.6 1-0.3 0.5-0.6 1-0.7-0.2-1.3-0.3 0-0.6-0.1-1.2 0-0.6-0.1-1.1v-0.2h-0.1q-0.9-0.3-1.8-0.6l-0.1-0.1-0.1 0.1q-0.4 0.4-0.8 0.9-0.4 0.4-0.8 0.8-0.6-0.3-1.1-0.5 0-0.6 0.1-1.2 0.1-0.6 0.2-1.2v-0.1l-0.1-0.1q-0.8-0.4-1.6-0.9l-0.1-0.1-0.1 0.1q-0.5 0.3-1 0.6-0.5 0.3-1 0.6-0.4-0.3-1-0.8 0.2-0.5 0.4-1 0.3-0.6 0.5-1.1v-0.2l-0.1-0.1q-0.7-0.6-1.3-1.3l-0.1-0.1-0.1 0.1q-0.6 0.2-1.1 0.4-0.6 0.2-1.1 0.4-0.5-0.5-0.8-1 0.3-0.5 0.6-0.9 0.4-0.6 0.7-1l0.1-0.2-0.1-0.1q-0.5-0.7-1-1.5l-0.1-0.2-0.1 0.1q-0.6 0-1.2 0.1-0.6 0.1-1.1 0.2-0.3-0.6-0.6-1.2 0.4-0.4 0.8-0.8 0.5-0.4 0.9-0.8l0.1-0.1v-0.1q-0.4-0.9-0.7-1.8v-0.1h-0.1q-0.6-0.1-1.2-0.1-0.6 0-1.2-0.1-0.1-0.6-0.2-1.2 0.4-0.3 0.9-0.6 0.6-0.3 1.1-0.6l0.1-0.1v-0.1q-0.2-0.9-0.2-1.9l-0.1-0.1-0.1-0.1q-0.5-0.1-1.1-0.3-0.6-0.2-1.1-0.4 0-0.3 0-0.6 0-0.3 0-0.6v-0.1q0.5-0.2 1.1-0.3 0.6-0.2 1.1-0.4h0.1l0.1-0.2q0-1 0.2-1.8v-0.2h-0.1q-0.5-0.3-1.1-0.6-0.5-0.3-0.9-0.6 0.1-0.7 0.2-1.3 0.6 0 1.2-0.1 0.6 0 1.2-0.1h0.1v-0.1q0.3-0.9 0.7-1.8v-0.1l-0.1-0.1q-0.4-0.4-0.9-0.8-0.4-0.4-0.8-0.8 0.3-0.6 0.6-1.1 0.5 0 1.1 0.1 0.6 0.1 1.2 0.2h0.1l0.1-0.1q0.5-0.9 1-1.6l0.1-0.1-0.1-0.1q-0.3-0.5-0.7-1-0.3-0.5-0.6-1 0.3-0.4 0.8-1 0.5 0.2 1.1 0.4 0.5 0.3 1.1 0.5h0.1l0.1-0.1q0.6-0.7 1.3-1.3l0.1-0.1v-0.1q-0.2-0.6-0.5-1.1-0.2-0.6-0.4-1.1 0.6-0.5 1-0.8 0.5 0.3 1 0.6 0.5 0.4 1 0.7l0.1 0.1 0.1-0.1q0.7-0.5 1.6-1l0.1-0.1v-0.1q-0.1-0.6-0.2-1.2-0.1-0.6-0.1-1.1 0.5-0.3 1.1-0.6 0.4 0.4 0.8 0.8 0.4 0.5 0.8 0.9l0.1 0.1h0.1q0.9-0.4 1.8-0.7h0.1v-0.1q0.1-0.6 0.1-1.2 0.1-0.6 0.1-1.2 0.6-0.1 1.3-0.2 0.3 0.4 0.6 0.9 0.3 0.6 0.6 1.1v0.1h0.2q0.8-0.2 1.8-0.2l0.2-0.1v-0.1q0.2-0.5 0.4-1.1 0.1-0.6 0.3-1.1 0.7 0 1.3 0 0.2 0.5 0.4 1.1 0.1 0.6 0.3 1.1l0.1 0.1 0.1 0.1q1 0 1.9 0.2h0.1l0.1-0.1q0.3-0.5 0.6-1.1 0.3-0.5 0.6-0.9 0.6 0.1 1.2 0.2 0 0.6 0.1 1.2 0 0.6 0.1 1.2v0.1h0.1q0.9 0.3 1.8 0.7h0.1l0.1-0.1q0.4-0.4 0.8-0.9 0.4-0.4 0.8-0.8 0.6 0.3 1.2 0.6-0.1 0.5-0.2 1.1-0.1 0.6-0.1 1.2l-0.1 0.1 0.2 0.1q0.8 0.5 1.5 1l0.1 0.1 0.2-0.1q0.4-0.3 0.9-0.7 0.5-0.3 1-0.6 0.5 0.3 1 0.8-0.2 0.5-0.4 1.1-0.2 0.5-0.4 1.1l-0.1 0.1 0.1 0.1q0.7 0.6 1.3 1.3l0.1 0.1h0.2q0.5-0.2 1.1-0.5 0.5-0.2 1-0.4 0.5 0.6 0.8 1-0.3 0.5-0.6 1-0.3 0.5-0.7 1v0.1l0.1 0.1q0.5 0.8 0.9 1.6l0.1 0.1h0.1q0.6-0.1 1.2-0.2 0.6-0.1 1.2-0.1 0.2 0.5 0.5 1.1-0.4 0.4-0.8 0.8-0.5 0.4-0.9 0.8l-0.1 0.1 0.1 0.1q0.3 0.9 0.6 1.8v0.1h0.2q0.5 0.1 1.1 0.1 0.6 0.1 1.2 0.1 0.1 0.6 0.3 1.3-0.5 0.3-1 0.6-0.5 0.3-1 0.6h-0.1v0.2q0.1 0.8 0.2 1.8v0.2h0.1q0.5 0.2 1.1 0.4 0.6 0.1 1.1 0.3zm-22.9-5.7h0.2q1 0.3 1.9 0.8l0.2 0.1 0.1-0.1c1.8-2 3.4-4.3 4.7-6.8l0.1-0.2-0.2-0.1q-2.4-1.6-5.3-2.2h-0.1l-0.1 0.2c-0.8 2.7-1.3 5.4-1.5 8.1zm-9.8-6.2l0.1 0.2c1.4 2.4 2.9 4.7 4.7 6.8l0.1 0.1 0.2-0.1q0.9-0.5 1.9-0.8h0.2v-0.2c-0.2-2.7-0.7-5.4-1.5-8.1v-0.2h-0.2q-2.9 0.6-5.3 2.2zm-6.4 9.7h0.2c2.7 0.8 5.4 1.3 8.1 1.5h0.2v-0.2q0.3-1 0.8-1.9l0.1-0.2-0.1-0.1c-2-1.8-4.3-3.3-6.8-4.7l-0.2-0.1-0.1 0.2q-1.6 2.4-2.2 5.3zm9.3 6.5l0.1-0.1-0.1-0.1q-0.5-1-0.8-2v-0.2h-0.2c-2.7 0.2-5.4 0.7-8.1 1.5l-0.2 0.1 0.1 0.2q0.5 2.8 2.1 5.3l0.1 0.1 0.2-0.1c2.4-1.3 4.7-2.9 6.8-4.7zm4.3 2.7h-0.2q-1.1-0.3-2-0.8l-0.1-0.1-0.1 0.1c-1.8 2-3.4 4.3-4.7 6.8l-0.1 0.2 0.1 0.1q2.5 1.6 5.3 2.2h0.2v-0.2c0.8-2.7 1.3-5.4 1.5-8.1zm4.7-3c1.8-1.9 1.8-4.8 0-6.7-0.9-0.9-2.1-1.3-3.3-1.3-1.3 0-2.5 0.4-3.3 1.3-0.9 0.9-1.4 2.1-1.4 3.3 0 1.3 0.5 2.5 1.4 3.4 0.8 0.8 2 1.3 3.3 1.3 1.2 0 2.4-0.5 3.3-1.3zm5.1 9.2l-0.1-0.2c-1.3-2.4-2.9-4.7-4.7-6.8l-0.1-0.1-0.1 0.1q-1 0.5-2 0.8h-0.2v0.2c0.2 2.7 0.7 5.4 1.5 8.1l0.1 0.2h0.2q2.8-0.6 5.3-2.2zm6.4-9.7h-0.2c-2.7-0.8-5.5-1.3-8.2-1.5h-0.1l-0.1 0.1q-0.2 1.1-0.8 2l-0.1 0.2 0.1 0.1c2 1.8 4.3 3.3 6.8 4.7l0.2 0.1 0.1-0.2q1.6-2.4 2.2-5.3zm0-5.7v-0.2q-0.6-2.8-2.2-5.3l-0.1-0.1-0.2 0.1c-2.4 1.3-4.7 2.9-6.8 4.7l-0.1 0.1 0.1 0.1q0.6 1 0.8 2v0.2h0.2c2.7-0.2 5.4-0.7 8.1-1.5z"/>
		<path id="&lt;Compound Path&gt;" fill-rule="evenodd" class="s0" d="m557.5 478.2q0 0.9 0 1.8 0 0.9 0 1.9c-1.2 0.4-2.6 0.8-4 1.2-1.8 0.6-3.6 1.1-5 1.7l-0.3 0.1v0.3c-0.1 1.3-0.3 2.6-0.6 4v0.3l0.2 0.2c1.2 0.9 2.9 2 4.5 3.1 1.1 0.8 2.3 1.5 3.3 2.2q-0.4 1.7-1 3.5c-1.3 0.1-2.7 0.1-4.1 0.1-1.9 0-3.9 0.1-5.4 0.2l-0.3 0.1-0.1 0.2q-0.7 1.9-1.6 3.7l-0.2 0.2 0.2 0.3c0.8 1.2 2.1 2.8 3.4 4.2 0.9 1.1 1.8 2.2 2.5 3.1q-0.9 1.6-1.9 3.1c-1.2-0.3-2.6-0.7-4-1.1-1.8-0.5-3.7-1-5.2-1.3h-0.3l-0.2 0.2q-1.2 1.5-2.6 3l-0.2 0.2 0.1 0.3c0.5 1.5 1.3 3.3 2.1 5 0.5 1.3 1.1 2.6 1.5 3.7q-1.3 1.3-2.7 2.4c-1.1-0.6-2.3-1.3-3.5-2.1-1.6-1-3.3-2.1-4.6-2.7l-0.3-0.2-0.2 0.2q-1.7 1.2-3.4 2.2l-0.2 0.1v0.3c0 1.5 0.3 3.5 0.5 5.4 0.2 1.4 0.4 2.8 0.5 4q-1.7 0.9-3.3 1.5c-0.8-0.8-1.8-1.9-2.7-2.9-1.3-1.5-2.6-3-3.7-4l-0.2-0.2-0.3 0.1c-1.4 0.4-2.6 0.8-3.8 1.1l-0.3 0.1-0.1 0.3c-0.4 1.4-0.7 3.4-1 5.2-0.2 1.4-0.4 2.8-0.7 4.1q-1.9 0.3-3.6 0.5c-0.5-1.1-1.1-2.3-1.7-3.6-0.8-1.7-1.7-3.6-2.5-4.9l-0.1-0.2h-0.3q-2 0.1-4.1 0h-0.2l-0.2 0.2c-0.8 1.3-1.7 3.2-2.5 4.9-0.6 1.3-1.2 2.5-1.7 3.6q-1.7-0.2-3.6-0.5c-0.3-1.3-0.5-2.7-0.7-4.1-0.3-1.8-0.6-3.8-1-5.2l-0.1-0.3-0.2-0.1c-1.3-0.3-2.5-0.7-3.9-1.1l-0.2-0.1-0.3 0.2c-1.1 1-2.4 2.5-3.7 4-0.9 1-1.8 2.1-2.7 2.9q-1.6-0.7-3.3-1.5c0.1-1.2 0.3-2.6 0.5-4 0.3-1.9 0.5-3.9 0.5-5.4l0.1-0.3-0.3-0.1q-1.7-1-3.3-2.2l-0.3-0.2-0.3 0.2c-1.3 0.6-3 1.7-4.6 2.7-1.2 0.8-2.4 1.5-3.5 2.1q-1.4-1.1-2.7-2.4c0.4-1.1 1-2.4 1.6-3.7 0.7-1.7 1.6-3.5 2-5l0.1-0.3-0.2-0.2q-1.4-1.5-2.6-3l-0.2-0.2h-0.3c-1.5 0.3-3.4 0.8-5.2 1.3-1.4 0.4-2.7 0.8-3.9 1.1q-1.1-1.6-2-3.1c0.7-0.9 1.7-2 2.5-3.1 1.3-1.4 2.6-3 3.4-4.2l0.2-0.3-0.1-0.2q-1-1.9-1.7-3.7l-0.1-0.2-0.3-0.1c-1.5-0.2-3.5-0.2-5.4-0.2-1.4 0-2.8 0-4-0.1q-0.6-1.8-1.1-3.5c1-0.7 2.2-1.5 3.3-2.2 1.7-1.1 3.3-2.2 4.5-3.1l0.2-0.2v-0.3c-0.3-1.4-0.5-2.7-0.6-4v-0.3l-0.3-0.1c-1.4-0.6-3.2-1.1-5-1.7-1.4-0.4-2.8-0.8-3.9-1.2q-0.1-1-0.1-1.9 0-0.9 0.1-1.8c1.1-0.5 2.5-0.9 3.9-1.3 1.8-0.5 3.6-1.1 5-1.7l0.3-0.1v-0.3c0.1-1.2 0.3-2.5 0.6-3.9v-0.3l-0.2-0.2c-1.2-1-2.8-2.1-4.5-3.2-1.1-0.7-2.3-1.5-3.3-2.2q0.5-1.6 1.1-3.5c1.2-0.1 2.6-0.1 4-0.1 1.9 0 3.9 0 5.4-0.2h0.3l0.1-0.3q0.7-1.8 1.7-3.6l0.1-0.3-0.2-0.2c-0.8-1.3-2.1-2.8-3.3-4.3-0.9-1-1.9-2.1-2.6-3.1q0.9-1.5 2-3c1.2 0.2 2.5 0.6 3.9 1 1.8 0.5 3.7 1.1 5.2 1.3l0.3 0.1 0.2-0.3q1.2-1.5 2.6-3l0.2-0.2-0.1-0.3c-0.4-1.4-1.3-3.2-2-5-0.6-1.2-1.2-2.5-1.6-3.7q1.3-1.2 2.7-2.4c1.1 0.6 2.3 1.4 3.5 2.1 1.6 1.1 3.3 2.1 4.7 2.8l0.2 0.1 0.3-0.2q1.6-1.1 3.3-2.1l0.3-0.2v-0.3c-0.1-1.5-0.3-3.4-0.6-5.3-0.2-1.4-0.4-2.8-0.5-4.1q1.7-0.8 3.3-1.5c0.9 0.9 1.8 1.9 2.7 3 1.3 1.4 2.6 2.9 3.7 3.9l0.3 0.2h0.2c1.4-0.5 2.6-0.9 3.9-1.2h0.2l0.1-0.3c0.4-1.5 0.7-3.4 1-5.3 0.2-1.4 0.4-2.8 0.7-4q1.9-0.4 3.6-0.6c0.5 1.1 1.1 2.4 1.7 3.6 0.8 1.8 1.7 3.6 2.5 4.9l0.2 0.3h0.2q2.1-0.1 4.1 0h0.3l0.1-0.3c0.8-1.3 1.7-3.1 2.5-4.9 0.6-1.2 1.2-2.5 1.7-3.6q1.7 0.2 3.6 0.6c0.3 1.2 0.5 2.6 0.7 4 0.3 1.9 0.6 3.8 1 5.3l0.1 0.3h0.3c1.2 0.3 2.4 0.7 3.8 1.2h0.3l0.2-0.2c1.1-1 2.4-2.5 3.7-3.9 0.9-1 1.9-2.1 2.7-3q1.6 0.7 3.3 1.5c-0.1 1.3-0.3 2.7-0.5 4.1-0.2 1.9-0.5 3.8-0.5 5.3v0.3l0.2 0.2q1.7 1 3.4 2.1l0.2 0.2 0.3-0.1c1.3-0.7 3-1.7 4.6-2.8 1.2-0.7 2.4-1.5 3.5-2.1q1.4 1.2 2.7 2.4c-0.4 1.2-1 2.5-1.5 3.7-0.8 1.8-1.6 3.6-2.1 5l-0.1 0.3 0.2 0.2q1.4 1.5 2.6 3l0.2 0.3 0.3-0.1c1.5-0.2 3.4-0.8 5.2-1.3 1.4-0.4 2.8-0.8 4-1q1 1.5 1.9 3c-0.7 1-1.6 2.1-2.5 3.1-1.3 1.5-2.6 3-3.4 4.3l-0.2 0.2 0.2 0.3q0.9 1.8 1.6 3.6l0.1 0.3h0.3c1.5 0.2 3.5 0.2 5.4 0.2 1.4 0 2.8 0 4.1 0.1q0.6 1.9 1 3.5c-1 0.7-2.2 1.5-3.3 2.2-1.6 1.1-3.3 2.2-4.5 3.2l-0.2 0.2v0.3c0.3 1.4 0.5 2.7 0.6 3.9v0.3l0.3 0.1c1.4 0.6 3.2 1.2 5 1.7 1.4 0.4 2.8 0.8 4 1.3zm-61.4-14.3l-0.2 0.6h0.7q0.8-0.1 1.5-0.1 2.7 0 5.3 1l0.3 0.1 0.2-0.2c6.3-6 17.6-12.9 25.6-13.9l0.9-0.2-0.6-0.7c-4.4-4.6-9.8-8.4-15.7-10.7l-0.2-0.1-0.2 0.1c-6.8 3.3-15 12.6-17.6 24.1zm7.3 10.8c-1.4-1.4-3.3-2.2-5.3-2.2-2.1 0-4 0.8-5.4 2.2-2.9 2.9-2.9 7.7 0 10.7 1.4 1.4 3.3 2.2 5.4 2.2 2 0 3.9-0.8 5.3-2.2 1.4-1.5 2.2-3.4 2.2-5.4 0-2-0.8-3.9-2.2-5.3zm-18.2-4.7l0.4 0.6 0.5-0.5c1.4-1.8 3.3-3.2 5.4-4.2l0.2-0.1 0.1-0.4c0.2-8.7 3.3-21.5 8.2-27.8l0.6-0.8h-1q-0.8-0.1-1.5-0.1c-6 0-11.7 1.2-17.2 3.5l-0.2 0.1v0.2c-2.5 7.1-1.7 19.5 4.5 29.5zm-27.5-5.8l0.1 0.2c3.3 6.8 12.6 15 24.1 17.6l0.7 0.2-0.1-0.7q0-0.7-0.1-1.5 0.1-2.7 1-5.3l0.1-0.3-0.2-0.2c-6-6.3-12.8-17.6-13.9-25.6l-0.1-0.9-0.7 0.6c-4.7 4.4-8.4 9.8-10.8 15.7zm9.6 34.5c7.2 0 14.8-2.1 20.7-5.9l0.6-0.3-0.5-0.5c-1.8-1.4-3.2-3.3-4.2-5.4l-0.1-0.3h-0.3c-8.7-0.2-21.5-3.4-27.9-8.2l-0.8-0.6v1.1q-0.1 0.7-0.1 1.4c0 6 1.2 11.7 3.6 17.1v0.2l0.2 0.1c2.5 0.9 5.5 1.3 8.8 1.3zm32.7-2.5l0.2-0.7-0.7 0.1c-2.2 0.2-4.6-0.1-6.8-0.9l-0.3-0.1-0.2 0.2c-6.3 6-17.6 12.8-25.6 13.9l-0.9 0.1 0.6 0.7c4.4 4.7 9.8 8.4 15.7 10.7l0.2 0.1 0.2-0.1c6.8-3.2 15-12.5 17.6-24zm10.9-6.2l-0.4-0.6-0.4 0.6c-1.5 1.7-3.4 3.2-5.5 4.1l-0.2 0.2-0.1 0.3c-0.2 8.7-3.3 21.5-8.2 27.9l-0.6 0.7 1.1 0.1q0.7 0 1.4 0c6 0 11.7-1.2 17.2-3.5l0.2-0.1v-0.2c2.5-7.1 1.7-19.5-4.5-29.5zm27.5 5.8l-0.1-0.2c-3.3-6.7-12.6-14.9-24.1-17.6l-0.7-0.1 0.1 0.7c0 0.5 0.1 1 0.1 1.4q0 2.7-1 5.3l-0.1 0.3 0.2 0.3c6 6.3 12.8 17.6 13.9 25.5l0.1 1 0.7-0.7c4.7-4.3 8.4-9.7 10.8-15.7zm3-15.8c0-5.9-1.2-11.7-3.6-17.1v-0.2l-0.2-0.1c-2.5-0.8-5.5-1.3-8.8-1.3-7.2 0-14.8 2.2-20.7 5.9l-0.6 0.4 0.5 0.4c1.8 1.5 3.2 3.3 4.2 5.4l0.1 0.3h0.3c8.7 0.2 21.5 3.4 27.9 8.3l0.8 0.6v-1.2q0.1-0.7 0.1-1.4z"/>
		<path id="&lt;Compound Path&gt;" fill-rule="evenodd" class="s0" d="m484.9 325.6q0 0.3 0 0.6 0 0.3 0 0.6c-0.3 0.2-0.8 0.3-1.2 0.5-0.6 0.2-1.2 0.4-1.6 0.6l-0.1 0.1v0.1q0 0.6-0.1 1.3v0.1h0.1c0.4 0.3 0.9 0.6 1.5 1 0.4 0.2 0.8 0.4 1.1 0.6q-0.1 0.5-0.3 1.2c-0.4 0-0.8 0-1.3 0.1-0.6 0-1.2 0.1-1.7 0.2h-0.1v0.1q-0.2 0.6-0.5 1.2v0.1c0.3 0.4 0.8 0.9 1.2 1.3 0.3 0.4 0.6 0.7 0.9 1q-0.3 0.5-0.6 1c-0.4 0-0.8-0.1-1.3-0.2-0.6-0.2-1.2-0.3-1.7-0.4h-0.1v0.1q-0.4 0.5-0.8 1l-0.1 0.1 0.1 0.1c0.1 0.5 0.4 1 0.7 1.6 0.2 0.4 0.4 0.8 0.6 1.2q-0.4 0.4-0.8 0.8c-0.4-0.2-0.8-0.4-1.2-0.6-0.5-0.3-1.1-0.6-1.6-0.8h-0.1q-0.5 0.4-1.1 0.8v0.1c0 0.5 0.1 1.2 0.3 1.8 0 0.4 0.1 0.9 0.2 1.3q-0.5 0.3-1 0.5c-0.3-0.2-0.7-0.6-1-0.9-0.4-0.4-0.9-0.9-1.3-1.2v-0.1l-0.1 0.1q-0.7 0.2-1.3 0.4v0.1h-0.1c-0.1 0.5-0.1 1.2-0.2 1.8 0 0.4 0 0.9-0.1 1.3q-0.6 0.1-1.2 0.2c-0.2-0.3-0.4-0.7-0.6-1.1-0.3-0.5-0.6-1.1-0.9-1.5l-0.1-0.1h-0.1q-0.6 0.1-1.3 0.1h-0.1v0.1c-0.2 0.4-0.5 1-0.7 1.6-0.2 0.4-0.3 0.9-0.5 1.2q-0.5 0-1.2-0.1c-0.1-0.4-0.2-0.8-0.3-1.3-0.1-0.6-0.2-1.2-0.4-1.7l-0.1-0.1q-0.6-0.1-1.3-0.3h-0.1v0.1c-0.4 0.3-0.8 0.9-1.2 1.4-0.2 0.3-0.5 0.7-0.8 1q-0.5-0.2-1.1-0.5c0-0.4 0.1-0.8 0.1-1.3 0-0.6 0.1-1.2 0.1-1.7v-0.1l-0.1-0.1q-0.6-0.2-1.2-0.6h-0.1c-0.5 0.3-1 0.6-1.5 1-0.3 0.3-0.7 0.5-1.1 0.7q-0.4-0.3-0.9-0.7c0.1-0.3 0.3-0.8 0.4-1.2 0.3-0.6 0.5-1.2 0.6-1.7v-0.1q-0.5-0.5-1-1h-0.1c-0.5 0.1-1.1 0.3-1.7 0.5-0.4 0.2-0.8 0.3-1.2 0.5q-0.4-0.5-0.7-1c0.2-0.3 0.5-0.7 0.7-1.1 0.4-0.5 0.8-1 1-1.4l0.1-0.1-0.1-0.1q-0.3-0.5-0.6-1.1v-0.1h-0.1c-0.5 0-1.1 0-1.8 0-0.4 0.1-0.9 0.1-1.3 0.1q-0.2-0.6-0.4-1.1c0.3-0.3 0.7-0.5 1-0.8 0.5-0.4 1.1-0.8 1.4-1.1l0.1-0.1v-0.1q-0.2-0.7-0.3-1.2v-0.1l-0.1-0.1c-0.5-0.1-1.1-0.3-1.7-0.4-0.4-0.1-0.9-0.2-1.3-0.3q0-0.3 0-0.6 0-0.3 0-0.6c0.3-0.2 0.8-0.4 1.2-0.5 0.6-0.2 1.2-0.5 1.6-0.7h0.1v-0.1q0-0.6 0.1-1.3v-0.1l-0.1-0.1c-0.4-0.3-0.9-0.6-1.5-0.9-0.4-0.2-0.8-0.4-1.1-0.6q0.1-0.6 0.3-1.2c0.4 0 0.8-0.1 1.3-0.1 0.6-0.1 1.2-0.1 1.7-0.2h0.1v-0.1q0.2-0.6 0.5-1.2v-0.1-0.1c-0.3-0.4-0.8-0.8-1.2-1.3-0.3-0.3-0.6-0.6-0.9-0.9q0.3-0.5 0.6-1.1c0.4 0.1 0.8 0.2 1.3 0.3 0.6 0.1 1.2 0.3 1.7 0.3h0.1v-0.1q0.4-0.5 0.8-1l0.1-0.1h-0.1c-0.1-0.5-0.4-1.1-0.7-1.6-0.2-0.4-0.4-0.8-0.6-1.2q0.4-0.4 0.8-0.8c0.4 0.1 0.8 0.4 1.2 0.6 0.5 0.3 1.1 0.6 1.6 0.8h0.1v-0.1q0.5-0.4 1.1-0.7v-0.1-0.1c0-0.5-0.1-1.1-0.3-1.7 0-0.4-0.1-0.9-0.2-1.3q0.5-0.3 1-0.6c0.3 0.3 0.7 0.6 1 1 0.4 0.4 0.9 0.9 1.3 1.2h0.1q0.7-0.3 1.3-0.5l0.1-0.1c0.1-0.5 0.1-1.1 0.2-1.7 0-0.5 0.1-0.9 0.1-1.3q0.6-0.2 1.2-0.3c0.2 0.4 0.4 0.8 0.6 1.1 0.3 0.6 0.6 1.2 0.9 1.6l0.1 0.1 0.1-0.1q0.6 0 1.3 0h0.1v-0.1c0.2-0.5 0.5-1.1 0.7-1.7 0.2-0.4 0.3-0.8 0.5-1.2q0.5 0.1 1.2 0.1c0.1 0.4 0.2 0.9 0.3 1.3 0.1 0.6 0.2 1.3 0.4 1.7v0.1h0.1q0.6 0.1 1.3 0.3h0.1c0.4-0.4 0.8-0.9 1.2-1.4 0.2-0.3 0.5-0.7 0.8-1q0.5 0.2 1.1 0.4c0 0.4-0.1 0.9-0.1 1.3 0 0.7-0.1 1.3-0.1 1.8v0.1h0.1q0.6 0.3 1.2 0.6v0.1h0.1c0.5-0.3 1-0.7 1.5-1 0.4-0.3 0.7-0.6 1.1-0.8q0.4 0.4 0.9 0.7c-0.1 0.4-0.3 0.8-0.4 1.3-0.3 0.6-0.5 1.2-0.6 1.6v0.1l0.1 0.1q0.4 0.4 0.9 0.9v0.1h0.1c0.5-0.1 1.1-0.4 1.7-0.6 0.4-0.1 0.8-0.3 1.2-0.4q0.4 0.5 0.7 1c-0.2 0.3-0.5 0.7-0.7 1-0.4 0.5-0.8 1-1 1.5h-0.1l0.1 0.1q0.3 0.6 0.6 1.2v0.1h0.1c0.5 0 1.1 0 1.8-0.1 0.4 0 0.9 0 1.3 0q0.2 0.6 0.4 1.1c-0.3 0.2-0.7 0.5-1 0.8-0.5 0.3-1.1 0.7-1.4 1.1h-0.1v0.1q0.2 0.7 0.3 1.3v0.1h0.1c0.5 0.2 1.1 0.3 1.7 0.5 0.4 0.1 0.9 0.2 1.3 0.3zm-20.2-3.4l-0.1 0.3 0.3-0.1q0.2 0 0.4 0 0.9-0.1 1.8 0.2h0.1v-0.1c2-2 5.5-4.5 8-5l0.3-0.1-0.2-0.2c-1.5-1.4-3.3-2.5-5.3-3.1l-0.1-0.1v0.1c-2.1 1.2-4.6 4.4-5.2 8.1zm2.6 3.4c-0.5-0.4-1.2-0.7-1.8-0.6-0.7 0-1.3 0.3-1.7 0.8-0.9 1-0.8 2.6 0.2 3.5 0.5 0.4 1.2 0.6 1.8 0.6 0.7-0.1 1.3-0.4 1.7-0.8 0.4-0.5 0.6-1.2 0.6-1.8 0-0.7-0.3-1.3-0.8-1.7zm-6-1.2l0.1 0.2 0.2-0.2c0.4-0.5 1-1.1 1.6-1.4l0.1-0.1v-0.1c-0.1-2.8 0.7-7 2.1-9.2l0.2-0.2h-0.3q-0.3 0-0.5 0-2.9 0.2-5.5 1.5h-0.1v0.1c-0.7 2.3-0.2 6.3 2.1 9.4zm-9-1.3v0.1c1.2 2.1 4.4 4.6 8.2 5.2h0.2l-0.1-0.2q0-0.2 0-0.4-0.1-0.9 0.2-1.8v-0.1l-0.1-0.1c-2-1.9-4.5-5.4-5-8v-0.3l-0.3 0.3c-1.4 1.5-2.5 3.3-3.1 5.3zm3.8 11c2.3-0.2 4.7-1 6.6-2.4l0.2-0.1-0.2-0.1c-0.6-0.5-1.1-1-1.5-1.7v-0.1h-0.1c-2.8 0.1-7.1-0.6-9.2-2.1l-0.3-0.2v0.4q0 0.2 0 0.5 0.2 2.9 1.5 5.4l0.1 0.1c0.8 0.2 1.8 0.3 2.9 0.3zm10.6-1.5v-0.3l-0.2 0.1c-0.8 0.1-1.5 0-2.2-0.2h-0.1l-0.1 0.1c-1.9 2-5.5 4.5-8 5l-0.3 0.1 0.2 0.2c1.5 1.4 3.3 2.5 5.3 3.1l0.1 0.1v-0.1c2.2-1.2 4.6-4.4 5.3-8.1zm3.3-2.3l-0.1-0.1-0.1 0.1c-0.5 0.6-1 1.1-1.7 1.5l-0.1 0.1v0.1c0.1 2.8-0.6 7-2.1 9.2l-0.2 0.2h0.4q0.2 0 0.5 0 2.9-0.2 5.4-1.5h0.1v-0.1c0.7-2.3 0.2-6.3-2.1-9.5zm9.1 1.4l-0.1-0.1c-1.2-2.1-4.4-4.6-8.1-5.2h-0.3l0.1 0.2q0 0.2 0 0.4 0.1 0.9-0.2 1.8v0.1l0.1 0.1c2.1 1.9 4.5 5.4 5 7.9l0.1 0.4 0.2-0.3c1.4-1.5 2.5-3.3 3.1-5.3zm0.7-5.2q-0.2-2.9-1.5-5.4v-0.1h-0.1c-0.8-0.3-1.8-0.3-2.9-0.3-2.3 0.2-4.7 1-6.6 2.4l-0.1 0.1 0.1 0.1c0.6 0.5 1.1 1 1.5 1.7v0.1h0.1c2.9-0.1 7.1 0.6 9.3 2.1l0.2 0.2v-0.4q0-0.2 0-0.5z"/>
		<path id="&lt;Compound Path&gt;" fill-rule="evenodd" class="s0" d="m373.9 224.1q0 0.3 0 0.5 0 0.3 0 0.5c-0.3 0.2-0.6 0.3-1 0.5-0.5 0.1-1 0.3-1.3 0.5h-0.1v0.1q0 0.5-0.1 1.1v0.1h0.1c0.3 0.3 0.8 0.5 1.2 0.8 0.4 0.2 0.7 0.4 1 0.5q-0.1 0.5-0.3 1c-0.3 0-0.7 0.1-1.1 0.1-0.5 0-1 0.1-1.4 0.1l-0.1 0.1q-0.2 0.5-0.4 1v0.1 0.1c0.3 0.3 0.7 0.7 1 1.1 0.3 0.2 0.5 0.5 0.8 0.8q-0.3 0.4-0.5 0.8c-0.3 0-0.7-0.1-1.1-0.2-0.5-0.1-1-0.2-1.4-0.3h-0.1l-0.1 0.1q-0.3 0.4-0.6 0.9h-0.1l0.1 0.1c0.1 0.4 0.4 0.9 0.6 1.3 0.2 0.3 0.4 0.7 0.5 1q-0.3 0.4-0.7 0.7c-0.3-0.2-0.6-0.3-1-0.5-0.4-0.3-0.9-0.5-1.3-0.7h-0.1q-0.4 0.4-0.9 0.7h-0.1l0.1 0.1c0 0.4 0.1 0.9 0.2 1.4 0.1 0.4 0.1 0.8 0.2 1.1q-0.4 0.3-0.9 0.5c-0.2-0.2-0.5-0.5-0.7-0.8-0.4-0.3-0.8-0.7-1.1-1h-0.1-0.1q-0.5 0.2-1 0.4h-0.1v0.1c0 0.4-0.1 0.9-0.1 1.4-0.1 0.4-0.1 0.8-0.2 1.1q-0.5 0.1-0.9 0.2c-0.2-0.2-0.4-0.6-0.6-0.9-0.2-0.5-0.5-0.9-0.7-1.3l-0.1-0.1v0.1q-0.6 0-1.1 0h-0.1v0.1c-0.2 0.4-0.4 0.9-0.6 1.4-0.2 0.3-0.3 0.7-0.4 1q-0.5-0.1-1-0.1c-0.1-0.3-0.2-0.7-0.3-1.1-0.1-0.5-0.2-1-0.3-1.4v-0.1h-0.1q-0.5-0.1-1.1-0.2l-0.1-0.1v0.1c-0.3 0.3-0.6 0.7-1 1.1-0.2 0.3-0.4 0.6-0.6 0.9q-0.5-0.2-0.9-0.4c0-0.3 0-0.7 0-1.1 0-0.5 0.1-1 0.1-1.4v-0.1h-0.1q-0.5-0.3-0.9-0.6h-0.1-0.1c-0.3 0.2-0.8 0.6-1.2 0.9-0.3 0.2-0.6 0.4-0.9 0.6q-0.4-0.3-0.8-0.6c0.1-0.3 0.3-0.7 0.4-1 0.2-0.5 0.4-1 0.4-1.4l0.1-0.1-0.1-0.1q-0.4-0.3-0.7-0.7l-0.1-0.1h-0.1c-0.4 0.1-0.9 0.3-1.4 0.5-0.3 0.1-0.7 0.2-1 0.3q-0.3-0.4-0.6-0.8c0.2-0.2 0.4-0.6 0.6-0.9 0.4-0.4 0.7-0.8 0.9-1.2v-0.1q-0.3-0.5-0.5-1h-0.1c-0.5-0.1-1 0-1.5 0-0.4 0-0.8 0-1.1 0q-0.2-0.4-0.3-0.9c0.2-0.2 0.5-0.4 0.8-0.6 0.4-0.3 0.9-0.7 1.2-1v-0.1q-0.1-0.6-0.2-1v-0.1l-0.1-0.1c-0.4-0.1-0.9-0.2-1.4-0.3-0.4-0.1-0.8-0.2-1.1-0.3q0-0.2 0-0.5 0-0.2 0-0.5c0.3-0.1 0.6-0.3 1-0.4 0.5-0.2 1-0.4 1.3-0.6h0.1v-0.1q0-0.5 0.1-1v-0.1l-0.1-0.1c-0.3-0.2-0.8-0.5-1.2-0.7-0.3-0.2-0.7-0.4-1-0.6q0.1-0.4 0.3-1c0.3 0 0.7 0 1.1 0 0.5-0.1 1-0.1 1.4-0.2h0.1v-0.1q0.2-0.5 0.4-1v-0.1c-0.3-0.4-0.6-0.7-1-1.1-0.3-0.3-0.5-0.6-0.8-0.8q0.3-0.4 0.5-0.9c0.4 0.1 0.7 0.2 1.1 0.2 0.5 0.1 1 0.3 1.4 0.3h0.1l0.1-0.1q0.3-0.4 0.6-0.8l0.1-0.1-0.1-0.1c-0.1-0.3-0.4-0.8-0.6-1.3-0.2-0.3-0.4-0.6-0.5-0.9q0.4-0.4 0.7-0.7c0.3 0.1 0.6 0.3 1 0.5 0.4 0.2 0.9 0.5 1.3 0.6l0.1 0.1v-0.1q0.4-0.3 0.9-0.6l0.1-0.1v-0.1c-0.1-0.4-0.2-0.9-0.3-1.4-0.1-0.4-0.1-0.7-0.2-1.1q0.5-0.2 0.9-0.4c0.2 0.2 0.5 0.4 0.8 0.7 0.3 0.4 0.7 0.8 1 1l0.1 0.1 0.1-0.1q0.5-0.2 1-0.3l0.1-0.1c0.1-0.4 0.1-1 0.1-1.5 0.1-0.4 0.1-0.7 0.2-1.1q0.5-0.1 0.9-0.2c0.2 0.3 0.4 0.6 0.6 1 0.2 0.4 0.5 0.9 0.7 1.2l0.1 0.1q0.6-0.1 1.1-0.1h0.1v-0.1c0.2-0.3 0.4-0.8 0.6-1.3 0.2-0.4 0.3-0.7 0.4-1q0.5 0 1 0.1c0.1 0.3 0.2 0.7 0.3 1 0.1 0.5 0.2 1.1 0.3 1.4l0.1 0.1q0.5 0.1 1.1 0.3h0.1v-0.1c0.3-0.3 0.6-0.7 1-1.1 0.2-0.3 0.4-0.6 0.6-0.8q0.5 0.1 1 0.3c-0.1 0.3-0.1 0.7-0.1 1.1 0 0.5-0.1 1.1-0.1 1.5l0.1 0.1q0.5 0.2 1 0.5h0.1c0.4-0.2 0.8-0.5 1.2-0.8 0.3-0.2 0.6-0.5 0.9-0.6q0.4 0.2 0.8 0.6c-0.1 0.3-0.2 0.6-0.4 1-0.2 0.5-0.3 1-0.4 1.4l-0.1 0.1h0.1q0.4 0.4 0.8 0.8h0.1c0.4-0.1 0.9-0.2 1.4-0.4 0.3-0.1 0.7-0.3 1-0.4q0.3 0.4 0.6 0.8c-0.2 0.3-0.4 0.6-0.6 0.9-0.3 0.4-0.7 0.9-0.9 1.2v0.1q0.3 0.5 0.5 1l0.1 0.1h0.1c0.4 0 0.9 0 1.4-0.1 0.4 0 0.8 0 1.1 0q0.2 0.5 0.3 0.9c-0.2 0.2-0.5 0.5-0.8 0.7-0.4 0.3-0.9 0.6-1.2 0.9v0.1q0.1 0.6 0.2 1.1v0.1h0.1c0.4 0.1 0.9 0.3 1.4 0.4 0.4 0.1 0.8 0.2 1.1 0.2zm-16.9-2.8v0.2h0.2q0.2 0 0.4 0 0.7-0.1 1.4 0.1h0.1 0.1c1.6-1.7 4.5-3.8 6.6-4.2l0.3-0.1-0.2-0.1c-1.2-1.2-2.8-2.1-4.4-2.7h-0.1c-1.8 1-3.8 3.7-4.4 6.8zm2.2 2.8c-0.4-0.3-0.9-0.5-1.5-0.5-0.5 0.1-1 0.3-1.4 0.7-0.7 0.9-0.6 2.2 0.2 2.9 0.4 0.4 0.9 0.5 1.5 0.5 0.5 0 1-0.3 1.4-0.7 0.3-0.4 0.5-0.9 0.5-1.5 0-0.5-0.3-1-0.7-1.4zm-5-0.9l0.1 0.1 0.1-0.1c0.4-0.5 0.9-0.9 1.4-1.2l0.1-0.1v-0.1c-0.1-2.3 0.5-5.8 1.7-7.6l0.2-0.3h-0.3q-0.2 0.1-0.4 0.1-2.4 0.1-4.6 1.2v0.1c-0.6 2-0.2 5.3 1.7 7.9zm-7.5-1.1c1 1.8 3.7 3.9 6.8 4.4h0.2v-0.2q-0.1-0.2-0.1-0.4 0-0.7 0.2-1.4v-0.1-0.1c-1.8-1.6-3.8-4.5-4.2-6.6l-0.1-0.3-0.2 0.2c-1.2 1.3-2.1 2.8-2.6 4.4zm3.2 9.2c1.9-0.1 3.9-0.8 5.5-1.9l0.1-0.2-0.1-0.1c-0.5-0.3-0.9-0.8-1.2-1.4h-0.1-0.1c-2.3 0.1-5.8-0.6-7.6-1.8l-0.3-0.1v0.3q0.1 0.2 0.1 0.4 0.1 2.4 1.2 4.5v0.1h0.1c0.7 0.2 1.5 0.3 2.4 0.2zm8.8-1.3v-0.1h-0.2q-0.9 0.1-1.8-0.1l-0.1-0.1-0.1 0.1c-1.6 1.7-4.5 3.8-6.6 4.2l-0.3 0.1 0.2 0.1c1.3 1.2 2.8 2.1 4.4 2.7h0.1c1.8-1 3.9-3.7 4.4-6.9zm2.8-1.8l-0.1-0.1-0.1 0.1c-0.4 0.5-0.9 0.9-1.4 1.2l-0.1 0.1c0.1 2.4-0.5 5.9-1.7 7.7l-0.2 0.2h0.3q0.2 0 0.4 0 2.4-0.1 4.6-1.2l0.1-0.1c0.5-2 0.1-5.3-1.8-7.9zm7.5 1.1v-0.1c-1-1.7-3.6-3.8-6.8-4.3h-0.2v0.2q0.1 0.2 0.1 0.3 0 0.8-0.2 1.5v0.1h0.1c1.7 1.6 3.7 4.6 4.2 6.7v0.3l0.2-0.2c1.2-1.3 2.1-2.8 2.6-4.4zm0.6-4.4q-0.2-2.4-1.3-4.5v-0.1h-0.1c-0.6-0.2-1.5-0.3-2.4-0.2-1.9 0.1-3.9 0.8-5.5 1.9l-0.1 0.1 0.1 0.2c0.5 0.3 1 0.8 1.3 1.3v0.1h0.1c2.3-0.1 5.9 0.6 7.7 1.8l0.2 0.1v-0.3q0-0.2 0-0.4z"/>
		<path id="&lt;Compound Path&gt;" fill-rule="evenodd" class="s0" d="m509.8 193.4q0.1 0.2 0.1 0.5 0 0.2 0 0.4-0.4 0.2-0.9 0.3c-0.4 0.2-0.8 0.3-1.1 0.5h-0.1v0.1q0 0.4-0.1 0.9v0.1h0.1c0.3 0.2 0.7 0.5 1.1 0.7q0.4 0.2 0.8 0.4-0.1 0.4-0.2 0.9-0.5 0-1 0c-0.4 0.1-0.9 0.1-1.2 0.2h-0.1v0.1q-0.1 0.4-0.3 0.8v0.1c0.2 0.3 0.5 0.6 0.8 1q0.4 0.3 0.7 0.6-0.2 0.4-0.4 0.8-0.5-0.1-0.9-0.2c-0.5-0.1-0.9-0.2-1.3-0.2h-0.1q-0.2 0.4-0.5 0.7l-0.1 0.1v0.1c0.2 0.3 0.4 0.7 0.6 1.1q0.2 0.4 0.4 0.8-0.3 0.3-0.6 0.6-0.4-0.2-0.8-0.4c-0.4-0.2-0.8-0.5-1.1-0.6h-0.1-0.1q-0.3 0.3-0.7 0.6v0.1c0 0.3 0.1 0.8 0.2 1.2q0.1 0.5 0.1 0.9-0.3 0.3-0.7 0.4-0.3-0.3-0.7-0.6c-0.3-0.3-0.6-0.7-0.9-0.9h-0.1q-0.5 0.2-0.9 0.3v0.1c-0.1 0.4-0.2 0.8-0.2 1.2q0 0.5-0.1 1-0.4 0.1-0.8 0.2-0.2-0.4-0.5-0.8c-0.2-0.4-0.4-0.8-0.6-1.1l-0.1-0.1q-0.5 0.1-0.9 0.1h-0.1c-0.2 0.4-0.4 0.8-0.5 1.2q-0.2 0.5-0.4 0.9-0.4-0.1-0.8-0.1-0.1-0.4-0.2-0.9c-0.1-0.5-0.2-0.9-0.4-1.2v-0.1q-0.5-0.1-0.9-0.2h-0.1-0.1c-0.2 0.3-0.5 0.6-0.8 1q-0.3 0.4-0.5 0.7-0.4-0.1-0.8-0.3 0-0.4 0-0.9c0.1-0.5 0.1-0.9 0.1-1.3l-0.1-0.1q-0.4-0.2-0.8-0.4v-0.1l-0.1 0.1c-0.3 0.2-0.7 0.4-1 0.7q-0.4 0.3-0.8 0.5-0.3-0.2-0.7-0.5 0.2-0.4 0.3-0.9c0.2-0.4 0.4-0.8 0.4-1.2h0.1l-0.1-0.1q-0.3-0.3-0.6-0.6l-0.1-0.1h-0.1c-0.3 0.1-0.7 0.3-1.1 0.4q-0.5 0.2-0.9 0.3-0.3-0.3-0.5-0.7 0.2-0.3 0.5-0.7c0.3-0.4 0.6-0.7 0.7-1l0.1-0.1-0.1-0.1q-0.2-0.4-0.4-0.8h-0.1c-0.3-0.1-0.8 0-1.2 0q-0.5 0-1 0-0.2-0.4-0.3-0.8 0.4-0.2 0.8-0.5c0.3-0.3 0.7-0.6 0.9-0.8l0.1-0.1q-0.1-0.5-0.2-0.9v-0.1h-0.1c-0.3-0.1-0.8-0.2-1.2-0.3q-0.5-0.1-0.9-0.3 0-0.2 0-0.4 0-0.2-0.1-0.4 0.5-0.2 0.9-0.4c0.4-0.1 0.9-0.3 1.2-0.4v-0.1q0-0.5 0.1-1v-0.1c-0.3-0.2-0.7-0.4-1.1-0.6q-0.4-0.3-0.8-0.5 0.1-0.4 0.2-0.8 0.4-0.1 0.9-0.1c0.4 0 0.9 0 1.2-0.1h0.1v-0.1q0.2-0.4 0.4-0.8v-0.1l-0.1-0.1c-0.2-0.2-0.5-0.6-0.8-0.9q-0.3-0.3-0.6-0.7 0.2-0.3 0.4-0.7 0.4 0.1 0.9 0.2c0.4 0.1 0.9 0.2 1.2 0.2h0.1q0.3-0.4 0.6-0.8v-0.1c-0.1-0.3-0.3-0.7-0.5-1.1q-0.3-0.5-0.5-0.9 0.3-0.3 0.6-0.5 0.4 0.1 0.9 0.4c0.4 0.2 0.8 0.4 1.1 0.5v0.1l0.1-0.1q0.4-0.3 0.7-0.5l0.1-0.1c0-0.4-0.1-0.8-0.2-1.2q-0.1-0.5-0.2-1 0.4-0.2 0.8-0.4 0.3 0.3 0.6 0.7c0.3 0.3 0.7 0.6 0.9 0.8l0.1 0.1h0.1q0.4-0.2 0.8-0.4h0.1v-0.1c0.1-0.3 0.1-0.7 0.1-1.2q0.1-0.5 0.1-0.9 0.5-0.1 0.9-0.2 0.2 0.4 0.4 0.8c0.2 0.4 0.5 0.8 0.7 1.1v0.1l0.1-0.1q0.4 0 0.9 0h0.1v-0.1c0.2-0.3 0.3-0.7 0.5-1.1q0.2-0.5 0.3-0.9 0.4 0 0.9 0.1 0.1 0.4 0.2 0.9c0.1 0.4 0.2 0.9 0.3 1.2v0.1h0.1q0.4 0.1 0.9 0.2h0.1v-0.1c0.2-0.2 0.5-0.6 0.8-0.9q0.3-0.4 0.6-0.7 0.4 0.1 0.8 0.3 0 0.4-0.1 0.9c0 0.4-0.1 0.9 0 1.2v0.1q0.4 0.2 0.8 0.5h0.1c0.4-0.2 0.7-0.5 1.1-0.7q0.4-0.3 0.8-0.6 0.3 0.3 0.6 0.6-0.1 0.4-0.3 0.8c-0.1 0.5-0.3 0.9-0.4 1.2v0.1q0.4 0.3 0.7 0.7h0.1c0.3-0.1 0.8-0.2 1.2-0.4q0.5-0.1 0.9-0.3 0.2 0.4 0.5 0.7-0.3 0.4-0.6 0.8c-0.2 0.3-0.5 0.7-0.7 1v0.1q0.3 0.4 0.5 0.8v0.1c0.4 0 0.8 0 1.3 0q0.5-0.1 0.9-0.1 0.2 0.4 0.3 0.8-0.3 0.3-0.7 0.6c-0.4 0.3-0.7 0.5-1 0.8v0.1q0.1 0.5 0.2 0.9v0.1c0.4 0.1 0.8 0.2 1.2 0.3q0.5 0.1 0.9 0.2zm-14.3-2.4v0.2h0.1q0.2-0.1 0.3-0.1 0.7 0 1.3 0.2h0.1v-0.1c1.4-1.4 3.9-3.2 5.7-3.5l0.2-0.1-0.1-0.1c-1.1-1.1-2.4-1.8-3.8-2.3h-0.1c-1.5 0.9-3.3 3.1-3.7 5.8zm1.8 2.4c-0.3-0.3-0.8-0.4-1.2-0.4-0.5 0-0.9 0.2-1.2 0.6-0.7 0.7-0.6 1.8 0.1 2.4 0.4 0.3 0.8 0.5 1.3 0.5 0.5-0.1 0.9-0.3 1.2-0.6 0.3-0.4 0.4-0.8 0.4-1.3 0-0.4-0.2-0.9-0.6-1.2zm-4.2-0.8l0.1 0.1 0.1-0.1q0.4-0.6 1.1-1l0.1-0.1c-0.1-2 0.5-5 1.5-6.6l0.1-0.2h-0.2q-0.2 0-0.4 0-2 0.2-3.9 1.1v0.1c-0.5 1.6-0.1 4.5 1.5 6.7zm-6.5-0.9h0.1c0.8 1.5 3.1 3.3 5.8 3.7l0.1 0.1v-0.2q0-0.2 0-0.3-0.1-0.7 0.1-1.3v-0.1c-1.5-1.4-3.2-3.9-3.6-5.7v-0.2l-0.2 0.2c-1 1-1.8 2.3-2.2 3.7zm2.7 7.8c1.6-0.1 3.4-0.7 4.7-1.6l0.1-0.1-0.1-0.1q-0.7-0.5-1.1-1.2v-0.1l-0.1 0.1c-2 0-5-0.5-6.5-1.5l-0.2-0.2v0.3q0 0.2 0 0.3 0.1 2.1 1.1 3.9v0.1c0.6 0.1 1.3 0.2 2.1 0.1zm7.5-1v-0.2h-0.1q-0.8 0.2-1.6-0.1h-0.1v0.1c-1.4 1.4-3.9 3.2-5.7 3.6h-0.2l0.1 0.2c1.1 1 2.4 1.7 3.8 2.2h0.1c1.5-0.9 3.2-3.1 3.7-5.8zm2.4-1.6l-0.1-0.1-0.1 0.1q-0.5 0.6-1.2 1v0.1 0.1c0 2-0.5 5-1.5 6.5l-0.2 0.2h0.3q0.2 0 0.3 0 2.1-0.2 3.9-1.1h0.1v-0.1c0.5-1.6 0.1-4.5-1.5-6.7zm6.4 0.9c-0.9-1.5-3.1-3.3-5.8-3.7h-0.2l0.1 0.1q0 0.2 0 0.4 0 0.6-0.2 1.2v0.1h0.1c1.5 1.4 3.2 3.9 3.6 5.7v0.2l0.2-0.1c1-1.1 1.7-2.4 2.2-3.8zm0.5-3.7q-0.2-2.1-1.1-3.9l-0.1-0.1c-0.6-0.1-1.3-0.2-2-0.1-1.7 0.1-3.4 0.7-4.7 1.6l-0.1 0.1 0.1 0.1q0.6 0.5 1 1.2l0.1 0.1c2.1-0.1 5.1 0.4 6.6 1.5l0.2 0.1v-0.3q0-0.1 0-0.3z"/>
		<path id="&lt;Compound Path&gt;" fill-rule="evenodd" class="s0" d="m371.7 521q0 0.2 0 0.4 0 0.2 0 0.4-0.4 0.2-0.9 0.4c-0.4 0.1-0.8 0.3-1.1 0.5h-0.1v0.1q0 0.4 0 0.9v0.1c0.3 0.2 0.7 0.4 1.1 0.6q0.4 0.3 0.8 0.5-0.1 0.4-0.2 0.8-0.4 0.1-0.9 0.1c-0.5 0-0.9 0.1-1.3 0.1l-0.1 0.1q-0.1 0.4-0.3 0.9v0.1c0.2 0.3 0.6 0.6 0.9 0.9q0.3 0.4 0.6 0.7-0.2 0.4-0.4 0.7-0.4 0-0.9-0.2c-0.5 0-0.9-0.1-1.3-0.2l-0.1 0.1q-0.2 0.3-0.5 0.7l-0.1 0.1h0.1c0.1 0.3 0.3 0.8 0.5 1.1q0.2 0.5 0.4 0.9-0.3 0.3-0.6 0.6-0.4-0.2-0.8-0.5c-0.4-0.2-0.8-0.4-1.1-0.5l-0.1-0.1v0.1q-0.4 0.3-0.8 0.5v0.1c0 0.4 0.1 0.8 0.2 1.3q0.1 0.5 0.2 0.9-0.4 0.2-0.8 0.4-0.3-0.3-0.7-0.7c-0.3-0.3-0.6-0.6-0.9-0.8v-0.1l-0.1 0.1q-0.4 0.2-0.9 0.3v0.1c-0.1 0.3-0.1 0.8-0.2 1.2q0 0.5-0.1 0.9-0.4 0.1-0.8 0.2-0.2-0.4-0.4-0.8c-0.3-0.4-0.5-0.8-0.7-1.1h-0.1q-0.5 0-0.9 0h-0.1v0.1c-0.2 0.3-0.4 0.7-0.5 1.2q-0.2 0.4-0.4 0.8-0.4 0-0.8-0.1-0.1-0.4-0.2-0.9c-0.1-0.4-0.2-0.8-0.3-1.2h-0.1q-0.4-0.1-0.9-0.3h-0.1v0.1c-0.3 0.2-0.6 0.6-0.8 0.9q-0.3 0.4-0.6 0.8-0.4-0.2-0.8-0.3 0-0.5 0.1-1c0-0.4 0-0.9 0-1.2v-0.1h-0.1q-0.4-0.2-0.8-0.5h-0.1c-0.3 0.2-0.7 0.5-1 0.7q-0.4 0.3-0.8 0.6-0.3-0.3-0.7-0.5 0.2-0.5 0.4-0.9c0.1-0.4 0.3-0.9 0.4-1.2v-0.1h-0.1q-0.3-0.3-0.6-0.7h-0.1c-0.4 0.1-0.8 0.2-1.2 0.4q-0.5 0.1-0.9 0.3-0.3-0.4-0.5-0.7 0.2-0.4 0.5-0.8c0.3-0.3 0.6-0.7 0.8-1v-0.1q-0.3-0.4-0.5-0.8v-0.1h-0.1c-0.3 0-0.8 0-1.2 0.1q-0.5 0-1 0-0.1-0.4-0.3-0.8 0.4-0.3 0.8-0.6c0.3-0.2 0.7-0.5 1-0.8v-0.1q-0.1-0.4-0.2-0.9l-0.1-0.1c-0.3-0.1-0.7-0.2-1.2-0.3q-0.4-0.1-0.9-0.2 0-0.2 0-0.4 0-0.2 0-0.5 0.4-0.1 0.9-0.3c0.4-0.2 0.8-0.3 1.1-0.5v-0.1q0.1-0.4 0.1-0.9v-0.1c-0.3-0.2-0.7-0.4-1.1-0.7q-0.4-0.2-0.8-0.4 0.1-0.4 0.2-0.8 0.4-0.1 0.9-0.1c0.5-0.1 0.9-0.1 1.3-0.2h0.1q0.1-0.5 0.3-0.9v-0.1c-0.2-0.3-0.6-0.6-0.9-0.9q-0.3-0.4-0.6-0.7 0.2-0.4 0.4-0.7 0.4 0 0.9 0.1c0.4 0.1 0.9 0.2 1.2 0.3h0.1v-0.1q0.3-0.4 0.6-0.7v-0.1c-0.1-0.4-0.3-0.8-0.5-1.2q-0.3-0.4-0.4-0.8 0.3-0.3 0.6-0.6 0.4 0.2 0.8 0.4c0.4 0.3 0.8 0.5 1.1 0.6h0.1q0.4-0.3 0.8-0.6v-0.1c0-0.3-0.1-0.8-0.2-1.2q-0.1-0.5-0.2-0.9 0.4-0.2 0.8-0.4 0.3 0.3 0.6 0.6c0.3 0.4 0.7 0.7 1 0.9h0.1q0.4-0.2 0.8-0.3h0.1v-0.1c0.1-0.3 0.1-0.8 0.2-1.2q0-0.5 0.1-1 0.4-0.1 0.8-0.1 0.2 0.3 0.4 0.8c0.2 0.4 0.5 0.8 0.7 1.1h0.1q0.4 0 0.9-0.1h0.1c0.2-0.3 0.3-0.8 0.5-1.2q0.2-0.4 0.4-0.8 0.4 0 0.8 0 0.1 0.5 0.2 1c0.1 0.4 0.2 0.8 0.3 1.2h0.1q0.4 0.1 0.9 0.2l0.1 0.1v-0.1c0.3-0.2 0.5-0.6 0.8-1q0.3-0.4 0.6-0.7 0.4 0.1 0.8 0.3 0 0.5-0.1 1c0 0.4 0 0.8 0 1.2v0.1q0.5 0.2 0.8 0.4l0.1 0.1 0.1-0.1c0.3-0.1 0.6-0.4 1-0.7q0.4-0.2 0.8-0.5 0.3 0.3 0.6 0.5-0.1 0.4-0.3 0.9c-0.1 0.4-0.3 0.8-0.4 1.2v0.1h0.1q0.3 0.3 0.6 0.7h0.1c0.4-0.1 0.8-0.2 1.2-0.4q0.5-0.2 0.9-0.3 0.3 0.3 0.5 0.7-0.3 0.3-0.6 0.7c-0.2 0.4-0.5 0.8-0.7 1.1v0.1q0.3 0.4 0.5 0.8v0.1h0.1c0.3 0 0.8 0 1.2-0.1q0.5 0 0.9 0 0.2 0.4 0.3 0.8-0.3 0.3-0.7 0.5c-0.3 0.3-0.7 0.6-1 0.8v0.1q0.1 0.5 0.2 0.9v0.1h0.1c0.3 0.2 0.7 0.3 1.1 0.4q0.5 0.1 1 0.2zm-14.4-2.4v0.2l0.1-0.1q0.2 0 0.4 0 0.6 0 1.2 0.1l0.1 0.1v-0.1c1.4-1.5 3.9-3.2 5.7-3.6h0.2l-0.1-0.2c-1.1-1-2.4-1.8-3.8-2.2h-0.1c-1.5 0.8-3.3 3.1-3.7 5.8zm1.8 2.4c-0.3-0.3-0.8-0.5-1.2-0.4-0.5 0-0.9 0.2-1.2 0.5-0.7 0.8-0.6 1.9 0.1 2.5 0.4 0.3 0.8 0.5 1.3 0.4 0.5 0 0.9-0.2 1.2-0.6 0.3-0.3 0.5-0.8 0.4-1.2 0-0.5-0.2-0.9-0.6-1.2zm-4.2-0.8l0.1 0.1 0.1-0.1q0.4-0.7 1.2-1.1v-0.1c-0.1-2 0.5-5 1.5-6.5l0.1-0.2h-0.2q-0.2 0-0.3 0-2.1 0.1-3.9 1.1h-0.1c-0.5 1.7-0.1 4.6 1.5 6.8zm-6.4-1v0.1c0.8 1.5 3.1 3.2 5.8 3.7h0.2l-0.1-0.1q0-0.2 0-0.4 0-0.6 0.1-1.2l0.1-0.1h-0.1c-1.5-1.4-3.2-3.9-3.6-5.7v-0.2l-0.2 0.1c-1 1.1-1.8 2.4-2.2 3.8zm2.7 7.8c1.7-0.1 3.4-0.7 4.7-1.7h0.1l-0.1-0.1q-0.7-0.5-1.1-1.2v-0.1h-0.1c-2 0.1-5-0.5-6.5-1.5l-0.2-0.1v0.3q0 0.1 0 0.3 0.2 2 1.1 3.9h0.1c0.5 0.2 1.2 0.3 2 0.2zm7.5-1.1v-0.1h-0.1q-0.8 0.1-1.6-0.1h-0.1c-1.4 1.5-3.9 3.2-5.7 3.6l-0.2 0.1 0.1 0.1c1.1 1 2.4 1.8 3.8 2.3h0.1v-0.1c1.5-0.8 3.3-3.1 3.7-5.8zm2.4-1.5l-0.1-0.2-0.1 0.2q-0.4 0.6-1.2 1v0.1c0.1 2-0.5 5-1.5 6.6l-0.1 0.2 0.2-0.1q0.2 0 0.3 0 2.1-0.1 3.9-1l0.1-0.1c0.5-1.7 0.1-4.5-1.5-6.7zm6.4 0.9c-0.8-1.6-3.1-3.3-5.8-3.8h-0.2l0.1 0.2q0 0.2 0 0.3 0 0.6-0.1 1.3h-0.1l0.1 0.1c1.5 1.3 3.2 3.8 3.6 5.7v0.2l0.2-0.2c1-1.1 1.8-2.4 2.2-3.8zm0.5-3.6q-0.2-2.1-1.1-3.9v-0.1h-0.1c-0.5-0.2-1.2-0.2-2-0.2-1.7 0.1-3.4 0.7-4.7 1.7l-0.1 0.1 0.1 0.1q0.7 0.4 1.1 1.2h0.1c2-0.1 5 0.5 6.5 1.5l0.2 0.1v-0.2q0-0.2 0-0.3z"/>
		<path id="&lt;Compound Path&gt;" fill-rule="evenodd" class="s0" d="m537.7 552.3q0 0.2 0.1 0.5 0 0.2 0 0.5c-0.3 0.1-0.7 0.3-1.1 0.4-0.5 0.2-0.9 0.4-1.3 0.6h-0.1v0.1q0 0.5-0.1 1.1l0.1 0.1c0.3 0.2 0.8 0.5 1.3 0.8 0.3 0.2 0.6 0.3 0.9 0.5q-0.1 0.5-0.2 1c-0.4 0-0.8 0.1-1.1 0.1-0.6 0-1.1 0.1-1.5 0.1l-0.1 0.1q-0.2 0.5-0.4 1.1v0.1c0.3 0.3 0.7 0.7 1 1.1 0.3 0.3 0.6 0.5 0.8 0.8q-0.2 0.4-0.5 0.9c-0.3-0.1-0.7-0.2-1.1-0.2-0.5-0.2-1-0.3-1.5-0.3h-0.1q-0.3 0.5-0.6 0.9l-0.1 0.1c0.2 0.4 0.4 0.9 0.7 1.4 0.2 0.3 0.3 0.7 0.5 1q-0.4 0.3-0.7 0.7c-0.3-0.2-0.7-0.4-1-0.5-0.5-0.3-0.9-0.6-1.3-0.7h-0.1-0.1q-0.4 0.4-0.8 0.7h-0.1v0.1c0 0.4 0.1 0.9 0.2 1.4 0.1 0.4 0.2 0.8 0.2 1.1q-0.4 0.3-0.8 0.5c-0.3-0.2-0.6-0.5-0.8-0.8-0.4-0.3-0.8-0.7-1.1-1h-0.1-0.1q-0.5 0.2-1 0.4h-0.1v0.1c-0.1 0.4-0.1 0.9-0.1 1.4-0.1 0.4-0.1 0.8-0.2 1.2q-0.5 0.1-0.9 0.2c-0.2-0.3-0.4-0.7-0.6-1-0.2-0.5-0.5-0.9-0.7-1.3h-0.1-0.1q-0.5 0-1.1 0h-0.1v0.1c-0.2 0.4-0.4 0.9-0.6 1.4-0.1 0.3-0.3 0.7-0.4 1q-0.5 0-1-0.1c-0.1-0.3-0.2-0.7-0.2-1.1-0.2-0.5-0.3-1-0.4-1.4v-0.1h-0.1q-0.5-0.1-1.1-0.2l-0.1-0.1v0.1c-0.3 0.3-0.6 0.7-1 1.2-0.2 0.3-0.4 0.6-0.7 0.8q-0.4-0.1-0.9-0.3c0-0.4 0.1-0.8 0.1-1.2 0-0.5 0.1-1 0-1.4v-0.1q-0.5-0.3-1-0.6h-0.1c-0.4 0.2-0.8 0.5-1.3 0.9-0.3 0.2-0.6 0.4-0.9 0.6q-0.4-0.3-0.8-0.6c0.1-0.3 0.3-0.7 0.4-1.1 0.2-0.5 0.4-1 0.5-1.4l-0.1-0.1q-0.4-0.4-0.7-0.8h-0.1-0.1c-0.4 0.1-0.9 0.3-1.4 0.4-0.3 0.2-0.7 0.3-1 0.4q-0.3-0.4-0.6-0.8c0.2-0.3 0.4-0.6 0.6-0.9 0.3-0.4 0.7-0.9 0.9-1.2v-0.1-0.1q-0.3-0.5-0.5-0.9l-0.1-0.1c-0.5 0-1 0-1.5 0-0.4 0-0.8 0.1-1.1 0.1q-0.2-0.5-0.4-1c0.3-0.2 0.6-0.4 0.9-0.6 0.4-0.4 0.9-0.7 1.2-1v-0.1q-0.1-0.6-0.2-1.1v-0.1h-0.1c-0.4-0.1-0.9-0.2-1.4-0.4-0.4 0-0.8-0.1-1.1-0.2q-0.1-0.3-0.1-0.5 0-0.3 0-0.5c0.3-0.2 0.7-0.3 1.1-0.5 0.4-0.1 0.9-0.3 1.3-0.5l0.1-0.1q0-0.5 0.1-1.1v-0.1h-0.1c-0.3-0.3-0.8-0.6-1.3-0.8-0.3-0.2-0.6-0.4-0.9-0.6q0.1-0.4 0.2-1c0.4 0 0.7 0 1.1-0.1 0.6 0 1.1 0 1.5-0.1h0.1v-0.1q0.2-0.5 0.4-1v-0.1-0.1c-0.3-0.3-0.7-0.7-1-1.1-0.3-0.2-0.6-0.5-0.8-0.8q0.2-0.4 0.5-0.8c0.3 0 0.7 0.1 1.1 0.2 0.5 0.1 1 0.2 1.4 0.3h0.1l0.1-0.1q0.3-0.4 0.6-0.9h0.1v-0.1c-0.2-0.4-0.4-0.9-0.7-1.3-0.2-0.4-0.3-0.7-0.5-1q0.4-0.4 0.7-0.7c0.3 0.1 0.7 0.3 1 0.5 0.5 0.2 0.9 0.5 1.3 0.6l0.1 0.1 0.1-0.1q0.4-0.3 0.8-0.6l0.1-0.1v-0.1c0-0.4-0.1-0.9-0.2-1.4-0.1-0.4-0.2-0.8-0.2-1.1q0.4-0.3 0.8-0.5c0.3 0.2 0.6 0.5 0.8 0.8 0.4 0.4 0.8 0.7 1.1 1l0.1 0.1 0.1-0.1q0.5-0.2 1-0.3l0.1-0.1v-0.1c0.1-0.4 0.1-0.9 0.1-1.4 0.1-0.4 0.1-0.8 0.2-1.1q0.5-0.1 0.9-0.2c0.2 0.3 0.4 0.6 0.6 0.9 0.2 0.5 0.5 1 0.7 1.3l0.1 0.1h0.1q0.5-0.1 1.1-0.1l0.1-0.1c0.2-0.3 0.4-0.9 0.6-1.4 0.1-0.3 0.3-0.7 0.4-1q0.5 0.1 1 0.1c0.1 0.3 0.2 0.7 0.2 1.1 0.2 0.5 0.3 1 0.4 1.4v0.1h0.1q0.5 0.1 1.1 0.3l0.1-0.1c0.3-0.3 0.6-0.7 1-1.1 0.2-0.3 0.4-0.6 0.6-0.9q0.5 0.2 1 0.4c0 0.3-0.1 0.7-0.1 1.1 0 0.5-0.1 1 0 1.5v0.1q0.5 0.2 1 0.5l0.1 0.1v-0.1c0.4-0.2 0.8-0.5 1.3-0.8 0.3-0.2 0.6-0.5 0.9-0.6q0.4 0.2 0.8 0.6c-0.1 0.3-0.3 0.6-0.4 1-0.2 0.5-0.4 1-0.5 1.4v0.1h0.1q0.4 0.4 0.7 0.8l0.1 0.1h0.1c0.4-0.1 0.9-0.3 1.4-0.5 0.3-0.1 0.7-0.3 1-0.3q0.3 0.4 0.6 0.8c-0.2 0.2-0.4 0.5-0.6 0.8-0.4 0.5-0.7 0.9-0.9 1.3v0.1q0.3 0.5 0.5 1h0.1c0.5 0.1 1 0 1.5 0 0.4 0 0.8 0 1.1 0q0.2 0.5 0.4 0.9c-0.3 0.2-0.6 0.4-0.9 0.7-0.4 0.3-0.9 0.6-1.2 0.9v0.1q0.1 0.6 0.2 1.1v0.1h0.1c0.4 0.2 0.9 0.3 1.4 0.4 0.4 0.1 0.8 0.2 1.1 0.3zm-17-2.9l-0.1 0.2h0.2q0.2 0 0.4-0.1 0.8 0 1.5 0.2h0.1c1.7-1.8 4.6-3.8 6.8-4.3h0.3l-0.2-0.2c-1.3-1.2-2.9-2.1-4.5-2.7h-0.1c-1.8 1-3.9 3.7-4.4 6.9zm2.2 2.9c-0.5-0.4-1-0.6-1.5-0.5-0.6 0-1.1 0.2-1.5 0.7-0.7 0.8-0.6 2.1 0.2 2.9 0.4 0.3 1 0.5 1.5 0.5 0.6-0.1 1.1-0.3 1.5-0.7 0.3-0.4 0.5-1 0.5-1.5-0.1-0.6-0.3-1.1-0.7-1.4zm-5.1-1l0.1 0.2 0.1-0.2c0.4-0.5 0.9-0.9 1.4-1.2l0.1-0.1v-0.1c-0.1-2.3 0.6-5.9 1.8-7.7l0.1-0.3-0.2 0.1q-0.2 0-0.5 0-2.4 0.1-4.6 1.2v0.1c-0.6 2-0.2 5.4 1.7 8zm-7.6-1.1c1 1.8 3.7 3.9 6.9 4.4l0.2 0.1v-0.2q-0.1-0.2-0.1-0.4 0-0.7 0.2-1.5v-0.1c-1.8-1.6-3.9-4.6-4.3-6.8v-0.2l-0.2 0.2c-1.2 1.2-2.1 2.8-2.7 4.4zm3.2 9.3c2-0.1 4-0.8 5.6-2l0.2-0.1-0.2-0.1c-0.5-0.3-0.9-0.8-1.2-1.4l-0.1-0.1h-0.1c-2.3 0.1-5.9-0.5-7.7-1.7l-0.3-0.2 0.1 0.3q0 0.2 0 0.4 0.1 2.5 1.2 4.6l0.1 0.1c0.7 0.2 1.5 0.3 2.4 0.2zm8.9-1.3l0.1-0.1h-0.2q-0.9 0.1-1.9-0.1l-0.1-0.1v0.1c-1.6 1.8-4.6 3.8-6.8 4.2l-0.2 0.1 0.2 0.2c1.2 1.2 2.8 2.1 4.4 2.6l0.1 0.1v-0.1c1.8-1 3.9-3.7 4.4-6.9zm2.9-1.8l-0.1-0.2-0.1 0.2c-0.4 0.5-0.9 0.9-1.4 1.2l-0.1 0.1c0.1 2.4-0.6 6-1.8 7.8l-0.1 0.2h0.3q0.2 0 0.4 0 2.4-0.2 4.6-1.3h0.1c0.5-2 0.1-5.4-1.8-8zm7.6 1.1v-0.1c-1-1.8-3.7-3.8-6.9-4.4h-0.2v0.2q0.1 0.2 0.1 0.4 0 0.7-0.2 1.5l0.1 0.1c1.7 1.6 3.8 4.6 4.2 6.8l0.1 0.2 0.1-0.2c1.2-1.3 2.2-2.8 2.7-4.5zm0.5-4.3q-0.1-2.5-1.2-4.7h-0.1c-0.7-0.2-1.5-0.3-2.4-0.2-2 0.1-4 0.8-5.6 1.9l-0.1 0.1 0.1 0.2c0.5 0.3 0.9 0.8 1.2 1.4h0.1 0.1c2.4-0.1 5.9 0.6 7.7 1.8l0.3 0.2v-0.4q0-0.2-0.1-0.3z"/>
		<path id="&lt;Compound Path&gt;" fill-rule="evenodd" class="s0" d="m583.2 253.8q0.1 0.3 0.1 0.7 0 0.4 0 0.8c-0.4 0.2-1 0.4-1.5 0.6-0.7 0.2-1.5 0.5-2 0.8h-0.1v0.2q0 0.7-0.2 1.6v0.1h0.1c0.5 0.4 1.2 0.8 1.9 1.2 0.5 0.3 1 0.5 1.4 0.8q-0.1 0.7-0.3 1.4c-0.5 0.1-1.1 0.1-1.7 0.2-0.7 0-1.5 0.1-2.1 0.2h-0.1l-0.1 0.1q-0.2 0.8-0.5 1.5l-0.1 0.1 0.1 0.1c0.4 0.5 0.9 1.1 1.5 1.7 0.3 0.4 0.7 0.8 1.1 1.1q-0.4 0.7-0.8 1.3c-0.4-0.1-1-0.2-1.6-0.3-0.7-0.2-1.5-0.3-2.1-0.4h-0.1l-0.1 0.1q-0.4 0.6-1 1.3v0.1 0.1c0.2 0.5 0.6 1.2 1 1.9 0.2 0.5 0.5 1 0.7 1.5q-0.5 0.5-1 1c-0.5-0.2-1-0.5-1.5-0.7-0.7-0.4-1.4-0.8-1.9-1l-0.1-0.1-0.1 0.1q-0.7 0.5-1.3 1h-0.1v0.1c0 0.6 0.2 1.4 0.3 2.2 0.2 0.5 0.3 1.1 0.3 1.6q-0.6 0.4-1.2 0.7c-0.4-0.3-0.8-0.7-1.2-1.1-0.6-0.6-1.1-1.2-1.6-1.5l-0.1-0.1h-0.1q-0.8 0.4-1.5 0.6h-0.1l-0.1 0.1c-0.1 0.6-0.1 1.4-0.2 2.2-0.1 0.5-0.1 1.1-0.2 1.6q-0.7 0.2-1.4 0.3c-0.3-0.4-0.5-0.9-0.8-1.4-0.4-0.7-0.8-1.4-1.1-1.9l-0.1-0.1h-0.1q-0.8 0.1-1.6 0.1h-0.1l-0.1 0.1c-0.3 0.6-0.6 1.4-0.9 2.1-0.2 0.5-0.4 1-0.6 1.5q-0.7-0.1-1.4-0.2c-0.2-0.4-0.3-1-0.4-1.6-0.2-0.7-0.4-1.5-0.5-2.1l-0.1-0.1h-0.1q-0.7-0.1-1.6-0.3l-0.1-0.1-0.1 0.1c-0.4 0.5-0.9 1.1-1.4 1.7-0.3 0.4-0.7 0.9-1 1.3q-0.6-0.3-1.3-0.6c0-0.5 0-1 0.1-1.6 0-0.8 0.1-1.6 0-2.2v-0.1h-0.1q-0.7-0.4-1.4-0.8l-0.1-0.1-0.1 0.1c-0.5 0.3-1.2 0.8-1.8 1.2-0.4 0.3-0.9 0.7-1.3 0.9q-0.6-0.4-1.2-0.9c0.2-0.4 0.4-1 0.6-1.5 0.2-0.7 0.5-1.5 0.7-2.1v-0.1l-0.1-0.1q-0.6-0.5-1.1-1.1l-0.1-0.1h-0.1c-0.6 0.2-1.4 0.5-2.1 0.7-0.5 0.2-1.1 0.4-1.5 0.5q-0.5-0.6-0.9-1.1c0.3-0.5 0.6-0.9 0.9-1.4 0.5-0.6 1-1.2 1.3-1.8v-0.1-0.1q-0.4-0.7-0.8-1.4v-0.1h-0.1c-0.7 0-1.4 0-2.2 0.1-0.6 0-1.2 0-1.7 0q-0.2-0.7-0.5-1.3c0.4-0.4 0.9-0.7 1.3-1 0.6-0.5 1.3-1 1.7-1.4l0.1-0.1v-0.1q-0.2-0.8-0.3-1.6l-0.1-0.1h-0.1c-0.5-0.2-1.3-0.4-2-0.6-0.6-0.1-1.2-0.2-1.6-0.4q-0.1-0.4-0.1-0.7 0-0.4 0-0.8c0.4-0.2 1-0.4 1.5-0.6 0.7-0.2 1.4-0.5 2-0.8h0.1v-0.2q0-0.7 0.1-1.6v-0.1l-0.1-0.1c-0.5-0.3-1.2-0.7-1.8-1.1-0.5-0.3-1-0.6-1.4-0.8q0.1-0.7 0.3-1.4c0.5-0.1 1.1-0.1 1.6-0.2 0.8 0 1.6-0.1 2.2-0.2h0.1v-0.1q0.3-0.8 0.6-1.5l0.1-0.2h-0.1c-0.4-0.5-0.9-1.1-1.5-1.7-0.4-0.4-0.8-0.8-1.1-1.2q0.3-0.6 0.7-1.2c0.5 0.1 1.1 0.2 1.6 0.3 0.8 0.2 1.6 0.3 2.2 0.4h0.1l0.1-0.1q0.4-0.6 0.9-1.3l0.1-0.1v-0.1c-0.3-0.6-0.6-1.3-1-1.9-0.3-0.5-0.5-1-0.7-1.5q0.5-0.5 1-1c0.5 0.2 1 0.5 1.5 0.7 0.6 0.4 1.3 0.8 1.9 1l0.1 0.1 0.1-0.1q0.6-0.5 1.3-1h0.1v-0.2c-0.1-0.6-0.2-1.3-0.4-2.1-0.1-0.5-0.2-1.1-0.3-1.6q0.7-0.4 1.3-0.7c0.4 0.3 0.8 0.7 1.2 1.1 0.5 0.6 1.1 1.1 1.6 1.5l0.1 0.1h0.1q0.8-0.4 1.5-0.6h0.1v-0.2c0.1-0.5 0.2-1.3 0.3-2.1 0-0.6 0.1-1.1 0.2-1.6q0.7-0.2 1.4-0.3c0.2 0.4 0.5 0.9 0.8 1.4 0.3 0.6 0.7 1.4 1.1 1.9l0.1 0.1 0.1-0.1q0.8 0 1.6-0.1h0.1l0.1-0.1c0.3-0.5 0.6-1.3 0.8-2 0.2-0.5 0.5-1 0.7-1.5q0.6 0.1 1.4 0.1c0.1 0.5 0.3 1.1 0.4 1.6 0.2 0.8 0.3 1.6 0.5 2.1l0.1 0.1 0.1 0.1q0.7 0.1 1.5 0.3l0.2 0.1v-0.1c0.5-0.5 1-1.1 1.4-1.7 0.4-0.5 0.7-0.9 1-1.3q0.7 0.3 1.4 0.5c0 0.5 0 1.1-0.1 1.7 0 0.7-0.1 1.5-0.1 2.1v0.2h0.1q0.8 0.4 1.4 0.8l0.1 0.1 0.1-0.1c0.6-0.3 1.2-0.8 1.9-1.2 0.4-0.3 0.9-0.7 1.3-0.9q0.6 0.4 1.2 0.8c-0.2 0.5-0.4 1-0.6 1.6-0.3 0.7-0.5 1.4-0.7 2v0.2h0.1q0.6 0.6 1.1 1.2l0.1 0.1 0.1-0.1c0.6-0.1 1.3-0.4 2.1-0.6 0.5-0.2 1-0.4 1.5-0.5q0.5 0.5 0.9 1.1c-0.3 0.4-0.6 0.9-1 1.3-0.4 0.7-0.9 1.3-1.2 1.8l-0.1 0.1 0.1 0.1q0.4 0.7 0.7 1.5l0.1 0.1h0.1c0.6 0 1.4 0 2.2-0.1 0.5 0 1.1 0 1.6 0q0.3 0.7 0.5 1.3c-0.3 0.3-0.8 0.7-1.2 1-0.7 0.5-1.3 1-1.8 1.4l-0.1 0.1 0.1 0.1q0.2 0.8 0.3 1.6v0.1h0.1c0.6 0.2 1.4 0.4 2.1 0.6 0.6 0.1 1.1 0.2 1.6 0.4zm-25-4.2l-0.1 0.3 0.3-0.1q0.3 0 0.6 0 1.1-0.1 2.1 0.2h0.2 0.1c2.3-2.6 6.7-5.6 9.9-6.3l0.4-0.1-0.3-0.2c-1.9-1.8-4.2-3.1-6.6-3.9l-0.1-0.1-0.1 0.1c-2.6 1.5-5.7 5.4-6.4 10.1zm3.2 4.2c-0.6-0.6-1.4-0.8-2.2-0.8-0.8 0.1-1.6 0.4-2.1 1-1.1 1.3-1 3.2 0.3 4.3 0.6 0.6 1.4 0.8 2.2 0.8 0.8-0.1 1.5-0.4 2.1-1.1 0.5-0.6 0.8-1.3 0.7-2.2 0-0.8-0.4-1.5-1-2zm-7.4-1.5l0.1 0.3 0.2-0.3c0.5-0.7 1.3-1.3 2.1-1.8h0.1v-0.2c-0.2-3.5 0.8-8.7 2.6-11.4l0.2-0.3h-0.4q-0.3 0-0.6 0c-2.4 0.2-4.7 0.8-6.8 1.9h-0.1v0.1c-0.8 2.9-0.2 7.9 2.6 11.7zm-11.2-1.6v0.1c1.5 2.6 5.5 5.7 10.1 6.5h0.3v-0.3q-0.1-0.3-0.1-0.6-0.1-1 0.3-2.1v-0.1l-0.1-0.1c-2.6-2.4-5.6-6.8-6.2-9.9l-0.1-0.4-0.3 0.3c-1.7 1.8-3.1 4.1-3.9 6.5zm4.7 13.7c2.9-0.2 5.9-1.3 8.2-2.9l0.2-0.2-0.2-0.2c-0.7-0.5-1.4-1.2-1.8-2l-0.1-0.1h-0.1c-3.5 0.1-8.7-0.8-11.4-2.6l-0.3-0.3v0.5q0 0.3 0 0.6c0.2 2.4 0.8 4.6 1.9 6.8l0.1 0.1c1 0.2 2.2 0.4 3.5 0.3zm13.1-1.9l0.1-0.3-0.3 0.1c-0.9 0.1-1.8 0.1-2.8-0.2h-0.1-0.1c-2.3 2.6-6.7 5.6-9.9 6.3l-0.4 0.1 0.3 0.2c1.9 1.8 4.2 3.1 6.6 3.9l0.1 0.1 0.1-0.1c2.6-1.5 5.7-5.4 6.4-10.1zm4.2-2.7l-0.1-0.3-0.2 0.3c-0.5 0.7-1.3 1.3-2.1 1.8h-0.1v0.2c0.2 3.5-0.8 8.7-2.6 11.4l-0.2 0.3h0.5q0.2 0 0.5 0c2.4-0.2 4.7-0.8 6.8-1.9h0.1v-0.1c0.8-2.9 0.2-7.9-2.6-11.7zm11.2 1.6v-0.1c-1.5-2.6-5.5-5.7-10.1-6.5h-0.3v0.3q0.1 0.3 0.1 0.6 0.1 1-0.3 2.1v0.1l0.1 0.1c2.6 2.4 5.6 6.8 6.2 9.9l0.1 0.4 0.3-0.3c1.7-1.8 3.1-4.1 3.9-6.5zm0.8-6.5c-0.2-2.4-0.8-4.6-1.9-6.8l-0.1-0.1c-1-0.2-2.2-0.4-3.5-0.3-2.9 0.2-5.9 1.3-8.2 2.9l-0.2 0.2 0.2 0.2c0.7 0.5 1.4 1.2 1.8 2l0.1 0.1h0.1c3.5-0.1 8.7 0.8 11.4 2.6l0.3 0.3v-0.5q0-0.3 0-0.6z"/>
		<path id="&lt;Compound Path&gt;" fill-rule="evenodd" class="s0" d="m440.8 214.7q0 0.5 0.1 1 0 0.5 0.1 1.1c-0.7 0.2-1.4 0.6-2.2 0.8-0.9 0.4-1.9 0.8-2.7 1.2l-0.1 0.1v0.2q0 1-0.1 2.2l-0.1 0.2 0.2 0.1c0.7 0.4 1.7 1 2.6 1.5 0.7 0.3 1.4 0.7 2 1.1q-0.2 0.9-0.4 1.9c-0.7 0.1-1.5 0.2-2.3 0.3-1.1 0.1-2.1 0.2-3 0.4h-0.1l-0.1 0.2q-0.3 1-0.7 2.1l-0.1 0.1 0.1 0.1c0.6 0.7 1.4 1.5 2.1 2.2 0.6 0.6 1.1 1.1 1.6 1.6q-0.4 0.9-1 1.8c-0.6-0.1-1.4-0.2-2.2-0.4-1-0.2-2.1-0.4-2.9-0.4h-0.2l-0.1 0.1q-0.6 0.9-1.3 1.8l-0.1 0.1 0.1 0.2c0.3 0.7 0.8 1.7 1.3 2.6 0.4 0.7 0.8 1.4 1.1 2q-0.7 0.8-1.4 1.5c-0.6-0.3-1.3-0.7-2-1-1-0.5-1.9-1-2.7-1.3l-0.2-0.1-0.1 0.2q-0.9 0.7-1.8 1.3l-0.1 0.1v0.2c0.1 0.8 0.3 1.9 0.6 2.9 0.2 0.8 0.3 1.6 0.4 2.2q-0.8 0.6-1.7 1c-0.5-0.4-1.1-0.9-1.6-1.5-0.8-0.7-1.6-1.5-2.3-2l-0.2-0.1-0.1 0.1q-1.1 0.4-2.1 0.8h-0.1v0.2c-0.2 0.8-0.3 1.9-0.3 3-0.1 0.8-0.1 1.6-0.2 2.2q-1.1 0.3-2 0.5c-0.3-0.5-0.7-1.2-1.1-1.9-0.6-0.9-1.1-1.9-1.6-2.6l-0.1-0.1h-0.2q-1.1 0.2-2.2 0.2h-0.2l-0.1 0.2c-0.4 0.7-0.7 1.8-1.1 2.8-0.3 0.7-0.5 1.5-0.8 2.1q-0.9 0-2-0.1c-0.2-0.7-0.4-1.5-0.6-2.2-0.2-1.1-0.5-2.1-0.8-2.9v-0.2h-0.2q-1-0.2-2.2-0.4l-0.1-0.1-0.2 0.2c-0.5 0.6-1.2 1.5-1.8 2.3-0.5 0.7-1 1.3-1.4 1.8q-0.9-0.3-1.9-0.7c0-0.6 0-1.4 0.1-2.2 0-1.1 0.1-2.2 0-3v-0.2l-0.1-0.1q-1-0.4-2-1l-0.1-0.1-0.2 0.1c-0.7 0.5-1.6 1.1-2.4 1.8-0.7 0.4-1.3 0.9-1.9 1.3q-0.8-0.6-1.6-1.2c0.2-0.6 0.4-1.4 0.7-2.1 0.3-1 0.7-2.1 0.9-2.9v-0.2l-0.1-0.1q-0.8-0.7-1.6-1.5l-0.1-0.1h-0.2c-0.8 0.2-1.8 0.6-2.8 1-0.7 0.3-1.5 0.6-2.1 0.8q-0.7-0.8-1.3-1.6c0.4-0.6 0.8-1.2 1.3-1.9 0.6-0.9 1.2-1.8 1.7-2.5v-0.1l-0.1-0.2q-0.6-1-1.1-1.9v-0.2h-0.2c-0.8 0-1.9 0.1-3 0.2-0.8 0-1.6 0.1-2.2 0.1q-0.5-1-0.8-1.8c0.5-0.5 1.1-1 1.7-1.5 0.9-0.6 1.8-1.3 2.4-1.9l0.1-0.1-0.1-0.2q-0.3-1.2-0.5-2.2v-0.1l-0.2-0.1c-0.8-0.2-1.8-0.4-2.8-0.7-0.8-0.1-1.6-0.3-2.3-0.5q-0.1-0.5-0.1-1 0-0.5-0.1-1c0.7-0.3 1.4-0.6 2.1-0.9 1-0.4 2-0.8 2.8-1.2l0.1-0.1v-0.1q0-1.1 0.1-2.3v-0.1l-0.1-0.1c-0.7-0.5-1.7-1-2.6-1.5-0.7-0.4-1.4-0.8-2-1.1q0.2-1 0.4-2c0.7-0.1 1.5-0.2 2.3-0.3 1-0.1 2.1-0.2 2.9-0.3l0.2-0.1 0.1-0.1q0.3-1.1 0.7-2.1l0.1-0.2-0.1-0.1c-0.6-0.7-1.4-1.4-2.1-2.2-0.6-0.5-1.1-1.1-1.6-1.6q0.4-0.9 0.9-1.8c0.7 0.1 1.5 0.3 2.3 0.4 1 0.2 2.1 0.4 2.9 0.5h0.2l0.1-0.2q0.6-0.9 1.3-1.8l0.1-0.1-0.1-0.1c-0.3-0.8-0.8-1.8-1.4-2.7-0.3-0.7-0.7-1.4-1-2q0.7-0.8 1.4-1.5c0.6 0.3 1.3 0.7 2 1 1 0.5 1.9 1 2.7 1.3l0.2 0.1 0.1-0.1q0.9-0.7 1.8-1.4l0.1-0.1v-0.1c-0.1-0.9-0.4-1.9-0.6-3-0.2-0.7-0.3-1.5-0.5-2.2q0.9-0.6 1.8-1c0.5 0.4 1.1 1 1.6 1.5 0.8 0.7 1.6 1.5 2.3 2l0.1 0.1h0.2q1-0.5 2-0.9h0.2v-0.2c0.2-0.8 0.2-1.9 0.3-2.9 0.1-0.8 0.1-1.6 0.2-2.3q1-0.3 2-0.5c0.3 0.6 0.7 1.3 1.1 1.9 0.5 0.9 1.1 1.9 1.6 2.6l0.1 0.1h0.2q1.1-0.1 2.2-0.2h0.2l0.1-0.1c0.3-0.8 0.7-1.9 1.1-2.9 0.2-0.7 0.5-1.4 0.8-2q0.9 0 2 0.1c0.2 0.6 0.4 1.4 0.6 2.2 0.2 1 0.5 2.1 0.8 2.8v0.2h0.2q1 0.2 2.2 0.5h0.1l0.1-0.1c0.6-0.6 1.3-1.5 1.9-2.4 0.5-0.6 0.9-1.3 1.4-1.8q0.9 0.3 1.9 0.7c0 0.7-0.1 1.5-0.1 2.3 0 1-0.1 2.1 0 3v0.1l0.1 0.1q1 0.5 2 1l0.1 0.1 0.2-0.1c0.7-0.4 1.6-1.1 2.4-1.7 0.6-0.5 1.3-1 1.8-1.4q0.9 0.6 1.7 1.2c-0.2 0.7-0.5 1.4-0.7 2.2-0.4 1-0.7 2-0.9 2.8v0.2l0.1 0.1q0.8 0.7 1.6 1.6l0.1 0.1 0.2-0.1c0.8-0.2 1.8-0.6 2.8-1 0.7-0.2 1.5-0.5 2.1-0.7q0.7 0.8 1.3 1.6c-0.4 0.5-0.9 1.2-1.3 1.8-0.6 0.9-1.3 1.8-1.7 2.5l-0.1 0.2 0.1 0.1q0.6 1 1.1 1.9l0.1 0.2h0.2c0.8 0 1.9-0.1 3-0.1 0.7-0.1 1.5-0.2 2.2-0.2q0.5 1 0.8 1.9c-0.5 0.4-1.1 0.9-1.7 1.4-0.9 0.7-1.8 1.3-2.4 2l-0.1 0.1v0.1q0.4 1.2 0.6 2.2v0.1l0.2 0.1c0.7 0.3 1.8 0.5 2.8 0.7 0.8 0.2 1.6 0.3 2.3 0.5zm-34.8-4.9l-0.1 0.4 0.4-0.1q0.5-0.1 0.8-0.1 1.5-0.1 3 0.3h0.2l0.1-0.1c3.2-3.7 9.1-8 13.5-9l0.5-0.1-0.4-0.4c-2.6-2.3-5.8-4.1-9.2-5.2h-0.1l-0.1 0.1c-3.6 2.1-7.7 7.7-8.6 14.2zm4.6 5.6c-0.9-0.7-2-1-3.1-0.9-1.1 0.1-2.1 0.6-2.8 1.5-1.5 1.7-1.3 4.4 0.5 5.9 0.9 0.7 1.9 1.1 3.1 1 1.1-0.1 2.1-0.7 2.8-1.5 0.7-0.9 1.1-2 1-3.1-0.1-1.1-0.7-2.1-1.5-2.9zm-10.3-1.7l0.2 0.3 0.2-0.3c0.8-1 1.7-1.9 2.8-2.5l0.2-0.1v-0.2c-0.3-4.8 0.8-12.1 3.2-15.9l0.3-0.4h-0.6q-0.4 0-0.9 0c-3.2 0.3-6.4 1.3-9.3 2.8l-0.1 0.1v0.1c-1 4.1 0 10.9 4 16.1zm-15.6-1.8l0.1 0.1c2.1 3.6 7.7 7.7 14.2 8.6h0.4l-0.1-0.4q0-0.4-0.1-0.8-0.1-1.5 0.3-3v-0.1l-0.1-0.1c-3.6-3.3-8-9.2-9-13.5l-0.1-0.6-0.3 0.4c-2.4 2.7-4.2 5.9-5.2 9.3zm7 18.6c4-0.3 8.1-1.9 11.2-4.2l0.3-0.3-0.3-0.2c-1.1-0.7-1.9-1.7-2.6-2.8l-0.1-0.1h-0.1c-4.9 0.3-12.2-0.8-15.9-3.2l-0.5-0.3v0.6q0.1 0.4 0.1 0.8c0.3 3.3 1.2 6.4 2.8 9.3l0.1 0.1 0.1 0.1c1.4 0.3 3.1 0.4 4.9 0.2zm18-3l0.1-0.4-0.4 0.1c-1.2 0.2-2.5 0.2-3.8-0.2h-0.2l-0.1 0.1c-3.2 3.7-9.1 8-13.5 9l-0.5 0.1 0.4 0.4c2.6 2.4 5.8 4.2 9.2 5.2h0.1l0.1-0.1c3.6-2.1 7.7-7.7 8.6-14.2zm5.7-3.9l-0.2-0.3-0.2 0.3c-0.7 1-1.7 1.9-2.8 2.6l-0.2 0.1v0.1c0.3 4.9-0.8 12.1-3.2 15.9l-0.2 0.5 0.6-0.1q0.4 0 0.8 0c3.3-0.3 6.4-1.3 9.3-2.8l0.1-0.1v-0.1c1.1-4 0-10.9-4-16.1zm15.6 1.8l-0.1-0.1c-2.1-3.6-7.7-7.7-14.2-8.5l-0.4-0.1 0.1 0.4q0.1 0.4 0.1 0.8 0.1 1.5-0.3 3v0.1l0.1 0.2c3.6 3.2 8 9.1 9 13.5l0.1 0.5 0.4-0.4c2.3-2.7 4.1-5.9 5.1-9.2zm0.9-9c-0.3-3.3-1.2-6.4-2.8-9.3v-0.1h-0.2c-1.4-0.4-3.1-0.5-4.9-0.3-4 0.3-8.1 1.9-11.2 4.3l-0.3 0.2 0.3 0.2c1.1 0.7 2 1.7 2.6 2.8l0.1 0.2 0.2-0.1c4.8-0.3 12.1 0.9 15.8 3.2l0.5 0.3v-0.6q0-0.4-0.1-0.8z"/>
		<path id="&lt;Compound Path&gt;" fill-rule="evenodd" class="s0" d="m494.5 385.2q0.1 0.5 0.1 1.1 0.1 0.6 0.1 1.1c-0.7 0.4-1.5 0.7-2.3 1-1.1 0.4-2.2 0.9-3 1.3l-0.1 0.1v0.2q0 1.1-0.2 2.4v0.2l0.2 0.1c0.7 0.5 1.8 1.1 2.8 1.6 0.8 0.4 1.5 0.8 2.2 1.2q-0.2 1-0.5 2.2c-0.7 0.1-1.6 0.2-2.4 0.3-1.2 0.1-2.4 0.2-3.3 0.4h-0.1l-0.1 0.2q-0.4 1.1-0.8 2.3l-0.1 0.2 0.1 0.1c0.6 0.7 1.5 1.6 2.3 2.4 0.6 0.6 1.2 1.2 1.7 1.7q-0.4 1-1 2c-0.7-0.1-1.6-0.3-2.4-0.4-1.2-0.2-2.4-0.5-3.3-0.5l-0.2-0.1-0.1 0.2q-0.6 1-1.4 2l-0.1 0.1 0.1 0.2c0.3 0.8 0.9 1.9 1.5 2.9 0.4 0.7 0.8 1.5 1.2 2.2q-0.8 0.8-1.6 1.6c-0.7-0.3-1.4-0.7-2.2-1.1-1-0.6-2.1-1.1-3-1.4l-0.1-0.1-0.2 0.1q-0.9 0.8-1.9 1.5l-0.1 0.1v0.2c0.1 0.9 0.4 2.1 0.6 3.2 0.2 0.8 0.4 1.7 0.5 2.4q-1 0.6-1.9 1.1c-0.6-0.4-1.2-1-1.8-1.6-0.8-0.8-1.7-1.7-2.5-2.2l-0.1-0.1h-0.2q-1.1 0.6-2.2 0.9l-0.2 0.1v0.2c-0.2 0.9-0.3 2.1-0.3 3.2-0.1 0.9-0.2 1.7-0.2 2.5q-1.2 0.3-2.2 0.5c-0.4-0.6-0.8-1.3-1.2-2.1-0.6-1-1.2-2-1.8-2.8l-0.1-0.1h-0.2q-1.2 0.1-2.4 0.2h-0.2l-0.1 0.2c-0.4 0.8-0.8 2-1.2 3.1-0.3 0.8-0.6 1.6-0.9 2.2q-1 0-2.2-0.1c-0.2-0.7-0.4-1.6-0.6-2.4-0.3-1.1-0.6-2.3-0.9-3.1l-0.1-0.2h-0.2q-1.1-0.2-2.3-0.5l-0.2-0.1-0.1 0.2c-0.7 0.7-1.4 1.6-2.1 2.6-0.5 0.7-1 1.4-1.5 1.9q-1-0.3-2-0.7c-0.1-0.8 0-1.6 0-2.5 0.1-1.1 0.1-2.3 0.1-3.3v-0.1l-0.2-0.1q-1.1-0.5-2.1-1.2h-0.2l-0.2 0.1c-0.8 0.4-1.7 1.2-2.6 1.9-0.7 0.5-1.4 1-2 1.4q-0.9-0.6-1.8-1.3c0.2-0.7 0.5-1.5 0.7-2.3 0.4-1.1 0.8-2.3 1-3.2v-0.1l-0.1-0.2q-0.9-0.8-1.7-1.6l-0.2-0.2-0.1 0.1c-0.9 0.2-2 0.6-3.1 1.1-0.8 0.3-1.6 0.6-2.4 0.8q-0.7-0.9-1.3-1.7c0.4-0.7 0.9-1.4 1.4-2.1 0.6-0.9 1.3-1.9 1.8-2.7l0.1-0.2-0.1-0.1q-0.7-1.1-1.2-2.1l-0.1-0.2h-0.2c-0.9 0-2.1 0.1-3.2 0.1-0.9 0.1-1.8 0.2-2.5 0.2q-0.5-1.1-0.8-2c0.5-0.5 1.2-1.1 1.8-1.6 1-0.7 1.9-1.5 2.6-2.1l0.1-0.2v-0.1q-0.4-1.3-0.6-2.4v-0.2h-0.2c-0.9-0.3-2-0.5-3.1-0.8-0.9-0.2-1.8-0.3-2.5-0.5q-0.1-0.6-0.1-1.2-0.1-0.5-0.1-1.1c0.7-0.3 1.5-0.6 2.3-1 1.1-0.4 2.2-0.8 3-1.3h0.1v-0.2q0.1-1.1 0.2-2.4v-0.2l-0.1-0.1c-0.8-0.6-1.9-1.1-2.9-1.7-0.8-0.4-1.5-0.8-2.2-1.2q0.2-1 0.5-2.1c0.7-0.2 1.6-0.2 2.4-0.3 1.2-0.1 2.4-0.2 3.3-0.4l0.2-0.1v-0.1q0.4-1.2 0.8-2.3l0.1-0.2-0.1-0.1c-0.6-0.8-1.5-1.6-2.3-2.4-0.6-0.6-1.2-1.2-1.7-1.8q0.4-1 1-1.9c0.7 0.1 1.6 0.2 2.4 0.4 1.2 0.2 2.4 0.4 3.3 0.5h0.2l0.1-0.1q0.6-1 1.4-2l0.1-0.1-0.1-0.2c-0.3-0.9-0.9-1.9-1.5-2.9-0.4-0.8-0.8-1.5-1.2-2.2q0.8-0.8 1.6-1.6c0.7 0.3 1.4 0.7 2.2 1.1 1 0.5 2.1 1.1 3 1.4h0.1l0.2-0.1q0.9-0.8 1.9-1.5l0.1-0.1v-0.1c-0.1-1-0.3-2.1-0.6-3.3-0.2-0.8-0.4-1.6-0.5-2.4q1-0.6 1.9-1.1c0.6 0.5 1.2 1.1 1.8 1.7 0.9 0.8 1.7 1.6 2.5 2.2l0.1 0.1 0.2-0.1q1.2-0.5 2.2-0.9h0.2v-0.2c0.2-0.9 0.3-2.1 0.4-3.3 0-0.8 0.1-1.7 0.2-2.4q1.1-0.3 2.1-0.6c0.4 0.7 0.8 1.4 1.2 2.1 0.6 1 1.3 2.1 1.8 2.9l0.1 0.1h0.2q1.2-0.2 2.4-0.2l0.2-0.1 0.1-0.1c0.4-0.9 0.8-2 1.3-3.1 0.2-0.8 0.5-1.6 0.8-2.3q1 0 2.2 0.1c0.2 0.8 0.5 1.6 0.7 2.5 0.2 1.1 0.5 2.2 0.8 3.1l0.1 0.2h0.2q1.1 0.2 2.3 0.5h0.2l0.1-0.1c0.7-0.7 1.4-1.7 2.1-2.6 0.5-0.7 1-1.4 1.5-2q1 0.4 2.1 0.8c0 0.7-0.1 1.6-0.1 2.4-0.1 1.2-0.1 2.4-0.1 3.3v0.2l0.2 0.1q1.1 0.5 2.2 1.1l0.1 0.1 0.2-0.1c0.8-0.5 1.7-1.2 2.7-1.9 0.6-0.5 1.3-1 1.9-1.5q1 0.7 1.8 1.3c-0.2 0.7-0.5 1.6-0.7 2.4-0.4 1.1-0.8 2.2-1 3.1v0.2l0.1 0.1q0.9 0.8 1.7 1.7l0.2 0.1h0.1c0.9-0.2 2.1-0.7 3.1-1.1 0.8-0.3 1.6-0.6 2.4-0.8q0.7 0.8 1.3 1.7c-0.4 0.6-0.9 1.3-1.4 2-0.6 1-1.3 2-1.8 2.8l-0.1 0.1 0.1 0.2q0.7 1 1.2 2.1l0.1 0.2h0.2c0.9 0 2.1-0.1 3.2-0.2 0.9-0.1 1.8-0.1 2.5-0.2q0.5 1.1 0.9 2.1c-0.6 0.5-1.3 1-1.9 1.5-1 0.8-1.9 1.5-2.6 2.2l-0.1 0.1v0.2q0.4 1.3 0.6 2.3v0.2l0.2 0.1c0.9 0.3 2 0.5 3.2 0.7 0.8 0.2 1.7 0.4 2.4 0.6zm-38-5.4l-0.1 0.5 0.4-0.1q0.5-0.1 0.9-0.1 1.7-0.2 3.3 0.2l0.2 0.1 0.1-0.1c3.5-4 10-8.8 14.8-9.9l0.5-0.1-0.4-0.4c-2.9-2.6-6.4-4.5-10.1-5.6l-0.1-0.1-0.1 0.1c-4 2.3-8.4 8.4-9.4 15.5zm5 6.2c-0.9-0.8-2.1-1.2-3.4-1.1-1.2 0.2-2.3 0.7-3.1 1.7-1.6 1.9-1.3 4.8 0.6 6.5 0.9 0.7 2.1 1.1 3.4 1 1.2-0.1 2.3-0.7 3.1-1.6 0.8-1 1.1-2.2 1-3.4-0.1-1.2-0.7-2.3-1.6-3.1zm-11.3-1.9l0.3 0.4 0.2-0.4c0.8-1.1 1.9-2.1 3.1-2.8l0.1-0.1v-0.2c-0.3-5.3 0.9-13.2 3.5-17.3l0.4-0.5h-0.6q-0.5 0-1 0.1c-3.6 0.3-7 1.3-10.2 3l-0.1 0.1v0.1c-1.2 4.4 0 11.9 4.3 17.6zm-17-2l0.1 0.1c2.3 3.9 8.4 8.4 15.6 9.4l0.4 0.1-0.1-0.5q-0.1-0.4-0.1-0.8-0.2-1.7 0.3-3.3v-0.2l-0.1-0.1c-4-3.5-8.8-10-9.8-14.8l-0.2-0.6-0.4 0.5c-2.6 2.9-4.5 6.4-5.6 10.1zm7.7 20.4c4.3-0.4 8.8-2.1 12.2-4.7l0.3-0.2-0.3-0.3c-1.1-0.8-2.1-1.8-2.8-3l-0.1-0.2h-0.2c-5.3 0.3-13.2-0.9-17.4-3.5l-0.5-0.3 0.1 0.7q0 0.4 0 0.8c0.3 3.6 1.4 7.1 3.1 10.2v0.2h0.2c1.5 0.4 3.4 0.5 5.4 0.3zm19.7-3.3v-0.4h-0.4c-1.3 0.3-2.8 0.2-4.1-0.1l-0.2-0.1-0.2 0.2c-3.5 3.9-9.9 8.7-14.7 9.8l-0.6 0.1 0.5 0.4c2.8 2.6 6.3 4.6 10 5.7h0.2l0.1-0.1c3.9-2.3 8.4-8.4 9.4-15.5zm6.2-4.3l-0.2-0.4-0.3 0.4c-0.8 1.1-1.8 2.1-3 2.8l-0.2 0.1v0.2c0.3 5.3-0.9 13.2-3.5 17.4l-0.3 0.5 0.7-0.1q0.4 0 0.8 0c3.6-0.3 7.1-1.4 10.2-3.1h0.1l0.1-0.2c1.1-4.4 0-11.9-4.4-17.6zm17 2l-0.1-0.1c-2.3-3.9-8.4-8.4-15.5-9.4h-0.4v0.4q0.1 0.5 0.2 0.9 0.1 1.6-0.3 3.2l-0.1 0.2 0.2 0.1c3.9 3.6 8.7 10 9.8 14.8l0.1 0.6 0.4-0.5c2.6-2.9 4.6-6.3 5.7-10.1zm0.9-9.7c-0.3-3.6-1.3-7-3-10.2l-0.1-0.1-0.1-0.1c-1.6-0.3-3.4-0.5-5.4-0.3-4.4 0.4-8.8 2.1-12.3 4.7l-0.3 0.3 0.4 0.2c1.1 0.8 2.1 1.8 2.8 3.1l0.1 0.1h0.2c5.3-0.3 13.2 0.9 17.3 3.5l0.5 0.3v-0.7q0-0.4-0.1-0.8z"/>
		<path id="&lt;Compound Path&gt;" fill-rule="evenodd" class="s0" d="m440.8 319.3q0.1 1.4 0.1 2.8 0 1.3-0.1 2.7c-2.1 1-5.1 1.9-7.9 2.9-2.1 0.6-4.2 1.3-6.1 2.1l-0.3 0.1-0.1 0.4c-0.3 3-0.9 6-1.7 8.9l-0.1 0.4 0.2 0.2c1.5 1.5 3.3 3 5 4.5 2.2 1.8 4.5 3.8 6 5.5-0.6 1.6-1.2 3.2-2 4.9q-0.6 0-1.3 0c-2.1 0-4.6-0.2-7-0.4-2.2-0.2-4.5-0.4-6.5-0.4h-0.4l-0.2 0.3c-1.5 2.7-3.2 5.2-5 7.6l-0.3 0.3 0.2 0.4c0.8 1.8 1.8 3.9 2.8 5.9 1.4 2.6 2.7 5.3 3.5 7.5q-1.8 1.9-3.7 3.7c-2.2-0.8-4.9-2.2-7.5-3.5-2-1-4.1-2-5.9-2.8l-0.4-0.2-0.3 0.2c-2.4 1.9-4.9 3.6-7.6 5.1l-0.3 0.2v0.4c0.1 2 0.2 4.3 0.4 6.5 0.2 2.9 0.5 6 0.4 8.3-1.7 0.8-3.3 1.4-4.9 2-1.7-1.5-3.6-3.8-5.5-6-1.5-1.7-3-3.5-4.5-5l-0.2-0.2-0.4 0.1c-2.9 0.8-5.9 1.3-8.9 1.7l-0.4 0.1-0.1 0.3c-0.8 1.8-1.4 4-2.1 6.1-1 2.8-1.9 5.7-2.9 7.9q-2.7 0.1-5.4 0c-1.1-2.1-2-5.1-2.9-7.9-0.7-2.1-1.4-4.2-2.1-6.1l-0.2-0.3-0.4-0.1c-3-0.4-6-0.9-8.9-1.7l-0.4-0.1-0.2 0.2c-1.4 1.5-3 3.3-4.4 5-1.9 2.2-3.9 4.5-5.6 6-1.5-0.6-3.1-1.2-4.8-2-0.1-2.3 0.1-5.4 0.3-8.3 0.2-2.2 0.4-4.5 0.4-6.5v-0.4l-0.3-0.2c-2.6-1.5-5.2-3.2-7.6-5.1l-0.3-0.2-0.3 0.2c-1.9 0.8-4 1.8-5.9 2.8-2.7 1.3-5.4 2.7-7.5 3.5q-2-1.8-3.8-3.7c0.8-2.2 2.2-4.9 3.5-7.5 1-2 2.1-4.1 2.9-5.9l0.1-0.4-0.2-0.3c-1.9-2.4-3.6-4.9-5.1-7.6l-0.2-0.3h-0.4c-2 0-4.2 0.2-6.4 0.4-3 0.2-6 0.5-8.4 0.4-0.7-1.7-1.4-3.3-2-4.9 1.5-1.7 3.8-3.7 6-5.5 1.7-1.5 3.5-3 5-4.5l0.3-0.2-0.1-0.4c-0.8-2.9-1.4-5.9-1.8-8.9l-0.1-0.4-0.3-0.1c-1.8-0.8-4-1.5-6-2.1-2.9-1-5.8-1.9-8-2.9q0-1.4 0-2.7 0-1.4 0-2.8c2.2-1 5.1-1.9 8-2.9 2-0.6 4.2-1.3 6-2l0.3-0.2 0.1-0.4c0.4-3 1-6 1.8-8.9l0.1-0.4-0.3-0.2c-1.5-1.4-3.3-3-5-4.4-2.2-1.9-4.5-3.9-6-5.6 0.6-1.5 1.2-3.1 2-4.9 2.4-0.1 5.4 0.2 8.3 0.4 2.3 0.2 4.5 0.4 6.5 0.4h0.4l0.2-0.3c1.5-2.7 3.2-5.2 5.1-7.6l0.2-0.3-0.1-0.4c-0.8-1.8-1.9-3.9-2.9-5.9-1.3-2.6-2.7-5.3-3.5-7.5q1.8-1.9 3.8-3.7c2.1 0.8 4.8 2.2 7.5 3.5 1.9 1 4 2.1 5.9 2.8l0.3 0.2 0.3-0.2c2.4-1.9 4.9-3.6 7.6-5.1l0.3-0.2v-0.4c0-2-0.2-4.2-0.4-6.5-0.2-2.9-0.4-5.9-0.3-8.3 1.7-0.8 3.3-1.4 4.8-2 1.7 1.5 3.7 3.8 5.6 6 1.4 1.7 3 3.5 4.4 5l0.2 0.3 0.4-0.1c2.9-0.8 5.9-1.4 8.9-1.8l0.4-0.1 0.2-0.3c0.7-1.8 1.4-4 2.1-6 0.9-2.9 1.8-5.8 2.9-8q2.7-0.1 5.4 0c1 2.2 1.9 5.1 2.9 8 0.7 2 1.3 4.2 2.1 6l0.1 0.3 0.4 0.1c3 0.4 6 1 8.9 1.8l0.4 0.1 0.2-0.3c1.5-1.5 3-3.3 4.5-5 1.9-2.2 3.8-4.5 5.5-6 1.6 0.6 3.2 1.2 4.9 2 0.1 2.4-0.2 5.4-0.4 8.3-0.2 2.3-0.3 4.5-0.4 6.5v0.4l0.3 0.2c2.7 1.5 5.2 3.2 7.6 5.1l0.3 0.2 0.4-0.2c1.8-0.7 3.9-1.8 5.9-2.8 2.6-1.3 5.3-2.7 7.5-3.5q1.9 1.8 3.7 3.7c-0.8 2.2-2.1 4.9-3.5 7.5-1 2-2 4.1-2.8 5.9l-0.2 0.4 0.3 0.3c1.8 2.4 3.5 4.9 5 7.6l0.2 0.3h0.4c2 0 4.3-0.2 6.5-0.4 2.9-0.2 6-0.5 8.3-0.4 0.8 1.8 1.4 3.4 2 4.9-1.5 1.7-3.8 3.7-6 5.5-1.7 1.5-3.5 3.1-5 4.5l-0.2 0.2 0.1 0.4c0.8 2.9 1.4 5.9 1.7 8.9l0.1 0.4 0.3 0.2c1.9 0.7 4 1.4 6.1 2 2.8 1 5.8 1.9 7.9 2.9zm-35.5-26.1l-27.8 16.1 0.4 0.6q1.7 2.1 2.7 4.5l0.2 0.7 27.8-16.1-0.2-0.5q-1.3-2.5-2.8-4.8zm-37.6 9.6l0.5 0.2c2.7 0.9 5.2 2.3 7.4 4.3l0.3 0.3 28.1-16.2-0.4-0.6c-8.5-11.2-21.3-18.6-35.2-20.3l-0.7-0.1zm-9-0.5l0.8-0.1c1.9-0.2 3.2-0.3 5.2 0l0.7 0.1v-32.1h-0.6c-1.8-0.1-3.6-0.1-5.5 0h-0.6zm-38.5-11l28.1 16.3 0.3-0.4c2.2-1.9 4.7-3.4 7.4-4.3l0.5-0.1v-32.4l-0.8 0.1c-13.8 1.7-26.6 9.1-35.1 20.3zm-4.6 7.6l27.8 16.1 0.2-0.7q1-2.4 2.7-4.5l0.4-0.6-27.8-16.1-0.3 0.5q-1.5 2.3-2.8 4.8zm-0.9 44l28.1-16.3-0.1-0.4q-0.5-2.2-0.5-4.3 0-2.1 0.5-4.3l0.1-0.4-28.1-16.3-0.3 0.7c-2.8 6.4-4.1 13.3-4.1 20.3 0 7 1.3 13.9 4.1 20.3zm4.3 7.9l27.8-16.1-0.4-0.6q-1.7-2.1-2.7-4.5l-0.2-0.7-27.8 16.1 0.2 0.5q1.3 2.5 2.8 4.7zm37.6-9.6l-0.5-0.1c-2.7-0.9-5.2-2.3-7.4-4.3l-0.3-0.3-28.1 16.2 0.4 0.6c8.5 11.2 21.3 18.6 35.2 20.3l0.7 0.1zm9 0.5l-0.8 0.1c-1.9 0.2-3.2 0.2-5.2 0l-0.7-0.1v32.1h0.6q1.3 0.1 2.7 0.1 1.4 0 2.7-0.1h0.7zm2.4-9.8c5.5-3.1 7.3-10.2 4.2-15.7-2.1-3.6-5.9-5.8-10-5.8-2 0-4 0.6-5.8 1.6-2.6 1.5-4.5 4-5.3 7-0.8 2.9-0.4 6 1.1 8.7 2.1 3.6 5.9 5.8 10 5.8 2 0 4-0.6 5.8-1.6zm36.1 20.7l-28.1-16.2-0.3 0.3c-2.2 2-4.7 3.5-7.4 4.3l-0.5 0.2v32.4l0.8-0.1c13.8-1.7 26.6-9.1 35.1-20.3zm4.6-7.6l-27.8-16.1-0.2 0.7q-1 2.4-2.7 4.5l-0.4 0.6 27.8 16.1 0.3-0.6q1.5-2.2 2.8-4.7zm5.3-23c0-7.1-1.3-13.9-4.1-20.3l-0.3-0.7-28.1 16.2 0.1 0.5q0.5 2.2 0.5 4.3 0 2.1-0.5 4.3l-0.1 0.4 28.1 16.2 0.3-0.6c2.8-6.5 4.1-13.3 4.1-20.3z"/>
		<path id="&lt;Compound Path&gt;" fill-rule="evenodd" class="s0" d="m518.7 261.2q0.1 0.7 0.1 1.5 0 0.7-0.1 1.5c-1.1 0.5-2.8 1-4.3 1.6-1.2 0.3-2.4 0.7-3.4 1.1l-0.2 0.1v0.2q-0.3 2.5-1 5v0.2l0.1 0.1c0.8 0.8 1.8 1.6 2.8 2.5 1.2 1 2.4 2.1 3.3 3q-0.5 1.3-1.1 2.7-0.4 0-0.7 0c-1.2 0-2.6-0.1-3.9-0.2-1.3-0.1-2.5-0.2-3.6-0.2h-0.2l-0.1 0.2q-1.3 2.2-2.9 4.2l-0.1 0.1 0.1 0.2c0.4 1.1 1 2.2 1.6 3.3 0.7 1.5 1.5 3 1.9 4.2q-1 1-2.1 2c-1.2-0.4-2.7-1.2-4.1-1.9-1.1-0.6-2.3-1.1-3.3-1.6l-0.2-0.1-0.1 0.2q-2 1.5-4.2 2.8l-0.2 0.1v0.2c0 1.1 0.1 2.4 0.2 3.6 0.1 1.6 0.3 3.3 0.2 4.6q-1.4 0.6-2.7 1.1c-0.9-0.8-2-2.1-3.1-3.3-0.8-1-1.6-2-2.4-2.8l-0.2-0.1h-0.2q-2.4 0.7-4.9 1h-0.2l-0.1 0.2c-0.4 1-0.8 2.2-1.2 3.4-0.5 1.5-1 3.2-1.6 4.4q-1.5 0-3 0c-0.5-1.2-1.1-2.8-1.6-4.4-0.3-1.2-0.7-2.4-1.1-3.4l-0.1-0.2h-0.2q-2.5-0.3-5-1h-0.2l-0.1 0.1c-0.8 0.8-1.6 1.8-2.5 2.8-1 1.2-2.1 2.5-3 3.3q-1.3-0.5-2.7-1.1c-0.1-1.3 0-3 0.2-4.6 0.1-1.2 0.2-2.5 0.2-3.6v-0.2l-0.2-0.1q-2.2-1.3-4.2-2.8l-0.2-0.2-0.1 0.1c-1.1 0.5-2.2 1-3.3 1.6-1.5 0.7-3 1.5-4.2 1.9q-1-1-2-2c0.4-1.2 1.2-2.7 1.9-4.2 0.6-1.1 1.1-2.2 1.6-3.3l0.1-0.2-0.2-0.1q-1.5-2-2.8-4.2l-0.1-0.2h-0.2c-1.1 0-2.4 0.1-3.6 0.2-1.6 0.1-3.3 0.3-4.6 0.2q-0.6-1.4-1.1-2.7c0.8-0.9 2.1-2 3.3-3 1-0.9 2-1.7 2.8-2.5l0.1-0.1v-0.2q-0.7-2.5-1-5v-0.2l-0.2-0.1c-1.1-0.4-2.2-0.8-3.4-1.1-1.6-0.6-3.2-1.1-4.4-1.6q0-0.8 0-1.5 0-0.8 0-1.5c1.2-0.6 2.8-1.1 4.4-1.7 1.2-0.3 2.3-0.7 3.4-1.1l0.2-0.1v-0.2q0.3-2.5 1-4.9v-0.2l-0.1-0.2c-0.8-0.8-1.8-1.6-2.8-2.4-1.2-1.1-2.5-2.2-3.3-3.1q0.5-1.3 1.1-2.7c1.3-0.1 3 0.1 4.6 0.2 1.2 0.1 2.5 0.2 3.6 0.2h0.2l0.1-0.2q1.3-2.2 2.8-4.2l0.2-0.1-0.1-0.2c-0.5-1-1-2.2-1.6-3.3-0.7-1.4-1.5-2.9-1.9-4.2q1-1 2-2c1.2 0.4 2.7 1.2 4.2 1.9 1.1 0.6 2.2 1.2 3.3 1.6l0.1 0.1 0.2-0.2q2-1.5 4.2-2.8l0.2-0.1v-0.2c0-1.1-0.1-2.3-0.2-3.6-0.2-1.6-0.3-3.3-0.2-4.6q1.4-0.6 2.7-1.1c0.9 0.9 2 2.1 3 3.3 0.9 1 1.7 2 2.5 2.8l0.1 0.1h0.2q2.5-0.7 5-1h0.2l0.1-0.2c0.4-1 0.8-2.2 1.1-3.4 0.5-1.5 1.1-3.2 1.6-4.4q1.5 0 3 0c0.6 1.2 1.1 2.9 1.6 4.4 0.4 1.2 0.8 2.4 1.2 3.4l0.1 0.2h0.2q2.5 0.3 4.9 1h0.2l0.2-0.1c0.8-0.8 1.6-1.8 2.4-2.8 1.1-1.2 2.2-2.4 3.1-3.3q1.3 0.5 2.7 1.1c0.1 1.3-0.1 3-0.2 4.6-0.1 1.3-0.2 2.5-0.2 3.6v0.2l0.2 0.1q2.2 1.3 4.2 2.8l0.1 0.2 0.2-0.1c1-0.4 2.2-1 3.3-1.6 1.4-0.7 2.9-1.5 4.1-1.9q1.1 1 2.1 2.1c-0.4 1.2-1.2 2.7-1.9 4.1-0.6 1.1-1.2 2.3-1.6 3.3l-0.1 0.2 0.1 0.1q1.6 2 2.9 4.2l0.1 0.2h0.2c1.1 0 2.3-0.1 3.6-0.2 1.6-0.1 3.3-0.3 4.6-0.2q0.6 1.4 1.1 2.7c-0.9 0.9-2.1 2-3.3 3.1-1 0.8-2 1.6-2.8 2.4l-0.1 0.2v0.2q0.7 2.4 1 4.9v0.2l0.2 0.1c1 0.4 2.2 0.8 3.4 1.1 1.5 0.6 3.2 1.1 4.3 1.7zm-19.6-14.5l-15.4 8.9 0.2 0.3q0.9 1.2 1.5 2.5l0.1 0.4 15.4-8.9-0.1-0.3q-0.7-1.4-1.5-2.6zm-20.9 5.3l0.3 0.1q2.3 0.7 4.1 2.3l0.2 0.2 15.5-9-0.2-0.3c-4.7-6.2-11.8-10.3-19.5-11.2l-0.4-0.1zm-4.9-0.2l0.4-0.1c1-0.1 1.7-0.1 2.9 0h0.4v-17.7l-0.4-0.1q-1.5 0-3 0l-0.3 0.1zm-21.4-6.1l15.6 9 0.2-0.2q1.8-1.6 4.1-2.4l0.2-0.1v-17.9h-0.4c-7.7 1-14.8 5.1-19.5 11.3zm-2.5 4.2l15.4 8.9 0.1-0.4q0.6-1.3 1.5-2.5l0.2-0.3-15.4-8.9-0.2 0.3q-0.8 1.3-1.5 2.6zm-0.5 24.4l15.5-9v-0.3q-0.3-1.2-0.3-2.3 0-1.2 0.3-2.4v-0.3l-15.5-8.9-0.2 0.3c-1.5 3.6-2.3 7.4-2.3 11.3 0 3.9 0.8 7.6 2.3 11.2zm2.4 4.4l15.4-8.9-0.2-0.4q-0.9-1.1-1.5-2.5l-0.1-0.3-15.4 8.9 0.1 0.3q0.7 1.3 1.5 2.6zm20.9-5.3l-0.3-0.1q-2.3-0.7-4.1-2.4l-0.2-0.2-15.5 9 0.2 0.3c4.7 6.2 11.8 10.3 19.5 11.3h0.4zm4.9 0.3h-0.4c-1.1 0.2-1.7 0.2-2.9 0.1l-0.4-0.1v17.8h0.4q0.7 0 1.5 0 0.7 0 1.5 0h0.3zm1.4-5.4c3-1.8 4.1-5.7 2.3-8.7-1.1-2-3.3-3.2-5.5-3.2-1.1 0-2.2 0.3-3.2 0.8-1.5 0.9-2.5 2.3-3 3.9-0.4 1.7-0.2 3.4 0.6 4.8 1.2 2 3.3 3.2 5.6 3.2 1.1 0 2.2-0.3 3.2-0.8zm20 11.5l-15.6-9-0.2 0.1q-1.8 1.7-4.1 2.4l-0.2 0.1v18l0.4-0.1c7.7-0.9 14.8-5 19.5-11.2zm2.5-4.3l-15.4-8.9-0.1 0.4q-0.6 1.3-1.5 2.5l-0.2 0.3 15.4 8.9 0.2-0.2q0.8-1.3 1.5-2.7zm3-12.7c0-3.9-0.8-7.7-2.3-11.3l-0.2-0.3-15.6 9 0.1 0.2q0.3 1.2 0.3 2.4 0 1.2-0.3 2.3v0.3l15.5 9 0.2-0.4c1.5-3.5 2.3-7.3 2.3-11.2z"/>
		<path id="&lt;Compound Path&gt;" fill-rule="evenodd" class="s0" d="m480.8 193.9q0 0.3 0 0.7 0 0.4 0 0.7c-0.6 0.3-1.3 0.5-2.1 0.8-0.6 0.2-1.1 0.4-1.6 0.5l-0.1 0.1v0.1q-0.2 1.2-0.5 2.4v0.1c0.4 0.4 0.9 0.8 1.4 1.2 0.6 0.5 1.2 1 1.6 1.5q-0.2 0.6-0.6 1.3-0.1 0-0.3 0c-0.6 0-1.2 0-1.9-0.1-0.6 0-1.2-0.1-1.7-0.1h-0.1l-0.1 0.1q-0.6 1-1.3 2l-0.1 0.1 0.1 0.1c0.2 0.5 0.5 1 0.7 1.6 0.4 0.7 0.7 1.4 1 2q-0.5 0.5-1 1c-0.6-0.3-1.4-0.6-2.1-1-0.5-0.2-1-0.5-1.5-0.7l-0.1-0.1-0.1 0.1q-1 0.7-2 1.3l-0.1 0.1v0.1c0 0.5 0 1.1 0.1 1.7 0.1 0.8 0.1 1.6 0.1 2.3q-0.7 0.3-1.3 0.5c-0.5-0.4-1-1-1.5-1.6-0.4-0.5-0.8-1-1.2-1.3v-0.1h-0.1q-1.2 0.3-2.4 0.5h-0.1l-0.1 0.1c-0.2 0.5-0.3 1-0.5 1.6-0.3 0.8-0.5 1.5-0.8 2.1q-0.7 0-1.4 0c-0.3-0.6-0.6-1.3-0.8-2.1-0.2-0.5-0.4-1.1-0.6-1.6v-0.1h-0.1q-1.2-0.2-2.4-0.5h-0.1l-0.1 0.1c-0.4 0.3-0.8 0.8-1.2 1.3-0.5 0.6-1 1.2-1.4 1.6q-0.7-0.2-1.3-0.5c-0.1-0.7 0-1.5 0.1-2.3 0-0.6 0.1-1.2 0.1-1.7v-0.1l-0.1-0.1q-1.1-0.6-2-1.3l-0.1-0.1-0.1 0.1c-0.5 0.2-1.1 0.5-1.6 0.7-0.7 0.4-1.4 0.7-2 1q-0.5-0.5-1-1c0.2-0.6 0.6-1.3 0.9-2 0.3-0.6 0.6-1.1 0.8-1.6v-0.1-0.1q-0.8-1-1.4-2v-0.1h-0.1c-0.6 0-1.2 0.1-1.8 0.1-0.7 0.1-1.6 0.1-2.2 0.1q-0.3-0.7-0.5-1.3c0.4-0.5 1-1 1.6-1.5 0.4-0.4 0.9-0.8 1.3-1.2h0.1v-0.1q-0.4-1.2-0.5-2.4v-0.1l-0.1-0.1c-0.5-0.1-1.1-0.3-1.6-0.5-0.8-0.3-1.6-0.5-2.2-0.8q0-0.3 0-0.7 0-0.4 0-0.7c0.6-0.3 1.4-0.6 2.2-0.8 0.5-0.2 1.1-0.4 1.6-0.6h0.1v-0.1q0.1-1.2 0.5-2.4v-0.1l-0.1-0.1c-0.4-0.3-0.9-0.8-1.3-1.1-0.6-0.5-1.2-1.1-1.6-1.5q0.2-0.6 0.5-1.3c0.6-0.1 1.5 0 2.2 0.1 0.6 0 1.2 0.1 1.8 0.1h0.1v-0.1q0.6-1.1 1.4-2v-0.1-0.1c-0.2-0.5-0.5-1.1-0.8-1.6-0.3-0.7-0.7-1.4-0.9-2q0.5-0.5 1-1c0.6 0.2 1.3 0.6 2 0.9 0.5 0.3 1.1 0.6 1.6 0.8h0.1 0.1q0.9-0.8 2-1.4h0.1v-0.1c0-0.6-0.1-1.2-0.1-1.8-0.1-0.7-0.2-1.6-0.1-2.2q0.6-0.3 1.3-0.5c0.4 0.4 0.9 1 1.4 1.6 0.4 0.5 0.8 0.9 1.2 1.3l0.1 0.1h0.1q1.2-0.4 2.4-0.5h0.1v-0.1c0.2-0.5 0.4-1.1 0.6-1.6 0.2-0.8 0.5-1.6 0.8-2.1q0.7-0.1 1.4 0c0.3 0.5 0.5 1.3 0.8 2.1 0.2 0.5 0.3 1.1 0.5 1.6l0.1 0.1h0.1q1.2 0.1 2.4 0.5h0.1v-0.1c0.4-0.4 0.8-0.8 1.2-1.3 0.5-0.6 1-1.2 1.5-1.6q0.6 0.2 1.3 0.5c0 0.6 0 1.5-0.1 2.2-0.1 0.6-0.1 1.2-0.1 1.8v0.1h0.1q1 0.6 2 1.4h0.1 0.1c0.5-0.2 1-0.5 1.6-0.8 0.7-0.3 1.4-0.7 2-0.9q0.5 0.5 1 1c-0.3 0.6-0.6 1.3-1 2-0.3 0.5-0.5 1.1-0.7 1.6l-0.1 0.1 0.1 0.1q0.7 0.9 1.3 2l0.1 0.1h0.1c0.5 0 1.1-0.1 1.7-0.1 0.8-0.1 1.6-0.2 2.2-0.1q0.4 0.7 0.6 1.3c-0.4 0.4-1 1-1.6 1.5-0.5 0.3-1 0.8-1.4 1.1v0.1 0.1q0.3 1.2 0.5 2.4v0.1h0.1c0.5 0.2 1 0.4 1.6 0.6 0.8 0.2 1.5 0.5 2.1 0.8zm-9.5-7l-7.4 4.3 0.1 0.1q0.5 0.6 0.7 1.2l0.1 0.2 7.4-4.3-0.1-0.1q-0.3-0.7-0.7-1.3zm-10 2.6h0.1q1.1 0.4 2 1.2l0.1 0.1 7.5-4.4-0.2-0.1c-2.2-3-5.6-5-9.3-5.5h-0.2zm-2.4-0.1h0.2c0.5-0.1 0.8-0.1 1.4 0h0.2v-8.6h-0.2q-0.7 0-1.5 0h-0.1zm-10.3-2.9l7.5 4.3 0.1-0.1q0.8-0.8 1.9-1.1l0.2-0.1v-8.6h-0.2c-3.7 0.5-7.2 2.4-9.4 5.4zm-1.3 2.1l7.5 4.3v-0.2q0.3-0.7 0.7-1.2l0.2-0.2-7.5-4.3-0.1 0.2q-0.3 0.6-0.7 1.2zm-0.2 11.8l7.5-4.4-0.1-0.1q-0.1-0.6-0.1-1.1 0-0.6 0.1-1.2l0.1-0.1-7.5-4.3-0.1 0.2q-1.1 2.5-1.1 5.4 0 2.8 1.1 5.4zm1.1 2.1l7.5-4.3-0.2-0.1q-0.4-0.6-0.7-1.3v-0.1l-7.5 4.3 0.1 0.1q0.4 0.7 0.7 1.3zm10.1-2.6h-0.1q-1.1-0.4-2-1.2l-0.1-0.1-7.5 4.4 0.1 0.1c2.3 3 5.7 5 9.4 5.4l0.2 0.1zm2.4 0.1h-0.2c-0.5 0.1-0.9 0.1-1.4 0h-0.2v8.6h0.2q0.3 0 0.7 0 0.4 0 0.7 0h0.2zm0.6-2.6c1.5-0.9 2-2.8 1.2-4.2-0.6-1-1.6-1.6-2.7-1.6q-0.8 0-1.5 0.4c-0.8 0.5-1.3 1.1-1.5 1.9-0.2 0.8-0.1 1.6 0.3 2.3 0.6 1 1.6 1.6 2.7 1.6q0.8 0 1.5-0.4zm9.7 5.5l-7.5-4.3-0.1 0.1q-0.9 0.8-2 1.1h-0.1v8.7h0.2c3.7-0.5 7.1-2.4 9.4-5.4zm1.2-2.1l-7.4-4.3-0.1 0.2q-0.2 0.6-0.7 1.2l-0.1 0.2 7.4 4.3 0.1-0.2q0.4-0.6 0.7-1.2zm1.5-6.2q0-2.8-1.1-5.4l-0.1-0.2-7.5 4.3v0.2q0.2 0.5 0.2 1.1 0 0.6-0.2 1.1v0.2l7.5 4.3 0.1-0.2q1.1-2.6 1.1-5.4z"/>
		<path id="&lt;Compound Path&gt;" fill-rule="evenodd" class="s0" d="m333.6 412q0.1 0.5 0.1 0.9 0 0.5-0.1 0.9c-0.7 0.4-1.6 0.7-2.6 1-0.7 0.2-1.4 0.5-2 0.7h-0.1v0.2q-0.2 1.5-0.6 2.9l-0.1 0.2h0.1c0.5 0.5 1.1 1 1.7 1.5 0.7 0.6 1.5 1.3 2 1.9q-0.3 0.7-0.7 1.6-0.2 0-0.4 0c-0.7 0-1.5-0.1-2.4-0.1-0.7-0.1-1.4-0.2-2.1-0.2h-0.1l-0.1 0.1q-0.7 1.3-1.7 2.6l-0.1 0.1 0.1 0.1c0.3 0.6 0.6 1.3 0.9 1.9 0.5 0.9 0.9 1.8 1.2 2.5q-0.6 0.7-1.2 1.3c-0.8-0.3-1.7-0.7-2.5-1.2-0.7-0.3-1.4-0.7-2-0.9l-0.1-0.1-0.1 0.1q-1.2 0.9-2.5 1.7h-0.1v0.2c0 0.6 0 1.4 0.1 2.1 0.1 1 0.1 2 0.1 2.8q-0.8 0.4-1.6 0.7c-0.6-0.6-1.2-1.3-1.9-2-0.4-0.6-1-1.2-1.4-1.7l-0.1-0.1-0.1 0.1q-1.5 0.3-3 0.5l-0.1 0.1-0.1 0.1c-0.2 0.6-0.4 1.3-0.7 2-0.3 0.9-0.6 1.9-0.9 2.6q-0.9 0-1.8 0c-0.4-0.7-0.7-1.7-1-2.6-0.2-0.7-0.5-1.4-0.7-2v-0.1l-0.2-0.1q-1.5-0.2-2.9-0.5l-0.2-0.1-0.1 0.1c-0.4 0.5-0.9 1.1-1.4 1.7-0.6 0.7-1.3 1.5-1.9 2q-0.7-0.3-1.6-0.7c0-0.8 0.1-1.8 0.1-2.8 0.1-0.7 0.2-1.5 0.2-2.1v-0.2h-0.1q-1.4-0.8-2.6-1.7l-0.1-0.1-0.1 0.1c-0.6 0.2-1.3 0.6-1.9 0.9-0.9 0.5-1.8 0.9-2.5 1.2q-0.7-0.6-1.3-1.3c0.3-0.7 0.7-1.6 1.2-2.5 0.3-0.6 0.7-1.3 0.9-1.9l0.1-0.1-0.1-0.1q-0.9-1.2-1.7-2.6v-0.1h-0.2c-0.6 0-1.4 0.1-2.1 0.2-1 0-2 0.1-2.8 0.1q-0.4-0.9-0.7-1.6c0.5-0.6 1.3-1.3 2-1.9 0.6-0.5 1.2-1 1.7-1.5h0.1l-0.1-0.2q-0.3-1.4-0.5-2.9l-0.1-0.2h-0.1c-0.6-0.2-1.3-0.5-2-0.7-0.9-0.3-1.9-0.6-2.6-1q0-0.4 0-0.9 0-0.4 0-0.9c0.7-0.3 1.7-0.6 2.6-0.9 0.7-0.3 1.4-0.5 2-0.7l0.1-0.1 0.1-0.1q0.2-1.5 0.5-3l0.1-0.1-0.1-0.1c-0.5-0.4-1.1-1-1.7-1.4-0.7-0.7-1.5-1.3-2-1.9q0.3-0.8 0.7-1.6c0.8 0 1.8 0 2.8 0.1 0.7 0.1 1.5 0.1 2.1 0.1h0.2v-0.1q0.8-1.3 1.7-2.5l0.1-0.1-0.1-0.1c-0.2-0.6-0.6-1.3-0.9-2-0.5-0.8-0.9-1.7-1.2-2.5q0.6-0.6 1.3-1.2c0.7 0.3 1.6 0.7 2.5 1.2 0.6 0.3 1.3 0.6 1.9 0.9l0.1 0.1 0.1-0.1q1.2-0.9 2.6-1.7l0.1-0.1v-0.1c0-0.7-0.1-1.4-0.2-2.1 0-1-0.1-2-0.1-2.8q0.9-0.4 1.6-0.7c0.6 0.5 1.3 1.3 1.9 2 0.5 0.6 1 1.2 1.5 1.7v0.1l0.2-0.1q1.4-0.4 2.9-0.6h0.2v-0.1c0.2-0.6 0.5-1.3 0.7-2 0.3-1 0.6-1.9 1-2.6q0.9-0.1 1.8 0c0.3 0.7 0.6 1.6 0.9 2.6 0.3 0.7 0.5 1.4 0.7 2l0.1 0.1h0.1q1.5 0.2 3 0.6l0.1 0.1 0.1-0.1c0.4-0.5 1-1.1 1.4-1.7 0.7-0.7 1.3-1.5 1.9-2q0.8 0.3 1.6 0.7c0 0.8 0 1.8-0.1 2.8-0.1 0.7-0.1 1.4-0.1 2.1v0.1l0.1 0.1q1.3 0.8 2.5 1.7l0.1 0.1 0.1-0.1c0.6-0.3 1.3-0.6 2-0.9 0.8-0.5 1.7-0.9 2.5-1.2q0.6 0.6 1.2 1.2c-0.3 0.8-0.7 1.7-1.2 2.5-0.3 0.7-0.6 1.4-0.9 2l-0.1 0.1 0.1 0.1q0.9 1.2 1.7 2.5l0.1 0.1h0.1c0.7 0 1.4 0 2.1-0.1 1-0.1 2-0.1 2.8-0.1q0.4 0.8 0.7 1.6c-0.5 0.6-1.3 1.2-2 1.9-0.6 0.4-1.2 1-1.7 1.4l-0.1 0.1 0.1 0.1q0.4 1.5 0.6 3v0.1l0.1 0.1c0.6 0.2 1.3 0.4 2 0.7 1 0.3 1.9 0.6 2.6 0.9zm-11.8-8.7l-9.2 5.4 0.1 0.2q0.6 0.7 0.9 1.5l0.1 0.2 9.2-5.3v-0.2q-0.5-0.8-1-1.6zm-12.5 3.2l0.2 0.1q1.4 0.4 2.4 1.4l0.2 0.1 9.3-5.4-0.1-0.2c-2.8-3.7-7.1-6.2-11.7-6.7l-0.3-0.1zm-2.9-0.1l0.2-0.1c0.7-0.1 1.1-0.1 1.7 0l0.3 0.1v-10.7h-0.2q-0.9-0.1-1.8 0h-0.2zm-12.9-3.7l9.4 5.4 0.1-0.1q1.1-1 2.5-1.4h0.1v-10.8h-0.2c-4.7 0.6-8.9 3-11.7 6.8zm-1.6 2.5l9.3 5.3 0.1-0.2q0.3-0.8 0.8-1.5l0.2-0.2-9.3-5.3-0.1 0.1q-0.5 0.8-0.9 1.6zm-0.3 14.6l9.3-5.3v-0.2q-0.1-0.7-0.1-1.4 0-0.7 0.1-1.4v-0.2l-9.3-5.4-0.1 0.2c-0.9 2.2-1.4 4.4-1.4 6.8 0 2.3 0.5 4.6 1.4 6.7zm1.4 2.6l9.3-5.3-0.2-0.2q-0.5-0.7-0.8-1.5l-0.1-0.2-9.3 5.3 0.1 0.2q0.4 0.8 0.9 1.6zm12.5-3.2l-0.1-0.1q-1.4-0.4-2.5-1.4l-0.1-0.1-9.3 5.4 0.1 0.2c2.8 3.7 7.1 6.2 11.7 6.7l0.2 0.1zm3 0.1l-0.2 0.1c-0.7 0-1.1 0-1.8 0l-0.2-0.1v10.7h0.2q0.5 0 0.9 0 0.5 0 0.9 0h0.2zm0.8-3.2c1.9-1.1 2.5-3.4 1.4-5.3-0.7-1.2-1.9-1.9-3.3-1.9-0.7 0-1.3 0.2-1.9 0.5-0.9 0.5-1.5 1.4-1.8 2.3-0.3 1-0.1 2.1 0.4 3 0.7 1.1 1.9 1.9 3.3 1.9 0.7 0 1.3-0.2 1.9-0.5zm12 6.8l-9.3-5.4-0.1 0.2q-1.1 0.9-2.5 1.4h-0.1v10.8h0.2c4.6-0.6 8.9-3 11.7-6.8zm1.5-2.5l-9.2-5.4-0.1 0.3q-0.3 0.8-0.9 1.5l-0.1 0.2 9.2 5.3 0.1-0.2q0.5-0.7 1-1.5zm1.7-7.7c0-2.3-0.4-4.6-1.3-6.7l-0.1-0.3-9.4 5.4 0.1 0.2q0.1 0.7 0.1 1.4 0 0.7-0.1 1.4l-0.1 0.2 9.4 5.4 0.1-0.2c0.9-2.2 1.3-4.4 1.3-6.8z"/>
		<path id="&lt;Compound Path&gt;" fill-rule="evenodd" class="s0" d="m495.5 557.9q0 0.3 0 0.7 0 0.3 0 0.7c-0.6 0.3-1.4 0.5-2.1 0.7-0.5 0.2-1.1 0.4-1.6 0.6h-0.1v0.1q-0.1 1.2-0.4 2.4l-0.1 0.1h0.1c0.4 0.4 0.8 0.8 1.3 1.2 0.6 0.5 1.2 1 1.6 1.4q-0.3 0.6-0.6 1.3-0.1 0-0.3 0c-0.5 0-1.2-0.1-1.8-0.1-0.6 0-1.2-0.1-1.7-0.1h-0.1l-0.1 0.1q-0.6 1-1.3 2h-0.1l0.1 0.1c0.2 0.5 0.5 1.1 0.7 1.6 0.4 0.7 0.7 1.4 0.9 1.9q-0.4 0.5-0.9 1c-0.6-0.2-1.3-0.6-2-0.9-0.5-0.3-1.1-0.5-1.5-0.7l-0.1-0.1-0.1 0.1q-0.9 0.7-2 1.3h-0.1v0.1c0 0.6 0.1 1.2 0.1 1.7 0.1 0.8 0.1 1.6 0.1 2.2q-0.6 0.3-1.3 0.5c-0.4-0.4-0.9-1-1.4-1.5-0.4-0.5-0.8-0.9-1.1-1.3l-0.1-0.1h-0.1q-1.2 0.3-2.3 0.5h-0.1l-0.1 0.1c-0.2 0.5-0.3 1-0.5 1.6-0.3 0.7-0.5 1.5-0.8 2q-0.7 0.1-1.4 0c-0.3-0.5-0.5-1.3-0.8-2-0.1-0.6-0.3-1.1-0.5-1.6v-0.1h-0.1q-1.2-0.2-2.4-0.5h-0.1v0.1c-0.4 0.4-0.8 0.8-1.2 1.3-0.5 0.5-1 1.1-1.4 1.5q-0.6-0.2-1.3-0.5c0-0.6 0-1.4 0.1-2.2 0-0.5 0.1-1.1 0.1-1.7v-0.1h-0.1q-1-0.6-2-1.3v-0.1l-0.1 0.1c-0.5 0.2-1.1 0.4-1.6 0.7-0.7 0.3-1.4 0.7-1.9 0.9q-0.5-0.5-1-1c0.2-0.5 0.5-1.2 0.9-1.9 0.3-0.5 0.5-1.1 0.7-1.6l0.1-0.1h-0.1q-0.7-1-1.3-2l-0.1-0.1h-0.1c-0.5 0-1.1 0.1-1.6 0.1-0.8 0.1-1.6 0.1-2.2 0.1q-0.3-0.7-0.6-1.3c0.5-0.4 1-0.9 1.6-1.4 0.5-0.4 0.9-0.8 1.3-1.2h0.1v-0.1q-0.3-1.2-0.5-2.4v-0.1h-0.1c-0.5-0.2-1-0.4-1.6-0.6-0.7-0.2-1.5-0.4-2-0.7q-0.1-0.4-0.1-0.7 0-0.4 0.1-0.7c0.5-0.3 1.3-0.5 2-0.8 0.6-0.2 1.1-0.3 1.6-0.5l0.1-0.1v-0.1q0.2-1.2 0.5-2.3v-0.1l-0.1-0.1c-0.4-0.3-0.8-0.7-1.3-1.1-0.6-0.5-1.1-1-1.5-1.5q0.2-0.6 0.5-1.2c0.6-0.1 1.4 0 2.2 0.1 0.5 0 1.1 0.1 1.6 0.1h0.1l0.1-0.1q0.6-1.1 1.3-2l0.1-0.1-0.1-0.1c-0.2-0.4-0.4-1-0.7-1.5-0.3-0.7-0.7-1.4-0.9-2q0.5-0.5 1-0.9c0.5 0.2 1.2 0.5 1.9 0.9 0.5 0.2 1.1 0.5 1.6 0.7l0.1 0.1v-0.1q1-0.7 2-1.3l0.1-0.1v-0.1c0-0.5-0.1-1.1-0.1-1.7-0.1-0.7-0.1-1.5-0.1-2.1q0.7-0.3 1.3-0.6c0.4 0.4 0.9 1 1.4 1.6 0.4 0.4 0.8 0.9 1.2 1.3v0.1l0.1-0.1q1.2-0.3 2.4-0.4h0.1v-0.1c0.2-0.5 0.4-1.1 0.5-1.6 0.3-0.7 0.5-1.5 0.8-2.1q0.7 0 1.4 0c0.3 0.6 0.5 1.4 0.8 2.1 0.2 0.5 0.3 1.1 0.5 1.6l0.1 0.1h0.1q1.1 0.1 2.3 0.4l0.1 0.1 0.1-0.1c0.3-0.4 0.7-0.9 1.1-1.3 0.5-0.6 1-1.2 1.4-1.6q0.7 0.3 1.3 0.6c0 0.6 0 1.4-0.1 2.1 0 0.6-0.1 1.2-0.1 1.7v0.1l0.1 0.1q1.1 0.6 2 1.3l0.1 0.1 0.1-0.1c0.4-0.2 1-0.5 1.5-0.7 0.7-0.4 1.4-0.7 2-0.9q0.5 0.4 0.9 0.9c-0.2 0.6-0.5 1.3-0.9 2-0.2 0.5-0.5 1.1-0.7 1.5l-0.1 0.1 0.1 0.1q0.7 0.9 1.3 2l0.1 0.1h0.1c0.5 0 1.1-0.1 1.7-0.1 0.7-0.1 1.5-0.2 2.1-0.1q0.3 0.6 0.6 1.2c-0.4 0.5-1 1-1.6 1.5-0.5 0.4-0.9 0.8-1.3 1.1l-0.1 0.1 0.1 0.1q0.3 1.1 0.4 2.3v0.1l0.1 0.1c0.5 0.2 1.1 0.3 1.6 0.5 0.7 0.3 1.5 0.5 2.1 0.8zm-9.3-6.8l-7.3 4.1 0.1 0.2q0.5 0.6 0.7 1.2l0.1 0.2 7.3-4.2-0.1-0.2q-0.3-0.6-0.7-1.2zm-9.8 2.5h0.1q1.1 0.4 1.9 1.2h0.1l7.3-4.2-0.1-0.2c-2.2-2.9-5.5-4.8-9.1-5.2l-0.2-0.1zm-2.4-0.1h0.2c0.5-0.1 0.8-0.1 1.4 0h0.2v-8.4h-0.2q-0.7 0-1.4 0h-0.2zm-10.1-2.8l7.4 4.2 0.1-0.1q0.8-0.8 1.9-1.1l0.1-0.1v-8.4h-0.2c-3.6 0.4-6.9 2.4-9.1 5.3zm-1.2 2l7.2 4.2 0.1-0.2q0.2-0.6 0.7-1.2l0.1-0.1-7.3-4.2-0.1 0.1q-0.3 0.6-0.7 1.3zm-0.2 11.4l7.3-4.2v-0.1q-0.1-0.6-0.1-1.1 0-0.6 0.1-1.1v-0.2l-7.3-4.2-0.1 0.2q-1.1 2.5-1.1 5.3 0 2.7 1.1 5.3zm1.1 2l7.3-4.2-0.1-0.1q-0.5-0.6-0.7-1.2l-0.1-0.2-7.2 4.2v0.2q0.4 0.6 0.7 1.2zm9.9-2.5l-0.2-0.1q-1-0.3-1.9-1.1l-0.1-0.1-7.3 4.3 0.1 0.1c2.2 3 5.5 4.9 9.2 5.3h0.2zm2.3 0.2h-0.2c-0.5 0.1-0.8 0.1-1.4 0h-0.1v8.4h0.1q0.4 0 0.7 0 0.4 0 0.7 0h0.2zm0.6-2.6c1.5-0.8 2-2.7 1.1-4.1-0.5-0.9-1.5-1.5-2.6-1.5q-0.8 0-1.5 0.4c-0.7 0.4-1.2 1.1-1.4 1.8-0.2 0.8-0.1 1.6 0.3 2.3 0.6 0.9 1.6 1.5 2.6 1.5q0.8 0 1.5-0.4zm9.5 5.4l-7.4-4.2-0.1 0.1q-0.8 0.7-1.9 1.1h-0.1v8.5h0.2c3.6-0.5 6.9-2.4 9.2-5.3zm1.2-2l-7.3-4.2-0.1 0.2q-0.2 0.6-0.6 1.1l-0.2 0.2 7.3 4.2 0.1-0.1q0.4-0.6 0.7-1.3zm1.4-6q0-2.8-1.1-5.3l-0.1-0.2-7.3 4.3v0.1q0.2 0.6 0.2 1.1 0 0.6-0.2 1.1v0.1l7.4 4.3v-0.2q1.1-2.5 1.1-5.3z"/>
		<path id="&lt;Compound Path&gt;" fill-rule="evenodd" class="s0" d="m452.3 565.4q0 0.8 0 1.6 0 0.9 0 1.7c-1.3 0.6-3.1 1.2-4.9 1.8-1.2 0.4-2.5 0.8-3.6 1.2l-0.3 0.1v0.2q-0.3 2.8-1.1 5.5v0.2l0.1 0.2c0.9 0.9 2 1.8 3.1 2.7 1.3 1.2 2.7 2.3 3.7 3.4q-0.6 1.4-1.3 3-0.4 0-0.8 0c-1.2 0-2.8-0.2-4.3-0.3-1.3-0.1-2.7-0.2-3.9-0.2h-0.3l-0.1 0.2q-1.4 2.4-3.1 4.6l-0.1 0.2 0.1 0.2c0.5 1.2 1.1 2.4 1.7 3.6 0.8 1.6 1.7 3.3 2.1 4.6q-1.1 1.2-2.2 2.3c-1.4-0.5-3-1.3-4.6-2.1-1.2-0.6-2.5-1.3-3.6-1.8l-0.2-0.1-0.2 0.2q-2.2 1.7-4.7 3.1l-0.2 0.1v0.2c0.1 1.2 0.2 2.6 0.3 4 0.1 1.8 0.3 3.6 0.2 5.1q-1.6 0.7-3 1.2c-1-0.9-2.2-2.3-3.4-3.7-0.9-1-1.8-2.1-2.7-3l-0.1-0.2-0.3 0.1q-2.6 0.7-5.4 1.1h-0.2l-0.1 0.2c-0.5 1.1-0.9 2.4-1.3 3.7-0.6 1.7-1.2 3.5-1.8 4.9q-1.6 0-3.3 0c-0.6-1.4-1.2-3.2-1.8-4.9-0.4-1.3-0.8-2.6-1.2-3.7l-0.1-0.2h-0.3q-2.7-0.4-5.4-1.1l-0.2-0.1-0.2 0.2c-0.9 0.9-1.8 2-2.7 3-1.2 1.4-2.4 2.8-3.4 3.7q-1.4-0.5-3-1.2c0-1.5 0.1-3.3 0.3-5.1 0.1-1.4 0.2-2.8 0.2-4v-0.2l-0.2-0.1q-2.4-1.4-4.6-3.1l-0.2-0.2-0.2 0.1c-1.2 0.5-2.4 1.2-3.6 1.8-1.6 0.8-3.3 1.6-4.6 2.1q-1.2-1.1-2.3-2.3c0.5-1.3 1.3-3 2.1-4.6 0.6-1.2 1.3-2.4 1.8-3.6l0.1-0.2-0.2-0.2q-1.7-2.2-3.1-4.6l-0.1-0.2h-0.2c-1.3 0-2.6 0.1-4 0.2-1.8 0.2-3.7 0.3-5.1 0.3q-0.7-1.6-1.2-3c0.9-1.1 2.3-2.3 3.7-3.4 1-0.9 2.1-1.8 3-2.7l0.2-0.2-0.1-0.2q-0.7-2.7-1.1-5.5v-0.2l-0.2-0.1c-1.1-0.4-2.5-0.8-3.7-1.2-1.8-0.6-3.6-1.2-4.9-1.8q0-0.8 0-1.7 0-0.8 0-1.6c1.3-0.7 3.1-1.2 4.9-1.8 1.2-0.4 2.6-0.8 3.7-1.3l0.2-0.1v-0.2q0.4-2.8 1.1-5.5l0.1-0.2-0.2-0.1c-0.9-0.9-2-1.8-3-2.8-1.4-1.1-2.8-2.3-3.7-3.3q0.5-1.5 1.2-3c1.4-0.1 3.3 0.1 5.1 0.2 1.3 0.1 2.7 0.2 4 0.2h0.2l0.1-0.2q1.4-2.4 3.1-4.6l0.2-0.2-0.1-0.2c-0.5-1.1-1.2-2.4-1.8-3.6-0.8-1.6-1.6-3.2-2.1-4.6q1.1-1.2 2.3-2.3c1.3 0.5 3 1.4 4.6 2.2 1.2 0.6 2.4 1.2 3.6 1.7l0.2 0.1 0.2-0.1q2.2-1.7 4.6-3.1l0.2-0.1v-0.3c0-1.2-0.1-2.6-0.2-3.9-0.2-1.8-0.3-3.7-0.3-5.1q1.6-0.7 3-1.3c1 1 2.2 2.4 3.4 3.7 0.9 1.1 1.8 2.2 2.7 3l0.2 0.2h0.2q2.7-0.8 5.4-1.1l0.3-0.1 0.1-0.2c0.4-1.1 0.8-2.4 1.2-3.7 0.6-1.7 1.2-3.5 1.8-4.8q1.7-0.1 3.3 0c0.6 1.3 1.2 3.1 1.8 4.8 0.4 1.3 0.8 2.6 1.3 3.7l0.1 0.2 0.2 0.1q2.8 0.3 5.4 1.1h0.3l0.1-0.2c0.9-0.8 1.8-1.9 2.7-3 1.2-1.3 2.4-2.7 3.4-3.7q1.4 0.6 3 1.3c0.1 1.4-0.1 3.3-0.2 5.1-0.1 1.3-0.2 2.7-0.3 3.9v0.3l0.2 0.1q2.5 1.4 4.7 3.1l0.2 0.1 0.2-0.1c1.1-0.5 2.4-1.1 3.6-1.7 1.6-0.8 3.2-1.7 4.6-2.2q1.1 1.1 2.2 2.3c-0.4 1.4-1.3 3-2.1 4.6-0.6 1.2-1.2 2.5-1.7 3.6l-0.1 0.2 0.1 0.2q1.7 2.2 3.1 4.6l0.1 0.3 0.3-0.1c1.2 0 2.6-0.1 3.9-0.2 1.8-0.1 3.7-0.3 5.1-0.2q0.7 1.5 1.3 3c-1 1-2.4 2.2-3.7 3.3-1.1 0.9-2.2 1.9-3.1 2.8l-0.1 0.1v0.2q0.8 2.7 1.1 5.5v0.2l0.3 0.1c1.1 0.5 2.4 0.9 3.6 1.3 1.8 0.6 3.6 1.1 4.9 1.8zm-21.7-16l-17 9.8 0.3 0.4q1 1.3 1.6 2.7l0.1 0.4 17-9.8-0.1-0.3q-0.8-1.5-1.7-2.9zm-23 5.9l0.3 0.1q2.5 0.8 4.5 2.6l0.2 0.2 17.2-9.9-0.3-0.4c-5.1-6.8-13-11.4-21.5-12.4h-0.4zm-5.5-0.3l0.5-0.1c1.2-0.2 1.9-0.2 3.2 0h0.4v-19.6h-0.4q-1.6-0.1-3.3 0h-0.4zm-23.6-6.7l17.2 9.9 0.2-0.2q2-1.8 4.5-2.6l0.3-0.1v-19.8l-0.4 0.1c-8.5 1-16.3 5.5-21.5 12.4zm-2.8 4.7l17 9.8 0.1-0.5q0.6-1.4 1.6-2.7l0.3-0.4-17-9.8-0.2 0.3q-0.9 1.4-1.7 2.9zm-0.6 26.9l17.2-9.9v-0.3q-0.3-1.3-0.3-2.6 0-1.3 0.3-2.6v-0.3l-17.2-9.9-0.1 0.4c-1.7 3.9-2.6 8.1-2.6 12.4 0 4.3 0.9 8.5 2.6 12.4zm2.6 4.8l17-9.8-0.3-0.4q-1-1.3-1.6-2.7l-0.1-0.5-17 9.9 0.1 0.3q0.8 1.5 1.7 2.9zm23-5.9l-0.3-0.1q-2.5-0.8-4.5-2.6l-0.2-0.2-17.2 9.9 0.3 0.4c5.1 6.8 13 11.4 21.5 12.4h0.4zm5.5 0.3l-0.5 0.1c-1.2 0.2-1.9 0.2-3.2 0h-0.4v19.6h0.4q0.8 0 1.6 0 0.9 0 1.7 0h0.4zm1.4-6c3.4-1.9 4.6-6.2 2.6-9.6-1.2-2.2-3.6-3.5-6.1-3.5-1.2 0-2.4 0.3-3.5 0.9-1.6 1-2.8 2.5-3.3 4.3-0.5 1.8-0.2 3.7 0.7 5.3 1.3 2.2 3.6 3.6 6.1 3.6 1.3 0 2.5-0.4 3.5-1zm22.2 12.7l-17.2-9.9-0.2 0.2q-2 1.8-4.6 2.6l-0.2 0.1v19.8l0.4-0.1c8.5-1 16.3-5.5 21.5-12.4zm2.8-4.7l-17-9.8-0.1 0.5q-0.6 1.4-1.6 2.7l-0.3 0.4 17 9.8 0.2-0.3q0.9-1.4 1.7-2.9zm3.3-14.1c0-4.3-0.9-8.5-2.6-12.4l-0.1-0.4-17.2 9.9v0.3q0.3 1.3 0.3 2.6 0 1.3-0.3 2.6v0.3l17.2 9.9 0.1-0.4c1.7-3.9 2.6-8.1 2.6-12.4z"/>
	</g>
</svg>