<svg version="1.2" xmlns="http://www.w3.org/2000/svg" viewBox="0 0 837 679" width="837" height="679">
	<title>58981-ai</title>
	<style>
		.s0 { mix-blend-mode: multiply;fill: #7daaf6 } 
		.s1 { mix-blend-mode: multiply;fill: #637ecf } 
		.s2 { mix-blend-mode: multiply;fill: #fbf470 } 
		.s3 { mix-blend-mode: multiply;fill: #80c573 } 
		.s4 { mix-blend-mode: multiply;fill: #caeaf8 } 
		.s5 { mix-blend-mode: multiply;fill: #b95ce1 } 
		.s6 { mix-blend-mode: multiply;fill: #795ce1 } 
		.s7 { mix-blend-mode: multiply;fill: #e79c69 } 
		.s8 { mix-blend-mode: multiply;fill: #e8ff71 } 
		.s9 { mix-blend-mode: multiply;fill: #64689f } 
		.s10 { mix-blend-mode: multiply;fill: #d88ed9 } 
		.s11 { mix-blend-mode: multiply;fill: #a1d956 } 
		.s12 { mix-blend-mode: multiply;fill: #f0c76c } 
		.s13 { mix-blend-mode: multiply;fill: #efc5c5 } 
		.s14 { mix-blend-mode: multiply;fill: #df6666 } 
		.s15 { mix-blend-mode: multiply;fill: #d88e8e } 
	</style>
	<g id="_Artboards_">
	</g>
	<g id="Objects">
		<g id="&lt;Group&gt;">
			<path id="&lt;Path&gt;" class="s0" d="m448.1 501.1c3.7-45.4-30.1-85.2-75.5-88.8-45.4-3.7-85.2 30.2-88.9 75.6-3.4 42.1 25.5 79.4 66 87.5l-11.6 36 41.8-35.6c36.3-6.2 65.2-36.3 68.2-74.7z"/>
			<path id="&lt;Path&gt;" class="s1" d="m642.1 428.9c6.2-77.5-51.5-145.4-129-151.6-77.5-6.3-145.3 51.5-151.6 128.9-5.8 72 43.6 135.6 112.7 149.3l-19.9 61.5 71.4-60.7c61.8-10.6 111.1-62 116.4-127.4z"/>
			<path id="&lt;Path&gt;" class="s2" d="m358.7 506.3c4.2-52.2-34.7-98-86.9-102.2-52.3-4.2-98 34.7-102.2 87-3.9 48.4 29.3 91.3 75.9 100.6l-13.3 41.4 48.1-40.9c41.6-7.2 74.8-41.8 78.4-85.9z"/>
			<path id="&lt;Path&gt;" class="s3" d="m180.6 199.4c7.4-91.4 87.5-159.5 178.9-152.2 91.4 7.4 159.6 87.5 152.2 178.9-6.8 84.9-76.4 149.7-159.5 152.6l11.5 75.4-71.7-84.3c-70-24-117.6-93.2-111.4-170.4z"/>
			<path id="&lt;Path&gt;" class="s4" d="m446.7 117.4c3-42.7 40-75 82.8-72 42.7 3 75 40 72 82.8-2.8 39.7-34.9 70.3-73.7 72.1l5.7 35.2-33.9-39c-32.8-10.9-55.4-43-52.9-79.1z"/>
			<path id="&lt;Path&gt;" class="s5" d="m505.9 514.2c2.6-36.6 34.2-64.1 70.8-61.6 36.5 2.5 64.1 34.2 61.6 70.8-2.4 33.9-29.9 60.1-63.1 61.6l5 30-29-33.3c-28.1-9.3-47.4-36.7-45.3-67.5z"/>
			<path id="&lt;Path&gt;" class="s6" d="m703.2 257.5c5.4-58.8-37.8-110.8-96.5-116.2-58.8-5.4-110.8 37.9-116.2 96.6-5 54.5 31.9 103.2 84.3 114.3l-15.6 46.4 54.7-45.5c47-7.5 84.8-46 89.3-95.6z"/>
			<path id="&lt;Path&gt;" class="s7" d="m234.6 509.7c0.1-27.6-22.2-50-49.7-50.1-27.6-0.1-50 22.2-50.1 49.8-0.1 25.6 19.1 46.7 44 49.7l-5.4 22.2 23.6-23.4c21.6-5.5 37.6-25 37.6-48.2z"/>
			<path id="&lt;Path&gt;" class="s8" d="m49.1 303.2c5.3-66.5 63.5-116 130-110.6 66.4 5.4 115.9 63.6 110.5 130-4.9 61.7-55.5 108.8-115.9 110.9l8.4 54.7-52.1-61.2c-50.9-17.5-85.5-67.7-80.9-123.8z"/>
			<path id="&lt;Path&gt;" class="s9" d="m374 553.2c0-23.3 19-42.1 42.3-42.1 23.3 0.1 42.1 19 42 42.3 0 21.7-16.4 39.4-37.4 41.8l4.4 18.9-19.8-20c-18.2-4.7-31.6-21.2-31.5-40.9z"/>
			<path id="&lt;Path&gt;" class="s10" d="m800.6 375.1c5.1-63.1-42-118.4-105.1-123.5-63.2-5.1-118.5 41.9-123.6 105.1-4.7 58.6 35.5 110.4 91.9 121.6l-16.2 50.1 58.1-49.5c50.4-8.6 90.6-50.5 94.9-103.8z"/>
			<path id="&lt;Path&gt;" class="s11" d="m219.8 424.4c0.2-47.3 38.6-85.4 85.8-85.3 47.2 0.2 85.3 38.6 85.2 85.8-0.1 43.8-33.2 79.8-75.8 84.6l8.9 38.2-40.1-40.4c-36.9-9.5-64.1-43.1-64-82.9z"/>
			<path id="&lt;Path&gt;" class="s12" d="m215.9 413.5c4-49.9-33.1-93.6-83-97.6-49.8-4-93.5 33.1-97.5 83-3.8 46.3 28 87.2 72.5 96.1l-12.8 39.5 45.9-39.1c39.8-6.8 71.5-39.8 74.9-81.9z"/>
			<path id="&lt;Path&gt;" class="s13" d="m605.3 510.8c2.2-26.6 25.4-46.4 52-44.2 26.6 2.1 46.4 25.4 44.2 52-2 24.6-22.2 43.4-46.3 44.3l3.3 21.9-20.8-24.5c-20.4-7-34.2-27.1-32.4-49.5z"/>
			<path id="&lt;Path&gt;" class="s14" d="m82.1 518c0.1-21.1 17.2-38.2 38.3-38.1 21.1 0 38.2 17.2 38.1 38.3 0 19.6-14.8 35.7-33.8 37.8l3.9 17.1-17.9-18c-16.5-4.3-28.6-19.3-28.6-37.1z"/>
			<path id="&lt;Path&gt;" class="s15" d="m789.6 470.6c2.7-33.8-22.5-63.4-56.3-66.2-33.9-2.7-63.5 22.5-66.2 56.3-2.6 31.5 19 59.2 49.2 65.2l-8.7 26.9 31.2-26.6c27-4.6 48.5-27 50.8-55.6z"/>
		</g>
	</g>
</svg>