<svg version="1.2" xmlns="http://www.w3.org/2000/svg" viewBox="0 0 3710 2652" width="500" height="357">
	<title>Wavy_Edu-02_Single-05-ai</title>
	<defs>
		<linearGradient id="g1" x2="1" gradientUnits="userSpaceOnUse" gradientTransform="matrix(6.9,-586.526,972.593,11.442,1729.189,2908.055)">
			<stop offset=".494" stop-color="#ebeff2"/>
			<stop offset="1" stop-color="#ffffff"/>
		</linearGradient>
		<linearGradient id="g2" x2="1" gradientUnits="userSpaceOnUse" gradientTransform="matrix(1180.057,2164.368,-2554.434,1392.728,2303.12,688.17)">
			<stop offset="0" stop-color="#444b8c"/>
			<stop offset=".996" stop-color="#26264f"/>
		</linearGradient>
		<linearGradient id="g3" x2="1" gradientUnits="userSpaceOnUse" gradientTransform="matrix(200.872,1224.362,-4687.752,769.086,1766.532,433.402)">
			<stop offset=".004" stop-color="#e38ddd"/>
			<stop offset="1" stop-color="#9571f6"/>
		</linearGradient>
		<linearGradient id="g4" x2="1" gradientUnits="userSpaceOnUse" gradientTransform="matrix(471.01,0,0,45.399,1655.931,768.482)">
			<stop offset="0" stop-color="#ff9085"/>
			<stop offset="1" stop-color="#fb6fbb"/>
		</linearGradient>
		<linearGradient id="g5" x2="1" gradientUnits="userSpaceOnUse" gradientTransform="matrix(471.01,0,0,44.037,1655.931,815.54)">
			<stop offset="0" stop-color="#ff9085"/>
			<stop offset="1" stop-color="#fb6fbb"/>
		</linearGradient>
		<linearGradient id="g6" x2="1" gradientUnits="userSpaceOnUse" gradientTransform="matrix(334.655,0,0,38.363,1573.188,955.472)">
			<stop offset="0" stop-color="#ff9085"/>
			<stop offset="1" stop-color="#fb6fbb"/>
		</linearGradient>
		<linearGradient id="g7" x2="1" gradientUnits="userSpaceOnUse" gradientTransform="matrix(183.795,1120.274,-4519.373,741.461,1769.282,434.392)">
			<stop offset=".004" stop-color="#e38ddd"/>
			<stop offset="1" stop-color="#9571f6"/>
		</linearGradient>
		<linearGradient id="g8" x2="1" gradientUnits="userSpaceOnUse" gradientTransform="matrix(334.437,0,0,44.389,1463.751,668.151)">
			<stop offset="0" stop-color="#ff9085"/>
			<stop offset="1" stop-color="#fb6fbb"/>
		</linearGradient>
		<linearGradient id="g9" x2="1" gradientUnits="userSpaceOnUse" gradientTransform="matrix(471.01,0,0,48.594,1655.931,1694.91)">
			<stop offset="0" stop-color="#ff9085"/>
			<stop offset="1" stop-color="#fb6fbb"/>
		</linearGradient>
		<linearGradient id="g10" x2="1" gradientUnits="userSpaceOnUse" gradientTransform="matrix(471.01,0,0,49.955,1655.931,1740.606)">
			<stop offset="0" stop-color="#ff9085"/>
			<stop offset="1" stop-color="#fb6fbb"/>
		</linearGradient>
		<linearGradient id="g11" x2="1" gradientUnits="userSpaceOnUse" gradientTransform="matrix(458.815,0,0,50.418,1871.096,1778.783)">
			<stop offset="0" stop-color="#ff9085"/>
			<stop offset="1" stop-color="#fb6fbb"/>
		</linearGradient>
		<linearGradient id="g12" x2="1" gradientUnits="userSpaceOnUse" gradientTransform="matrix(203.93,1243.002,-6495.992,1065.75,1833.465,178.445)">
			<stop offset=".004" stop-color="#e38ddd"/>
			<stop offset="1" stop-color="#9571f6"/>
		</linearGradient>
		<linearGradient id="g13" x2="1" gradientUnits="userSpaceOnUse" gradientTransform="matrix(334.437,0,0,42.79,1463.751,1611.895)">
			<stop offset="0" stop-color="#ff9085"/>
			<stop offset="1" stop-color="#fb6fbb"/>
		</linearGradient>
		<linearGradient id="g14" x2="1" gradientUnits="userSpaceOnUse" gradientTransform="matrix(475.74,0,0,34.684,1573.188,1144.659)">
			<stop offset="0" stop-color="#ff9085"/>
			<stop offset="1" stop-color="#fb6fbb"/>
		</linearGradient>
		<linearGradient id="g15" x2="1" gradientUnits="userSpaceOnUse" gradientTransform="matrix(471.01,0,0,34.976,1655.931,1237.951)">
			<stop offset="0" stop-color="#ff9085"/>
			<stop offset="1" stop-color="#fb6fbb"/>
		</linearGradient>
		<linearGradient id="g16" x2="1" gradientUnits="userSpaceOnUse" gradientTransform="matrix(471.01,0,0,36.338,1655.931,1283.647)">
			<stop offset="0" stop-color="#ff9085"/>
			<stop offset="1" stop-color="#fb6fbb"/>
		</linearGradient>
		<linearGradient id="g17" x2="1" gradientUnits="userSpaceOnUse" gradientTransform="matrix(301.84,0,0,36.722,1464.584,1332.275)">
			<stop offset="0" stop-color="#ff9085"/>
			<stop offset="1" stop-color="#fb6fbb"/>
		</linearGradient>
		<linearGradient id="g18" x2="1" gradientUnits="userSpaceOnUse" gradientTransform="matrix(188.767,1150.577,-5132.456,842.045,1700.892,386.487)">
			<stop offset=".004" stop-color="#e38ddd"/>
			<stop offset="1" stop-color="#9571f6"/>
		</linearGradient>
		<linearGradient id="g19" x2="1" gradientUnits="userSpaceOnUse" gradientTransform="matrix(425.772,0,0,41.025,1655.931,1467.191)">
			<stop offset="0" stop-color="#ff9085"/>
			<stop offset="1" stop-color="#fb6fbb"/>
		</linearGradient>
		<linearGradient id="g20" x2="1" gradientUnits="userSpaceOnUse" gradientTransform="matrix(420.649,0,0,41.948,1755.443,1511.158)">
			<stop offset="0" stop-color="#ff9085"/>
			<stop offset="1" stop-color="#fb6fbb"/>
		</linearGradient>
		<linearGradient id="g21" x2="1" gradientUnits="userSpaceOnUse" gradientTransform="matrix(420.649,0,0,43.164,1755.443,1556.712)">
			<stop offset="0" stop-color="#ff9085"/>
			<stop offset="1" stop-color="#fb6fbb"/>
		</linearGradient>
		<linearGradient id="g22" x2="1" gradientUnits="userSpaceOnUse" gradientTransform="matrix(184.892,1126.962,-4227.694,693.607,1529.195,464.729)">
			<stop offset=".004" stop-color="#e38ddd"/>
			<stop offset="1" stop-color="#9571f6"/>
		</linearGradient>
		<linearGradient id="g23" x2="1" gradientUnits="userSpaceOnUse" gradientTransform="matrix(386.15,1851.397,-2472.626,515.721,2471.603,1087.811)">
			<stop offset="0" stop-color="#ff9085"/>
			<stop offset="1" stop-color="#fb6fbb"/>
		</linearGradient>
		<linearGradient id="g24" x2="1" gradientUnits="userSpaceOnUse" gradientTransform="matrix(84.008,2.429,-1.19,41.172,2776.132,2545.438)">
			<stop offset="0" stop-color="#311944"/>
			<stop offset="1" stop-color="#893976"/>
		</linearGradient>
		<linearGradient id="g25" x2="1" gradientUnits="userSpaceOnUse" gradientTransform="matrix(86.092,23.67,-12.438,45.238,2508.961,2520.272)">
			<stop offset="0" stop-color="#311944"/>
			<stop offset="1" stop-color="#893976"/>
		</linearGradient>
		<linearGradient id="g26" x2="1" gradientUnits="userSpaceOnUse" gradientTransform="matrix(251.892,-567.825,209.132,92.773,3644.106,2895.706)">
			<stop offset="0" stop-color="#311944"/>
			<stop offset="1" stop-color="#893976"/>
		</linearGradient>
		<linearGradient id="g27" x2="1" gradientUnits="userSpaceOnUse" gradientTransform="matrix(341.618,-569.477,372.773,223.619,3932.951,3253.663)">
			<stop offset="0" stop-color="#311944"/>
			<stop offset="1" stop-color="#893976"/>
		</linearGradient>
		<linearGradient id="g28" x2="1" gradientUnits="userSpaceOnUse" gradientTransform="matrix(291.498,1397.59,-923.955,192.711,2222.246,1211.967)">
			<stop offset="0" stop-color="#ff9085"/>
			<stop offset="1" stop-color="#fb6fbb"/>
		</linearGradient>
		<linearGradient id="g29" x2="1" gradientUnits="userSpaceOnUse" gradientTransform="matrix(-121.756,-578.339,477.007,-100.423,3382.448,2249.506)">
			<stop offset="0" stop-color="#ff9085"/>
			<stop offset="1" stop-color="#fb6fbb"/>
		</linearGradient>
		<linearGradient id="g30" x2="1" gradientUnits="userSpaceOnUse" gradientTransform="matrix(316.014,1515.132,-1249.818,260.677,2615.607,1103.264)">
			<stop offset="0" stop-color="#ff9085"/>
			<stop offset="1" stop-color="#fb6fbb"/>
		</linearGradient>
		<linearGradient id="g31" x2="1" gradientUnits="userSpaceOnUse" gradientTransform="matrix(50.455,-142.956,327.681,115.652,2680.825,1877.815)">
			<stop offset=".004" stop-color="#e38ddd"/>
			<stop offset="1" stop-color="#9571f6"/>
		</linearGradient>
		<linearGradient id="g32" x2="1" gradientUnits="userSpaceOnUse" gradientTransform="matrix(-16.92,116.905,-164.14,-23.757,2847.886,1656.119)">
			<stop offset=".004" stop-color="#e38ddd"/>
			<stop offset="1" stop-color="#9571f6"/>
		</linearGradient>
		<linearGradient id="g33" x2="1" gradientUnits="userSpaceOnUse" gradientTransform="matrix(105.971,-150.478,190.229,133.965,2651.149,1781.447)">
			<stop offset=".004" stop-color="#e38ddd"/>
			<stop offset="1" stop-color="#9571f6"/>
		</linearGradient>
		<linearGradient id="g34" x2="1" gradientUnits="userSpaceOnUse" gradientTransform="matrix(-197.761,-401.701,410.133,-201.912,2830.591,1827.243)">
			<stop offset=".004" stop-color="#e38ddd"/>
			<stop offset="1" stop-color="#9571f6"/>
		</linearGradient>
		<linearGradient id="g35" x2="1" gradientUnits="userSpaceOnUse" gradientTransform="matrix(-425.641,0,0,-268.965,2805.795,1492.243)">
			<stop offset=".004" stop-color="#e38ddd"/>
			<stop offset="1" stop-color="#9571f6"/>
		</linearGradient>
		<linearGradient id="g36" x2="1" gradientUnits="userSpaceOnUse" gradientTransform="matrix(-79.089,-203.072,176.48,-68.732,2820.569,1400.642)">
			<stop offset="0" stop-color="#311944"/>
			<stop offset="1" stop-color="#6b3976"/>
		</linearGradient>
		<linearGradient id="g37" x2="1" gradientUnits="userSpaceOnUse" gradientTransform="matrix(-109.533,-281.243,445.908,-173.664,2844.679,1427.642)">
			<stop offset="0" stop-color="#311944"/>
			<stop offset="1" stop-color="#6b3976"/>
		</linearGradient>
		<linearGradient id="g38" x2="1" gradientUnits="userSpaceOnUse" gradientTransform="matrix(-101.881,-407.527,324.377,-81.094,1146.206,1664.054)">
			<stop offset=".004" stop-color="#6165d7"/>
			<stop offset="1" stop-color="#aa80f9"/>
		</linearGradient>
		<linearGradient id="g39" x2="1" gradientUnits="userSpaceOnUse" gradientTransform="matrix(-51.667,34.335,-19.484,-29.32,799.077,2503.167)">
			<stop offset="0" stop-color="#444b8c"/>
			<stop offset=".996" stop-color="#26264f"/>
		</linearGradient>
		<linearGradient id="g40" x2="1" gradientUnits="userSpaceOnUse" gradientTransform="matrix(10.168,-71.917,34.476,4.874,810.372,2557.241)">
			<stop offset="0" stop-color="#ffc444"/>
			<stop offset=".996" stop-color="#f36f56"/>
		</linearGradient>
		<linearGradient id="g41" x2="1" gradientUnits="userSpaceOnUse" gradientTransform="matrix(-53.936,35.843,-29.156,-43.873,798.734,2500.703)">
			<stop offset="0" stop-color="#444b8c"/>
			<stop offset=".996" stop-color="#26264f"/>
		</linearGradient>
		<linearGradient id="g42" x2="1" gradientUnits="userSpaceOnUse" gradientTransform="matrix(-46.351,41.23,-23.398,-26.304,1092.038,2526.828)">
			<stop offset="0" stop-color="#444b8c"/>
			<stop offset=".996" stop-color="#26264f"/>
		</linearGradient>
		<linearGradient id="g43" x2="1" gradientUnits="userSpaceOnUse" gradientTransform="matrix(0,-72.632,34.821,0,1110.789,2578.788)">
			<stop offset="0" stop-color="#ffc444"/>
			<stop offset=".996" stop-color="#f36f56"/>
		</linearGradient>
		<linearGradient id="g44" x2="1" gradientUnits="userSpaceOnUse" gradientTransform="matrix(-291.803,-1178.15,771.208,-191.012,225.708,2847.091)">
			<stop offset="0" stop-color="#444b8c"/>
			<stop offset=".996" stop-color="#26264f"/>
		</linearGradient>
		<linearGradient id="g45" x2="1" gradientUnits="userSpaceOnUse" gradientTransform="matrix(-766.692,-533.206,497.179,-714.888,1107.994,2117.848)">
			<stop offset=".004" stop-color="#6165d7"/>
			<stop offset="1" stop-color="#aa80f9"/>
		</linearGradient>
		<linearGradient id="g46" x2="1" gradientUnits="userSpaceOnUse" gradientTransform="matrix(-48.387,43.04,-35.011,-39.36,1091.353,2524.436)">
			<stop offset="0" stop-color="#444b8c"/>
			<stop offset=".996" stop-color="#26264f"/>
		</linearGradient>
		<linearGradient id="g47" x2="1" gradientUnits="userSpaceOnUse" gradientTransform="matrix(-251.017,365.475,-269.058,-184.795,957.134,1106.178)">
			<stop offset="0" stop-color="#ffc444"/>
			<stop offset=".996" stop-color="#f36f56"/>
		</linearGradient>
		<linearGradient id="g48" x2="1" gradientUnits="userSpaceOnUse" gradientTransform="matrix(-289.783,421.919,-437.244,-300.309,1046.808,1163.276)">
			<stop offset="0" stop-color="#ffc444"/>
			<stop offset=".996" stop-color="#f36f56"/>
		</linearGradient>
		<linearGradient id="g49" x2="1" gradientUnits="userSpaceOnUse" gradientTransform="matrix(41.511,0,0,188.333,804.969,1534.24)">
			<stop offset=".004" stop-color="#6165d7"/>
			<stop offset="1" stop-color="#aa80f9"/>
		</linearGradient>
		<linearGradient id="g50" x2="1" gradientUnits="userSpaceOnUse" gradientTransform="matrix(312.847,0,0,225.223,834.749,1580.232)">
			<stop offset=".004" stop-color="#6165d7"/>
			<stop offset="1" stop-color="#aa80f9"/>
		</linearGradient>
		<linearGradient id="g51" x2="1" gradientUnits="userSpaceOnUse" gradientTransform="matrix(151.724,190.889,-449.758,357.482,1387.102,1417.356)">
			<stop offset="0" stop-color="#ffc444"/>
			<stop offset=".996" stop-color="#f36f56"/>
		</linearGradient>
		<linearGradient id="g52" x2="1" gradientUnits="userSpaceOnUse" gradientTransform="matrix(1043.101,-725.439,878.799,1263.616,557.285,2197.043)">
			<stop offset=".004" stop-color="#6165d7"/>
			<stop offset="1" stop-color="#aa80f9"/>
		</linearGradient>
		<linearGradient id="g53" x2="1" gradientUnits="userSpaceOnUse" gradientTransform="matrix(172.249,0,0,358.85,2102.776,190.938)">
			<stop offset="0" stop-color="#ffc444"/>
			<stop offset=".996" stop-color="#f36f56"/>
		</linearGradient>
		<linearGradient id="g54" x2="1" gradientUnits="userSpaceOnUse" gradientTransform="matrix(333.989,0,0,374.611,1806.203,506.511)">
			<stop offset="0" stop-color="#aa80f9"/>
			<stop offset=".996" stop-color="#6165d7"/>
		</linearGradient>
		<linearGradient id="g55" x2="1" gradientUnits="userSpaceOnUse" gradientTransform="matrix(63.086,257.12,-170.985,41.952,2045.267,1072.848)">
			<stop offset=".004" stop-color="#e38ddd"/>
			<stop offset="1" stop-color="#9571f6"/>
		</linearGradient>
		<linearGradient id="g56" x2="1" gradientUnits="userSpaceOnUse" gradientTransform="matrix(334.056,0,0,351.194,1963.133,555.608)">
			<stop offset="0" stop-color="#aa80f9"/>
			<stop offset=".996" stop-color="#6165d7"/>
		</linearGradient>
		<linearGradient id="g57" x2="1" gradientUnits="userSpaceOnUse" gradientTransform="matrix(21.721,0,0,78.31,2111.479,1103.557)">
			<stop offset="0" stop-color="#311944"/>
			<stop offset="1" stop-color="#a03976"/>
		</linearGradient>
		<linearGradient id="g58" x2="1" gradientUnits="userSpaceOnUse" gradientTransform="matrix(559.089,679.323,-1102.484,907.355,2256.792,-160.98)">
			<stop offset="0" stop-color="#aa80f9"/>
			<stop offset=".996" stop-color="#6165d7"/>
		</linearGradient>
		<linearGradient id="g59" x2="1" gradientUnits="userSpaceOnUse" gradientTransform="matrix(-629.455,584.116,-737.307,-794.537,3131.651,157.283)">
			<stop offset="0" stop-color="#444b8c"/>
			<stop offset=".996" stop-color="#26264f"/>
		</linearGradient>
		<linearGradient id="g60" x2="1" gradientUnits="userSpaceOnUse" gradientTransform="matrix(-361.735,-325.23,241.898,-269.049,2747.983,242.356)">
			<stop offset="0" stop-color="#ffc444"/>
			<stop offset=".996" stop-color="#f36f56"/>
		</linearGradient>
		<linearGradient id="g61" x2="1" gradientUnits="userSpaceOnUse" gradientTransform="matrix(113.413,0,0,55.689,2295.136,137.321)">
			<stop offset="0" stop-color="#311944"/>
			<stop offset="1" stop-color="#a03976"/>
		</linearGradient>
		<linearGradient id="g62" x2="1" gradientUnits="userSpaceOnUse" gradientTransform="matrix(-2.465,-225.569,217.322,-2.375,2275.933,462.022)">
			<stop offset="0" stop-color="#311944"/>
			<stop offset="1" stop-color="#a03976"/>
		</linearGradient>
		<linearGradient id="g63" x2="1" gradientUnits="userSpaceOnUse" gradientTransform="matrix(-483.742,-434.925,423.982,-471.571,2648.57,248.393)">
			<stop offset="0" stop-color="#ffc444"/>
			<stop offset=".996" stop-color="#f36f56"/>
		</linearGradient>
		<linearGradient id="g64" x2="1" gradientUnits="userSpaceOnUse" gradientTransform="matrix(-292.61,0,0,-43.492,2384.202,533.117)">
			<stop offset=".004" stop-color="#e38ddd"/>
			<stop offset="1" stop-color="#9571f6"/>
		</linearGradient>
		<linearGradient id="g65" x2="1" gradientUnits="userSpaceOnUse" gradientTransform="matrix(-401.628,0,0,-185.597,2245.069,385.218)">
			<stop offset=".004" stop-color="#e38ddd"/>
			<stop offset="1" stop-color="#9571f6"/>
		</linearGradient>
		<linearGradient id="g66" x2="1" gradientUnits="userSpaceOnUse" gradientTransform="matrix(271.979,269.803,-278.701,280.948,1920.617,175.2)">
			<stop offset=".004" stop-color="#e38ddd"/>
			<stop offset="1" stop-color="#9571f6"/>
		</linearGradient>
		<linearGradient id="g67" x2="1" gradientUnits="userSpaceOnUse" gradientTransform="matrix(309.467,-304.515,245.271,249.259,2558.878,703.313)">
			<stop offset="0" stop-color="#ffc444"/>
			<stop offset=".996" stop-color="#f36f56"/>
		</linearGradient>
		<linearGradient id="g68" x2="1" gradientUnits="userSpaceOnUse" gradientTransform="matrix(83.975,0,0,37.828,2240.65,504.518)">
			<stop offset="0" stop-color="#311944"/>
			<stop offset="1" stop-color="#a03976"/>
		</linearGradient>
	</defs>
	<style>
		.s0 { fill: #97a6b7 } 
		.s1 { fill: url(#g1) } 
		.s2 { fill: #ffffff } 
		.s3 { opacity: .3;mix-blend-mode: multiply;fill: #d8dee8 } 
		.s4 { fill: url(#g2) } 
		.s5 { opacity: .6;mix-blend-mode: soft-light;fill: #ffffff } 
		.s6 { opacity: .4;mix-blend-mode: soft-light;fill: #ffffff } 
		.s7 { fill: url(#g3) } 
		.s8 { opacity: .5;fill: url(#g4) } 
		.s9 { opacity: .5;fill: url(#g5) } 
		.s10 { opacity: .5;fill: url(#g6) } 
		.s11 { fill: url(#g7) } 
		.s12 { opacity: .5;fill: url(#g8) } 
		.s13 { opacity: .5;fill: url(#g9) } 
		.s14 { opacity: .5;fill: url(#g10) } 
		.s15 { opacity: .5;fill: url(#g11) } 
		.s16 { fill: url(#g12) } 
		.s17 { opacity: .5;fill: url(#g13) } 
		.s18 { opacity: .5;fill: url(#g14) } 
		.s19 { opacity: .5;fill: url(#g15) } 
		.s20 { opacity: .5;fill: url(#g16) } 
		.s21 { opacity: .5;fill: url(#g17) } 
		.s22 { fill: url(#g18) } 
		.s23 { opacity: .5;fill: url(#g19) } 
		.s24 { opacity: .5;fill: url(#g20) } 
		.s25 { opacity: .5;fill: url(#g21) } 
		.s26 { fill: url(#g22) } 
		.s27 { mix-blend-mode: soft-light;fill: #ffffff } 
		.s28 { fill: url(#g23) } 
		.s29 { fill: url(#g24) } 
		.s30 { fill: #d8dee8 } 
		.s31 { fill: url(#g25) } 
		.s32 { fill: url(#g26) } 
		.s33 { fill: url(#g27) } 
		.s34 { fill: url(#g28) } 
		.s35 { fill: url(#g29) } 
		.s36 { fill: url(#g30) } 
		.s37 { fill: url(#g31) } 
		.s38 { fill: url(#g32) } 
		.s39 { fill: url(#g33) } 
		.s40 { fill: url(#g34) } 
		.s41 { opacity: .3;mix-blend-mode: multiply;fill: url(#g35) } 
		.s42 { fill: url(#g36) } 
		.s43 { fill: url(#g37) } 
		.s44 { fill: url(#g38) } 
		.s45 { fill: url(#g39) } 
		.s46 { fill: url(#g40) } 
		.s47 { fill: url(#g41) } 
		.s48 { fill: url(#g42) } 
		.s49 { fill: url(#g43) } 
		.s50 { fill: url(#g44) } 
		.s51 { fill: url(#g45) } 
		.s52 { fill: url(#g46) } 
		.s53 { fill: url(#g47) } 
		.s54 { fill: #26264f } 
		.s55 { fill: url(#g48) } 
		.s56 { fill: url(#g49) } 
		.s57 { opacity: .3;mix-blend-mode: multiply;fill: url(#g50) } 
		.s58 { fill: url(#g51) } 
		.s59 { fill: url(#g52) } 
		.s60 { fill: url(#g53) } 
		.s61 { fill: url(#g54) } 
		.s62 { fill: url(#g55) } 
		.s63 { opacity: .3;mix-blend-mode: multiply;fill: url(#g56) } 
		.s64 { fill: url(#g57) } 
		.s65 { fill: url(#g58) } 
		.s66 { fill: url(#g59) } 
		.s67 { fill: url(#g60) } 
		.s68 { fill: url(#g61) } 
		.s69 { fill: url(#g62) } 
		.s70 { opacity: .3;mix-blend-mode: multiply;fill: url(#g63) } 
		.s71 { fill: url(#g64) } 
		.s72 { fill: url(#g65) } 
		.s73 { opacity: .3;mix-blend-mode: multiply;fill: url(#g66) } 
		.s74 { fill: url(#g67) } 
		.s75 { fill: url(#g68) } 
	</style>
	<g id="_Artboards_">
	</g>
	<g id="Illustration">
		<g id="&lt;Group&gt;">
			<g id="&lt;Group&gt;">
				<g id="&lt;Group&gt;">
					<path id="&lt;Path&gt;" class="s0" d="m2127.3 2403.8c-37.9-12.6-66.3-44.7-74.3-84.3l-55.2-273.1-472.1 16.7-58.1 284.6c-8.1 39.8 24.5 79.8 62 94.5l197.5 77.3c36.7 14.3 76.2 20.1 115.5 16.7l417.4-35.7c12.2-1 22-10.6 23.4-22.9 1.4-12.3 10-26.2-1.7-30z"/>
					<path id="&lt;Path&gt;" class="s1" d="m2131.9 2387.2c-37.8-12.4-66.1-44.2-74.1-83.2l-55.2-269.8-460.6 16.6-58 281c-8.1 39.3 13.4 78.8 50.9 93.3l197.3 76.3c36.7 14.2 76.1 19.9 115.3 16.5l417-35.2c12.2-1.1 22-10.5 23.4-22.7 1.4-12.1-5.9-23.6-17.5-27.4z"/>
				</g>
				<g id="&lt;Group&gt;">
					<g id="&lt;Group&gt;">
						<path id="&lt;Path&gt;" class="s0" d="m561 2227.9c-51.1 3.1-93-30.2-93-74v-1582c0-43.9 41.9-77.8 93-75.6l2377.9 164.6c37.6 1.7 57.8-28.7 57.8 8.7v1345.4c0 37.3-30.4 69.5-68 71.8z"/>
						<path id="&lt;Path&gt;" class="s2" d="m582.3 2227.9c-51.2 3.1-93.1-30.2-93.1-74v-1582c0-43.9 41.9-77.8 93.1-75.6l2367.7 102.6c37.5 1.6 68 33.3 68 70.7v1345.4c0 37.3-30.5 69.5-68 71.8z"/>
						<path id="&lt;Path&gt;" class="s3" d="m2950 630.6l-2367.7-97.4c-27.3-1.2-49.6 16.9-49.6 40.4v1230.3 347.6c0 23.4 22.3 41.1 49.6 39.6l2367.7-136c20.1-1.2 36.4-18.3 36.4-38.4v-307.5-1040.9c0-20-16.3-36.9-36.4-37.7z"/>
					</g>
					<g id="&lt;Group&gt;">
						<path id="&lt;Path&gt;" class="s4" d="m2932.4 1941.2l-2324.4 114.8c-24.4 1.2-44.2-14.9-44.2-36v-1425.7c0-21.1 19.8-37.5 44.2-36.6l2324.4 86.3c18.2 0.7 33 16 33 34.1v1228.6c0 18.2-14.8 33.6-33 34.5z"/>
						<path id="&lt;Path&gt;" class="s5" d="m1187.8 708.3l-530.8-15.6v-50.6l530.8 17.1z"/>
						<path id="&lt;Path&gt;" class="s6" d="m1437.8 701.6l-122.6-3.7v-34.6l122.6 4z"/>
						<path id="&lt;Path&gt;" class="s6" d="m1437.8 749.3l-122.6-3.3v-34.6l122.6 3.6z"/>
						<path id="&lt;Path&gt;" class="s7" d="m2048.9 766l-475.7-13v-34l475.7 14z"/>
						<path id="&lt;Path&gt;" class="s8" d="m2126.9 813.9l-471-11.5v-33.9l471 12.5z"/>
						<path id="&lt;Path&gt;" class="s9" d="m2126.9 859.6l-471-10.2v-33.9l471 11.2z"/>
						<path id="&lt;Path&gt;" class="s5" d="m2126.9 905.3l-471-8.8v-33.9l471 9.8z"/>
						<path id="&lt;Path&gt;" class="s6" d="m1437.8 797l-122.6-3v-34.6l122.6 3.3z"/>
						<path id="&lt;Path&gt;" class="s6" d="m1437.8 844.7l-122.6-2.6v-34.6l122.6 2.9z"/>
						<path id="&lt;Path&gt;" class="s6" d="m1437.8 892.4l-122.6-2.3v-34.6l122.6 2.6z"/>
						<path id="&lt;Path&gt;" class="s6" d="m1437.8 940.1l-122.6-2v-34.5l122.6 2.2z"/>
						<path id="&lt;Path&gt;" class="s5" d="m1766.4 945.3l-301.8-4.8v-34.3l301.8 5.4z"/>
						<path id="&lt;Path&gt;" class="s6" d="m1437.8 987.8l-122.6-1.6v-34.6l122.6 1.8z"/>
						<path id="&lt;Path&gt;" class="s6" d="m1437.8 1035.5l-122.6-1.3v-34.6l122.6 1.5z"/>
						<path id="&lt;Path&gt;" class="s6" d="m1437.8 1083.1l-122.6-0.8v-34.6l122.6 1.1z"/>
						<path id="&lt;Path&gt;" class="s10" d="m1907.8 993.8l-334.6-4.3v-34l334.6 5z"/>
						<path id="&lt;Path&gt;" class="s5" d="m2081.7 1041.9l-425.8-4.3v-33.8l425.8 5.1z"/>
						<path id="&lt;Path&gt;" class="s11" d="m2081.7 1087.7l-425.8-3v-33.9l425.8 4z"/>
						<path id="&lt;Path&gt;" class="s6" d="m1437.8 1130.8l-122.6-0.5v-34.6l122.6 0.8z"/>
						<path id="&lt;Path&gt;" class="s6" d="m1437.8 1178.5l-122.6-0.1v-34.6l122.6 0.4z"/>
						<path id="&lt;Path&gt;" class="s6" d="m1437.8 1226.2l-122.6 0.2v-34.6l122.6 0.1z"/>
						<path id="&lt;Path&gt;" class="s6" d="m1437.8 1273.9l-122.6 0.5v-34.5l122.6-0.3z"/>
						<path id="&lt;Path&gt;" class="s6" d="m1437.8 1321.6l-122.6 0.9v-34.6l122.6-0.6z"/>
						<path id="&lt;Path&gt;" class="s6" d="m1437.8 1369.3l-122.6 1.2v-34.6l122.6-1z"/>
						<path id="&lt;Path&gt;" class="s6" d="m1437.8 1417l-122.6 1.6v-34.6l122.6-1.4z"/>
						<path id="&lt;Path&gt;" class="s6" d="m1437.8 1464.6l-122.6 2v-34.6l122.6-1.7z"/>
						<path id="&lt;Path&gt;" class="s6" d="m1437.8 1512.3l-122.6 2.4v-34.6l122.6-2.1z"/>
						<path id="&lt;Path&gt;" class="s6" d="m1437.8 1560l-122.6 2.7v-34.6l122.6-2.4z"/>
						<path id="&lt;Path&gt;" class="s6" d="m1437.8 1607.7l-122.6 3v-34.5l122.6-2.8z"/>
						<path id="&lt;Path&gt;" class="s6" d="m1437.8 1655.4l-122.6 3.4v-34.6l122.6-3.1z"/>
						<path id="&lt;Path&gt;" class="s6" d="m1437.8 1703.1l-122.6 3.7v-34.6l122.6-3.4z"/>
						<path id="&lt;Path&gt;" class="s6" d="m1437.8 1750.8l-122.6 4.1v-34.6l122.6-3.8z"/>
						<path id="&lt;Path&gt;" class="s6" d="m1437.8 1798.5l-122.6 4.4v-34.6l122.6-4.2z"/>
						<path id="&lt;Path&gt;" class="s6" d="m1437.8 1846.2l-122.6 4.8v-34.6l122.6-4.6z"/>
						<path id="&lt;Path&gt;" class="s6" d="m1437.8 1893.8l-122.6 5.2v-34.6l122.6-4.9z"/>
						<path id="&lt;Path&gt;" class="s6" d="m1437.8 1941.5l-122.6 5.5v-34.5l122.6-5.3z"/>
						<path id="&lt;Path&gt;" class="s12" d="m1798.2 712.5l-334.4-10.1v-34.2l334.4 10.8z"/>
						<path id="&lt;Path&gt;" class="s5" d="m2048.9 1684.5l-475.7 14.5v-34.1l475.7-13.5z"/>
						<path id="&lt;Path&gt;" class="s13" d="m2126.9 1727.8l-471 15.7v-33.9l471-14.7z"/>
						<path id="&lt;Path&gt;" class="s14" d="m2126.9 1773.5l-471 17.1v-33.9l471-16.1z"/>
						<path id="&lt;Path&gt;" class="s15" d="m2329.9 1811.2l-458.8 18v-33.4l458.8-17z"/>
						<path id="&lt;Path&gt;" class="s16" d="m2329.9 1856.4l-458.8 19.2v-33.4l458.8-18.3z"/>
						<path id="&lt;Path&gt;" class="s5" d="m2329.9 1901.5l-458.8 20.6v-33.4l458.8-19.7z"/>
						<path id="&lt;Path&gt;" class="s17" d="m1798.2 1645.5l-334.4 9.2v-34.3l334.4-8.5z"/>
						<path id="&lt;Path&gt;" class="s18" d="m2048.9 1179.3l-475.7-0.6v-34l475.7 1.6z"/>
						<path id="&lt;Path&gt;" class="s5" d="m2126.9 1225.1l-471 0.8v-33.9l471 0.3z"/>
						<path id="&lt;Path&gt;" class="s19" d="m2126.9 1270.8l-471 2.1v-33.8l471-1.1z"/>
						<path id="&lt;Path&gt;" class="s20" d="m2126.9 1316.5l-471 3.5v-33.9l471-2.5z"/>
						<path id="&lt;Path&gt;" class="s21" d="m1766.4 1365.9l-301.8 3.1v-34.3l301.8-2.4z"/>
						<path id="&lt;Path&gt;" class="s5" d="m1907.8 1410.8l-334.6 4.4v-34.1l334.6-3.6z"/>
						<path id="&lt;Path&gt;" class="s22" d="m2081.7 1454.3l-425.8 6.9v-33.9l425.8-5.9z"/>
						<path id="&lt;Path&gt;" class="s23" d="m2081.7 1500.2l-425.8 8v-33.9l425.8-7.1z"/>
						<path id="&lt;Path&gt;" class="s24" d="m2176.1 1543.9l-420.7 9.2v-33.7l420.7-8.2z"/>
						<path id="&lt;Path&gt;" class="s25" d="m2176.1 1589.5l-420.7 10.4v-33.7l420.7-9.5z"/>
						<path id="&lt;Path&gt;" class="s26" d="m1798.2 1132.4l-334.4-1.5v-34.2l334.4 2.1z"/>
						<path id="&lt;Path&gt;" class="s27" d="m1187.8 784.9l-303.8-7.5v-50l303.8 8.5z"/>
						<path id="&lt;Path&gt;" class="s5" d="m805.4 775.4l57.2 1.5v-50.1l-57.2-1.5z"/>
						<path id="&lt;Path&gt;" class="s5" d="m1187.8 855.5l-303.8-6.3v-50l303.8 7.2z"/>
						<path id="&lt;Path&gt;" class="s5" d="m805.4 847.6l57.2 1.1v-50l-57.2-1.3z"/>
						<path id="&lt;Path&gt;" class="s5" d="m1187.8 926l-303.8-5v-50l303.8 5.9z"/>
						<path id="&lt;Path&gt;" class="s5" d="m805.4 919.7l57.2 0.9v-50l-57.2-1.1z"/>
						<path id="&lt;Path&gt;" class="s27" d="m1187.8 1426.5l-530.8 7.2v-50.6l530.8-5.6z"/>
						<path id="&lt;Path&gt;" class="s5" d="m1187.8 1503.2l-303.8 5.5v-50l303.8-4.6z"/>
						<path id="&lt;Path&gt;" class="s5" d="m805.4 1510.1l57.2-1v-50.1l-57.2 0.9z"/>
						<path id="&lt;Path&gt;" class="s5" d="m1187.8 1573.7l-303.8 6.8v-50l303.8-5.9z"/>
						<path id="&lt;Path&gt;" class="s5" d="m805.4 1582.2l57.2-1.3v-50l-57.2 1.1z"/>
						<path id="&lt;Path&gt;" class="s5" d="m1187.8 1644.2l-303.8 8.1v-50l303.8-7.1z"/>
						<path id="&lt;Path&gt;" class="s5" d="m805.4 1654.3l57.2-1.5v-50l-57.2 1.4z"/>
						<path id="&lt;Path&gt;" class="s27" d="m1187.8 997l-530.8-6.5v-50.6l530.8 8z"/>
						<path id="&lt;Path&gt;" class="s5" d="m1187.8 1073.6l-303.8-2.3v-49.9l303.8 3.2z"/>
						<path id="&lt;Path&gt;" class="s5" d="m805.4 1070.7l57.2 0.4v-50l-57.2-0.6z"/>
						<path id="&lt;Path&gt;" class="s5" d="m1187.8 1144.1l-303.8-1v-49.9l303.8 1.9z"/>
						<path id="&lt;Path&gt;" class="s5" d="m805.4 1142.8l57.2 0.2v-50l-57.2-0.3z"/>
						<path id="&lt;Path&gt;" class="s5" d="m1187.8 1286.1l-303.8 1.5v-49.9l303.8-0.7z"/>
						<path id="&lt;Path&gt;" class="s5" d="m805.4 1288l57.2-0.3v-50l-57.2 0.2z"/>
						<path id="&lt;Path&gt;" class="s5" d="m1187.8 1356.6l-303.8 2.8v-49.9l303.8-1.9z"/>
						<path id="&lt;Path&gt;" class="s5" d="m805.4 1360.2l57.2-0.6v-50l-57.2 0.4z"/>
						<path id="&lt;Path&gt;" class="s5" d="m1187.8 1214.7l-303.8 0.2v-49.9l303.8 0.6z"/>
						<path id="&lt;Path&gt;" class="s5" d="m805.4 1215l57.2-0.1v-50l-57.2-0.1z"/>
						<path id="&lt;Path&gt;" class="s27" d="m1187.8 1714.7l-530.8 16.3v-50.6l530.8-14.7z"/>
						<path id="&lt;Path&gt;" class="s5" d="m1187.8 1791.4l-303.8 10.7v-50l303.8-9.8z"/>
						<path id="&lt;Path&gt;" class="s5" d="m805.4 1804.9l57.2-2.1v-50l-57.2 1.9z"/>
						<path id="&lt;Path&gt;" class="s5" d="m1187.8 1861.9l-303.8 12v-50l303.8-11.1z"/>
						<path id="&lt;Path&gt;" class="s5" d="m805.4 1877l57.2-2.3v-50l-57.2 2.1z"/>
						<path id="&lt;Path&gt;" class="s5" d="m1187.8 1932.4l-303.8 13.3v-50l303.8-12.4z"/>
						<path id="&lt;Path&gt;" class="s5" d="m805.4 1949.1l57.2-2.5v-50l-57.2 2.3z"/>
						<path id="&lt;Path&gt;" class="s5" d="m1252.3 1929.8l-11.6 0.5v-1269.4l11.6 0.4z"/>
					</g>
					<path id="&lt;Path&gt;" class="s5" d="m2702.8 1988.8c-515.4 10.8-631.3 84.4-777.8-3.8-201.2-121.1-109.6-336.7-305.6-449.7-246.5-142.2-530.7 118.2-659.4-8.8-128.1-126.3 113.9-423.8-26.2-755.4-56.2-133-151.9-219.5-218.1-269l-133.4-5.8c-51.2-2.2-93.1 31.7-93.1 75.6v1582c0 43.8 41.9 77.1 93.1 74l2367.7-141.1c37.5-2.3 68-34.5 68-71.8v-23.9c-71-2.5-180.9-5.1-315.2-2.3z"/>
				</g>
			</g>
			<g id="&lt;Group&gt;">
				<path id="&lt;Path&gt;" class="s28" d="m2560.1 1542.5c-24.4-26 43.1-124 79.3-166.9 31.6-37.5 64.1-76 104-71.1 35 4.3 69.1 41.2 71.1 76.6 5.5 95.2-219.7 198.5-254.4 161.4z"/>
				<path id="&lt;Path&gt;" class="s29" d="m2853.2 2548.8c4.6 3.8 5.5 13.1 6 19.2 0.3 2.7 0.4 4.1 0.1 5-2.2 7.1-15.9 7.8-37.2 10-33.7 3.4-43.8 6.1-46.4 1.1-2.5-4.7 3.5-12.4 4.2-13.3 3.6-4.6 8-6.2 16.6-9.1 16-5.2 26.7-8.1 30-8.9 20.3-5.5 23.7-6.4 26.7-4z"/>
				<path id="&lt;Path&gt;" class="s30" d="m2833.2 2518l-3.4 38.5c0.9 1.8 12.4 7.4 21.4 2.6l8.7-37.8z"/>
				<path id="&lt;Path&gt;" class="s31" d="m2585.7 2543.9c5.5 6.1 6.8 17.3 2 22.8-4.7 5.4-11.8 1.3-31.9 1.9-21.5 0.7-27.1 5.8-41.7 1.7-5.9-1.6-16.3-5.6-16.1-9.8 0.1-2.9 5.4-4.5 23.1-10.4 25.2-8.4 25.1-8.9 30.4-9.8 13.5-2.2 26.9-4.4 34.2 3.6z"/>
				<path id="&lt;Path&gt;" class="s30" d="m2571.9 2508.8l-10.8 35.9c0.9 1.9 11.8 8.3 21.2 4.3l16.1-34.9z"/>
				<path id="&lt;Path&gt;" class="s32" d="m2667.8 1722.9c-1.6 120.6-9.8 256.2-29.5 403.5-19.6 145.6-46.9 277.2-76.7 392.9q20.6 5.5 41.3 11.1c34.9-32.6 78.9-83.8 100.2-156.3 13.2-44.9 8.8-68 17.1-123.3 13.4-88 40.3-134.2 68.2-205.2 25.1-63.8 54.7-157.4 70.6-282.5q-95.6-20.1-191.2-40.2z"/>
				<path id="&lt;Path&gt;" class="s33" d="m2792 1711.4c8.4 153.4 15.4 309.6 20.6 468.6 4 119.3 6.8 237.1 8.8 353.4q21.1 2.6 42.1 5.2c13.6-25.3 31.7-64 44-113.5 15-60.2 11.6-96 18.2-158.4 7.3-69.9 18.1-85.2 37.1-173.4 38.6-179.2 57.8-268.7 14.8-324.5-14-18-57.8-63.4-185.6-57.4z"/>
				<path id="&lt;Path&gt;" class="s34" d="m2996.9 1326c-32.9-9.3-81.2-20.1-140.3-23.4-84.2-4.8-126.4-7.2-156.3 12.9-68.9 46.3-15.5 153.3-43.8 418.5-4 37.9-4.9 76.1-7.8 114-4.8 62.9-6 66.3-1.6 72.7 27.5 40 129.8-20.3 279.9 3.5 83.9 13.4 122 44.1 145 21.9 26.8-25.8 3.8-95.3-16-155.1-22.8-68.7-36.8-69.5-49.7-121.2-13.5-54.1-5.3-81.9-3.2-167.1 1-40.8 0.8-101.5-6.2-176.7z"/>
				<g id="&lt;Group&gt;" style="opacity: .3;mix-blend-mode: multiply">
					<path id="&lt;Path&gt;" class="s35" d="m2792.9 1823.9c39.2-3.1 64.6 19.1 98.5 1.8 46.4-23.7 61.3-97.4 58.4-149.6-4.5-79.2-49.8-100.1-42-151.4 4.2-27.7 24-64.5 95-102 1 31.6 0.8 58.6 0.3 80-2.1 85.2-10.3 113 3.2 167.1 12.9 51.7 26.9 52.5 49.7 121.2 19.8 59.8 42.8 129.3 16 155.1-23 22.2-61.1-8.5-145-21.9-129.3-20.5-223.2 21.3-264.2 7.8 49.6-82 94.6-105.3 130.1-108.1z"/>
				</g>
				<path id="&lt;Path&gt;" class="s36" d="m2943.4 1331.4c28-23 84.3 3.1 99.4 10 83.9 38.8 159.3 143.5 140.6 254.1-2.8 16.5-15.8 94.1-81.4 131.7-59.3 33.9-139.3 25.2-203.5-22.8q-13.1-11.7-26.2-23.4-13-13.9-25.9-27.9c13.5-11.3 36.6-27.6 68.9-38 42.6-13.7 73.7 10.9 93.5-7.8 13.6-13 13.6-35.9 10.3-49.7-6.8-28-31.5-35.8-52-55.7-48.3-46.6-57.2-142.9-23.7-170.5z"/>
				<g id="&lt;Group&gt;">
					<path id="&lt;Path&gt;" class="s37" d="m2540.9 1692.4l375.4-5.6-99.8 48.2-276.5-18.1z"/>
					<path id="&lt;Path&gt;" class="s38" d="m2929.6 1696.8c0 7-4.4 13.3-11 15.7l-120 47-0.5-32.6 118.2-40.1c6.7-1.9 13.3 3.1 13.3 10z"/>
				</g>
				<path id="&lt;Path&gt;" class="s2" d="m2871.8 1674.6c2.3-0.5-11.3-27.5-21.9-24.4-10.6 3.1-62.5 33.2-67.2 45.6-4.8 12.4-4.8 12.4-4.8 12.4 0 0 22.7 1.8 36.7-2.9 14.1-4.8 38.4-26.6 57.2-30.7z"/>
				<g id="&lt;Group&gt;">
					<g id="&lt;Group&gt;">
						<path id="&lt;Path&gt;" class="s39" d="m2788.1 1498.2l26.5 240.9c0.9 8.3-10.7 20.7-19.1 20.3l-388.2-23.8c-6.3-0.3-11.7-5-12.7-11.3l-48.8-232.7c-1.4-8.5 13.8-17.2 22.4-17l406.8 11.4c6.8 0.2 12.4 5.4 13.1 12.2z"/>
						<path id="&lt;Path&gt;" class="s40" d="m2779.3 1505.2l26.4 240.9c0.9 8.3-5.8 15.5-14.2 15.1l-393-18.6c-6.4-0.3-11.7-5-12.8-11.3l-40.2-233.8c-1.4-8.4 5.2-16.1 13.8-15.9l406.8 11.5c6.8 0.2 12.4 5.3 13.2 12.1z"/>
					</g>
					<path id="&lt;Path&gt;" class="s41" d="m2548.4 1686.1c34.4-14.5 22.2-42.3 62.8-76.8 53.4-45.6 107.9-25.9 127-61.2 6-11 8.8-28.1-1.5-55.9l29.4 0.9c6.8 0.2 12.4 5.3 13.2 12.1l26.4 240.9c0.9 8.3-5.8 15.5-14.2 15.1l-393-18.6c-6.4-0.3-11.7-5-12.8-11.3l-5.5-32.3c11.9-6.6 26.1-12.6 42.8-16 57.6-11.7 85.9 19.9 125.4 3.1z"/>
				</g>
				<path id="&lt;Path&gt;" class="s2" d="m2373.7 1708.9c-0.6-2 0.7-4 2.8-4.1 8.3-0.4 27.5-0.6 38.2 6 13.8 8.4 31.7 23.9 16.6 31.7l-14 7.2q-1 0.5-2.1 0.3c-5-1.1-26-5.7-28.3-6.9-2.1-1-10.1-24.8-13.2-34.2z"/>
				<g id="&lt;Group&gt;">
					<path id="&lt;Path&gt;" class="s2" d="m2850.3 1210.5c-0.2 25 2.6 44.8 5.3 58.3 3 15.6 5.2 19.6 7.9 22.9 4.2 4.9 10.6 9 46.4 17.9 19.4 4.8 21.9 4.7 22.4 6.6 2.1 9.4-51.1 41.6-105.9 33.8-33.6-4.7-64.2-23.9-62.3-33.9 1.9-10.2 35.4-4.7 45.4-23.1 7-12.7-0.8-30.8-10-45.8 8.9-16.7 41.9-20 50.8-36.7z"/>
					<g id="&lt;Group&gt;">
						<path id="&lt;Path&gt;" class="s42" d="m2788 1220.3c-7.9-10.5-8.4-28.9 0.7-40.5 7.9-10 20.2-11.4 27.6-12.3 21.5-2.5 48.6 6.5 58 26.3 5.6 11.7-6.5 36-8.4 40.4-2.1 4.9-6 6.6-9.6 10.3-5 5.2-12.8 13.5-25.5 27.3-1-4.1-2.5-9.2-4.8-14.6-1-2.1-4.7-10.3-10.2-17.1-11.2-13.7-20.3-9.8-27.8-19.8z"/>
						<path id="&lt;Path&gt;" class="s2" d="m2849 1260.2c0 0-14.1 23.1-42.2 21.3-25.2-1.7-28.9-58.1-12.8-70 5.4-4 16.1-5.7 24.8-3.2 5.2 1.4 6.9 3.6 15.4 5.7 7.8 2.1 10 1.2 12.4 3.2 2.9 2.5 5.1 8.6 0.1 25 4.8-4.8 10.6-6.7 14.7-4.7 0.6 0.3 2.4 1.4 3.3 3.2 3.6 6.5-2.3 14.7-15.7 19.5z"/>
						<path id="&lt;Path&gt;" class="s43" d="m2847.7 1213.8c-1.2 0.9 2.5 5.4 2.8 11.9 0.5 12.4-12.1 27.3-24.9 28.6-7.6 0.7-9.7-3.9-22.2-5.2-7.8-0.8-14.3 0.2-18.3 1.1-4 13.6-0.3 27.2 8.8 33.5 9.9 6.8 22.4 2.7 27.6 1 3.5-1.2 14.8-4.9 20.6-15.2 6.2-10.7 0.2-17.2 7.2-24.4 3.5-3.7 8.2-5.3 12.7-12.4 1.2-1.9 2-3.6 2.5-4.7-6.4-6.9-15-15.5-16.8-14.2z"/>
						<path id="&lt;Path&gt;" class="s2" d="m2794.2 1255.2c0 0 5.4 2.9 14.8 2.3 0.5 0 1 0.2 1 0.4 0.2 0.9-5.8 4.9-11.3 3.3-4-1.1-7-4.8-6.5-5.8 0.2-0.4 1.1-0.3 2-0.2z"/>
					</g>
				</g>
			</g>
			<g id="&lt;Group&gt;">
				<path id="&lt;Path&gt;" class="s44" d="m830.3 1354.3c-6.7 2.5-108.4 42.9-129.3 149.1-1.7 8.6-18.1 99.8 43.8 164.2 69.3 72.3 202.9 70.5 255.9 10.1 12.4-14.1 18.9-29.7 22.6-42.8l-14-37.1c-17-20.6-40.3-25.5-52.6-28.5-30.6-7.6-53.7 6-71.2-8.7-9.7-8.1-11.6-19.9-13.3-30.4-5.8-35.7 14.3-57.6 15.8-79.6 1.1-16.5 6.8-52.6-14.7-76.1-13.6-14.9-32.4-18.9-43-20.2z"/>
				<path id="&lt;Path&gt;" class="s45" d="m790.6 2537.4c-1.2-6.5-22.3-12.4-32.7-3.7-5.2 4.4-8.8 13.2-5.8 17.2 1.1 1.4-3.4 4 0.9 4 14.2 0.2 38.8-11 37.6-17.5z"/>
				<path id="&lt;Path&gt;" class="s46" d="m768.5 2539.8l-21.7-3.1c10.1-12.1 8.2-50.6 8.2-50.6l23.1 5.1c0 0-2.7 10.6-7.1 26.2-1.6 5.4-2.2 13.7-2.5 22.4z"/>
				<path id="&lt;Path&gt;" class="s47" d="m770.4 2537.1c0 0-26.1-6-28.9-0.8-2.9 5.2-5.1 19.1 11.5 18.6 16.6-0.4 18.9-13.4 17.4-17.8z"/>
				<path id="&lt;Path&gt;" class="s48" d="m1088.5 2561.9c-2.1-6.3-23.9-9.2-33 1-4.5 5-6.8 14.2-3.3 17.7 1.3 1.3-2.8 4.5 1.5 3.9 14.1-1.8 36.8-16.3 34.8-22.6z"/>
				<path id="&lt;Path&gt;" class="s49" d="m1066.9 2567.4h-21.9c8.2-13.4 1-51.3 1-51.3l23.6 1.9c0 0-1.2 10.8-3.4 26.9-0.8 5.5-0.3 13.9 0.7 22.5z"/>
				<path id="&lt;Path&gt;" class="s50" d="m1123.7 1738.4c10.2 33.5 24.7 87.6 34 155.5 26.6 193.7-30 199.9-19.4 414.6 3.4 68.5-59.4 226.5-64.9 230-2.7 0.2-5.6 0.4-8.7 0.3-5.4-0.2-13.1-1-22.1-3.7-9.9-1.7-45.7-98.7-37.4-156.4 5.9-40.9 4.2-84.7 0.8-172.3-0.6-14.2-36.9-276.3-36.9-276.3-11.1 97-23.8 179.4-34.8 243.3-35.4 205.4-150.5 329.6-156.6 331.6-1.1 0.5-11.9 4.4-20.8-1.4-3.9-2.6-5.2-5.9-5.2-5.9-3.1-2.4 0.9-205 36-357.5 50.9-221.3 28.8-273.1 44.9-371.9 14-85.6 291.1-29.9 291.1-29.9z"/>
				<path id="&lt;Path&gt;" class="s51" d="m1137.4 1771.8c-30.6 15.7-109.5 43.9-203.4 29.9-41.7-6.2-75.2-19.8-99.3-32.3q-1.1-0.6-2.1-1.1c24.4-73.8 5.3-113.3-3.8-149.7-12.8-51.9-13-48-23.6-89.2-17.5-68.1-20.4-137.6-8.4-151.8 32.4-38.3 90.8-39.7 121-40.6 33.9-1 111.7-12.9 154.5 25.6 0.7 0.7-8 5.4-3.7 10.4 4 4.7 17.7 21.2 30.2 43.4 9.1 16.1 17.2 34.9 25.5 62.9 14.5 49.4 18.6 91.4 20 109.7q0.7 9.1 1.2 17.6c5.7 90.9-1.5 134.8-8.1 165.2z"/>
				<path id="&lt;Path&gt;" class="s52" d="m1068.4 2564.5c0 0-26.7-2.3-28.8 3.2-2 5.5-2.3 19.6 14.1 16.8 16.3-2.7 16.8-15.9 14.7-20z"/>
				<g id="&lt;Group&gt;">
					<path id="&lt;Path&gt;" class="s53" d="m1015.2 1293.7c9.2-18.4 3.2-38.2 1.8-42.5-5.7-18-7.5-20.6-11.1-24.3l-5.2-4.7c0 0-0.3-0.2-0.6-0.4-3.5-2.1-16.2-4.9-18.9-4.9-8.7 0.2-24 32.2-30.7 80.3q-1 2.7-2 5.4c-4.2 11.1-7.7 21.9-10.7 32.5-57.7 9-65.2 16.4-65.2 20.3 0 8.3 33.7 15.6 58.9 17.5 54.7 4.1 109.5-14.1 108.5-24.2-0.4-4.4-11.6-9.3-58-12.2q0.8-11.5 1.7-23c3.6-1.1 24.7-6.2 31.5-19.8z"/>
					<path id="&lt;Path&gt;" class="s54" d="m1020.5 1212c-2.9 14.7-12.9 29.1-17 31-0.5 0.2-3.5 1.8-6.4 4.8-0.4 0.4-0.8 0.9-1.2 1.6-5.1 8.7 7.6 22.5 4 26.1-2.7 2.6-12-3.4-13.7-1-1.6 2.2 5.8 8.9 4 11.6-1.4 2.1-6.2-1-10.1 1.8-1.9 1.4-1.7 2.8-4.4 7.7-1.6 2.7-3.5 5.7-4.9 7.3-6.8 7.6-21.9 8-24 4-0.6-1.1 0.3-1.8 0.1-5.2 0 0-0.2-3.1-1.6-7-2-5.6-8.5-10.5-14.8-17.2-11.6-12.3-13.7-21.3-14.2-24.3-0.2-1-0.3-1.8-0.4-2.4-1.4-11.6 1.7-27.6 8.4-36.4 11.4-14.9 28.4-3.5 46.7-16.9 21.1-15.5 15.7-43.2 25.7-44.2 11-1.2 29.1 31.4 23.8 58.7z"/>
					<path id="&lt;Path&gt;" class="s55" d="m995.2 1271c-2.6-5.7-9.9-2.2-11.2 4.2-1.2 6.4 3.7 14.3 10 14.2 6.3-0.1 4.8-10.8 1.2-18.4z"/>
				</g>
				<g id="&lt;Group&gt;">
					<path id="&lt;Path&gt;" class="s56" d="m843.4 1722.6q-0.1 0-0.2 0c-1.1-0.2-1.9-1.1-1.8-2.2 4-35.8-3.4-61.9-10-84.8-1.6-5.7-3.1-11.1-4.5-16.5-7.3-29.4-10.5-40.8-13.8-52.8-2.3-7.9-4.5-16-8.1-29.6-0.2-1 0.4-2.1 1.4-2.4 1.1-0.3 2.2 0.4 2.4 1.4 3.6 13.6 5.8 21.7 8.1 29.5 3.3 12.1 6.5 23.5 13.8 52.9 1.4 5.4 2.9 10.8 4.5 16.4 6.7 23.3 14.2 49.7 10.1 86.3-0.1 1-0.9 1.8-1.9 1.8z"/>
				</g>
				<path id="&lt;Path&gt;" class="s57" d="m1137.4 1771.8c-30.6 15.7-109.5 43.9-203.4 29.9-41.7-6.2-75.2-19.8-99.3-32.3 10.9-8.5 24.4-22.7 46.6-46.8 26.9-29.2 58.4-18.3 76.9-7.3 13.4 7.8 29.9 8.1 43.5 0.6 13.6-7.5 22.2-21.7 22.6-37.2 0.2-7.1-0.2-15.2-1-24.4-6.4-66.4 85.7-72.1 85.7-72.1 13-6.7 25.3 4.2 36.5 24.4 5.7 90.9-1.5 134.8-8.1 165.2z"/>
				<path id="&lt;Path&gt;" class="s58" d="m1459.2 1475.8c-3.7 0.3-8.2 4.1-11.3 5.9-4.5 2.5-9 5-13.6 7.4-8.8 4.6-18.1 8-28.2 7.8 0.3-1.5 0.8-2.9 1.3-4.3 1.8-4 4-7.4 2.7-8.6-2-1.8-10.4 1.8-18.2 9.3-3.2 3-6.2 6.7-8.7 10.8-4 6.8-3.3 10.6-6.6 15.7-5 4.5-8.7 5.5-8.7 5.5v1.4l0.5 1.7c-4.4 3.4-9.4 5.4-13.3 6.7 6.9 1.9 13.6 3.7 20.5 5.6l4.8 8c0 0 26-5.5 41.7-15 7.3-4.5 9.8-10 10.5-14.6 0.4-3 0-5.6-0.4-7.3-0.4-1.2-0.7-1.9-0.7-1.9 0 0 21.5-8.9 29.9-28.2 1.3-2.9 1.4-6.3-2.2-5.9z"/>
				<path id="&lt;Path&gt;" class="s59" d="m1368.4 1517.2c12.3 8.6 18.8 20.2 22.2 27.7-9 21.1-29.4 60.3-71.6 89.2-69.2 47.4-170.8 49-241.5-5.1-84.5-64.5-98.6-188.3-63.1-241.3 4.1-6.1 17.5-26.2 38.4-28.5 13.1-1.4 31 4 59.4 37.1 59 69.1 38.1 112.3 73 132.5 52.3 30.3 129.9-48.9 183.2-11.6z"/>
			</g>
			<g id="&lt;Group&gt;">
				<path id="&lt;Path&gt;" class="s60" d="m2246.2 191.6c-21.6-6.3-50.6 33.5-74.7 66.6-36.1 49.5-78.2 107.4-66.9 176.9 11.2 68.4 69.8 121.6 86.5 114 14.3-6.5-13.2-52.5 7.9-114 17-49.6 45.1-49.6 64-98.3 23.4-60.4 9.9-137.4-16.8-145.2z"/>
				<path id="&lt;Path&gt;" class="s61" d="m2235.5 506.5c-111.7 27.1-185.3 70.7-228.3 101.5-23.2 16.7-34 27.1-39.8 42.2-33.1 86.5 136.9 217.2 155 230.9q11.9-27.7 23.8-55.3c-17.6-96.5-46.8-126.7-71.3-135.7-6.9-2.5-18.4-5.2-18.1-8.5 0.5-7.6 65.1 3.3 126.8-19.3 61.5-22.5 123.3-79.5 112.3-117.1-2-6.9-10.5-26.8-60.4-38.7z"/>
				<path id="&lt;Path&gt;" class="s62" d="m2127.2 1138.5c0 0 10.4 3.7 10.4 11.9 0.1 8.3-10.5 44.5-22 57.4-11.5 12.8-12.5-6.4-11.8-18.8 0.7-12.3 3.7-40 6.6-45.4 2.8-5.3 16.8-5.1 16.8-5.1z"/>
				<path id="&lt;Path&gt;" class="s63" d="m2093.8 632.9c-20.3-0.4-67.9-4.2-80.5 19.3-10.6 19.7 7.9 49.4 19.3 67.7 31 49.7 61 54.8 82.1 85.3 8.2 11.9 15.6 28.4 18 52q6.7-15.7 13.5-31.4c-17.6-96.5-46.8-126.7-71.3-135.7-6.9-2.5-18.4-5.2-18.1-8.5 0.5-7.6 65.1 3.3 126.8-19.3 56.1-20.5 112.2-69.6 113.4-106.7-88.8 63.7-155.7 78.3-203.2 77.3z"/>
				<path id="&lt;Path&gt;" class="s64" d="m2133.2 1103.6c-0.6 12.6-1.7 23.2-2.7 31.1-2.1 17.4-4.1 24.3-6.8 30.6-2.3 5.4-8.2 17.4-11 16.5-2.9-0.8 0-14 2.3-50.8 0.3-5.3 1.3-22.3 1.3-22.3z"/>
				<path id="&lt;Path&gt;" class="s65" d="m2299.9 513.8c-64.3 38.8-106.1 82.9-130.4 112.7-28.7 35.2-72.3 88.7-88.1 168.4-8.4 42.6-4.3 80.7 4.4 155.3 8.5 74 20.8 134.3 30.4 175.5q7.4 2.9 14.9 5.9c13.2-24.3 30.6-62.9 36.8-112.2 10.1-80.7-20-106.3-5.5-163.5 12.5-49.6 48.9-79.9 121.6-140.7 59.7-50 114.8-79.6 135.2-141.9 3.5-10.5 6.5-23.5 0.8-35.4-12.2-25.6-58.9-34.5-120.1-24.1z"/>
				<path id="&lt;Path&gt;" class="s66" d="m2351.3 196.2c-16.7-3.6-44.2-2.9-70.4-23.5-7.9-6.2-35.8-28.2-32.4-59.7 3-27.7 29.3-42.6 32.5-44.3 18.6-10.3 37.1-8 57.7-5.2 26.6 3.7 35.5 10.9 54 15.9 45.8 12.4 61.3-13.4 107.4-11.2 59 2.8 64.1 46.3 113.7 47.4 55.7 1.2 66.4-53.3 121.4-62.5 76.3-12.9 191.8 69.3 189.4 164-1.3 54.7-42 117.4-94.1 136.3-30.3 10.9-63 7.4-72.4 27.2-6.6 14 8.3 24.8 6.9 49.3-1.8 31.5-28.9 53.6-33.3 57.2-40.7 33.2-131.9 16.4-194.2-30.5-112.4-84.6-95.4-240.8-186.2-260.4z"/>
				<path id="&lt;Path&gt;" class="s67" d="m2480.3 185c-37.8-4.7-81.4-8.2-129.9-8.9-102.5-1.4-117.2 11.6-120.9 21.2-7 18 5 26.9-1.8 58.2-4.1 18.7-0.3 27.2-8.1 47.3-7.7 19.6-1.7 30.1 5.1 76 8.7 58.7 12.7 88.5-3.8 112.2-11.4 16.4-24.1 17.8-22.9 25.6 2.6 16.7 60.1 7.5 132.9 39.4 21.1 9.3 40.5 20.7 56.8 30.2 38.1 22.4 45.1 31 62.8 41.1 55.8 32 139.6 35.1 183.6-3.6 16.4-14.5 28.3-35.7 22.9-43.5-7.3-10.6-40 13.4-70-1.2-19.9-9.7-16.1-25.5-39.1-44-27.7-22.3-46.9-10.6-65.8-25.1-29.4-22.7-16-76.8-7.7-167.7 3.4-37.6 6.8-91.3 5.9-157.2z"/>
				<path id="&lt;Path&gt;" class="s68" d="m2369.4 163.9c14 8.6 36.6 20 39.1 23 2.5 3.1-68.4 15.3-112.6-7 0 0-6.8-3.8 19.8-9.1 5.7-1.2 4.5-12.2 3.8-23.6l5.3-9.9c0 0 30.7 17.9 44.6 26.6z"/>
				<path id="&lt;Path&gt;" class="s69" d="m2334.2 130.6c0 0 5.5 23.3-15 34.8-18.4 10.3-49.4-31.9-43.6-47.6 1.9-5.3 8.9-12 16.1-14.2 5-1.6 24.3-1 32.5 15.2 2.1-4.8 6-7.2 8.6-6.5 3.3 1 3.8 7 3.9 8.4 0.4 4.7-1.5 8.3-2.5 9.9z"/>
				<path id="&lt;Path&gt;" class="s70" d="m2302.4 503.4c21.1 8.8 24 27.7 53.2 38.4 27.8 10.2 37.1-2.6 64.9 5.9 41.7 12.8 57.6 53 63.9 49.2 5.8-3.5 0.3-42-26.5-66.9-30.8-28.6-64-15.5-83.7-45.3-7.6-11.5-13.5-30-6.8-44.2 9-19.3 32.7-12.6 45.2-28.6 22.5-28.6-30.2-80.3-15.7-123.9 5.7-17.5 24.1-39.3 83.3-53.9-0.8 43.8-3.3 80.3-5.8 108.1-8.3 90.9-21.7 145 7.7 167.7 18.9 14.5 38.1 2.8 65.8 25.1 23 18.5 19.2 34.3 39.1 44 30 14.6 62.7-9.4 70 1.2 5.4 7.8-6.5 29-22.9 43.5-44 38.7-127.8 35.6-183.6 3.6-17.7-10.1-24.7-18.7-62.8-41.1-16.3-9.5-35.7-20.9-56.8-30.2-51.1-22.4-94.6-24.6-117-29.6 44.4-29.6 71.4-30.1 88.5-23z"/>
				<g id="&lt;Group&gt;">
					<path id="&lt;Path&gt;" class="s71" d="m2098.8 533.1l267.7 13c3.7 0.2 7 2.2 9 5.3l7.4 11.9c3.7 5.9-0.8 13.6-7.7 13.3l-283.6-10.8z"/>
					<path id="&lt;Path&gt;" class="s72" d="m1853 385.2l276.6 5.4c8.2 0.1 15.7 4.6 19.7 11.7l95.8 168.5-292.1-11.6c-8-0.3-15.4-4.7-19.5-11.6l-88.7-148.2c-3.8-6.3 0.8-14.3 8.2-14.2z"/>
					<path id="&lt;Path&gt;" class="s73" d="m2149.3 402.3c-4-7.1-11.5-11.6-19.7-11.7l-6.1-0.1c-0.9 8.9-3.6 17.1-9.1 23.6-17 20.6-45.4 7.9-66.5 29.7-23.2 24-1.8 52.4-22.5 74.7-21.8 23.5-57.1 4.4-97.7 19.4l5.8 9.7c4.1 6.9 11.5 11.3 19.5 11.6l292.1 11.6z"/>
				</g>
				<g id="&lt;Group&gt;">
					<path id="&lt;Path&gt;" class="s74" d="m2322.6 533.3q-4.5-12-9-23.9c33.3-9.2 79.4-22.7 126.7-39.6 11.7-4.2 16-9.6 19.1-13.7 24.3-32.2-37.5-88.9-36.4-162.5 0.8-51 31.8-109.4 59-110.1 55.4-1.3 177.6 233.8 74.7 334.1-51.1 49.9-146.5 55.6-234.1 15.7z"/>
				</g>
				<path id="&lt;Path&gt;" class="s75" d="m2313.6 509.4c-21-11.2-46 0.2-47.6 1-4.6 2.2-11.3 6-18.1 12.9-0.8 1.1-9.8 13.7-6.5 17.7 2.6 3.2 12.9 0.6 25.2-7.1 5.2-0.7 12.9-1.4 22.1-0.6 17 1.6 24.7 7 30.9 2.3 4.5-3.3 6-10.5 4.4-15.8-1.7-5.7-6.9-8.6-10.4-10.4z"/>
			</g>
		</g>
	</g>
</svg>