<svg version="1.2" xmlns="http://www.w3.org/2000/svg" viewBox="0 0 715 731" width="715" height="731">
	<title>481-ai</title>
	<defs>
		<linearGradient id="g1" x2="1" gradientUnits="userSpaceOnUse" gradientTransform="matrix(154.827,113.668,-167.156,227.683,63.892,604.719)">
			<stop offset="0" stop-color="#180d5b"/>
			<stop offset="1" stop-color="#42e8e0"/>
		</linearGradient>
		<linearGradient id="g2" x2="1" gradientUnits="userSpaceOnUse" gradientTransform="matrix(122.169,62.716,-75.551,147.172,99.995,508.302)">
			<stop offset="0" stop-color="#180d5b"/>
			<stop offset="1" stop-color="#42e8e0"/>
		</linearGradient>
		<linearGradient id="g3" x2="1" gradientUnits="userSpaceOnUse" gradientTransform="matrix(111.416,76.992,-105.444,152.589,124.83,424.582)">
			<stop offset="0" stop-color="#180d5b"/>
			<stop offset="1" stop-color="#42e8e0"/>
		</linearGradient>
		<linearGradient id="g4" x2="1" gradientUnits="userSpaceOnUse" gradientTransform="matrix(120.242,56.402,-33.331,71.058,107.761,424.122)">
			<stop offset="0" stop-color="#180d5b"/>
			<stop offset="1" stop-color="#42e8e0"/>
		</linearGradient>
		<linearGradient id="g5" x2="1" gradientUnits="userSpaceOnUse" gradientTransform="matrix(-343.134,-188.179,108.643,-198.104,623.745,774.013)">
			<stop offset="0" stop-color="#180d5b"/>
			<stop offset="1" stop-color="#42e8e0"/>
		</linearGradient>
		<linearGradient id="g6" x2="1" gradientUnits="userSpaceOnUse" gradientTransform="matrix(181.253,0,0,134.75,391.999,595.622)">
			<stop offset="0" stop-color="#2b237c"/>
			<stop offset="1" stop-color="#180d5b"/>
		</linearGradient>
		<linearGradient id="g7" x2="1" gradientUnits="userSpaceOnUse" gradientTransform="matrix(-165.08,-93.843,11.541,-20.302,418.603,737.001)">
			<stop offset="0" stop-color="#180d5b"/>
			<stop offset=".282" stop-color="#1f3372"/>
			<stop offset="1" stop-color="#42e8e0"/>
		</linearGradient>
		<linearGradient id="g8" x2="1" gradientUnits="userSpaceOnUse" gradientTransform="matrix(-292.403,-189.918,123.352,-189.915,504.405,697.674)">
			<stop offset="0" stop-color="#180d5b"/>
			<stop offset="1" stop-color="#42e8e0"/>
		</linearGradient>
		<linearGradient id="g9" x2="1" gradientUnits="userSpaceOnUse" gradientTransform="matrix(181.253,0,0,134.75,391.999,551.387)">
			<stop offset="0" stop-color="#2b237c"/>
			<stop offset="1" stop-color="#180d5b"/>
		</linearGradient>
		<linearGradient id="g10" x2="1" gradientUnits="userSpaceOnUse" gradientTransform="matrix(-148.563,-83.76,10.602,-18.805,397.675,680.58)">
			<stop offset="0" stop-color="#180d5b"/>
			<stop offset=".282" stop-color="#1f3372"/>
			<stop offset="1" stop-color="#42e8e0"/>
		</linearGradient>
		<linearGradient id="g11" x2="1" gradientUnits="userSpaceOnUse" gradientTransform="matrix(-190.738,-43.072,43.602,-193.085,456.69,662.69)">
			<stop offset="0" stop-color="#180d5b"/>
			<stop offset="1" stop-color="#42e8e0"/>
		</linearGradient>
		<linearGradient id="g12" x2="1" gradientUnits="userSpaceOnUse" gradientTransform="matrix(-343.134,-188.179,108.643,-198.105,623.745,690.68)">
			<stop offset="0" stop-color="#180d5b"/>
			<stop offset="1" stop-color="#42e8e0"/>
		</linearGradient>
		<linearGradient id="g13" x2="1" gradientUnits="userSpaceOnUse" gradientTransform="matrix(181.253,0,0,134.75,391.999,512.288)">
			<stop offset="0" stop-color="#2b237c"/>
			<stop offset="1" stop-color="#180d5b"/>
		</linearGradient>
		<linearGradient id="g14" x2="1" gradientUnits="userSpaceOnUse" gradientTransform="matrix(-165.08,-93.843,11.541,-20.302,418.603,653.667)">
			<stop offset="0" stop-color="#180d5b"/>
			<stop offset=".282" stop-color="#1f3372"/>
			<stop offset="1" stop-color="#42e8e0"/>
		</linearGradient>
		<linearGradient id="g15" x2="1" gradientUnits="userSpaceOnUse" gradientTransform="matrix(-292.403,-189.918,123.351,-189.915,504.405,614.34)">
			<stop offset="0" stop-color="#180d5b"/>
			<stop offset="1" stop-color="#42e8e0"/>
		</linearGradient>
		<linearGradient id="g16" x2="1" gradientUnits="userSpaceOnUse" gradientTransform="matrix(181.253,0,0,134.75,391.999,468.054)">
			<stop offset="0" stop-color="#2b237c"/>
			<stop offset="1" stop-color="#180d5b"/>
		</linearGradient>
		<linearGradient id="g17" x2="1" gradientUnits="userSpaceOnUse" gradientTransform="matrix(-148.563,-83.76,10.602,-18.805,397.675,597.247)">
			<stop offset="0" stop-color="#180d5b"/>
			<stop offset=".282" stop-color="#1f3372"/>
			<stop offset="1" stop-color="#42e8e0"/>
		</linearGradient>
		<linearGradient id="g18" x2="1" gradientUnits="userSpaceOnUse" gradientTransform="matrix(-190.738,-43.072,43.602,-193.085,456.69,579.357)">
			<stop offset="0" stop-color="#180d5b"/>
			<stop offset="1" stop-color="#42e8e0"/>
		</linearGradient>
		<linearGradient id="g19" x2="1" gradientUnits="userSpaceOnUse" gradientTransform="matrix(-343.134,-188.179,108.643,-198.105,623.745,607.346)">
			<stop offset="0" stop-color="#180d5b"/>
			<stop offset="1" stop-color="#42e8e0"/>
		</linearGradient>
		<linearGradient id="g20" x2="1" gradientUnits="userSpaceOnUse" gradientTransform="matrix(181.253,0,0,134.75,391.999,428.955)">
			<stop offset="0" stop-color="#2b237c"/>
			<stop offset="1" stop-color="#180d5b"/>
		</linearGradient>
		<linearGradient id="g21" x2="1" gradientUnits="userSpaceOnUse" gradientTransform="matrix(-165.08,-93.843,11.541,-20.302,418.603,570.334)">
			<stop offset="0" stop-color="#180d5b"/>
			<stop offset=".282" stop-color="#1f3372"/>
			<stop offset="1" stop-color="#42e8e0"/>
		</linearGradient>
		<linearGradient id="g22" x2="1" gradientUnits="userSpaceOnUse" gradientTransform="matrix(-292.403,-189.918,123.351,-189.915,504.405,531.007)">
			<stop offset="0" stop-color="#180d5b"/>
			<stop offset="1" stop-color="#42e8e0"/>
		</linearGradient>
		<linearGradient id="g23" x2="1" gradientUnits="userSpaceOnUse" gradientTransform="matrix(181.253,0,0,134.75,391.999,384.721)">
			<stop offset="0" stop-color="#2b237c"/>
			<stop offset="1" stop-color="#180d5b"/>
		</linearGradient>
		<linearGradient id="g24" x2="1" gradientUnits="userSpaceOnUse" gradientTransform="matrix(-148.563,-83.76,10.602,-18.805,397.675,513.914)">
			<stop offset="0" stop-color="#180d5b"/>
			<stop offset=".282" stop-color="#1f3372"/>
			<stop offset="1" stop-color="#42e8e0"/>
		</linearGradient>
		<linearGradient id="g25" x2="1" gradientUnits="userSpaceOnUse" gradientTransform="matrix(-190.738,-43.072,43.602,-193.084,456.69,496.024)">
			<stop offset="0" stop-color="#180d5b"/>
			<stop offset="1" stop-color="#42e8e0"/>
		</linearGradient>
		<linearGradient id="g26" x2="1" gradientUnits="userSpaceOnUse" gradientTransform="matrix(-343.134,-188.179,108.643,-198.104,623.745,524.013)">
			<stop offset="0" stop-color="#180d5b"/>
			<stop offset="1" stop-color="#42e8e0"/>
		</linearGradient>
		<linearGradient id="g27" x2="1" gradientUnits="userSpaceOnUse" gradientTransform="matrix(181.253,0,0,134.75,391.999,345.622)">
			<stop offset="0" stop-color="#2b237c"/>
			<stop offset="1" stop-color="#180d5b"/>
		</linearGradient>
		<linearGradient id="g28" x2="1" gradientUnits="userSpaceOnUse" gradientTransform="matrix(-165.08,-93.843,11.541,-20.302,418.603,487.001)">
			<stop offset="0" stop-color="#180d5b"/>
			<stop offset=".282" stop-color="#1f3372"/>
			<stop offset="1" stop-color="#42e8e0"/>
		</linearGradient>
		<linearGradient id="g29" x2="1" gradientUnits="userSpaceOnUse" gradientTransform="matrix(-292.403,-189.918,123.352,-189.915,504.405,447.674)">
			<stop offset="0" stop-color="#180d5b"/>
			<stop offset="1" stop-color="#42e8e0"/>
		</linearGradient>
		<linearGradient id="g30" x2="1" gradientUnits="userSpaceOnUse" gradientTransform="matrix(181.253,0,0,134.75,391.999,301.387)">
			<stop offset="0" stop-color="#2b237c"/>
			<stop offset="1" stop-color="#180d5b"/>
		</linearGradient>
		<linearGradient id="g31" x2="1" gradientUnits="userSpaceOnUse" gradientTransform="matrix(-148.563,-83.76,10.602,-18.805,397.675,430.58)">
			<stop offset="0" stop-color="#180d5b"/>
			<stop offset=".282" stop-color="#1f3372"/>
			<stop offset="1" stop-color="#42e8e0"/>
		</linearGradient>
		<linearGradient id="g32" x2="1" gradientUnits="userSpaceOnUse" gradientTransform="matrix(-190.738,-43.072,43.602,-193.085,456.69,412.69)">
			<stop offset="0" stop-color="#180d5b"/>
			<stop offset="1" stop-color="#42e8e0"/>
		</linearGradient>
		<linearGradient id="g33" x2="1" gradientUnits="userSpaceOnUse" gradientTransform="matrix(0,-235.895,76.835,0,-11.252,328.489)">
			<stop offset="0" stop-color="#42e8e0"/>
			<stop offset="1" stop-color="#180d5b"/>
		</linearGradient>
	</defs>
	<style>
		.s0 { fill: #160a5b } 
		.s1 { fill: #24126a } 
		.s2 { opacity: .7;fill: url(#g1) } 
		.s3 { fill: #453c9e } 
		.s4 { opacity: .7;fill: url(#g2) } 
		.s5 { fill: #f0f6ff } 
		.s6 { fill: #fcd1c5 } 
		.s7 { fill: #4846a5 } 
		.s8 { opacity: .7;fill: url(#g3) } 
		.s9 { opacity: .7;fill: url(#g4) } 
		.s10 { fill: #aa8383 } 
		.s11 { fill: #c4ccd6 } 
		.s12 { fill: #e2b1a6 } 
		.s13 { fill: #936d6d } 
		.s14 { fill: #312a91 } 
		.s15 { opacity: .7;fill: url(#g5) } 
		.s16 { fill: url(#g6) } 
		.s17 { opacity: .7;fill: url(#g7) } 
		.s18 { opacity: .7;fill: url(#g8) } 
		.s19 { opacity: .3;fill: #42e8e0 } 
		.s20 { fill: #42e8e0 } 
		.s21 { fill: url(#g9) } 
		.s22 { opacity: .7;fill: url(#g10) } 
		.s23 { opacity: .5;fill: #5cfff3 } 
		.s24 { fill: url(#g11) } 
		.s25 { opacity: .5;fill: #42e8e0 } 
		.s26 { opacity: .7;fill: url(#g12) } 
		.s27 { fill: url(#g13) } 
		.s28 { opacity: .7;fill: url(#g14) } 
		.s29 { opacity: .7;fill: url(#g15) } 
		.s30 { fill: url(#g16) } 
		.s31 { opacity: .7;fill: url(#g17) } 
		.s32 { fill: url(#g18) } 
		.s33 { opacity: .7;fill: url(#g19) } 
		.s34 { fill: url(#g20) } 
		.s35 { opacity: .7;fill: url(#g21) } 
		.s36 { opacity: .7;fill: url(#g22) } 
		.s37 { fill: url(#g23) } 
		.s38 { opacity: .7;fill: url(#g24) } 
		.s39 { fill: url(#g25) } 
		.s40 { opacity: .7;fill: url(#g26) } 
		.s41 { fill: url(#g27) } 
		.s42 { opacity: .7;fill: url(#g28) } 
		.s43 { opacity: .7;fill: url(#g29) } 
		.s44 { fill: url(#g30) } 
		.s45 { opacity: .7;fill: url(#g31) } 
		.s46 { fill: url(#g32) } 
		.s47 { opacity: .7;fill: url(#g33) } 
		.s48 { opacity: .9;fill: #42e8e0 } 
		.s49 { opacity: .2;fill: #42e8e0 } 
	</style>
	<g id="321353356351 1">
		<g id="&lt;Group&gt;">
			<g id="&lt;Group&gt;">
				<g id="&lt;Group&gt;">
					<path id="&lt;Path&gt;" class="s0" d="m229.7 581.2c0 0 1.5 1.6 3.1 3.5 1.6 1.8 6 4.4 7.9 5.6 1.9 1.2 10.5 7.7 12.3 14.1 1.8 6.4-4.4 7.2-10.6 6.1-6.3-1.1-12.2-6.9-13.9-9-1.7-2.1-7.6-6.8-15.3-10.8-7.7-4-3.1-9.3-3.1-9.3z"/>
					<path id="&lt;Path&gt;" class="s0" d="m172.5 600.2c0 0-1.2 2.9-1.6 6.6-0.4 3.7-0.9 11.7-1.1 14.1-0.2 2.3-0.2 8.1 3.9 13.6 4.1 5.5 6.3 7.7 11.8 5.5 5.5-2.2 5.3-11.4 4.4-16.1-1-4.8-1.9-15.4-1.8-16.5 0.1-1.1-0.3-1.8-0.3-1.8z"/>
					<path id="&lt;Path&gt;" class="s1" d="m248.7 472.3c0 0-1.2 42.4-11.1 64.8 0 0-7 19.8-8 43.3 0 0 1.7 4.1-0.6 7.3-2.4 3.3-16.8 6.4-19.2-4.5-2.4-10.8-1.5-31 1.1-39.5 2.7-8.4-0.9-31.7-0.9-31.7 0 0-4 2.6-9.1 19.3-5.2 16.7-9 23.1-10.8 27.7-1.8 4.6-3.4 32.9-2.3 46.8 0 0-11.7 1.6-15.1-4-3.4-5.6-4.5-34.6-3.7-43.8 0.9-9.3 4.7-38.9 4.2-48-0.5-9.2-2.4-16.6-0.3-25.8 2.1-9.1 63.9-29.4 63.9-29.4z"/>
					<path id="&lt;Path&gt;" class="s2" d="m248.7 472.3c0 0-1.2 42.4-11.1 64.8 0 0-7 19.8-8 43.3 0 0 1.7 4.1-0.6 7.3-2.4 3.3-16.8 6.4-19.2-4.5-2.4-10.8-1.5-31 1.1-39.5 2.7-8.4-0.9-31.7-0.9-31.7 0 0-4 2.6-9.1 19.3-5.2 16.7-9 23.1-10.8 27.7-1.8 4.6-3.4 32.9-2.3 46.8 0 0-11.7 1.6-15.1-4-3.4-5.6-4.5-34.6-3.7-43.8 0.9-9.3 4.7-38.9 4.2-48-0.5-9.2-2.4-16.6-0.3-25.8 2.1-9.1 63.9-29.4 63.9-29.4z"/>
					<path id="&lt;Path&gt;" class="s0" d="m173.2 510c-0.5-9.2-2.4-16.6-0.3-25.8 0.7-3.4 10-8.4 21.2-13.3 18.9-1.8 42.9-3.8 44.6-3.5 1.5 0.2 5.4 1.7 8.6 3l1.4 1.9c0 0-0.1 2.6-0.4 6.8-4.4 1.3-12.9 0-12.9 0-1.2 2.9-8.6 13.5-17.7 18-9.2 4.6-36 3-37.6 4.8-1.5 1.7-1.8 24.9-1.7 27.8 0.2 2.9-2.5 21.5-5 37.9-2.4 16.1 1.3 35.7 1.4 36.3-0.8-0.5-1.6-1.2-2.1-2.1-3.4-5.6-4.5-34.6-3.7-43.8 0.9-9.3 4.7-38.9 4.2-48z"/>
					<path id="&lt;Path&gt;" class="s3" d="m228 334c0 0 13.7 3.1 18.3 4.2 0.8 0.2 1.4 0.7 1.7 1.5 1.3 3.3 4.6 13.8 2.1 29.1-3.1 18.8-2.1 31.5-2.1 31.5l6.3 33c0 0 8 31.5 7.3 32.3-0.6 0.9-18.3 14.4-23.9 12.5-5.5-1.9-3.7-5.1-3.7-5.1 0 0-4.4 22.8-24.3 22.6-19.8-0.2-36-0.1-39.3-8.2-3.4-8 0.9-41.6 4.4-55 3.5-13.3 11.8-39.9 11.8-39.9l-29-32.1 24.8-19c0 0 5.9-11 8.3-12.4 2.5-1.4 3.7-0.2 3.7-0.2z"/>
					<path id="&lt;Path&gt;" class="s3" d="m228 334c0 0 13.7 3.1 18.3 4.2 0.8 0.2 1.4 0.7 1.7 1.5 1.3 3.3 4.6 13.8 2.1 29.1-3.1 18.8-2.1 31.5-2.1 31.5l6.3 33c0 0 8 31.5 7.3 32.3-0.6 0.9-18.3 14.4-23.9 12.5-5.5-1.9-3.7-5.1-3.7-5.1 0 0-4.4 22.8-24.3 22.6-19.8-0.2-36-0.1-39.3-8.2-3.4-8 0.9-41.6 4.4-55 3.5-13.3 11.8-39.9 11.8-39.9l-29-32.1 24.8-19c0 0 5.9-11 8.3-12.4 2.5-1.4 3.7-0.2 3.7-0.2z"/>
					<path id="&lt;Path&gt;" class="s4" d="m228 334c0 0 13.7 3.1 18.3 4.2 0.8 0.2 1.4 0.7 1.7 1.5 1.3 3.3 4.6 13.8 2.1 29.1-3.1 18.8-2.1 31.5-2.1 31.5l6.3 33c0 0 8 31.5 7.3 32.3-0.6 0.9-18.3 14.4-23.9 12.5-5.5-1.9-3.7-5.1-3.7-5.1 0 0-4.4 22.8-24.3 22.6-19.8-0.2-36-0.1-39.3-8.2-3.4-8 0.9-41.6 4.4-55 3.5-13.3 11.8-39.9 11.8-39.9l-29-32.1 24.8-19c0 0 5.9-11 8.3-12.4 2.5-1.4 3.7-0.2 3.7-0.2z"/>
					<path id="&lt;Path&gt;" class="s5" d="m191.3 328.8c0 0-5.1 6.1 2.2 14.4 4.5 5.1 12.2 16 18.8 27.5 4.1 7.1 7.9 10.9 10 17 0 0 0.3-7.3 0.6-18.5 0.3-10.6 0.4-21.6 0-24.4-1-5.7-26-18.8-31.6-16z"/>
					<path id="&lt;Path&gt;" class="s6" d="m210.2 347.2c0 0 2.6 1.6 3.5 1.5 0.9-0.2 3.8-2.9 3.8-2.9 0 0 7.2-0.2 8-3.3 0.7-3 1.3-6.1 2-7.7 0.7-1.6 3.8-9.3 3.8-12.5 0.1-3.1-0.1-8.6 1.3-11.6 1.3-3 3.2-32.5-25.4-31.6-28.5 0.8-19.6 30.4-19.6 30.4 0 0-2.1 0.9-0.8 4.7 1.2 3.8 1.5 4.2 2.2 6.1 0.6 1.9 0.9 3.1 2.7 4.6l0.5 3.5c0 0-1.4 5.4 2.2 10.6 3.5 5.2 15.8 8.2 15.8 8.2z"/>
					<path id="&lt;Path&gt;" class="s7" d="m247.1 338.5c0 0 3 0.5 12.9 25.3 5.5 13.9 14 28.2 15.8 38.5 1.8 10.3 0.8 21.3-1.3 22-1.9 0.8-37.4 14.1-48.5 18.2-0.6 0.3-1.2-0.1-1.3-0.8l-3.1-17.1 22-8.5c0 0 4.2-5.1 8.1-7 0 0-4.4-8.1-4.1-10.4 0.3-2.2-0.4-25.1 2.2-34.5 2.5-9.3-2.7-25.7-2.7-25.7z"/>
					<path id="&lt;Path&gt;" class="s8" d="m247.1 338.5c0 0 3 0.5 12.9 25.3 5.5 13.9 14 28.2 15.8 38.5 1.8 10.3 0.8 21.3-1.3 22-1.9 0.8-37.4 14.1-48.5 18.2-0.6 0.3-1.2-0.1-1.3-0.8l-3.1-17.1 22-8.5c0 0 4.2-5.1 8.1-7 0 0-4.4-8.1-4.1-10.4 0.3-2.2-0.4-25.1 2.2-34.5 2.5-9.3-2.7-25.7-2.7-25.7z"/>
					<path id="&lt;Path&gt;" class="s6" d="m234.2 404.1c0 0 3-2 3.8-2.3 0.7-0.3 4.8-1.7 5.5-2 0.6-0.3 3-0.1 4.2 0 0.4 0.1 0.8 0.3 1 0.7 0.9 1.7 3.5 6.8 3.2 8.7 0 0-7.3 4.6-8.1 6.7l-1.2 0.3c0 0-4.9-10.6-8.4-12.1z"/>
					<path id="&lt;Path&gt;" class="s1" d="m174.8 432.4c0.8-3.2 1.9-7.2 3.2-11.3l44.5 19c0 0-13.3 16.4-36.7 15.4-6.4-0.3-11.1-2.6-14.5-4.6 1.1-7.3 2.3-14 3.5-18.5z"/>
					<path id="&lt;Path&gt;" class="s1" d="m157.6 360.4c0 0 11.7 1.6 21.2 16.6 9.5 15.1 16.4 32.5 16.4 32.5l0.3 2c0.9 5.1 6.3 8 11.1 5.9 10-4.5 24.8-11.3 27.6-13.3 0 0 8.9 4.9 11.3 16.5 1.9 9.3 1.4 9.3 1.4 9.3 0 0-39.5 18.4-54.8 18.3-15.3-0.2-34.6-50.4-36.8-60.8-2.1-10.4-4.5-24.1 2.3-27z"/>
					<path id="&lt;Path&gt;" class="s7" d="m157.6 360.4c0 0 11.7 1.6 21.2 16.6 9.5 15.1 16.4 32.5 16.4 32.5l0.3 2c0.9 5.1 6.3 8 11.1 5.9 10-4.5 24.8-11.3 27.6-13.3 0 0 8.9 4.9 11.3 16.5 1.9 9.3 1.4 9.3 1.4 9.3 0 0-39.5 18.4-54.8 18.3-15.3-0.2-34.6-50.4-36.8-60.8-2.1-10.4-4.5-24.1 2.3-27z"/>
					<path id="&lt;Path&gt;" class="s9" d="m157.6 360.4c0 0 11.7 1.6 21.2 16.6 9.5 15.1 16.4 32.5 16.4 32.5l0.3 2c0.9 5.1 6.3 8 11.1 5.9 10-4.5 24.8-11.3 27.6-13.3 0 0 8.9 4.9 11.3 16.5 1.9 9.3 1.4 9.3 1.4 9.3 0 0-39.5 18.4-54.8 18.3-15.3-0.2-34.6-50.4-36.8-60.8-2.1-10.4-4.5-24.1 2.3-27z"/>
					<path id="&lt;Path&gt;" class="s3" d="m200.9 419.7c0 0-5 4.7-7.2 2.1-2.1-2.5-1.5-2.8-1.5-2.8 0 0-4.5 0-5-2.9-0.6-2.8-2.8-1.3-2.9-4.4-0.2-3.1 3.6-2.5 3.6-2.5z"/>
					<path id="&lt;Path&gt;" class="s6" d="m206.9 417.2c0 0-1.4-1.2-3.1-2.7-1.8-1.5-4.7-7.7-5.1-8.3-0.5-0.5-6.5-5.1-9.4-5.2-2.8-0.1-0.7 3.2 0 3.6 0.6 0.5 3.4 1.9 3.4 1.9 0 0 2.9 2.4 3.2 2.7 0.4 0.4-8-0.5-9.3 0.3-1.3 0.8-1 2.9-0.1 3.5 0.9 0.6 1.6 0.6 1.6 0.6 0 0-0.9 2.5 1.6 3.7 2.5 1.1 3.1 0.5 3.1 0.5 0 0 0.2 4.3 4.4 3.5z"/>
					<path id="&lt;Path&gt;" class="s10" d="m233.2 295.6c0 0 3.8 11.9-6 8.5-9.8-3.4-18.7-9-21.8-6.9-2.3 1.7-2.2 6.7-2 9 0 0.7-0.2 1.5-0.6 2.2l-2.9 4.2q-0.5 0.7-0.6 1.6l-0.2 2.9c0 0.8-0.6 1.4-1.4 1.4h-0.6c-0.8 0.1-1.4-0.4-1.6-1.2l-0.7-4.3c0 0-2.3-5.8-7.2-3.5 0 0-3.3-4.4-2.2-13.7 1.1-9.4 5.3-19.1 23.7-20.7 18.3-1.6 24.1 20.5 24.1 20.5z"/>
					<path id="&lt;Path&gt;" class="s11" d="m205.2 357.6l2.7-2.1c0 0 2.5 2.1 3.5 4.4 1 2.2 0 9.3 0 9.3l0.9 1.5 1-1.9 0.9-8.5c0 0-1-6.2-1.1-6.3 0-0.2-5.3 0.5-5.3 0.5 0 0-1.8 1.4-2.6 3.1z"/>
					<path id="&lt;Path&gt;" class="s11" d="m218.4 349.2c0 0 2.9 0.2 4.2 1.3 0 0-3 0.2-3.5 0.3-0.5 0-0.7-1.6-0.7-1.6z"/>
					<path id="&lt;Path&gt;" class="s1" d="m212.8 349.9l-5 4.6c0 0 4.4 2 5.6 5.9 0 0 5.3 1 5.8-1 0.5-1.9 0-6.8 0.7-9 0.6-2.1-7.1-0.5-7.1-0.5z"/>
					<path id="&lt;Path&gt;" class="s1" d="m219 359.3c0 0 1 4.1 2 5.7 1 1.7 2 3.6 2 3.6l-0.1 23.6c0 0-8.7-17.9-10.6-21.5 0 0 0.3-8.7 1.1-10.3 0.8-1.7 5.6-1.1 5.6-1.1z"/>
					<path id="&lt;Path&gt;" class="s12" d="m195.7 324.4c5.7 16.5 21.8 21.4 21.8 21.4 0 0-2.9 2.7-3.8 2.9-0.9 0.1-3.5-1.5-3.5-1.5 0 0-12.3-3-15.8-8.2-3.6-5.2-2.2-10.6-2.2-10.6l-0.5-3.5c2.6 0.9 4-0.5 4-0.5z"/>
					<path id="&lt;Path&gt;" class="s1" d="m182.6 343.7c0 0 2.3 7.8 2.5 8.1 0.3 0.2 5.7-0.4 5.7-0.4l-2.6 5c0 0 27.1 29 32.7 44.6 0 0-12.8-19.8-35.4-43.4l3.2-4.8-5.5 1z"/>
					<path id="&lt;Path&gt;" class="s1" d="m227.1 336.8l1.4 1.6-1.7 1.6 5 4.5c0 0 1.5 31.8-4.6 52.8 0 0 8.3-19.3 6.4-53.6l-5.4-3.7 1.8-1.7z"/>
					<path id="&lt;Path&gt;" class="s0" d="m210 512q0 0-0.2 0.2l7-7.5c-3.2 4.6 0.5 25.5 0.9 30.3 0.4 4.8-3.7 14.6-5.3 26.2-1.5 11.6 1.6 28.1 1.6 28.1-2-1.1-3.6-3.1-4.2-6.1-2.4-10.8-1.5-31 1.1-39.5 2.7-8.4-0.9-31.7-0.9-31.7z"/>
					<path id="&lt;Path&gt;" class="s13" d="m197.1 318.5c-0.8 0.1-1.4-0.4-1.6-1.2l-0.7-4.3c0 0-2.3-5.8-7.2-3.5 0 0-3.1-4.2-2.3-13 5.5 8.1 17.5 11.9 17.5 11.9l-2.9 4.2q-0.5 0.7-0.6 1.6l-0.2 2.9c0 0.8-0.6 1.4-1.4 1.4z"/>
				</g>
			</g>
		</g>
		<g id="&lt;Group&gt;">
			<g id="&lt;Group&gt;">
				<g id="&lt;Group&gt;">
					<path id="&lt;Path&gt;" class="s14" d="m434.1 689.9l-126.7-73.2 126.7-73.2 126.8 73.2z"/>
					<path id="&lt;Path&gt;" class="s14" d="m434.1 668.8l-126.7-73.2 126.7-73.2 126.8 73.2z"/>
					<path id="&lt;Path&gt;" class="s15" d="m434.1 652.1l-97.8-56.5 97.8-56.5 97.9 56.5z"/>
					<path id="&lt;Path&gt;" class="s16" d="m560.9 595.6v21.1l-126.8 73.2v-21.1z"/>
					<path id="&lt;Path&gt;" class="s14" d="m307.4 595.6v21.1l126.7 73.2v-21.1z"/>
					<path id="&lt;Path&gt;" class="s17" d="m307.4 595.6v21.1l126.7 73.2v-21.1z"/>
					<path id="&lt;Path&gt;" class="s14" d="m434.1 645.6l-126.7-73.2 126.7-73.2 126.8 73.2z"/>
					<path id="&lt;Path&gt;" class="s14" d="m434.1 624.6l-126.7-73.2 126.7-73.2 126.8 73.2z"/>
					<path id="&lt;Path&gt;" class="s18" d="m434.1 624.6l-126.7-73.2 126.7-73.2 126.8 73.2z"/>
					<g id="&lt;Group&gt;">
						<path id="&lt;Path&gt;" class="s19" d="m434.1 578.5l-46.9-27.1 46.9-27.1 47 27.1z"/>
						<path id="&lt;Path&gt;" class="s19" d="m434.1 542.7l31.1 17.9 15.9-9.2-47-27.1-46.9 27.1 15.9 9.2z"/>
						<path id="&lt;Path&gt;" class="s20" d="m434.1 542.7l31.1 17.9 15.9-9.2-47-27.1-46.9 27.1 15.9 9.2z"/>
					</g>
					<path id="&lt;Path&gt;" class="s21" d="m560.9 551.4v21l-126.8 73.2v-21z"/>
					<path id="&lt;Path&gt;" class="s14" d="m307.4 551.4v21l126.7 73.2v-21z"/>
					<path id="&lt;Path&gt;" class="s22" d="m307.4 551.4v21l126.7 73.2v-21z"/>
					<path id="&lt;Path&gt;" class="s19" d="m434.1 645.6v23.2l-126.7-73.2v-23.2z"/>
					<g id="&lt;Group&gt;">
						<path id="&lt;Path&gt;" class="s19" d="m336.3 589.1v6.5l97.8 56.5 97.9-56.5v-6.5l-97.9 56.5z"/>
						<path id="&lt;Path&gt;" class="s19" d="m434.1 645.6v6.5l-97.8-56.5v-6.5z"/>
					</g>
					<path id="&lt;Path&gt;" class="s23" d="m307.4 572.4v23.2l126.7 73.2 126.8-73.2v-23.2l-126.8 73.2z"/>
					<path id="&lt;Path&gt;" class="s24" d="m310.3 551.4l125.3-72.4-1.5-0.8-126.7 73.2 126.7 73.2 1.5-0.9z"/>
				</g>
				<path id="&lt;Path&gt;" class="s25" d="m307.4 572.4v23.2l1.7 1v-23.2z"/>
				<path id="&lt;Path&gt;" class="s25" d="m560.9 572.4v23.2l-1.7 1v-23.2z"/>
				<path id="&lt;Path&gt;" class="s25" d="m434.1 645.6l-2.9-1.7v23.2l2.9 1.7 3-1.7v-23.2z"/>
			</g>
			<g id="&lt;Group&gt;">
				<g id="&lt;Group&gt;">
					<path id="&lt;Path&gt;" class="s14" d="m434.1 606.5l-126.7-73.2 126.7-73.2 126.8 73.2z"/>
					<path id="&lt;Path&gt;" class="s14" d="m434.1 585.5l-126.7-73.2 126.7-73.2 126.8 73.2z"/>
					<path id="&lt;Path&gt;" class="s26" d="m434.1 568.8l-97.8-56.5 97.8-56.5 97.9 56.5z"/>
					<path id="&lt;Path&gt;" class="s27" d="m560.9 512.3v21l-126.8 73.2v-21z"/>
					<path id="&lt;Path&gt;" class="s14" d="m307.4 512.3v21l126.7 73.2v-21z"/>
					<path id="&lt;Path&gt;" class="s28" d="m307.4 512.3v21l126.7 73.2v-21z"/>
					<path id="&lt;Path&gt;" class="s14" d="m434.1 562.3l-126.7-73.2 126.7-73.2 126.8 73.2z"/>
					<path id="&lt;Path&gt;" class="s14" d="m434.1 541.3l-126.7-73.2 126.7-73.2 126.8 73.2z"/>
					<path id="&lt;Path&gt;" class="s29" d="m434.1 541.3l-126.7-73.2 126.7-73.2 126.8 73.2z"/>
					<g id="&lt;Group&gt;">
						<path id="&lt;Path&gt;" class="s19" d="m434.1 495.2l-46.9-27.1 46.9-27.1 47 27.1z"/>
						<path id="&lt;Path&gt;" class="s19" d="m434.1 459.3l31.1 18 15.9-9.2-47-27.1-46.9 27.1 15.9 9.2z"/>
						<path id="&lt;Path&gt;" class="s20" d="m434.1 459.3l31.1 18 15.9-9.2-47-27.1-46.9 27.1 15.9 9.2z"/>
					</g>
					<path id="&lt;Path&gt;" class="s30" d="m560.9 468.1v21l-126.8 73.2v-21z"/>
					<path id="&lt;Path&gt;" class="s14" d="m307.4 468.1v21l126.7 73.2v-21z"/>
					<path id="&lt;Path&gt;" class="s31" d="m307.4 468.1v21l126.7 73.2v-21z"/>
					<path id="&lt;Path&gt;" class="s19" d="m434.1 562.3v23.2l-126.7-73.2v-23.2z"/>
					<g id="&lt;Group&gt;">
						<path id="&lt;Path&gt;" class="s19" d="m336.3 505.8v6.5l97.8 56.5 97.9-56.5v-6.5l-97.9 56.5z"/>
						<path id="&lt;Path&gt;" class="s19" d="m434.1 562.3v6.5l-97.8-56.5v-6.5z"/>
					</g>
					<path id="&lt;Path&gt;" class="s23" d="m307.4 489.1v23.2l126.7 73.2 126.8-73.2v-23.2l-126.8 73.2z"/>
					<path id="&lt;Path&gt;" class="s32" d="m310.3 468.1l125.3-72.4-1.5-0.8-126.7 73.2 126.7 73.2 1.5-0.9z"/>
				</g>
				<path id="&lt;Path&gt;" class="s25" d="m307.4 489.1v23.2l1.7 1v-23.2z"/>
				<path id="&lt;Path&gt;" class="s25" d="m560.9 489.1v23.2l-1.7 1v-23.2z"/>
				<path id="&lt;Path&gt;" class="s25" d="m434.1 562.3l-2.9-1.7v23.2l2.9 1.7 3-1.7v-23.2z"/>
			</g>
			<g id="&lt;Group&gt;">
				<g id="&lt;Group&gt;">
					<path id="&lt;Path&gt;" class="s14" d="m434.1 523.2l-126.7-73.2 126.7-73.2 126.8 73.2z"/>
					<path id="&lt;Path&gt;" class="s14" d="m434.1 502.2l-126.7-73.2 126.7-73.2 126.8 73.2z"/>
					<path id="&lt;Path&gt;" class="s33" d="m434.1 485.5l-97.8-56.5 97.8-56.6 97.9 56.6z"/>
					<path id="&lt;Path&gt;" class="s34" d="m560.9 429v21l-126.8 73.2v-21z"/>
					<path id="&lt;Path&gt;" class="s14" d="m307.4 429v21l126.7 73.2v-21z"/>
					<path id="&lt;Path&gt;" class="s35" d="m307.4 429v21l126.7 73.2v-21z"/>
					<path id="&lt;Path&gt;" class="s14" d="m434.1 479l-126.7-73.2 126.7-73.2 126.8 73.2z"/>
					<path id="&lt;Path&gt;" class="s14" d="m434.1 457.9l-126.7-73.2 126.7-73.2 126.8 73.2z"/>
					<path id="&lt;Path&gt;" class="s36" d="m434.1 457.9l-126.7-73.2 126.7-73.2 126.8 73.2z"/>
					<g id="&lt;Group&gt;">
						<path id="&lt;Path&gt;" class="s19" d="m434.1 411.8l-46.9-27.1 46.9-27.1 47 27.1z"/>
						<path id="&lt;Path&gt;" class="s19" d="m434.1 376l31.1 17.9 15.9-9.2-47-27.1-46.9 27.1 15.9 9.2z"/>
						<path id="&lt;Path&gt;" class="s20" d="m434.1 376l31.1 17.9 15.9-9.2-47-27.1-46.9 27.1 15.9 9.2z"/>
					</g>
					<path id="&lt;Path&gt;" class="s37" d="m560.9 384.7v21.1l-126.8 73.2v-21.1z"/>
					<path id="&lt;Path&gt;" class="s14" d="m307.4 384.7v21.1l126.7 73.2v-21.1z"/>
					<path id="&lt;Path&gt;" class="s38" d="m307.4 384.7v21.1l126.7 73.2v-21.1z"/>
					<path id="&lt;Path&gt;" class="s19" d="m434.1 479v23.2l-126.7-73.2v-23.2z"/>
					<g id="&lt;Group&gt;">
						<path id="&lt;Path&gt;" class="s19" d="m336.3 422.5v6.5l97.8 56.5 97.9-56.5v-6.5l-97.9 56.5z"/>
						<path id="&lt;Path&gt;" class="s19" d="m434.1 479v6.5l-97.8-56.5v-6.5z"/>
					</g>
					<path id="&lt;Path&gt;" class="s23" d="m307.4 405.8v23.2l126.7 73.2 126.8-73.2v-23.2l-126.8 73.2z"/>
					<path id="&lt;Path&gt;" class="s39" d="m310.3 384.7l125.3-72.3-1.5-0.9-126.7 73.2 126.7 73.2 1.5-0.8z"/>
				</g>
				<path id="&lt;Path&gt;" class="s25" d="m307.4 405.8v23.2l1.7 1v-23.2z"/>
				<path id="&lt;Path&gt;" class="s25" d="m560.9 405.8v23.2l-1.7 1v-23.2z"/>
				<path id="&lt;Path&gt;" class="s25" d="m434.1 479l-2.9-1.7v23.2l2.9 1.7 3-1.7v-23.2z"/>
			</g>
			<g id="&lt;Group&gt;">
				<g id="&lt;Group&gt;">
					<path id="&lt;Path&gt;" class="s14" d="m434.1 439.9l-126.7-73.2 126.7-73.2 126.8 73.2z"/>
					<path id="&lt;Path&gt;" class="s14" d="m434.1 418.8l-126.7-73.2 126.7-73.2 126.8 73.2z"/>
					<path id="&lt;Path&gt;" class="s40" d="m434.1 402.1l-97.8-56.5 97.8-56.5 97.9 56.5z"/>
					<path id="&lt;Path&gt;" class="s41" d="m560.9 345.6v21.1l-126.8 73.2v-21.1z"/>
					<path id="&lt;Path&gt;" class="s14" d="m307.4 345.6v21.1l126.7 73.2v-21.1z"/>
					<path id="&lt;Path&gt;" class="s42" d="m307.4 345.6v21.1l126.7 73.2v-21.1z"/>
					<path id="&lt;Path&gt;" class="s14" d="m434.1 395.6l-126.7-73.2 126.7-73.2 126.8 73.2z"/>
					<path id="&lt;Path&gt;" class="s14" d="m434.1 374.6l-126.7-73.2 126.7-73.2 126.8 73.2z"/>
					<path id="&lt;Path&gt;" class="s43" d="m434.1 374.6l-126.7-73.2 126.7-73.2 126.8 73.2z"/>
					<g id="&lt;Group&gt;">
						<path id="&lt;Path&gt;" class="s19" d="m434.1 328.5l-46.9-27.1 46.9-27.1 47 27.1z"/>
						<path id="&lt;Path&gt;" class="s19" d="m434.1 292.7l31.1 17.9 15.9-9.2-47-27.1-46.9 27.1 15.9 9.2z"/>
						<path id="&lt;Path&gt;" class="s20" d="m434.1 292.7l31.1 17.9 15.9-9.2-47-27.1-46.9 27.1 15.9 9.2z"/>
					</g>
					<path id="&lt;Path&gt;" class="s44" d="m560.9 301.4v21l-126.8 73.2v-21z"/>
					<path id="&lt;Path&gt;" class="s14" d="m307.4 301.4v21l126.7 73.2v-21z"/>
					<path id="&lt;Path&gt;" class="s45" d="m307.4 301.4v21l126.7 73.2v-21z"/>
					<path id="&lt;Path&gt;" class="s19" d="m434.1 395.6v23.2l-126.7-73.2v-23.2z"/>
					<g id="&lt;Group&gt;">
						<path id="&lt;Path&gt;" class="s19" d="m336.3 339.1v6.5l97.8 56.5 97.9-56.5v-6.5l-97.9 56.5z"/>
						<path id="&lt;Path&gt;" class="s19" d="m434.1 395.6v6.5l-97.8-56.5v-6.5z"/>
					</g>
					<path id="&lt;Path&gt;" class="s23" d="m307.4 322.4v23.2l126.7 73.2 126.8-73.2v-23.2l-126.8 73.2z"/>
					<path id="&lt;Path&gt;" class="s46" d="m310.3 301.4l125.3-72.4-1.5-0.8-126.7 73.2 126.7 73.2 1.5-0.9z"/>
				</g>
				<path id="&lt;Path&gt;" class="s25" d="m307.4 322.4v23.2l1.7 1v-23.2z"/>
				<path id="&lt;Path&gt;" class="s25" d="m560.9 322.4v23.2l-1.7 1v-23.2z"/>
				<path id="&lt;Path&gt;" class="s25" d="m434.1 395.6l-2.9-1.7v23.2l2.9 1.7 3-1.7v-23.2z"/>
			</g>
			<path id="&lt;Path&gt;" class="s47" d="m480.8 301.5l-1.7-262.8h-92.7l1.1 262.8 46.6 27z"/>
			<g id="&lt;Group&gt;">
				<g id="&lt;Group&gt;">
					<path id="&lt;Path&gt;" class="s48" d="m444 271.8c0 2-1.7 3.6-3.6 3.6-2 0-3.6-1.6-3.6-3.6 0-1.9 1.6-3.6 3.6-3.6 1.9 0 3.6 1.7 3.6 3.6z"/>
					<path id="&lt;Path&gt;" class="s19" d="m397.2 243.3c0 1.2-1 2.2-2.3 2.2-1.2 0-2.2-1-2.2-2.2 0-1.2 1-2.2 2.2-2.2 1.3 0 2.3 1 2.3 2.2z"/>
					<path id="&lt;Path&gt;" class="s49" d="m412.7 218.1c0 1.2-1 2.3-2.2 2.3-1.3 0-2.3-1.1-2.3-2.3 0-1.3 1-2.3 2.3-2.3 1.2 0 2.2 1 2.2 2.3z"/>
					<path id="&lt;Path&gt;" class="s49" d="m478.4 209.8c0 0.8-0.6 1.5-1.4 1.5-0.8 0-1.4-0.7-1.4-1.5 0-0.8 0.6-1.4 1.4-1.4 0.8 0 1.4 0.6 1.4 1.4z"/>
					<path id="&lt;Path&gt;" class="s49" d="m474.7 202.3c0 1.7-1.3 3.1-3 3.1-1.7 0-3-1.4-3-3.1 0-1.6 1.3-3 3-3 1.7 0 3 1.4 3 3z"/>
					<path id="&lt;Path&gt;" class="s49" d="m405.7 213.6c0 0.8-0.6 1.4-1.4 1.4-0.8 0-1.5-0.6-1.5-1.4 0-0.8 0.7-1.5 1.5-1.5 0.8 0 1.4 0.7 1.4 1.5z"/>
					<path id="&lt;Path&gt;" class="s19" d="m404 283.9c0 1.3-1 2.3-2.3 2.3-1.2 0-2.2-1-2.2-2.3 0-1.2 1-2.2 2.3-2.2 1.2 0 2.2 1 2.2 2.2z"/>
					<path id="&lt;Path&gt;" class="s49" d="m419.5 258.8c0 1.2-1 2.2-2.2 2.2-1.3 0-2.3-1-2.3-2.2 0-1.3 1-2.3 2.3-2.3 1.2 0 2.2 1 2.2 2.3z"/>
					<path id="&lt;Path&gt;" class="s49" d="m412.6 254.2c0 0.8-0.7 1.5-1.5 1.5-0.8 0-1.4-0.7-1.4-1.5 0-0.8 0.6-1.4 1.4-1.4 0.8 0 1.5 0.6 1.5 1.4z"/>
				</g>
				<g id="&lt;Group&gt;">
					<path id="&lt;Path&gt;" class="s48" d="m432.1 236c0.5 1.7 2.2 2.7 3.9 2.3 1.7-0.5 2.8-2.2 2.3-3.9-0.4-1.7-2.1-2.8-3.9-2.3-1.7 0.4-2.7 2.2-2.3 3.9z"/>
					<path id="&lt;Path&gt;" class="s19" d="m466.1 201.1c0.3 1.1 1.4 1.7 2.4 1.4 1.1-0.2 1.7-1.3 1.5-2.4-0.3-1-1.4-1.7-2.4-1.4-1.1 0.3-1.7 1.3-1.5 2.4z"/>
					<path id="&lt;Path&gt;" class="s49" d="m447.2 182.9c0.3 1 1.4 1.7 2.4 1.4 1.1-0.3 1.8-1.4 1.5-2.4-0.3-1.1-1.4-1.8-2.5-1.5-1 0.3-1.7 1.4-1.4 2.5z"/>
					<path id="&lt;Path&gt;" class="s49" d="m388.9 190.2c0.1 0.7 0.8 1.1 1.5 0.9 0.7-0.2 1.1-0.9 0.9-1.5-0.1-0.7-0.8-1.1-1.5-1-0.7 0.2-1.1 0.9-0.9 1.6z"/>
					<path id="&lt;Path&gt;" class="s49" d="m390.4 182.9c0.4 1.5 1.8 2.3 3.3 2 1.4-0.4 2.2-1.9 1.9-3.3-0.4-1.4-1.8-2.3-3.3-1.9-1.4 0.3-2.3 1.8-1.9 3.2z"/>
					<path id="&lt;Path&gt;" class="s49" d="m452.2 177.4c0.2 0.7 0.9 1.1 1.6 0.9 0.7-0.1 1.1-0.8 0.9-1.5-0.2-0.7-0.9-1.1-1.6-1-0.7 0.2-1.1 0.9-0.9 1.6z"/>
					<path id="&lt;Path&gt;" class="s49" d="m467.7 285.3c-0.6 0.5-1.5 0.5-2-0.1-0.5-0.6-0.5-1.6 0.2-2.1 0.6-0.5 1.5-0.4 2 0.2 0.5 0.6 0.4 1.5-0.2 2z"/>
					<path id="&lt;Path&gt;" class="s49" d="m471 277.7c-1.2 1-3.1 0.9-4.2-0.4-1.1-1.3-0.9-3.2 0.3-4.2 1.3-1.1 3.2-0.9 4.3 0.3 1 1.3 0.9 3.2-0.4 4.3z"/>
					<path id="&lt;Path&gt;" class="s19" d="m466.4 270.3c-0.6 0.9-0.4 2.1 0.5 2.8 0.9 0.6 2.1 0.4 2.7-0.5 0.7-0.9 0.5-2.1-0.4-2.8-0.9-0.6-2.1-0.4-2.8 0.5z"/>
					<path id="&lt;Path&gt;" class="s49" d="m468.1 244.1c-0.7 0.9-0.4 2.1 0.5 2.8 0.9 0.6 2.1 0.4 2.8-0.5 0.6-0.9 0.4-2.2-0.5-2.8-0.9-0.7-2.2-0.4-2.8 0.5z"/>
					<path id="&lt;Path&gt;" class="s49" d="m475.5 244.4c-0.4 0.5-0.3 1.3 0.3 1.8 0.6 0.4 1.4 0.2 1.8-0.3 0.4-0.6 0.3-1.4-0.3-1.8-0.6-0.5-1.4-0.3-1.8 0.3z"/>
					<g id="&lt;Group&gt;" style="opacity: .9">
						<path id="&lt;Path&gt;" class="s20" d="m423.4 308.3c0.5 1.8 2.2 2.8 3.9 2.4 1.7-0.5 2.8-2.2 2.3-3.9-0.4-1.7-2.1-2.8-3.8-2.3-1.8 0.4-2.8 2.1-2.4 3.8z"/>
						<path id="&lt;Path&gt;" class="s20" d="m432.7 291.1c0.3 1.2 1.5 1.9 2.7 1.6 1.3-0.3 2-1.6 1.7-2.8-0.3-1.2-1.6-1.9-2.8-1.6-1.2 0.3-1.9 1.5-1.6 2.8z"/>
					</g>
				</g>
			</g>
			<g id="&lt;Group&gt;">
				<g id="&lt;Group&gt;">
					<path id="&lt;Path&gt;" class="s48" d="m444 230.9c0 2-1.7 3.6-3.6 3.6-2 0-3.6-1.6-3.6-3.6 0-2 1.6-3.6 3.6-3.6 1.9 0 3.6 1.6 3.6 3.6z"/>
					<path id="&lt;Path&gt;" class="s19" d="m397.2 202.3c0 1.3-1 2.3-2.3 2.3-1.2 0-2.2-1-2.2-2.3 0-1.2 1-2.2 2.2-2.2 1.3 0 2.3 1 2.3 2.2z"/>
					<path id="&lt;Path&gt;" class="s49" d="m412.7 177.2c0 1.2-1 2.2-2.2 2.2-1.3 0-2.3-1-2.3-2.2 0-1.3 1-2.3 2.3-2.3 1.2 0 2.2 1 2.2 2.3z"/>
					<path id="&lt;Path&gt;" class="s49" d="m478.4 168.9c0 0.8-0.6 1.4-1.4 1.4-0.8 0-1.4-0.6-1.4-1.4 0-0.8 0.6-1.4 1.4-1.4 0.8 0 1.4 0.6 1.4 1.4z"/>
					<path id="&lt;Path&gt;" class="s49" d="m474.7 161.4c0 1.7-1.3 3-3 3-1.7 0-3-1.3-3-3 0-1.6 1.3-3 3-3 1.7 0 3 1.4 3 3z"/>
					<path id="&lt;Path&gt;" class="s49" d="m405.7 172.6c0 0.8-0.6 1.5-1.4 1.5-0.8 0-1.5-0.7-1.5-1.5 0-0.8 0.7-1.4 1.5-1.4 0.8 0 1.4 0.6 1.4 1.4z"/>
					<path id="&lt;Path&gt;" class="s19" d="m404 243c0 1.2-1 2.2-2.3 2.2-1.2 0-2.2-1-2.2-2.2 0-1.2 1-2.2 2.3-2.2 1.2 0 2.2 1 2.2 2.2z"/>
					<path id="&lt;Path&gt;" class="s49" d="m419.5 217.8c0 1.3-1 2.3-2.2 2.3-1.3 0-2.3-1-2.3-2.3 0-1.2 1-2.2 2.3-2.2 1.2 0 2.2 1 2.2 2.2z"/>
					<path id="&lt;Path&gt;" class="s49" d="m412.6 213.3c0 0.8-0.7 1.4-1.5 1.4-0.8 0-1.4-0.6-1.4-1.4 0-0.8 0.6-1.5 1.4-1.5 0.8 0 1.5 0.7 1.5 1.5z"/>
				</g>
				<g id="&lt;Group&gt;">
					<path id="&lt;Path&gt;" class="s48" d="m432.1 195c0.5 1.7 2.2 2.8 3.9 2.3 1.7-0.4 2.8-2.1 2.3-3.9-0.4-1.7-2.1-2.7-3.9-2.3-1.7 0.5-2.7 2.2-2.3 3.9z"/>
					<path id="&lt;Path&gt;" class="s19" d="m466.1 160.2c0.3 1 1.4 1.7 2.4 1.4 1.1-0.3 1.7-1.4 1.5-2.4-0.3-1.1-1.4-1.7-2.4-1.4-1.1 0.2-1.7 1.3-1.5 2.4z"/>
					<path id="&lt;Path&gt;" class="s49" d="m447.2 141.9c0.3 1.1 1.4 1.8 2.4 1.5 1.1-0.3 1.8-1.4 1.5-2.5-0.3-1.1-1.4-1.7-2.5-1.4-1 0.2-1.7 1.3-1.4 2.4z"/>
					<path id="&lt;Path&gt;" class="s49" d="m388.9 149.3c0.1 0.6 0.8 1 1.5 0.9 0.7-0.2 1.1-0.9 0.9-1.6-0.1-0.7-0.8-1.1-1.5-0.9-0.7 0.2-1.1 0.9-0.9 1.6z"/>
					<path id="&lt;Path&gt;" class="s49" d="m390.4 142c0.4 1.4 1.8 2.3 3.3 1.9 1.4-0.3 2.2-1.8 1.9-3.2-0.4-1.5-1.8-2.3-3.3-2-1.4 0.4-2.3 1.9-1.9 3.3z"/>
					<path id="&lt;Path&gt;" class="s49" d="m452.2 136.5c0.2 0.7 0.9 1.1 1.6 0.9 0.7-0.2 1.1-0.9 0.9-1.6-0.2-0.6-0.9-1.1-1.6-0.9-0.7 0.2-1.1 0.9-0.9 1.6z"/>
					<path id="&lt;Path&gt;" class="s49" d="m467.7 244.4c-0.6 0.5-1.5 0.4-2-0.2-0.5-0.6-0.5-1.5 0.2-2 0.6-0.5 1.5-0.4 2 0.2 0.5 0.6 0.4 1.5-0.2 2z"/>
					<path id="&lt;Path&gt;" class="s49" d="m471 236.7c-1.2 1.1-3.1 0.9-4.2-0.3-1.1-1.3-0.9-3.2 0.3-4.3 1.3-1 3.2-0.9 4.3 0.4 1 1.3 0.9 3.1-0.4 4.2z"/>
					<path id="&lt;Path&gt;" class="s19" d="m466.4 229.4c-0.6 0.9-0.4 2.1 0.5 2.7 0.9 0.7 2.1 0.4 2.7-0.4 0.7-0.9 0.5-2.2-0.4-2.8-0.9-0.6-2.1-0.4-2.8 0.5z"/>
					<path id="&lt;Path&gt;" class="s49" d="m468.1 203.1c-0.7 0.9-0.4 2.2 0.5 2.8 0.9 0.7 2.1 0.5 2.8-0.4 0.6-0.9 0.4-2.2-0.5-2.8-0.9-0.7-2.2-0.5-2.8 0.4z"/>
					<path id="&lt;Path&gt;" class="s49" d="m475.5 203.4c-0.4 0.6-0.3 1.4 0.3 1.8 0.6 0.4 1.4 0.3 1.8-0.3 0.4-0.6 0.3-1.4-0.3-1.8-0.6-0.4-1.4-0.3-1.8 0.3z"/>
					<g id="&lt;Group&gt;" style="opacity: .9">
						<path id="&lt;Path&gt;" class="s20" d="m423.4 267.4c0.5 1.7 2.2 2.8 3.9 2.3 1.7-0.4 2.8-2.2 2.3-3.9-0.4-1.7-2.1-2.7-3.8-2.3-1.8 0.5-2.8 2.2-2.4 3.9z"/>
						<path id="&lt;Path&gt;" class="s20" d="m432.7 250.1c0.3 1.2 1.5 2 2.7 1.7 1.3-0.4 2-1.6 1.7-2.8-0.3-1.2-1.6-1.9-2.8-1.6-1.2 0.3-1.9 1.5-1.6 2.7z"/>
					</g>
				</g>
			</g>
		</g>
	</g>
</svg>