<svg version="1.2" xmlns="http://www.w3.org/2000/svg" viewBox="0 0 1000 1000" width="1000" height="1000">
	<title>2682153-ai</title>
	<defs>
		<linearGradient id="g1" x2="1" gradientUnits="userSpaceOnUse" gradientTransform="matrix(-5.119,559.251,-259.525,-2.375,1211.262,89.735)">
			<stop offset="0" stop-color="#1d3f8f"/>
			<stop offset=".005" stop-color="#24c7c1"/>
			<stop offset=".996" stop-color="#99faff"/>
		</linearGradient>
		<clipPath clipPathUnits="userSpaceOnUse" id="cp1">
			<path d="m643.29 709.9h-181.69c-25.36 0-45.92-20.56-45.92-45.93v-505.91c0-25.36 20.56-45.92 45.92-45.92h181.69c25.36 0 45.92 20.56 45.92 45.92v505.91c0 25.26-20.67 45.93-45.92 45.93z"/>
		</clipPath>
		<clipPath clipPathUnits="userSpaceOnUse" id="cp2">
			<path d="m487.07 293.13c-27.72 0-50.2-22.47-50.2-50.2 0-27.72 22.48-50.2 50.2-50.2 27.72 0 50.2 22.48 50.2 50.2 0 27.73-22.48 50.2-50.2 50.2z"/>
		</clipPath>
		<linearGradient id="g2" x2="1" gradientUnits="userSpaceOnUse" gradientTransform="matrix(8.54,33.598,-28.592,7.268,495.803,233.321)">
			<stop offset=".265" stop-color="#000000" stop-opacity=".91"/>
			<stop offset=".555" stop-color="#e0ac9b" stop-opacity="0"/>
		</linearGradient>
		<clipPath clipPathUnits="userSpaceOnUse" id="cp3">
			<path d="m487.07 446.35c-27.72 0-50.2-22.48-50.2-50.2 0-27.73 22.48-50.2 50.2-50.2 27.72 0 50.2 22.47 50.2 50.2 0 27.72-22.48 50.2-50.2 50.2z"/>
		</clipPath>
		<linearGradient id="g3" x2="1" gradientUnits="userSpaceOnUse" gradientTransform="matrix(8.54,33.598,-28.592,7.268,495.803,386.539)">
			<stop offset=".265" stop-color="#000000" stop-opacity=".91"/>
			<stop offset=".555" stop-color="#e0ac9b" stop-opacity="0"/>
		</linearGradient>
		<clipPath clipPathUnits="userSpaceOnUse" id="cp4">
			<path d="m487.07 599.57c-27.72 0-50.2-22.48-50.2-50.2 0-27.73 22.48-50.2 50.2-50.2 27.72 0 50.2 22.47 50.2 50.2 0 27.72-22.48 50.2-50.2 50.2z"/>
		</clipPath>
		<linearGradient id="g4" x2="1" gradientUnits="userSpaceOnUse" gradientTransform="matrix(30.604,80.883,-62.206,23.538,438.419,320.44)">
			<stop offset=".265" stop-color="#000000" stop-opacity=".91"/>
			<stop offset=".555" stop-color="#0e608f" stop-opacity="0"/>
		</linearGradient>
		<linearGradient id="g5" x2="1" gradientUnits="userSpaceOnUse" gradientTransform="matrix(36.195,95.657,-104.435,39.516,400.132,448.212)">
			<stop offset=".265" stop-color="#000000" stop-opacity=".91"/>
			<stop offset=".555" stop-color="#0e608f" stop-opacity="0"/>
		</linearGradient>
		<clipPath clipPathUnits="userSpaceOnUse" id="cp5">
			<path d="m382.48 314.51c5.2-0.79 4.15 4.64 7.86 0.92 0.85-0.86 4.75-6.72 4.88-7.92 0.6-5.84-2.11-18.22-5.52-21.58-3.21-3.15-9.68-3.59-14.14-3.04-9.1 1.13-15.87 4.65-14.83 18.89 0.6 8.1 6.44 13.01 16.74 12.45 2.07-0.11 2.73 0.12 4.8 0.07 0.28 0 0.57 0 0.8 0.16 0.22 0.16-0.37-0.12-0.59 0.05z"/>
		</clipPath>
		<linearGradient id="g6" x2="1" gradientUnits="userSpaceOnUse" gradientTransform="matrix(-4.604,60.767,-41.066,-3.111,748.435,510.631)">
			<stop offset=".265" stop-color="#000000" stop-opacity=".91"/>
			<stop offset=".555" stop-color="#e0ac9b" stop-opacity="0"/>
		</linearGradient>
		<linearGradient id="g7" x2="1" gradientUnits="userSpaceOnUse" gradientTransform="matrix(29.087,-196.334,399.008,59.113,624.083,836.412)">
			<stop offset="0" stop-color="#1d3f8f"/>
			<stop offset=".005" stop-color="#24c7c1"/>
			<stop offset=".996" stop-color="#99faff"/>
		</linearGradient>
		<linearGradient id="g8" x2="1" gradientUnits="userSpaceOnUse" gradientTransform="matrix(100.163,-197.422,269.178,136.568,634.496,820.389)">
			<stop offset="0" stop-color="#1d3f8f"/>
			<stop offset=".005" stop-color="#24c7c1"/>
			<stop offset=".996" stop-color="#99faff"/>
		</linearGradient>
		<linearGradient id="g9" x2="1" gradientUnits="userSpaceOnUse" gradientTransform="matrix(-27.909,34.974,-25.611,-20.437,798.016,616.774)">
			<stop offset=".265" stop-color="#000000" stop-opacity=".91"/>
			<stop offset=".533" stop-color="#fffefc" stop-opacity="0"/>
		</linearGradient>
		<linearGradient id="g10" x2="1" gradientUnits="userSpaceOnUse" gradientTransform="matrix(6.23,123.348,-324.387,16.383,416.235,681.342)">
			<stop offset=".265" stop-color="#000000" stop-opacity=".91"/>
			<stop offset=".555" stop-color="#e33270" stop-opacity="0"/>
		</linearGradient>
		<linearGradient id="g11" x2="1" gradientUnits="userSpaceOnUse" gradientTransform="matrix(10.378,73.441,-120.736,17.06,803.012,797.401)">
			<stop offset=".265" stop-color="#000000" stop-opacity=".91"/>
			<stop offset=".555" stop-color="#e33270" stop-opacity="0"/>
		</linearGradient>
		<linearGradient id="g12" x2="1" gradientUnits="userSpaceOnUse" gradientTransform="matrix(-10.893,73.346,-69.368,-10.302,202.954,689.606)">
			<stop offset=".265" stop-color="#000000" stop-opacity=".91"/>
			<stop offset=".555" stop-color="#e33270" stop-opacity="0"/>
		</linearGradient>
	</defs>
	<style>
		.s0 { fill: #122757 } 
		.s1 { fill: url(#g1) } 
		.s2 { fill: #fcfdff } 
		.s3 { fill: none;stroke: #1087b3;stroke-miterlimit:10;stroke-width: 4 } 
		.s4 { fill: #ffffff;stroke: #1087b3;stroke-miterlimit:10;stroke-width: 4 } 
		.s5 { fill: #ed926e } 
		.s6 { fill: #ffffff } 
		.s7 { fill: #e33270 } 
		.s8 { fill: url(#g2) } 
		.s9 { fill: url(#g3) } 
		.s10 { fill: #f2f6f9 } 
		.s11 { fill: none;stroke: #ffffff;stroke-miterlimit:10;stroke-width: 4 } 
		.s12 { fill: #ffa587 } 
		.s13 { fill: #d61e65 } 
		.s14 { fill: #2e86b8 } 
		.s15 { fill: url(#g4) } 
		.s16 { fill: url(#g5) } 
		.s17 { fill: #e0ac9b } 
		.s18 { opacity: .1;fill: #292929 } 
		.s19 { fill: #24c7c1 } 
		.s20 { fill: #e38266 } 
		.s21 { fill: #fffefc } 
		.s22 { fill: url(#g6) } 
		.s23 { fill: none;stroke: #8739c2;stroke-miterlimit:10;stroke-width: 1.5 } 
		.s24 { fill: url(#g7) } 
		.s25 { fill: #0e608f } 
		.s26 { fill: url(#g8) } 
		.s27 { fill: none;stroke: #000000;stroke-miterlimit:10;stroke-width: 2 } 
		.s28 { fill: none;stroke: #c9cdd1;stroke-miterlimit:10;stroke-width: 2 } 
		.s29 { fill: url(#g9) } 
		.s30 { fill: #1a7f8f } 
		.s31 { fill: url(#g10) } 
		.s32 { fill: #4641ab } 
		.s33 { fill: url(#g11) } 
		.s34 { fill: none;stroke: #e33270;stroke-miterlimit:10 } 
		.s35 { fill: url(#g12) } 
		.s36 { fill: none;stroke: #25333d;stroke-miterlimit:10;stroke-width: 1.5 } 
		.s37 { fill: none;stroke: #110809;stroke-miterlimit:10;stroke-width: 2 } 
		.s38 { fill: #51b7d6 } 
	</style>
	<g id="BACKGROUND">
	</g>
	<g id="OBJEKTS">
		<g id="&lt;Group&gt;">
			<g id="&lt;Group&gt;">
				<path id="&lt;Path&gt;" class="s0" d="m644 719.3h-183.1c-30 0-54.4-24.3-54.4-54.4v-506c0-30 24.4-54.4 54.4-54.4h183.1c30 0 54.4 24.4 54.4 54.4v506c0 29.9-24.5 54.4-54.4 54.4z"/>
				<path id="&lt;Path&gt;" class="s1" d="m643.3 709.9h-181.7c-25.4 0-45.9-20.6-45.9-45.9v-505.9c0-25.4 20.5-46 45.9-46h181.7c25.3 0 45.9 20.6 45.9 46v505.9c0 25.2-20.7 45.9-45.9 45.9z"/>
				<g id="&lt;Clip Group&gt;" clip-path="url(#cp1)">
					<path id="&lt;Path&gt;" class="s2" d="m709.2 160.5h-310.3v-57h310.3z"/>
					<path id="&lt;Path&gt;" class="s2" d="m770.1 732.1h-373.2v-84.5h373.2z"/>
					<path id="&lt;Path&gt;" class="s2" d="m723 484.6h-339.8v-15.7h339.8z"/>
					<path id="&lt;Path&gt;" class="s2" d="m723 329.4h-339.8v-15.7h339.8z"/>
				</g>
				<path id="&lt;Path&gt;" class="s0" d="m481.1 106.3l1.2 11.8c0.8 7.7 8.2 13.7 17.1 13.7h106.1c8.9 0 16.3-6 17.1-13.7l1.2-11.8z"/>
				<g id="&lt;Group&gt;">
					<g id="&lt;Group&gt;">
						<path id="&lt;Path&gt;" class="s3" d="m556.7 223.3h113.9"/>
						<path id="&lt;Path&gt;" class="s3" d="m556.7 237h113.9"/>
						<path id="&lt;Path&gt;" class="s3" d="m556.7 250.8h113.9"/>
					</g>
					<g id="&lt;Group&gt;">
						<path id="&lt;Path&gt;" class="s4" d="m487.1 293.1c-27.8 0-50.2-22.4-50.2-50.2 0-27.7 22.4-50.2 50.2-50.2 27.7 0 50.2 22.5 50.2 50.2 0 27.8-22.5 50.2-50.2 50.2z"/>
						<g id="&lt;Clip Group&gt;" clip-path="url(#cp2)">
							<g id="&lt;Group&gt;">
								<path id="&lt;Path&gt;" class="s0" d="m481 254.3q0.5 1.4 1.3 2.7c0.9 1.6 2.4 2.9 2.9 4.6 0.6 1.7 0.2 3.6 0 5.4-1.4 9.8 1.3 21.1 8 28.6q1 1.1 2.2 2h25.9q1.2-0.7 2.2-1.6c2.3-1.7 4.3-3.9 5.8-6.4 1.3-2.2 2.1-4.7 3.1-7 1.3-2.8 2.9-5.5 3.9-8.4 0.9-2.9 1.1-6.3-0.5-8.9-2.1-3.4-6.9-5-7.9-9-0.6-2.6 0.7-5.7-0.8-7.9-2.2-3.1-7.5-1.3-10.2-3.9-1.6-1.5-1.7-3.9-1.8-6.1-0.2-2.2-0.6-4.6-2.5-5.7-1.3-0.7-2.8-0.6-4.1-1.2-2-0.8-3.1-3-3.5-5.2-0.5-2.1-0.4-4.3-1.1-6.4-1.4-4-7-5.6-10.9-5.7-4.3-0.2-8.9 0.4-12.5 2.8-3.3 2.2-7.3 6.5-7.2 10.7 0.1 4.2 3.9 7.3 5.6 11.1 2.1 4.8 0.7 10.6 2.1 15.5z"/>
								<path id="&lt;Path&gt;" class="s5" d="m477.4 234.4q0.1-0.1 0.1-0.1c0.5-1.1 1.4-1.9 2.3-2.6 3.3-2.5 8.7-3.4 12.4-1.4 1.8 1 2.8 3 3.1 5 0.3 1.8 0.1 3.5 0 5.3-0.3 6.7 0.5 26.7 4.4 27.9 5 1.4 3.4 5.8 5 5.5-6 1.1-10.6 10.2-16.7 11-6 0.7-13.6-10.4-18.5-14 3.2-0.3 5.7-1.7 6.6-5.1 2.1-7.8 1.5-16.1 0.8-24.3-0.3-2.4-0.6-5.1 0.5-7.2z"/>
								<path id="&lt;Path&gt;" class="s6" d="m506.3 297.6q0-0.4-0.1-0.8c-0.5-4.4-0.8-8.9-1-13.3q-0.2-3.4-0.3-6.8c-0.1-1.7 0.4-5-0.5-6.3-2.9 1.9-5.4 4.9-8 7.3q-4.3 3.8-8.8 7.5c-0.4 0.3-15.9-13-17.6-14-1.7 1.2-1.9 6.6-2.3 8.6-0.6 3.3-1.3 6.6-1.3 10q0 3.9 0 7.8z"/>
								<path id="&lt;Path&gt;" class="s7" d="m538.4 297.6c-0.9-4.3-2.3-8.5-4.7-12.1-6.3-9.3-18.8-13-28.9-15.9-4.8-1.3-5 1.5-5.8 6.3-0.6 3.5-0.8 7.2-1 10.8-0.2 3.5-0.5 7.3-0.7 10.9z"/>
								<path id="&lt;Path&gt;" class="s7" d="m449.4 297.6h30.9c-0.8-2.9-1.7-5.8-2.4-8.6-1.1-4.8-3.2-9.8-4.6-14.7-0.4-1.5-0.7-3-1.1-4.5-3.3 0.2-7.3 2-10.5 2.9-5.2 1.5-11 3.5-13.4 8.3-2 4-1.1 8.7 0.1 12.9 0.3 1.3 0.7 2.5 1 3.7z"/>
								<g id="&lt;Group&gt;">
									<path id="&lt;Path&gt;" class="s5" d="m500.9 233.4c0 11.2-7 20.3-15.7 20.3-8.6 0-15.7-9.1-15.7-20.3 0-11.2 7.1-20.2 15.7-20.2 8.7 0 15.7 9 15.7 20.2z"/>
								</g>
								<path id="&lt;Path&gt;" class="s5" d="m473.3 233.2c-0.8-0.7-1.8-1.2-2.9-1.2-1.1 0-2.2 0.5-3 1.2q-0.6 0.6-0.8 1.4-0.4 0.7-0.4 1.6c0.1 1 0.4 2.2 1.2 2.9 0.8 0.7 1.8 1.2 3 1.2 1 0 2.1-0.4 2.9-1.2q0.6-0.6 0.9-1.3 0.3-0.8 0.3-1.6c0-1.1-0.4-2.2-1.2-3z"/>
								<path id="&lt;Path&gt;" class="s5" d="m503.8 233.2c-0.8-0.7-1.8-1.2-2.9-1.2-1.1 0-2.2 0.5-2.9 1.2q-0.7 0.6-0.9 1.4-0.4 0.7-0.4 1.6c0.1 1 0.4 2.2 1.3 2.9 0.8 0.7 1.8 1.2 2.9 1.2 1.1 0 2.2-0.4 2.9-1.2q0.6-0.6 0.9-1.3 0.4-0.8 0.4-1.6c-0.1-1.1-0.4-2.2-1.3-3z"/>
								<path id="&lt;Path&gt;" class="s0" d="m501.9 215.3q-0.1-0.1-0.2-0.3-0.5-0.6-1.1-1.1c-3.4-3.7-7.7-6.6-12.5-8-5.4-1.7-11.4-1.6-16.7 0.5-1.6 0.7-3.1 1.5-4.3 2.7-1.3 1.2-2.2 2.8-2.3 4.5q0 0.6 0.2 1.3c-0.9 0.7-1.7 1.6-2.2 2.7-0.5 1.3-0.4 2.3-0.1 3.5-0.7 0.9-1.3 1.9-1.3 3.1 0 1 0.7 2.1 1.6 2.5-0.3 1.7-0.1 3.4 1.3 4.6 1.9 1.6 4.8 1.7 7.1 0.8 6.4-2.3 11.8-6.7 17.7-10 1.2-0.7 2.3-1.3 3.6-1.6 1.3-0.3 2.8-0.2 3.8 0.6 3.2 2.5 1.3 7.5 3.8 10.2 0.4 0.4 0.9 0.7 1.5 0.8 0.8 0 1.6-0.5 2.1-1.2 3.3-4.7 1.3-11.5-2-15.6z"/>
								<path id="&lt;Path&gt;" class="s0" d="m501.2 297.6c2.7-1 9.6-3.5 9.6-3.5l-5.2-24.5-5.6-1.9c0 0-2.4 11.4-3.2 22.1q-0.3 3.9-0.6 7.8z"/>
								<path id="&lt;Path&gt;" class="s0" d="m480.8 297.6q-0.4-2.8-0.9-5.6c-0.3-1.4-5.3-23.7-6.3-23.5 0 0-5.6 1.1-5.6 1.1l-1.7 28z"/>
								<path id="&lt;Path&gt;" class="s6" d="m480.9 244.5c0.9 4.8 6.8 4.8 8.3 0.2"/>
								<path id="&lt;Path&gt;" class="s8" d="m495.5 248.9c-0.1 0.9-3.4 2.5-4.1 2.8-3.1 1.4-6.3 1.6-9.6 1.5 2.4 2.8 5 5.4 7.7 7.9 1.7 1.7 3.6 3.4 5.1 5.3 2.1-0.6 0.9-10.6 0.9-17.5z"/>
							</g>
						</g>
					</g>
				</g>
				<g id="&lt;Group&gt;">
					<g id="&lt;Group&gt;">
						<path id="&lt;Path&gt;" class="s4" d="m487.1 446.3c-27.8 0-50.2-22.4-50.2-50.2 0-27.7 22.4-50.2 50.2-50.2 27.7 0 50.2 22.5 50.2 50.2 0 27.8-22.5 50.2-50.2 50.2z"/>
						<g id="&lt;Clip Group&gt;" clip-path="url(#cp3)">
							<g id="&lt;Group&gt;">
								<path id="&lt;Path&gt;" class="s7" d="m481 421c7.5 0.1 14.9-0.9 22.1-2.9 6.2-1.7 12.5-4.3 16.7-9.1 2.2-2.4 3.7-6.1 2.1-8.9-1.4-2.3-4.3-3.1-6.7-4.4-4.2-2.4-6.6-6.8-8.2-11.2-1.6-4.4-1.8-10.3-4.9-13.9-2-2.4-6.3-3.1-9.1-3.2-4.3-0.2-8.9 0.5-12.5 2.8-5.2 3.4-7.6 8.9-8.8 14.8-0.7 3.1-0.7 6.3-1.5 9.3-1.6 5.6-5.7 10.2-8.5 15.3-0.6 1-1.1 2.2-0.9 3.4 0.2 0.9 0.8 1.6 1.5 2.3 4.6 4.6 11.7 5.7 18.3 5.7q0.2 0 0.4 0z"/>
								<path id="&lt;Path&gt;" class="s5" d="m477.4 387.6q0.1-0.1 0.1-0.1c0.5-1 1.4-1.9 2.3-2.6 3.3-2.4 8.7-3.4 12.4-1.4 1.8 1 2.8 3 3.1 5.1 0.3 1.7 0.1 3.5 0 5.2-0.3 6.7 0.5 26.8 4.4 27.9 5 1.4 3.4 5.8 5 5.5-6 1.1-10.6 10.2-16.7 11-6 0.7-13.6-10.4-18.5-14 3.2-0.3 5.7-1.7 6.6-5.1 2.1-7.8 1.5-16.1 0.8-24.3-0.3-2.4-0.6-5 0.5-7.2z"/>
								<path id="&lt;Path&gt;" class="s0" d="m533.7 438.7c-3.6-5.2-8.8-8.6-14.5-11-2.8-1.1-5.8-2.1-8.8-2.9q-2.2-0.6-4.4-1.2c-1.3-0.3-3-1.1-4.4-1.1 0.3 1.3-1.4 2.9-2.2 3.7-3.7 3.4-9 4.7-13.9 4-4.9-0.8-9.4-3.4-13-6.8-1.3 0.2-2.7 0.4-4.1 0.7-2.2 0.4-4.4 1.2-6.7 1.9-5.2 1.5-11 3.4-13.4 8.2-2 4-1.1 8.7 0.1 13 0.3 1.2 0.7 2.4 1 3.6h17 13.9 17 9 32.1c-0.9-4.3-2.3-8.5-4.7-12.1z"/>
								<g id="&lt;Group&gt;">
									<path id="&lt;Path&gt;" class="s5" d="m500.9 386.6c0 11.2-7 20.3-15.7 20.3-8.6 0-15.7-9.1-15.7-20.3 0-11.1 7.1-20.2 15.7-20.2 8.7 0 15.7 9.1 15.7 20.2z"/>
								</g>
								<path id="&lt;Path&gt;" class="s5" d="m473.3 386.5c-0.8-0.8-1.8-1.3-2.9-1.3-1.1 0-2.2 0.5-3 1.3q-0.6 0.5-0.8 1.3-0.4 0.7-0.4 1.6c0.1 1.1 0.4 2.2 1.2 2.9 0.8 0.8 1.8 1.2 3 1.2 1 0 2.1-0.4 2.9-1.2q0.6-0.5 0.9-1.3 0.3-0.8 0.3-1.6c0-1.1-0.4-2.2-1.2-2.9z"/>
								<path id="&lt;Path&gt;" class="s5" d="m503.8 386.5c-0.8-0.8-1.8-1.3-2.9-1.3-1.1 0-2.2 0.5-2.9 1.3q-0.7 0.5-0.9 1.3-0.4 0.7-0.4 1.6c0.1 1.1 0.4 2.2 1.3 2.9 0.8 0.8 1.8 1.2 2.9 1.2 1.1 0 2.2-0.4 2.9-1.2q0.6-0.5 0.9-1.3 0.4-0.8 0.4-1.6c-0.1-1.1-0.4-2.2-1.3-2.9z"/>
								<path id="&lt;Path&gt;" class="s7" d="m501.9 368.5q-0.1-0.1-0.2-0.3c-2.4-2.9-5.2-5-9.1-5.6-3-0.5-6.1-0.2-9.2-0.1-4.6 0.1-9.4-0.5-13.7 1-4.4 1.5-8.3 5.7-7.4 10.3 0.7 4 5 6.5 9 6.7 4.1 0.2 8-1.3 11.8-2.9 3.1-1.2 6.4-3.1 9.6-3.9 1.3-0.3 2.8-0.1 3.8 0.7 3.2 2.4 1.3 7.4 3.8 10.1 0.4 0.4 0.9 0.7 1.5 0.8 0.8 0.1 1.6-0.5 2.1-1.2 3.3-4.7 1.3-11.5-2-15.6z"/>
								<path id="&lt;Path&gt;" class="s6" d="m480.9 397.8c0.9 4.7 6.8 4.7 8.3 0.1"/>
								<path id="&lt;Path&gt;" class="s9" d="m495.5 402.1c-0.1 1-3.4 2.5-4.1 2.8-3.1 1.4-6.3 1.7-9.6 1.5 2.4 2.8 5 5.4 7.7 8 1.7 1.7 3.6 3.4 5.1 5.3 2.1-0.6 0.9-10.7 0.9-17.6z"/>
							</g>
						</g>
					</g>
					<g id="&lt;Group&gt;">
						<path id="&lt;Path&gt;" class="s3" d="m556.7 374.5h113.9"/>
						<path id="&lt;Path&gt;" class="s3" d="m556.7 388.3h113.9"/>
						<path id="&lt;Path&gt;" class="s3" d="m556.7 402h113.9"/>
					</g>
				</g>
				<g id="&lt;Group&gt;">
					<g id="&lt;Group&gt;">
						<path id="&lt;Path&gt;" class="s3" d="m556.7 523.8h113.9"/>
						<path id="&lt;Path&gt;" class="s3" d="m556.7 537.6h113.9"/>
						<path id="&lt;Path&gt;" class="s3" d="m556.7 551.3h113.9"/>
					</g>
					<g id="&lt;Group&gt;">
						<path id="&lt;Path&gt;" class="s4" d="m487.1 599.6c-27.8 0-50.2-22.5-50.2-50.2 0-27.8 22.4-50.2 50.2-50.2 27.7 0 50.2 22.4 50.2 50.2 0 27.7-22.5 50.2-50.2 50.2z"/>
						<g id="&lt;Clip Group&gt;" clip-path="url(#cp4)">
							<g id="&lt;Group&gt;">
								<path id="&lt;Path&gt;" class="s0" d="m497.8 508.1c-1.8-0.4-3.6-0.6-5.3-0.5-4.7 0.1-9.2 1.8-13.5 3.8-2.9 1.3-5.8 2.9-8.2 5.1-1.6 1.4-3 3.2-3.9 5.2-1 2.2-0.6 4.1-0.7 6.4-0.2 5.6-0.4 11.2-0.1 16.9 0.3 7.1-1 16.4 6.7 20.2 2.7 1.5 6 1.3 9.1 0.9 6-0.7 11.8-2.1 17.4-4.3 3.9-1.4 7.8-3 9.4-7.1 1.1-2.7 1.7-5.6 1.9-8.5 0.3-2.9-0.3-5.6 0.1-8.4 0.6-5.2 0.4-10.6-0.8-15.7-0.8-3.6-2.1-7.2-4.6-9.9-2-2.1-4.7-3.5-7.5-4.1z"/>
								<path id="&lt;Path&gt;" class="s6" d="m541.6 627.1c-0.3-2.4-0.9-4.7-1.5-7.2-0.5-2.4-1.4-4.7-2.5-6.9q-0.8-1.6-1.8-3.1c-0.3-0.5-0.8-1-1-1.5-0.1-0.6-0.1-1.2-0.3-1.8-0.1-0.7-0.5-1.4-0.9-2q-0.6-1-1.1-2-0.5-0.7-0.9-1.5c-2.5-3.7-6.6-5.6-10.8-6.7-4.4-1.2-9-1.4-13.5-2.3-1.3-0.2-2.6-0.4-3.9-0.5-5.5-0.3-11 0.2-16.4 0.8q-3.3 0.4-6.5 0.8-4.1 0.6-8.3 1.2c-1.2 0.1-2.5 0.2-3.7 0.4q-2 0.2-4.1 0.7c-4.9 1.2-9.8 2.4-14.2 5q-3.3 1.9-6.1 4.5c-0.7 0.7-1.8 1.3-2.6 2q-1.4 1-2.7 2.1c-3.5 3-6.7 6.2-9.5 9.9q-2.9 3.8-5.1 8.1z"/>
								<path id="&lt;Path&gt;" class="s5" d="m475.4 562c1.4-6.2 8.5-11.3 14.4-12.6 1.8-0.4 3.7-0.5 5.4 0.1 4.2 1.3 6.2 6.3 6.9 10.3 1.1 5.7 1 11.9 1.5 17.7 0.3 3.4 0.5 6.9 2 10 1.8 3.7 5 5.2 9 5.7 0 3.8-1.7 7.4-3.6 10.6-2.1 3.6-4.8 6.9-8.5 9.1-3.8 2.4-8.5 3.3-12.9 2.6-5.2-0.8-9.9-3.6-13.8-7.2-2.2-2.1-4.4-4.5-6-7.1-0.2-0.4-4.1-6-3.7-6.1q1.5-0.2 3-0.5c0.7-0.2 1.5-0.3 2.2-0.6 3.2-1.4 3.6-5.5 3.9-8.6 0.6-5.6 0.7-11.3 0.2-16.9-0.1-1.6-0.3-3.3-0.2-4.9q0-0.8 0.2-1.6z"/>
								<path id="&lt;Path&gt;" class="s5" d="m502.7 526.2c-1.3-1.2-2.8-2.2-4.3-3.1-2.8-1.8-6-3.2-9.4-3.2-6.3-0.2-14.1 1.9-16.4 8.5-0.7 2.1-0.9 4.4-1.3 6.7-0.7 5.4-2.2 10.8-2.6 16.3-0.2 4.1 0.3 8.5 2.2 12.2 2 4 5.6 6.6 9.7 8.3 9.4 3.9 22.9 2.3 26-8.8 0.8-2.7 1.6-5.4 1.6-8.3 0-2.8-1-5.6-1.6-8.4-0.9-3.8-0.9-7.5-1.1-11.4-0.2-3.1-0.4-6.4-2.8-8.8z"/>
								<path id="&lt;Path&gt;" class="s0" d="m467.4 526.8c0.4 3.1 3.4 5.7 7.9 5.7 8.7 0.1 26.1-1.1 30.9-9.8 0.9-1.7 1.1-3.8 0-5.3-0.9-1.2-2.4-1.8-3.9-2.1-7-1.8-14.3 0.3-21.5 1.6-3 0.5-6.1 0.9-8.8 2.4-3.6 2-5 4.9-4.6 7.5z"/>
								<g id="&lt;Group&gt;">
									<path id="&lt;Path&gt;" class="s10" d="m484.3 554c0.1 1.5 1 3.2 2.6 3.5 1 0.2 2.5 0.5 3.5 0.3 1.7-0.5 3-2.2 3.6-3.8z"/>
								</g>
								<path id="&lt;Path&gt;" class="s0" d="m510.5 562.1q0.1-0.2 0.1-0.3 0.4-5.7 0.3-11.5c-0.1-2.7-0.2-6.3-1.3-8.8q-0.1-0.3-0.3-0.5c-0.4-0.5-1.2-0.7-1.8-0.4-1.6 0.7-1.2 3.4-1.4 4.8-0.6 4.9 0.3 11.9-5 14.3-2.4 1.1-5.1 1.1-7.7 0.9-2.6-0.1-5.2-0.5-7.7-0.1-1.8 0.2-3.4 0.8-5.1 0.9-4.2 0.3-6.6-3-8.2-6.5-1.1-2.4-1.8-5-2.5-7.5q-1.2-4.6-2.5-9.2c-0.1-0.3-0.2-0.7-0.5-0.6-0.3 0-0.4 0.3-0.5 0.5-0.8 2.9-0.7 6.3-1 9.3-0.4 6.9 0.8 12.5 3.3 18.9 1.4 3.6 2.7 7.8 6.2 9.8 7 3.8 15.5 4.4 23.2 2.1 3.8-1.1 7.5-3 9.7-6.3 1.9-2.9 2.4-6.4 2.7-9.8z"/>
								<path id="&lt;Path&gt;" class="s5" d="m503.5 540c-1.4 2.1-1.4 5.5 0.2 7.5 3.3 4.2 8.1-0.1 7-5.1-1-4.2-4.8-5.7-7.2-2.4z"/>
								<path id="&lt;Path&gt;" class="s0" d="m503.8 554.5q-0.3 0-0.6-0.1c-0.6 0-1.3 0.1-2 0-1.5-0.4-2-2.3-2.7-3.6-2.2-3.8-7.6-4.9-11.5-3.8-2 0.5-3.9 1.8-5.1 3.5-0.4 0.6-0.7 1.1-1.1 1.6-1.2 1.2-3.1 1.1-4.7 1.5-3.3 0.9-7.8 5.2-3.5 8.1 3 2 7.3-1.1 9-3.5 1-1.3 1.8-2.8 2.6-4.3 0.8-1.5 1.1-2 2.8-2.2 2.2-0.2 4.6-0.2 6.5 1.1 1.8 1.2 2.8 4.4 3.8 6.4 0.6 1.1 1.3 2.2 2.3 2.9 2 1.4 5.4 0.1 6.3-2.1 0.7-1.9 0.2-4.8-2.1-5.5z"/>
								<path id="&lt;Path&gt;" class="s5" d="m467 540c-1.5 2.1-1.5 5.5 0.1 7.5 3.4 4.2 8.2-0.1 7-5.1-0.9-4.2-4.7-5.7-7.1-2.4z"/>
							</g>
						</g>
					</g>
				</g>
				<g id="&lt;Group&gt;">
					<path id="&lt;Path&gt;" class="s11" d="m556 568.1h86.4"/>
					<path id="&lt;Path&gt;" class="s11" d="m556 576.9h86.4"/>
					<path id="&lt;Path&gt;" class="s11" d="m556 585.8h86.4"/>
					<path id="&lt;Path&gt;" class="s11" d="m556 594.6h86.4"/>
				</g>
				<g id="&lt;Group&gt;">
					<path id="&lt;Path&gt;" class="s11" d="m556 422.7h86.4"/>
					<path id="&lt;Path&gt;" class="s11" d="m556 431.6h86.4"/>
					<path id="&lt;Path&gt;" class="s11" d="m556 440.4h86.4"/>
					<path id="&lt;Path&gt;" class="s11" d="m556 449.2h86.4"/>
				</g>
				<g id="&lt;Group&gt;">
					<path id="&lt;Path&gt;" class="s11" d="m556 269.5h86.4"/>
					<path id="&lt;Path&gt;" class="s11" d="m556 278.3h86.4"/>
					<path id="&lt;Path&gt;" class="s11" d="m556 287.2h86.4"/>
					<path id="&lt;Path&gt;" class="s11" d="m556 296h86.4"/>
				</g>
				<path id="&lt;Path&gt;" class="s3" d="m487.1 293.1c-27.8 0-50.2-22.4-50.2-50.2 0-27.7 22.4-50.2 50.2-50.2 27.7 0 50.2 22.5 50.2 50.2 0 27.8-22.5 50.2-50.2 50.2z"/>
				<path id="&lt;Path&gt;" class="s3" d="m487.1 446.3c-27.8 0-50.2-22.4-50.2-50.2 0-27.7 22.4-50.2 50.2-50.2 27.7 0 50.2 22.5 50.2 50.2 0 27.8-22.5 50.2-50.2 50.2z"/>
				<path id="&lt;Path&gt;" class="s3" d="m487.1 599.6c-27.8 0-50.2-22.5-50.2-50.2 0-27.8 22.4-50.2 50.2-50.2 27.7 0 50.2 22.4 50.2 50.2 0 27.7-22.5 50.2-50.2 50.2z"/>
			</g>
			<g id="&lt;Group&gt;">
				<g id="&lt;Group&gt;">
					<g id="&lt;Group&gt;">
						<g id="&lt;Group&gt;">
							<g id="&lt;Group&gt;">
								<path id="&lt;Path&gt;" class="s12" d="m396.4 324.8c-2.8-6.8-3.1-13.6-3.5-20.6-2.8-0.9-7.5 0.5-11.2 1.1-2.1 0.4-9.2 0.6-9.8 2.9-0.7 2.7 2.9 7.2 4 9.5 2.3 4.5 3.6 10.2 3 15.2-0.4 3.1-1.5 6-1.7 9.1-0.1 1.8 0.2 3.7 0.8 5.4 3.5 9.9 10.6-0.1 16.2-1.2 4.5-0.9 11.9-1.9 9.9-8.4-2.9-4.1-5.8-8.3-7.7-13z"/>
							</g>
						</g>
					</g>
				</g>
				<g id="&lt;Group&gt;">
					<g id="&lt;Group&gt;">
						<g id="&lt;Group&gt;">
							<g id="&lt;Group&gt;">
								<path id="&lt;Path&gt;" class="s12" d="m382.5 314.5c5.2-0.8 4.1 4.6 7.8 0.9 0.9-0.8 4.9-7.9 4.7-9.1-1.5-7.4-1.9-17-5.3-20.4-4-3.9-11.5-4.5-16.7-5-3.7-0.3-7.8 0.4-10 3.3-1.8 2.3-1.9 5.5-2 8.4-0.1 6-1.2 12.6 2.9 17.5 3.3 3.9 8.6 5.2 13.6 4.9 2-0.1 2.7-0.6 4.8-0.7 0.2 0 0.5 0 0.8 0.2 0.2 0.1-0.4-0.2-0.6 0z"/>
							</g>
						</g>
					</g>
				</g>
				<g id="&lt;Group&gt;">
					<g id="&lt;Group&gt;">
						<path id="&lt;Path&gt;" class="s12" d="m344 656.6c1 8.7 2 17.3 2.3 26 0.3 7.2-3.1 17.9 2.2 23.5 5.5 5.8 12.9 4.1 17.5-1.9 7.2-9.5 4.1-25.1 6.1-36.3 2.9-16.6 4.9-33.4 5.8-50.3 0.4-7.4 0.5-15.5-3.7-21.7-6.9-10.2-22.5-7.8-28.8 1.8-4.5 6.9-5 15.6-4.8 23.9 0.3 11.7 1.9 23.4 3.4 35z"/>
					</g>
				</g>
				<g id="&lt;Group&gt;">
					<g id="&lt;Group&gt;">
						<path id="&lt;Path&gt;" class="s0" d="m366.5 695.1c-3.2 1.6-6.4 3.1-10 1.9-3.4-1.1-6.6-3.4-8.9-6.2-0.5-0.5-0.9-1-1.4-1.4-2.1-1.3-4.8 0.3-6.2 2.3-1.4 1.9-2.2 4.4-4.2 5.8-0.8 0.7-1.9 1-2.9 1.4-4 1.5-7.9 3-12 4.4-3.3 1.1-8.5 4-12 4-1.5 0.5-3.2 1.3-3.9 2.9-0.6 1.4 0 3.2 1 4.3 2.5 2.9 6 3.6 9.6 3.8 5.4 0.2 11.1 0.5 16.4 0.6 4.3 0 8.2-1.9 12.2-2.9 4.5-1.1 7.1 0.3 11.3 1.9 18 6.6 20.1-12.9 15.6-25.2-1.5 0.8-3 1.7-4.6 2.4z"/>
					</g>
				</g>
				<g id="&lt;Group&gt;">
					<path id="&lt;Path&gt;" class="s13" d="m363.8 458.9c8.6-9.1 23.2-7.5 35.1-4 16.2 4.8 11.9 24 6.4 35.7-3.7 8.1-6.2 12.7-7.5 21.9-1.5 10.7-4.5 21.3-9 31.1-1.9 4.3-4.1 8.6-4.3 13.2-0.2 6.9 4.1 13.4 3.5 20.3-0.5 5.2-3.7 9.8-4.4 14.9-0.5 4.3 0.8 8.6 1.7 12.9 1.8 8.5 2.2 17.3 1 26-1.4 11-3.9 8-13.7 8.3-4.4 0.1-51.9-2.5-51.8-2.9q4.4-24.1 8.9-48.2c0.5-3.2 1.1-6.4 1.3-9.6 0.2-3.8-0.2-7.7-0.5-11.5-2.4-36.2 9-78.7 32.3-107q0.5-0.6 1-1.1z"/>
				</g>
				<g id="&lt;Group&gt;">
					<path id="&lt;Path&gt;" class="s14" d="m411.1 437q0-0.8-0.1-1.7c-0.9-14.1-0.9-28.4 0.1-42.6 0.5-6.6 1.8-13.4 1.5-20-0.3-6.6-1.1-13.1-2.1-19.7-1-6.3-3.4-19.8-11.3-20.6-5.9-0.6-16.3-0.7-21.2 3.4-2.6 2.2-4 6.9-6.1 9.6-2.6 3.5-5.8 6.5-8.8 9.8-6 6.6-11.5 15.3-9 23.8 1.7 5.5 6.4 10 6.8 15.7 0.2 3-0.9 6.1-0.2 9 0.6 2.7 2.6 4.8 4 7.2 3.5 6.1 2.7 13.2 1.1 19.8-1.1 4.6-5.7 10.6-3.3 15.4 1.7 3.5 7.3 3.2 10.6 3.6q7.9 0.8 15.9 1.3c2.9 0.2 6.1 0.8 8.9 1.6 2.8 0.8 6.1 3 9 1.2 0.7-0.5 1.3-1.2 1.8-1.9 2.9-4.3 2.8-9.7 2.4-14.9z"/>
				</g>
				<path id="&lt;Path&gt;" class="s15" d="m403.4 361c1.1 15.1-3 30-7.1 44.6-0.6 2.2-1.2 4.4-2.5 6.3-1.3 1.9-3.5 3.3-5.8 3.1-9.5-0.7-14.2-25.2-12.1-32.6 2.8-10 18-21.2 26-26.6 1.1 1.6 1.4 3.2 1.5 5.2z"/>
				<path id="&lt;Path&gt;" class="s16" d="m403.8 482.1c-3.7-4.5-10.5 2.2-14.1 4.4-9.1 5.5-18.3 11.1-28.7 13.3-3.5 0.7-7.2 1-10.4 2.5 11.4 13.4 22.9 26.7 34.9 39.6 4.3-3.8 6.2-12.8 7.3-17.7 2.2-9.1 5-18.1 7.9-27 1.2-3.9 6.4-11.2 3.1-15.1z"/>
				<g id="&lt;Group&gt;">
					<path id="&lt;Path&gt;" class="s12" d="m327 328.5q0.7-5 1.9-9.8c0.5-2 3.5-1.1 3 0.9q-0.2 0.7-0.3 1.5c0.9 0 1.8 0.8 1.5 1.9q-0.1 0.5-0.2 0.9c0.6 0 1.2 0.2 1.6 0.7-0.4 1.7-1.2 3.2-0.7 5 0.4 1.7 3.2 3.4 3 4.3 0 0 0.1 0 0.1 0q0.1 0.1 0.2 0.2c0.1 0.1 0.3 0 0.3-0.1q0.2-0.1 0.3-0.1c2.1 2.6 5.3 3.6 4.9 11.5 0 2 0.2 15.6-0.6 15.5-2.6-0.1-7.4-1.2-10-1.5-0.5-0.1-4.4 3.2-4.7 0-0.1-2.1 5.2-16.3 5.1-17.3q0-0.5-0.1-0.9c-0.5-0.7-0.4-1.3-0.9-2q-0.3-0.3-0.6-0.6 0 0 0 0-0.2-0.3-0.4-0.6c-1.1-1.5-2.4-3.5-3.1-5.3-0.4-1.1-0.3-1.8 0-2.9-0.3-0.4-0.4-0.8-0.3-1.3z"/>
				</g>
				<path id="&lt;Path&gt;" class="s14" d="m403.3 348.9q-0.3-0.9-0.6-1.8c-0.6-1.6-1.3-3.2-2.5-4.3-1.5-1.5-3.4-2.2-5.3-2.7-7.7-1.9-16.2 0.5-21.8 6-2.3 2.2-4 4.8-5.6 7.5q-3 5.3-5.2 10.9c-0.7 1.7-1.3 3.5-2.5 4.8-1.4 1.5-3.3 2.4-5.1 3.3-6.2 3.4-10.7 8.3-14.8 14-0.9-4.5 0.6-9.2 1.6-13.7 1.4-6.1 2-12.4 1.7-18.6-0.1-0.4-0.1-0.8-0.4-1-0.2-0.2-0.6-0.2-0.9-0.3q-6.3-0.1-12.6-0.3c-0.5 0-1.1 0-1.6 0.3-0.4 0.4-0.5 1-0.6 1.5-1.9 11.6-9.2 22-9.5 33.7-0.2 5.4 1.1 10.6 2.4 15.8 1.1 4.6 7.1 17.4 13.5 15.4 10.5-3.1 21-7.6 28.9-15.4 1.7-1.7 3.3-3.4 5.2-4.7 4-2.6 9.2-2.9 12.9-5.9 3.7-3.1 4.9-8 7.6-11.9 3-4.1 7.6-6.9 10.7-10.9 4.8-6 6.4-14.3 4.5-21.7z"/>
				<path id="&lt;Path&gt;" class="s0" d="m340.5 335.8c-2.7-10.9-6.9-21.5-10.7-32-0.7-1.9-3.8-1.1-3.1 0.8q0.2 0.7 0.5 1.4-0.1 0.3-0.1 0.5l2.1 5.9c1.8 5.8 3.6 11.6 6 17.1l1.1 3.2q0.5 2 1 3.9c0.5 2.1 3.7 1.2 3.2-0.8z"/>
				<g id="&lt;Group&gt;">
					<path id="&lt;Path&gt;" class="s12" d="m335.4 333.3c0.4-0.9 0.8-0.5 1.2 0 0 0.3 0.1 0.6 0.4 0.7 0.3 0.1 0.6 0 0.8-0.2 0.7-0.4 1.2-1.5 1.2-2.2q0-0.1 0-0.1-0.1-0.3-0.1-0.6-0.1-0.1-0.3-0.2c-0.8-0.5-1.3-1-1.7-1.8l-0.7-1.9c-0.3-1.3 1.5-2 2.5-0.3 0.6 1.2 2 1.3 2.6 1.8 0.7 0.6 1.2 1.4 1.3 2.3q0 0 0 0.1c0.3 0.9 0.3 2.5 0.3 4.2q0 0.2 0 0.4c1 2.9 0.5 5.9-1.5 8.2-0.3 0.4-0.8-0.1-0.5-0.4q0.1-0.2 0.2-0.3-0.1-0.1-0.1-0.2c-1.2-0.2-3.1-1.8-4.5-4.8-0.4-0.8-0.9-1.4-1-2-0.7-0.5-0.5-1.9-0.1-2.7z"/>
				</g>
				<g id="&lt;Clip Group&gt;">
					<g id="&lt;Group&gt;">
						<path id="&lt;Path&gt;" class="s0" d="m359.9 305.1c2 1.3 4.4 1 6.1-0.5 0.6-0.5 1.3 0.4 0.7 0.9-2.1 1.9-5.1 2.1-7.5 0.6-0.7-0.4 0.1-1.4 0.7-1z"/>
					</g>
					<g id="&lt;Group&gt;">
						<g id="&lt;Group&gt;">
							<g id="&lt;Group&gt;">
								<g id="&lt;Group&gt;" clip-path="url(#cp5)">
								</g>
							</g>
						</g>
					</g>
				</g>
				<g id="&lt;Group&gt;">
					<path id="&lt;Path&gt;" class="s17" d="m378 295.3q0.2-0.7 0.7-1.1c1.4 0.1 2.6 0.8 3.2 2.2 0.5 1.5 0 3.8-1.9 4-0.8 0.1-1.8-0.2-2.5-0.7q0-0.6 0-1.4 0.1-1.5 0.5-3z"/>
				</g>
				<g id="&lt;Group&gt;">
					<g id="&lt;Group&gt;">
						<path id="&lt;Path&gt;" class="s12" d="m350.6 565.1q0 0.3 0 0.7c0.2 3.9 3.4 7 6.9 8.7 5.7 2.8 12.3 3.5 18.1 6.1 1.4 0.6 2.7 1.5 4 2.3 0.7 0.6 1.5 1.1 2.1 1.8 0.7 0.9 1.1 2.1 1.5 3.1 1 2.5 3.4 8.1 6.2 8.8 3.1 0.8 6.2-3.2 7.2-5.6 1.3-3.1 3.1-6.2 3.9-9.5 1-3.3 0.8-7.1-1.1-9.9-3.1-4.4-9-5.1-14-7-4.8-1.8-9.2-4.5-13.8-6.8-3.8-1.9-9.2-5.1-13.6-4.8-3.6 0.2-5.4 4.3-6.5 7.7-0.4 1.5-0.8 2.9-0.9 4.4z"/>
					</g>
				</g>
				<g id="&lt;Group&gt;">
					<g id="&lt;Group&gt;">
						<path id="&lt;Path&gt;" class="s0" d="m391.9 566.8c1 4.1 3.4 9.7 1.6 13.5-1.2 2.7-3 4.5-6 5.4-1.2 0.3-2.5 0.4-3.7 0.8-1.2 0.4-2.4 1.1-2.9 2.3-0.6 1.3-0.3 2.9 0.6 4.1 1.5 2.2 4.2 3 6 5 1.3 1.4 1.8 3.1 2.6 4.8 2.7 5.7 4 11.2 5.5 17.3 0.7 2.7 1.9 5.6 4.4 6.9 1.9 0.9 4.1 0.6 5.9-0.3 9.9-5 5.1-23.1 2.5-31.1-1-3.2-2.3-6.5-1.4-9.7 0.7-2.3 2.5-4.2 3.4-6.4 1.6-3.8 0.5-10.4-3.6-12.7-1.3-0.7-15.3-1.4-14.9 0.1z"/>
					</g>
				</g>
				<g id="&lt;Group&gt;">
					<path id="&lt;Path&gt;" class="s12" d="m291.7 548.1c0.8-7 6.5-17.6 12.1-22 9.2-7.1 25.3 3 33.4 7.7 15 8.8 29.3 19.1 44.1 28.3 1.1 0.8 2.3 1.5 3.2 2.6 3.3 4 0.5 10.5-4.1 12.8-4.6 2.4-10.1 1.7-15.2 0.9-17.9-3-34.6-8.3-51.7-13.8-6.2-2-18.2-4.1-21.2-10.6-0.8-1.9-0.9-3.9-0.6-5.9z"/>
				</g>
				<path id="&lt;Path&gt;" class="s0" d="m373.6 267.3c-0.7 1-1.4 2-2 3-3.1 4.9-2.1 9.9 0.7 14.6 0.9 1.6 2.1 3.1 2.8 4.8 1.3 3.5 0 7.4 0.8 11 0.7 3.4 3.1 6 5.4 8.5 4.3 4.8 7.8 7.7 14.2 6.2 4.3-1 11.6-3.6 14.9-6.8 4.5-4.4 3.7-13.2 3.4-18.9q-1.2-24.8-0.4-49.6c0.3-8.1 1.4-16.2 1.3-24.3 0-6.2 0.6-13.7-1.6-19.6-1.7-4.4-5.5-8.3-10.2-8.7-3.9-0.2-7.5 2-10.3 4.7-8.6 8.2-11.4 21.9-6.7 32.8 1.1 2.5 2.5 5.5 1.1 7.9-0.7 1-1.8 1.7-2.8 2.4-4.3 2.9-8.1 7.3-8.3 12.5-0.2 4.2 2 8.3 1.3 12.4-0.4 2.7-2 4.9-3.6 7.1z"/>
				<path id="&lt;Path&gt;" class="s7" d="m411.2 442.6h-50.2c-0.4 3-1 6-1.7 8.9-1 4.4-4.8 6.1-8.7 7.8-16.9 7.4-35.2 11.7-51.7 19.9-16.5 8.3-31.9 21.7-36 39.7-1.9 8.6-2.9 18.8 2.2 26.3 6.2 9.1 16.3 12.4 24.6 19 3.5 2.8 6.4 6.6 10.7 8 3.7 1.2 7.8 0.3 11.2 2 4.6 2.3 6.9 8.5 11.9 9.1q4.8-20.2 9.5-40.4c1-4.3 5.4-10.9 2.3-13.8-1.7-1.5-21.6-6.6-22.9-5.9 8.1-4.6 18.1-3 27.4-2.8 13.8 0.3 27.5-3.1 39.6-9.5 5.8-3.1 10.7-7.3 16.2-10.7 6-3.8 11.5-8.6 14.3-15.4 3-7.6 2.8-16 2.4-24q-0.4-9.1-1.1-18.2z"/>
				<path id="&lt;Path&gt;" class="s0" d="m357 289.5q-0.4-0.2-0.7-0.5c-1.2-1.3-1.8-3-2.2-4.6-0.8-2.7-1.3-5.5-0.7-8.1 0.6-2.7 2.7-5.2 5.4-5.5 0.9-0.1 1.8 0.1 2.7-0.1 1.8-0.3 3.1-1.9 4-3.5 0.8-1.6 1.4-3.3 2.4-4.8 1.2-1.9 3.1-3.2 5-4.4 3-1.9 6.6-3.6 10-2.6 3.7 1.2 5.7 5.2 6.1 9 0.3 3.7-0.6 7.5-0.7 11.3-0.1 2.3 0 4.5-0.4 6.7-1.3 7.1-8.6 6.9-14.4 7.6-4.2 0.6-12.5 2.5-16.5-0.5z"/>
			</g>
			<g id="&lt;Group&gt;">
				<path id="&lt;Path&gt;" class="s18" d="m817.3 812.6h-273.1c-6.5 0-11.8-5.2-11.8-11.7 0-6.6 5.3-11.8 11.8-11.8h273.1c6.5 0 11.8 5.2 11.8 11.8 0 6.5-5.3 11.7-11.8 11.7z"/>
				<path id="&lt;Path&gt;" class="s18" d="m497.1 830.3h-60.9c-4.4 0-7.9-3.5-7.9-7.8 0-4.4 3.5-7.9 7.9-7.9h60.9c4.3 0 7.8 3.5 7.8 7.9 0 4.3-3.5 7.8-7.8 7.8z"/>
				<g id="&lt;Group&gt;">
					<path id="&lt;Path&gt;" class="s19" d="m590 803.7h230.3c12.6-4.7 24.5-11.1 34.4-20.1 26.5-24.2 26.7-60.9 11.9-91.1-9.4-19-14-40.2-13.4-61.4 0.3-10.3 1.9-20.7 0.6-30.9-2.8-21.7-18.5-40.5-38.2-50.1-19.6-9.6-42.6-10.8-64.1-6.6-34.8 6.7-62.7 28.5-66 65.3-1.9 21 2.1 42.3 0.3 63.4-1.6 17.8-8.9 36.7-23 46.7q-3.9 2.8-8.5 4.5c-9.9 3.8-21.1 3.4-31 7.2-6.8 2.6-12.7 7.1-18.4 11.7-4.5 3.6-9.2 7.6-11.4 12.9-2.8 6.6-5.1 15.6-7.2 22.6-2.2 7.3-1.6 15.4 1.7 22.3q0.9 1.9 2 3.6z"/>
					<path id="&lt;Path&gt;" class="s7" d="m717.9 670.5c-6.5-6.4-13.6-12.2-19.7-18.9-9.4-10.1-17-23.2-15.5-36.9 0.5-4.8 2.1-9.8 0.8-14.4-1.1-3.6-3.8-6.4-5.7-9.6-4.8-7.9-5.2-18-1.9-26.6 3.4-8.6 10.2-15.6 18.2-20.1 3.7-2.1 7.8-3.8 10.6-7 9.2-10.3 1.7-27.2 9.3-38.5 7.2-10.6 27.3-0.2 35 4.8 3.9 2.5 7.1 5.3 8.9 7.9 4.5 6.4 6.6 14.2 7.8 21.9 0.8 4.8 1.4 10.1 4.9 13.5 3.3 3.3 8.2 3.9 12.6 5.4 7.2 2.3 13.4 7.3 17.4 13.7 2.9 4.6 4.7 10.1 8.9 13.6 3.7 3.1 8.6 4.1 13 6.1 25.9 11.4 25.5 46.8 21.5 70.2-2.9 16.7-8.4 34.1-21.6 44.8-6.2 5-14.7 8.5-22.7 9.5-8.9 1.2-15.7-7.5-24-10.8-2.4-0.9-5-1.7-7.7-1.9-2.2-0.1-4.5 0.2-6.7-0.1-7.7-0.9-15-3.9-22-6.9-2-0.9-4.1-1.8-5.9-3.1-2.3-1.8-4.1-4.2-5.9-6.5-3-3.6-6.2-6.9-9.6-10.1z"/>
					<path id="&lt;Path&gt;" class="s20" d="m696.2 605.5c-8.2 23.9-30.2 42.4-55.1 46.4 3.1 5.3 4.4 10.1 6 16 17.1 0.2 35-4.5 47.2-16.6 12.2-12 17-32.2 8.4-46.9-1.1-1.8-5.9-0.9-6.5 1.1z"/>
					<g id="&lt;Group&gt;">
						<path id="&lt;Path&gt;" class="s21" d="m686.9 595.6c2.9-7.8 8.1-15.4 11.8-22.5q3.2-6.2 6.4-12.4c1.4-2.8 3.1-8.7 6.3-9.9 2.5-0.9 5.6 1.3 7.9 2.1 3.5 1.3 7 2.2 10.5 3.5 6.9 2.4 13.7 5.6 18.7 11 5.2 5.7 8.8 13.2 8.2 21.1-0.3 4.5-2.3 8.7-3.3 13.1-1.3 5.1-1.2 10.4-1.1 15.6 0.4 16.2 1.7 32.4 3.7 48.4 0.4 2.8 0.8 5.8-0.3 8.4-2.8 6.6-20.2 4.9-26.4 5.5-9.9 0.8-21.3 3.2-30.6-1.3-1.2-10.2-1.8-20.5-1.8-30.8 0.1-8.6 2.4-17.3-3-24.6-4.7-6.4-10.3-12.2-8.8-20.7 0.4-2.2 1-4.4 1.8-6.5z"/>
					</g>
					<path id="&lt;Path&gt;" class="s12" d="m708.6 547.6c0.1-2.7 0.3-5.4 0-8.1-0.2-2.1-1.8-3-3.4-4.4-3.3-2.7-5.5-6.5-6.9-10.6-3.3-9.8-3.8-21.8 5.4-28.7 5.2-3.9 12.8-4.6 18.3-1 7.7 5 8.8 15.7 9.1 25q0.3 10.7 0.6 21.5c0.2 7.7 0.9 17.5-7.2 21.5-2.8 1.4-6.1 1.8-9.1 1-1.8-0.5-3.5-1.4-4.7-2.8-3.1-3.5-2.3-9.2-2.1-13.4z"/>
					<path id="&lt;Path&gt;" class="s22" d="m711.1 538.4c0.7 1.1 1.6 2.2 2.2 3.4 0.8 1.9 1.4 3.8 2.2 5.6 1.5 3.3 3.6 6.3 6.1 8.8 1.2 1.2 2.5 2.2 4.1 2.6 1.6 0.4 3.4 0 4.4-1.3 0.5-0.8 0.7-1.8 0.8-2.8 1.2-8.9 1.8-18.1 0.1-26.9-4.5 6-12.5 10.7-19.9 10.6z"/>
					<g id="&lt;Group&gt;">
						<path id="&lt;Path&gt;" class="s23" d=""/>
					</g>
					<path id="&lt;Path&gt;" class="s24" d="m531.8 801.5q1.4 1.2 2.8 2.2h244.8c10.9-5.1 20.9-12 28.3-21.3 9.5-12 14.1-28.6 9.1-43.1-2.7-7.6-7.7-14.2-13.3-19.9-15-15.4-35-25.7-56.2-29.3l11.9 1.4c-28.1-7.5-57.7-5.4-86.7-3.3q-39.9 2.9-79.8 5.9c-17.5 1.2-35.2 1.7-47.6 15-13.2 14.2-21.9 32.6-24.5 51.7-2 14.6 0.2 31 11.2 40.7z"/>
					<path id="&lt;Path&gt;" class="s12" d="m515.7 791.2q5.6-5.9 11.3-11.7c4.1-4.2 8.2-8.5 11.5-13.4 2.7-4.1 4.9-8.7 6.3-13.5 1.2-4.3 1.7-9.1-0.4-13-2.4-4.4-7.9-6.5-12.8-6-5 0.5-9.5 3.2-13.3 6.4-8.6 7.3-14.2 17.3-19.4 27.2-5.5 10.3-11.2 19.8-18.5 29-2.3 3-4.8 7-3 10.4 1.4 2.7 4.8 3.5 7.8 3.8 6.2 0.6 12.2-0.5 16.7-5.1q6.9-7.1 13.8-14.1z"/>
					<path id="&lt;Path&gt;" class="s0" d="m483.5 794.8c-0.8-0.4-1.7-0.6-2.6-0.4-2.6 0.7-4.4 4-6.9 5.3-3.7 1.7-7.7 2.9-11.6 3.8-2.4 0.6-4.7 1-7.1 1.4q-5.5 0.9-11 1.8c-2.5 0.5-5 0.9-7.3 2-6.4 3.2-5.5 10.7 0.6 13.5 4.4 2 10.3 2 15.1 1.3 12.2-1.9 24.5 1.3 36.7 0 9.2-1 11.8-7.9 14.3-15.9 0.3-1.2 0.8-2.4 1.1-3.6-2.9-1.2-6.8-0.7-10-1.9-3-1.1-5.7-2.7-8.1-4.8-1-0.9-2-1.9-3.2-2.5z"/>
					<path id="&lt;Path&gt;" class="s25" d="m757.9 676.3c-1.2-4.8-2.9-9.7-6.5-12.8-3.5-3.2-9.4-3.6-12.4 0.2-1 1.2-1.6 2.9-2.6 4.1-3.1 3.8-10.8 1.3-14.7 1.2-6.2-0.2-12.4 0.2-18.6 0.6-15.1 1-30.2 2.3-45.2 3.6q-21.1 1.9-42.2 3.7c-7.1 0.6-14.3 1.6-21.5 2-6.2 0.3-11.3-1.1-17.4 1.7-5.1 2.4-9.5 6.2-13.7 9.9-6.5 5.5-13 10.9-19.3 16.5-3.7 3.2-7.3 6.4-10.7 9.7-9.8 9.4-18.8 19.5-27.8 29.6q-11.4 12.8-22.7 25.6c14.4 11.2 27.5 23.9 40.3 36.9 2.3-2.1 4.5-4.6 6.1-6q5-4.5 9.7-9.3c1.6-1.6 3.3-3.3 3.9-5.5 0.5-1.7 0.4-3.6 0.7-5.3 1.3-5.8 7.5-8.7 11.9-12.5 6.5-5.4 7.4-13.1 11.5-20 3.7-6.1 11.2-8.8 16.2-13.8 4.7-4.8 7-11.3 11-16.7 3.2-4.4 11.3-10.4 16.8-6.4 4.3 3.2 3.7 10.6 9 13.2 3.6 1.8 7.9 1.7 11.8 2.4 13.3 2.3 26.8 3.7 40.2 5q11.4 1.1 22.9 2.2c12.7 1.3 25.7 2.5 38.1-1.2 9.7-2.9 19.2-9.5 24.1-19.3 1.2-2.3 2-4.8 2.6-7.4 2.4-10.3 0.8-22.3-1.5-31.9z"/>
					<path id="&lt;Path&gt;" class="s12" d="m769.8 586c14.9 8.3 17.2 26.7 17.7 43 0.3 8.3-0.2 16.9-3.4 24.7-8.4 20.8-33.9 26-53.9 25.3-25.8-0.9-51.5-6.2-75.2-15.6-0.2-4.9 0.4-8.2 1.5-13 15.1 4.1 30.9 6.2 46.6 6.3 11.5 0 23-1 33.7-4.7 6.8-2.4 13.6-6.3 16.6-12.4 5.4-11-3.6-22.7-4.9-33.6-0.4-3.8-0.9-7.8 0.5-11.4 0.6-1.6 1.5-3 2.4-4.4 1.4-2.1 2.8-4.2 4.9-5.5 3.2-1.8 7.2-1.6 10.5-0.1q1.6 0.6 3 1.4z"/>
					<path id="&lt;Path&gt;" class="s0" d="m576.6 677.1h105.3c0.7 0 1.4-0.2 2-0.5 2.9-1.7 1.5-5.4-2-5.4h-105.3c-0.8 0-1.5 0.2-2.1 0.5-2.9 1.7-1.4 5.4 2.1 5.4z"/>
					<path id="&lt;Path&gt;" class="s0" d="m575.9 677.4h99.8c1.3 0 2-1.4 1.3-2.4l-34.1-50c-0.2-0.4-0.7-0.7-1.2-0.7h-99.9c-1.2 0-1.9 1.4-1.3 2.4l34.1 50c0.3 0.4 0.8 0.7 1.3 0.7z"/>
					<path id="&lt;Path&gt;" class="s7" d="m709.4 503.5c2.9-0.6 5.6-1 8.9 0.2 3.2 1.2 6.1 3.4 8.1 6.2 2.4 3.4 2.7 6.4 3 10.5q1.3 14.2 2.6 28.4c0.1 1.5 0.3 3.1 1.1 4.4 1 1.8 3 2.8 4.9 3.4 3.5 1.2 7.4 1.3 10.5-0.6 3.2-1.8 5-5.4 5.6-9 0.6-3.5 0.2-7.2-0.2-10.8-1-8.1-0.3-17.9-4.4-25.2-2.8-5.5-7-10.3-11.1-15-3.9-4.5-8-9-13.3-11.6-3-1.4-6.2-2.2-9.5-2.9-6.3-1.2-13.1-1.8-18.9 1.1-5.6 2.8-12 14.7-5 19.4 1 0.7 2.2 1 3.3 1.3 2.9 0.8 5.8 1.7 8.8 1.3 2.1-0.3 3.9-0.7 5.6-1.1z"/>
					<path id="&lt;Path&gt;" class="s12" d="m724.3 515.9c1.6-2.8 5.1-4.5 8.1-2.7 3.2 1.9 2.6 6.5 0 8.7-2.4 2.1-6.7 1.7-7.8-1.7-0.2-0.7-0.2-1.3-0.1-1.9-0.5-0.6-0.7-1.5-0.2-2.4z"/>
					<path id="&lt;Path&gt;" class="s26" d="m656.8 768.6q-7.8 0.3-15.6 1c-8.6 0.7-17.7 1.4-25.5-2.4-2.8-1.3-5.3-3.1-7.6-5-46.1-39.4 73.1-58.8 96.1-54.3 9.1 1.8 17.7 5.2 26.7 7.4 9 2.3 18.7 3.1 27.3-0.2 5.6-2.2 10.4-6.1 16.1-8.3 11.2-4.3 28.4-0.8 32.6 11.4 5.1 14.6-2.4 27.8-16.2 33.7-9 4-18.9 4.3-28 8-9.8 3.9-20.9 4.4-31.5 5.4-24.8 2.6-49.6 2.1-74.4 3.3z"/>
					<g id="&lt;Group&gt;">
						<path id="&lt;Path&gt;" class="s21" d="m753.5 616.6c-2.6 0.6-5.1 1.4-7.5 2.5q-3.1-5.2-6.3-10.3c-3.9-6.3-7.3-13-10.8-19.5-2.6-4.7-2.6-10-1.4-15.1 0.8-3.3 0.6-6.2 1-9.4 0.7-4.7 2.4-9.3 3-14.1 0.1-0.9 23 7.3 25.6 9.4 14.7 11.9 25.4 28.6 30.3 46.9-5.3 0.5-10 3.1-14.9 4.9-6.1 2.2-12.7 3-19 4.7z"/>
					</g>
					<path id="&lt;Path&gt;" class="s27" d="m711.2 527.3c-2 1.9-5.4 1.9-7.3 0"/>
					<path id="&lt;Path&gt;" class="s28" d="m608.9 645.3c-2.5-1.6-5.8-0.8-7.4 1.7-1.6 2.6-0.8 5.9 1.7 7.5"/>
					<path id="&lt;Path&gt;" class="s12" d="m646.3 756.5c-2.7-7.6-4.3-15.7-6.7-23.5-1.1-3.5-2.3-7-4.4-10-2.1-3.1-5.2-5.5-8.8-6.2-6.2-1.2-12.4 3.2-15.3 8.8-7.3 14.7-1 30.9 8.5 42.6 3.3 4 6.8 7.8 10.2 11.7 3.4 3.9 5.8 9.1 9.2 12.8 5.3 5.7 14.6 1.9 18.9-3.2 5.2-6.1-1.5-14.5-5-19.7-2.9-4.1-4.9-8.6-6.6-13.3z"/>
					<path id="&lt;Path&gt;" class="s0" d="m655.4 777.1c-0.4 0.4-0.9 0.9-1.6 1.6-3.2 2.9-6.4 5.9-10.7 6.8-2.1 0.5-4.2 0-6.3 0.5-2.1 0.4-4.1 2.2-3.6 4.2 0.7 2.6 2.4 4 2.8 6.7 0.4 3.4 0.2 6.8-0.2 10.2-0.9 7-3.1 13.8-5.6 20.4-1.4 3.7-4.1 9.3-1.3 13 2.2 2.7 6.5 2.4 9.6 1 4.8-2.2 8.3-6.3 11-10.7 2.7-4.4 4.6-9.3 7-13.9 2.2-4.2 4.8-8.3 7.7-12.1 1.3-1.8 2.8-3.6 3.7-5.6 1.9-4.4 0.8-9.5-2.3-13.1-2.1-2.4-4.8-7.6-7.6-9.1-1.3-0.6-1.9-0.5-2.6 0.1z"/>
					<path id="&lt;Path&gt;" class="s14" d="m584.2 725c0.9 2.2 1.3 4.5 2 6.7 1.2 4 3.4 7.6 5.4 11.2q7.7 13.1 15.4 26.2l7.8 13.1c0.3 0.6 0.9 1.8 1.6 3.3 13.9-8.2 27.5-16.8 40.8-26-3-4.9-6.4-9.7-7.1-15.3-0.4-2.9 0-5.8-0.3-8.6-0.9-6.9-5.8-12.5-9.9-18.1-7.4-10-12.6-21.4-18.9-32.2q-1.1-1.9-2.3-3.8c-4.3-7-9.4-13.8-15.7-19.2-3.2-2.8-6.6-4.8-10.2-6.9-3-1.7-5.2-4.2-8.5-5.6-14.1-5.8-25.3 5.7-25.7 20-0.3 10.2 4.2 19.8 9.3 28.7q5.2 9.1 11.2 17.8c1.9 2.7 3.9 5.5 5.1 8.7z"/>
					<g id="&lt;Group&gt;">
						<path id="&lt;Path&gt;" class="s29" d="m739.7 599c0.8 11.8-0.4 23.8-3.7 35.2 0.6-2.2 6.6-5.9 8.3-7.6 2-2 6.7-5.5 7-8.4 0.2-2.6-3.2-6.8-4.6-9q-3.2-5.3-7-10.2z"/>
					</g>
				</g>
			</g>
			<g id="&lt;Group&gt;">
				<path id="&lt;Path&gt;" class="s3" d="m326 292.6l-22-13.5h-106.9c-10.9 0-19.8-8.9-19.8-19.9v-17.3c0-11 8.9-19.9 19.8-19.9h109.1c10.9 0 19.8 8.9 19.8 19.9z"/>
				<g id="&lt;Group&gt;">
					<path id="&lt;Path&gt;" class="s7" d="m268.4 250.6c0 2.3 1.8 4.2 4.1 4.2 2.3 0 4.2-1.9 4.2-4.2 0-2.4-1.9-4.2-4.2-4.2-2.3 0-4.1 1.8-4.1 4.2z"/>
					<path id="&lt;Path&gt;" class="s7" d="m243.3 250.6c0 2.3 1.9 4.2 4.2 4.2 2.3 0 4.2-1.9 4.2-4.2 0-2.4-1.9-4.2-4.2-4.2-2.3 0-4.2 1.8-4.2 4.2z"/>
					<path id="&lt;Path&gt;" class="s7" d="m218.3 250.6c0 2.3 1.8 4.2 4.1 4.2 2.3 0 4.2-1.9 4.2-4.2 0-2.4-1.9-4.2-4.2-4.2-2.3 0-4.1 1.8-4.1 4.2z"/>
				</g>
			</g>
			<g id="&lt;Group&gt;">
				<path id="&lt;Path&gt;" class="s18" d="m431 787.1h-32.9c-4 0-7.2-3.2-7.2-7.2 0-3.9 3.2-7.2 7.2-7.2h32.9c4 0 7.2 3.3 7.2 7.2 0 4-3.2 7.2-7.2 7.2z"/>
				<path id="&lt;Path&gt;" class="s19" d="m408.2 710.6c-1.8-7-4.2-14.3-2.2-21.3 1.3-4.6 4.5-8.5 5.7-13.2 2.1-7.5-1-15.7 0.4-23.4 1.3-7.3 6.5-13.3 9.2-20.2 3.7-9.1 3.1-19.4 6.2-28.7 1-3 2.5-6 5.2-7.7 2.7-1.7 6.7-1.5 8.5 1.1 1 1.5 1.1 3.4 1 5.2-0.8 19.4-16.5 36.7-13.6 55.9 0.8 5.4 3.1 10.9 1.8 16.2-1.4 5.3-6.1 9.1-8.3 14.1-2.5 5.4-1.8 11.7-1 17.6 0.8 5.9 1.6 12.1-0.5 17.7-1.1 2.9-10.1 12.9-13.3 7.7-0.4-0.6 2.4-7.9 2.5-9.3 0.2-3.9-0.6-7.9-1.6-11.7z"/>
				<g id="&lt;Group&gt;">
					<path id="&lt;Path&gt;" class="s30" d="m401.1 719q0-0.2-0.1-0.4c-0.2-4.6-3.4-8.5-6.9-11.6-5.7-5-11.2-18.2-12.2-25.8-0.7-5.3 0.2-10.6-0.2-15.9-0.6-8.1-4.2-15.7-6.7-23.5-2.2-7.2-3.4-14.8-3.6-22.3-0.1-3 0.3-6.5 2.9-8 2.1-1.3 4.9-0.5 6.7 1.1 1.8 1.7 2.8 4 3.5 6.4 3.5 11.7 2.2 24.6 7.2 35.7 2.3 5.1 5.9 9.7 6.9 15.1 1.2 6-0.9 12.2 0.6 18.1 2.5 9.8 12.1 15.4 12.9 26 0 1.2 0 2.4 0.4 3.6 0.5 1.8 1.8 3.2 2.8 4.7 2.6 4 6.8 12.8 2.5 16.3-7.8 6.4-17-7.1-17.1-13.8-0.1-1.9 0.4-3.8 0.4-5.7z"/>
					<path id="&lt;Path&gt;" class="s30" d="m425.5 705.6c0.8-2.6 1.6-5.3 3.2-7.6 3-4.1 8.4-6.5 10-11.4 0.6-2 0.5-4.1 0.7-6.2 0.5-3.8 2.4-7.4 5.5-9.5 3-2.2 7.4-2.6 10.6-0.6 4.2 2.5 5.4 7.9 6.2 12.7 2.5 14.9 3.7 31.1-3.5 44.4-0.4 0.6-0.8 1.2-1.3 1.6-1.7 1-3.8-0.7-4.8-2.5-4.4-8.4 1.2-19.6-3.3-28-0.3-0.7-0.8-1.4-1.6-1.4-0.6-0.1-1.1 0.3-1.5 0.8-2.2 2.5-2.5 6.3-4.7 8.9-2 2.2-5.3 3.1-7.4 5.3-1.7 1.8-2.4 4.4-3.1 6.9-1.1 4.4-2.4 22.1-9 14.4-5.7-6.7 2-20.8 4-27.8z"/>
					<path id="&lt;Path&gt;" class="s7" d="m415.2 784.1h-0.9c-12.7 0-23.4-9.5-25-22.1l-4-32.7h58.4l-3.4 32.3c-1.4 12.8-12.2 22.5-25.1 22.5z"/>
					<path id="&lt;Path&gt;" class="s31" d="m413 745.3q14.8-4.1 29.5-8.6 0.2 0 0.4-0.1l0.8-7.3h-58.4l2.7 22c8.3-2 16.8-3.8 25-6z"/>
					<path id="&lt;Path&gt;" class="s7" d="m441.2 732.8h-52.8c-3.2 0-6-2.2-6.8-5.3-1.1-4.5 2.3-8.7 6.8-8.7h52.8c4.4 0 7.7 3.8 6.9 8.1-0.5 3.4-3.4 5.9-6.9 5.9z"/>
				</g>
			</g>
			<path id="&lt;Path&gt;" class="s21" d="m730.5 651.8q0 0.2 0 0.4"/>
			<path id="&lt;Path&gt;" class="s32" d=""/>
			<g id="&lt;Group&gt;">
				<path id="&lt;Path&gt;" class="s18" d="m821.1 875.5h-49.8c-4.4 0-8-3.6-8-8v-1.6c0-4.4 3.6-8 8-8h49.8c4.5 0 8 3.6 8 8v1.6c0 4.4-3.5 8-8 8z"/>
				<g id="&lt;Group&gt;">
					<g id="&lt;Group&gt;">
						<path id="&lt;Path&gt;" class="s7" d="m760.4 796.7l69.1 1.4-6.2 49.6c-3.9 12.5-15.3 21.1-28.4 21.3-14.7 0.2-27.3-10.2-30-24.6z"/>
						<path id="&lt;Path&gt;" class="s0" d="m813.8 681.4q-0.1-0.2-0.1-0.3c-0.5-7.4 4.7-14.6 3.2-21.9-0.1-0.8-0.4-1.6-1.1-2-1.2-0.7-2.5 0.4-3.4 1.4-5.1 6.4-4.6 14.9-3.6 22.5 1 8.3-3 14.9-4.3 23-1 5.6 0.1 10.7-1.1 16.1-1.3 6.4-2.1 12.2-0.1 18.7 0.9 2.7 2.2 5.4 1.9 8.3-0.3 3.4-2.8 6.3-4.1 9.5-3.6 8.6 1.3 19.4-3.6 27.3-0.5 0.8-1.2 1.6-2.2 1.6-1.2-0.1-1.8-1.3-2.2-2.4-5.5-15.1-11-32.1-8.8-48.3 0.5-3.5 1.4-7 1.6-10.6 0.3-3.3-0.1-6.6-0.4-9.8q-1.2-11.6-2.5-23.2c-0.1-1.4-0.3-2.9-1.1-4-0.8-1.2-2.5-1.9-3.7-1.1-0.8 0.6-1.1 1.7-1.3 2.7-1.4 7.8 1.6 15.8 0.9 23.7-0.4 4.5-1.9 8.7-2.8 13.1-1.8 9.6 1.2 22.2 3 31.8 1.3 6.8 1.9 13.8 2.9 20.7 0.5 3.7 2.1 7.3 2.5 10.9 0.3 2.8-2 12.1-4.8 5.5-1.1-2.6-1.6-5.6-1.4-8.5 0.1-1.5 0.4-3.1 0.3-4.6-0.2-1.5-1-3.1-2.4-3.7-1.5-0.6-3.3 0-4.7-0.7-1.6-0.8-2-2.9-2.2-4.7-0.7-5.5-1.3-11.2 0.6-16.3 0.6-1.7 1.4-3.2 1.7-4.9 0.8-4.2-2.6-6-3.3-9.6-0.7-3.4 1.9-6.3 2.3-9.5 0.3-2.4-1.1-5-3.4-6-0.6-0.3-1.4-0.5-1.8-1.1-0.7-0.8-0.4-2-0.1-3q0.9-2.9 2.2-5.8c2.4-5.3-4.3-9.8-8.3-5.5-1.8 1.9-1.8 4.8-1.7 7.4 0.7 15.7 1.4 31.6 4.5 47 2.2 10.6 5.6 21.1 10.7 30.6 2.4 4.5 5.9 8.5 8 13 3.1 6.4 5.1 15.5 14.6 13.6 5.3-1.1 9.3-5.3 12.7-9.5 5-6.3 9.6-14.8 6.2-22-1-2-2.5-3.7-3.2-5.8-0.6-1.7-0.5-3.6-0.5-5.4 0.3-6.3 1-12.7 2.4-18.9 1.5-7.2 4.6-15.6 2.4-23-1.8-6.2-3.9-11.1-2.3-18 1.7-7.1 7.1-13.2 6.9-20.4-0.1-6.3-4.5-11.7-5-17.9z"/>
						<g id="&lt;Group&gt;">
							<path id="&lt;Path&gt;" class="s30" d="m772.6 779.8c1.8 5.8 2.7 11.9 2.6 17.9 0 4.4-0.5 8.8-0.1 13.1h50.6c1.7-5 2.4-10.3 1.8-15.1-0.8-5.7-2.7-12.4 1.2-16.6 1.3-1.4 3.1-2.3 4.3-3.8 3-3.7 1.2-9.1-0.9-13.3-3.7-7.4-5.7-14.7-0.6-21.8 4-5.4 10.7-9.3 12.1-16.3 1.9-9.4-7.7-19.6-2.9-27.9 1.3-2.4 3.5-4 5.2-6.1 3-3.8 3.8-9.2 2.1-13.7-1-2.9-3.8-6.8-6.9-7.7-4.5-1.4-4.5 0.7-6 5-2.7 7.9-3.9 16.3-3.4 24.7 0.7 12.5-4.2 26.5-6.2 38.9-1.1 6.7-2.4 13.4-3.8 20.1-0.8 4.2-1.4 8.5-2.6 12.5-0.7 2-3.7 6-3.6 7.9-1.3-16.3 6.9-31.7 9-47.8 0.1-1.4 0.3-3-0.4-4.2-0.6-1-1.5-1.7-2.2-2.6-3.3-4.6 1.1-15.2 1.7-20.5 1.2-9.3 1.6-18.6 2.3-27.9 0.8-11.2 2.4-22 1.1-33.4-0.1-0.4-0.1-0.9-0.5-1.2-0.4-0.4-1.3-0.2-1.7 0.3-0.4 0.5-0.6 1.1-0.7 1.8-2.6 16.4-3.3 33.2-5.9 49.7-2.8 18-4.8 36-6.8 54.1-2 17.4-6.2 34.7-8.3 52.2-0.5 3.9-1.8 8.7-5.6 9.1-3.4 0.5-6-3.2-6.4-6.6-1.1-9.1 6.7-16.6 10.1-25.1 2.5-6.2 2.6-13.2 1.2-19.8-1.3-6.7-3.9-14.3 0.1-19.8 1.6-2.3 4.2-3.8 5.5-6.2 0.9-1.8 1.1-4 1.2-6 0.2-6.5 0-12.9-0.6-19.3-0.6-5.6-2.7-11.6-2.2-17.2 0.9-10.9 3.9-21.6 3.3-32.7-0.5-9.6-8.1 5.3-8.3 9.2-0.3 5.1 0.6 10.2-0.1 15.2-0.8 5.7-3.6 11.2-2.7 16.9 0.1 0.8 0.3 1.5 0 2.2-0.2 0.7-1 1.3-1.7 0.9-0.3-0.1-0.5-0.5-0.6-0.9-3.8-9.6 5.2-26.7-2.8-34.6-6.3 7.8-4.8 25.7-4.4 35.2 1.1 24.4 5.3 49.2 0.6 73.5-0.3 1.8-0.8 3.6-2.1 4.8-2.2 1.9-5.9 0.8-7.8-1.4-1.9-2.3-2.5-5.3-3.3-8.2-0.8-2.8-1.8-5.8-4.2-7.5-2.5 2.6-3.1 6.4-2.6 9.9 0.5 3.5 1.8 6.8 2.9 10.1z"/>
						</g>
					</g>
					<path id="&lt;Path&gt;" class="s33" d="m826.7 824.5l-57 22.8-8-37.2z"/>
					<path id="&lt;Path&gt;" class="s7" d="m828 824.5h-66.5c-4.3 0-7.8-3.5-7.8-7.8v-18.7c0-4.3 3.5-7.7 7.8-7.7h66.5c4.3 0 7.8 3.4 7.8 7.7v18.7c0 4.3-3.5 7.8-7.8 7.8z"/>
				</g>
			</g>
			<g id="&lt;Group&gt;">
				<g id="&lt;Group&gt;">
					<path id="&lt;Path&gt;" class="s18" d="m416.5 865.7h-302.5c-6.5 0-11.7-5.3-11.7-11.8 0-6.5 5.2-11.8 11.7-11.8h302.5c6.6 0 11.8 5.3 11.8 11.8 0 6.5-5.2 11.8-11.8 11.8z"/>
					<g id="&lt;Group&gt;">
						<g id="&lt;Group&gt;">
							<path id="&lt;Compound Path&gt;" class="s20" d="m214.8 654.3c0.2-4.7-5.1-8.7-9.6-6.1-1.8 1.1-3 2.9-4.2 4.6-5.3 7.9-10.5 15.7-14.9 24.1-3.7 7.1-6.8 14.5-11.2 21.2-4.3 6.6-10.9 11-14.5 18.2-2.8 5.6-3.6 12.9 0.2 18.8 3.5 5.6 10.6 8.6 16.7 8.1 6.2-0.4 11.4-3.9 15.1-8.3 8.1-9.6 9-21.9 11.3-33.7q3.9-19.7 9.5-39c0.5-1.8 1.5-5 1.6-7.9z"/>
							<g id="&lt;Group&gt;">
								<g id="&lt;Group&gt;">
									<path id="&lt;Path&gt;" class="s20" d="m249.5 753.9c-1.6-11.8-1.2-23.9 1.5-34.8 1.5-6.1 4.4-12.7 10.2-14.8 10.8-3.8 18.5 7.1 21 15.7 1.8 6.3 4.2 12.8 5.7 19.1 2 8 2.9 16.3 4.1 24.5 2.4 16.7 4.2 33.4 5.8 50.2 0.3 2.9 0.5 5.9-0.3 8.7-1.2 4.3-5 7.6-9.4 8.6-4.4 0.9-9.2-0.5-12.5-3.4-1.7-1.6-3.1-3.5-4-5.6-1-2.3-1.4-4.9-2-7.4-1.1-5.3-2.7-10.6-4.9-15.6-2.1-4.9-5.8-9.4-7.6-14.4-3.5-9.7-6.3-20.5-7.6-30.8z"/>
								</g>
							</g>
							<path id="&lt;Path&gt;" class="s25" d="m299.5 795.9c-1.6-9.5-4.8-18.8-6.7-28.3-2.1-10-3.8-20-5.6-29.9-4.6-25-13.5-48.2-26.8-69.8-0.9-1.5-1.8-3-3.1-4.2-2.8-2.6-6.7-3.6-10.5-4-4.7-0.6-9.6-0.3-14 1.5-1.7 0.8-3.2 1.8-4.5 3-3.4 1.9-6.5 4.3-9.4 6.8-27.5 23.1-45.7 54.9-68.2 82.7-6.4 7.9-12.9 15.9-15.9 25.8-3.1 10.2-9 18.7-10 29.8q0 0.7-0.1 1.5c-0.4 7.6 1.2 15.3 5 21.9 4.9 8.3 11.9 11 21.3 12.2 8 1 16.2 0.6 24.1-1.3 6.2-1.5 15.1-3.4 20.1-7.5 2-1.6 3.7-3.8 5.3-5.8 9.8-12.7 18.6-25.3 25-40 5.2-12.2 8.7-25.1 13-37.5q0.6 1.6 1.1 3.2c3.2 8.4 6 18.2 10.8 25.9 2.4 3.7 4.1 7.4 5.9 11.5 1 2.3 3.6 11.8 5.7 12.9q11.6-0.7 23.1-1.9 4.4-1.2 8.9-2.2c2.1-0.9 4.2-1.9 6.3-2.9-0.3-1.1-0.6-2.2-0.8-3.4z"/>
							<path id="&lt;Path&gt;" class="s12" d="m270.6 645.5q0-0.2-0.1-0.3-0.3-2.5-1.2-4.9-1-3-2.6-5.7-1.1-1.9-2.2-3.8c-2.1-3.6-3.9-7.1-4.9-11.1-1-3.7-1.4-7.4-2.7-10.9-0.6-1.5-2.9-1.4-2.9 0.3 0.1 4.3 0.6 8.6 1.5 12.8q0 0.2 0 0.5 0 0 0 0.1-0.2 1.9-0.2 3.8c-0.7 0.4-1.2 1.2-1.4 2.6q-0.1 0-0.1 0c-1.9-1.1-3.8 1.8-1.9 2.8q0.1 0.1 0.1 0.1c-1.3 0.2-2.3 1.7-1.1 2.7 5.3 4.6 8.6 8.8 11.4 15.1 0.5 1.1 1.3 2.1 2.4 2.5 1.2 1 2.8 1.3 4.3 0.4 0.7 0 1.2-0.4 1.5-0.9 0.3-0.3 0.5-0.8 0.6-1.3q0.4-0.6 0.3-1.6c-0.1-1.1-0.4-2.2-0.8-3.2z"/>
							<g id="&lt;Group&gt;">
								<g id="&lt;Group&gt;">
									<path id="&lt;Path&gt;" class="s12" d="m270.6 644.7c-0.4-1.5-0.8-3-1.5-4.3-3.5-6.9-18.3-8.6-19.7 0.9q0 0.1-0.1 0.2c0.4 1.5 1.3 2.9 2.7 4.1 0.9 0.8 2.1 0.6 3 1.3 0.7 0.5 1.1 1.3 1.3 2.1 2.1 4 1.6 9.1 0.1 13.7 0.7 0.1 1.7-0.3 2.3-0.4 2-0.5 4.5-0.9 6.5-0.2 1.7 0.6 2.8 3.1 5 2.7 1-0.2 1.4-1.5 1.5-2.5 0.5-5.9 0.2-11.8-1.1-17.6z"/>
								</g>
							</g>
							<g id="&lt;Group&gt;">
								<g id="&lt;Group&gt;">
									<path id="&lt;Path&gt;" class="s0" d="m341 838.6c-0.4-1.1-1-2.1-1.8-2.6-1.3-1-3.1-1.3-4.7-1.7-10-2.3-19.2-7.3-26.6-14.3-2.5-2.3-5.8-8.7-9.5-8.7-3.4 0.1-5.8 4.4-8.5 6-6 3.5-14.2 4.7-20.9 2.6-1.2 5.9-0.6 12.6-0.1 18.2 0.1 0.9 0.2 1.8 0.7 2.6 0.9 1.1 2.4 1.4 3.8 1.7 14.9 2.5 29.8 3.3 44.8 4.8 5.4 0.5 11 1.6 16.4 0.8 2.3-0.4 5.1-1.1 6.3-3.3 0.9-1.5 0.9-4.1 0.1-6.1z"/>
								</g>
							</g>
							<g id="&lt;Group&gt;">
								<g id="&lt;Group&gt;">
									<g id="&lt;Group&gt;">
										<g id="&lt;Group&gt;">
											<path id="&lt;Path&gt;" class="s12" d="m138.5 639.2c2.1-2.9 4.2-5.8 6.1-8.7 4.9-7.7 8.3-16.2 11-24.9 0.9-2.9 2.4-7.1 6-6.9 3 0.2 6.2 2.8 9 3.9 6 2.5 12 4.8 17.9 7.8q0.2 0.1 0.4 0.3c-4.4 15.8-12.7 31.8-18.3 47.3-4.7 13.3-8.9 26.8-12.6 40.5q-0.2 0-0.3-0.1c-5.1-0.6-13.1-1.3-17.3-4.4-3.4-2.4-6.5-6.8-8.5-10.4-4.7-8.5-6-19-2.8-28.2 2.1-6 5.7-11.1 9.4-16.2z"/>
										</g>
									</g>
								</g>
							</g>
							<g id="&lt;Group&gt;">
								<g id="&lt;Group&gt;">
									<g id="&lt;Group&gt;">
										<g id="&lt;Group&gt;">
											<path id="&lt;Path&gt;" class="s12" d="m182.2 633.4c-3.4 0.1-6.9-0.3-10.1-0.5-1.4-0.1-3.1-0.4-4.8-0.5-1.5 0-3 0-4.2 0.4-4.1 1.4-4.6 5.5-8.8 1.2-2.4-2.4-6.2-6-6-9.6 0.2-1.8 1-3.6 1.7-5.3 2.6-6.1 4.7-12.3 6.3-18.6q1.5-6 2.4-12.2c0.5-3.1-0.3-4.9 2.2-6.5 2.2-1.3 6.6-1.3 9-1.3 4.1 0 7.6-2.2 11.4-3.1 4.7-1.1 8.9-3.4 13.7-4.1 2.5-0.4 5.2-0.4 7.4 0.9 1.6 1 2.7 2.8 3.4 4.6 1.6 3.9 1.7 8.3 1.6 12.6-0.5 11.8-1.2 26.1-9.5 35.4-1.5 1.6-3.2 3.1-5.1 4.2-3.3 1.7-6.9 2.3-10.6 2.4z"/>
										</g>
									</g>
								</g>
							</g>
							<g id="&lt;Group&gt;">
								<path id="&lt;Path&gt;" class="s7" d="m184.9 653.6c-3.4-3.3-7.2-6.1-11-8.9-15.8-11.4-33.3-12-46.7 2.8-20.2 22.2-27.4 53.6-26.9 83.7 0.3 18 3.2 35.9 6.7 53.6 1.8 8.8 3.8 17.7 5.6 26.5 1.4 7.4 0.7 13.9 6.5 19.5 1.5 1.6 4 2.8 5.9 1.5 0.6-0.4 1-1 1.4-1.7 4.1-6.9 6.3-14.8 9.2-22.4 3.4-8.8 7.4-16.6 16.5-19.6 10.7-3.5 21.4-11.3 31-17.2 2.7-1.7 3.9-1.4 3.3-4-4.4-19.1-3.3-37.9 1.1-57 1.8-7.9 3-17.2 6.1-24.8 3.6-8.8 3.2-16.3-2.4-24.6-1.8-2.7-4-5.2-6.3-7.4z"/>
							</g>
							<g id="&lt;Group&gt;">
								<g id="&lt;Group&gt;">
									<path id="&lt;Path&gt;" class="s12" d="m378.8 837.3c1.3-4.5-2.8-9.7-5.3-12.8-5.6-7.3-10.6-15-15.7-22.6-5.2-7.7-9-15.8-18.8-17.6-7.5-1.3-17.4 3.3-15.9 12.1 0.7 4.5 3.7 8.2 6.6 11.7q4 4.9 8 9.8 5.6 6.9 11.3 13.7c1.8 2.2 3.6 4.4 5.9 6.2 4.5 3.3 21.7 7.3 23.9-0.5z"/>
								</g>
							</g>
							<g id="&lt;Group&gt;">
								<g id="&lt;Group&gt;">
									<path id="&lt;Path&gt;" class="s14" d="m345.1 825.4q8.1-4.6 16.1-9.5c1.8-1.1 3.7-2.3 4.8-4.1 0-0.1-5.6-8.9-6.2-9.7q-5.5-7.6-11.4-15c-7.6-9.6-15.5-18.9-23.7-28.1-8.8-9.9-17.8-19.5-27-29.1-8.2-8.6-15.4-18.2-26.7-22.6q-0.1 0-0.2 0c-4.8-0.9-9.7-1.1-14.6-0.8-19.1 1.1-30.3 11.7-44.4 23.3q-15.4 12.7-30.7 25.4c-19.7 16.2-39.4 32.4-57.5 50.4q-1.2 1.2-2.4 2.5c-1.7 1.7-3.1 3.5-4.3 5.6-4.2 7.5-1.2 15.3 2.4 22.3 6.4 13 20.2 19.5 34.4 21.3 16.9 2.1 33.7-2.7 47.8-11.8 7.2-4.6 12-9.7 17.2-16.2 5.7-7.1 12.1-12.9 16-21.3 2-4.3 3.4-8.9 5.8-13 3.3-5.4 8.5-9.7 10.9-15.6 1.4-3.7 1.8-7.9 4.1-11.1 5.6-7.8 9.5 0 12.9 3.9 3.4 3.9 6.5 5.8 10.9 8.1 5.3 2.9 9.8 7.8 14.9 11.2 4.4 2.9 9 5.4 13 8.9 2.8 2.4 5.3 5.2 7.8 7.9 3.7 3.8 7.6 7.3 11.6 10.7q2.9 2.4 5.9 4.7c1.5 1.3 3.4 4.3 5.4 4.7 2.3 0.6 5.1-1.8 7.1-2.9q0.1-0.1 0.1-0.1z"/>
								</g>
							</g>
							<g id="&lt;Group&gt;">
								<g id="&lt;Group&gt;">
									<path id="&lt;Path&gt;" class="s12" d="m267 657c-0.7 0.3-1.5 0-2.7-0.1-0.6-0.1-6.6-0.5-6.6-0.3-0.4 4.8-2.4 9.8-4.3 13.5-2.8 5.6-6.3 10.9-9.1 16.4-1 1.9-2 3.9-2.9 5.9-4 9.2-6.9 18.9-5.4 28.9q0.5 3.4 2.1 5.5c0.6 0.8 1.6 1.3 2.6 1.4 3.1 0.2 6.1 0.6 9.3 0.1q2.3-0.4 4.3-1.2c5.4-3.9 9.3-11 11.3-16.6 3-8.3 3.3-17 4.6-25.6 1.3-9.1 1.1-18.7 1.6-27.9 0-1-0.1-2.2-1-2.6-0.9-0.3-1.8 0.5-2.4 1.3-0.5 0.8-0.9 1.2-1.4 1.3z"/>
								</g>
							</g>
							<g id="&lt;Group&gt;">
								<g id="&lt;Group&gt;">
									<g id="&lt;Group&gt;">
										<g id="&lt;Group&gt;">
											<path id="&lt;Path&gt;" class="s0" d="m241.1 643.6l8.6 10c1.3 1.6 3.9 0.8 4.2-1.3l7.4-63.6c0-0.6-0.2-1.3-0.6-1.8l-9.5-11c-1-1.2-3-0.6-3.1 1l-7.6 64.9c-0.1 0.6 0.1 1.3 0.6 1.8z"/>
										</g>
									</g>
								</g>
							</g>
							<g id="&lt;Group&gt;">
								<g id="&lt;Group&gt;">
									<path id="&lt;Path&gt;" class="s7" d="m131.7 658.5c0.9-5.8 7.4-9.7 12.2-12.2 15.1-7.5 31.2 0 43.4 8.9 8.4 6 17 12.5 21.6 21.7 1.3 2.6 2.3 5.6 4.8 7.2 3.6 2.4 8.5 0.8 12.5 2.4 3.4 1.3 6.4 6.7 10 7 1.8 0.2 8.2-4.8 6.7-6.2 7.9 7.1 16.7 12.9 25.7 18.5q0 0.1 0 0.1c-1.3 7.6-3 15.9-8.9 20.8-6.9 5.8-17.1 4.9-26 3.2-17.7-3.4-34.5-9.8-51.8-14.5-21.7-5.9-51-16.4-49.7-43.1 0.2-4.2-1.2-10.1-0.5-13.8z"/>
								</g>
							</g>
							<g id="&lt;Group&gt;">
								<g id="&lt;Group&gt;">
									<path id="&lt;Path&gt;" class="s0" d="m352.1 854.9c-1.3-0.1-2.8-0.3-3.6-1.3-0.6-0.6-0.8-1.4-0.9-2.2-1.4-7.8-2.1-13.4 0.3-20.8 4.8 1.2 10 2.1 15 2.1 2.8-0.1 7.4 0 9.8-1.9 1.8-1.4 2.4-6.7 4-7.2 0.6-0.1 1.1 0.3 1.5 0.6 3.3 2.9 5.5 6.7 9.1 9.1 3 2 6.6 2.7 10.2 3.4q7 1.4 14.1 2.7c2.9 0.6 6 1.3 8.2 3.4 4 3.7 3 8.2-1.7 10.5-2.2 1-4.6 1.5-7 1.8-9.4 1.3-19.5 0.5-29 0.6-10 0.1-20 0-30-0.8z"/>
								</g>
							</g>
							<path id="&lt;Path&gt;" class="s0" d="m150.8 604.7c0.2-1.6 0.4-3.2 0.4-4.9 0.1-4.1-0.3-8.1-0.2-12.1 0.2-6.2 1.9-12.9 7-16.6 2.9-2.1 6.5-3 9.5-4.9 3.2-2.1 5.5-5.2 8.4-7.6 3.4-2.8 7.6-4.6 11.9-5.1 3.9-0.5 7.3 1.3 11 0.2 2.8-0.8 5.2-2.6 7.9-3.8 2.7-1.2 6.2-1.5 8.4 0.5 2.5 2.4 1.8 6.6 0.7 9.9q-1.7 5.1-4 9.9c-0.5 1.2-1.1 2.4-1.1 3.7 0 0.8 0.3 1.6 0.2 2.4 0 1.7-1.3 3.2-2.9 3.9-1.5 0.7-3.2 0.9-4.9 1.1q-8.5 0.7-17.1 1.5c-4.3 0.4-8.9 1.2-11.7 5-3.4 4.6-0.9 11-4.5 15.4-4.1 5.1-9.7 9.5-14.9 13.3-0.9 0.7-2 1.4-3.1 1.3-1.3-0.2-2.3-1.4-2.6-2.7-0.3-1.3 0-2.7 0.3-4 0.4-2.2 0.9-4.3 1.3-6.4z"/>
							<path id="&lt;Path&gt;" class="s12" d="m167 599.8c-2.6-1.1-6.8-1.1-9 0.5-2.2 1.6-2.5 5.2-2 7.7 0.4 2.7 2.4 5 5.2 5.5 5.8 1 7.2-4.1 8.1-8.4 0.3-1.2 0.5-2.5-0.1-3.6-0.2-0.5-0.7-0.8-1.2-1.2q-0.4-0.2-1-0.5z"/>
							<path id="&lt;Path&gt;" class="s12" d="m261.1 640c-0.5 0-1 0.2-1.5 0.6q-1.7 1.1-3.4 2.1c-0.6 0.4-1.2 0.7-1.8 0.6-1-0.2-1.3-1.4-1.9-2.1-0.7-0.9-2.7-1.9-3.7-1.3-1.8 1.2-1 3.4 0.1 4.7 1.6 2.9 4.5 4.9 6.9 7 0.9 0.7 2 1.5 3.1 1.2 0.3-0.2 0.6-0.4 0.9-0.7 1.7-1.6 2.3-3.9 2.9-6.1 0.4-1.6 1.2-4.5-0.5-5.7q-0.6-0.3-1.1-0.3z"/>
							<g id="&lt;Group&gt;">
								<path id="&lt;Path&gt;" class="s20" d="m213 638.3c-3.3 2.6-1.9 10.6 1.5 8.2 10-7.1 12.6-12.9 26.3-15 4.1-0.6 5.6-4.9 1.5-4.3-14.8 2.2-17.6 1.8-29.3 11.1z"/>
								<path id="&lt;Path&gt;" class="s20" d="m237.1 635.6q-0.4-0.1-0.8-0.1c-2.2 0-4.4 0.9-6 2.4-1.2 1.3-2.1 3.3-3.9 3.7-0.4 0.1-0.9 0.1-1.2-0.2-0.2-0.2-0.4-0.5-0.4-0.8-0.3-1.2-0.1-2.6 0.6-3.6 0.7-1 1.6-1.9 2.5-2.6 0.4-0.3 0.8-0.6 1.1-0.9 0.3-0.4 0.5-0.8 0.4-1.3-0.1-1.9-2.3-2.3-3.7-1.7-4.7 1.9-9.5 3.8-13.4 7-2.6 2.2-4.7 5-6.7 7.8-1.9 2.8-3.1 5.8-5.1 8.6-1 1.5-0.9 3.5 0.4 4.8 1.6 1.6 3.3 3.3 5.1 4.8 1.7 1.3 3.9 1.8 5.4 3.5 0.2 0 0.3-0.3 0.4-0.5 0.9-2.6 1.4-5.3 2.4-7.8 0.7-1.9 2-3.4 3.8-4.2 1.9-0.9 4.1-1.3 6-2.5 2-1.2 3.6-2.9 5-4.8 1.4-1.8 2.7-3.7 4.3-5.4 1.3-1.5 3.4-1.8 4.8-3.3 0.4-0.5 0.7-1.1 0.6-1.8-0.2-0.6-0.8-1-1.6-1.1z"/>
							</g>
							<path id="&lt;Path&gt;" class="s34" d="m194.6 624.4c-0.2 1.6-1.8 2.9-3.4 2.9"/>
							<path id="&lt;Path&gt;" class="s34" d="m163 603.8c-1.5-0.3-2.6 1.4-2.5 2.9 0.2 1.4 1.2 2.6 2.1 3.7"/>
							<path id="&lt;Path&gt;" class="s35" d="m152.1 703.5c11 5.5 22.4 10 34.1 13.6-2.8 7.2-5.1 14.4-7 21.9-0.6 2.5-1.2 5.2-2.5 7.5-0.2 0.3-0.5 0.7-0.9 0.8-0.4 0.1-0.7-0.1-1-0.3-8.4-4.5-11.5-14.7-16.3-23-3.4-6-8.2-11.7-8.7-18.6-0.1-0.9 1.5-2.3 2.3-1.9z"/>
							<path id="&lt;Path&gt;" class="s36" d="m253.7 718.6c0.7 0.2 1.2 0.7 1.5 1.2-2.2 3.5-6.9 5.2-10.8 3.9"/>
						</g>
						<path id="&lt;Path&gt;" class="s37" d="m191.1 612.8c2 2.2 5.8 2.5 8.1 0.7"/>
					</g>
				</g>
				<g id="&lt;Group&gt;">
					<path id="&lt;Path&gt;" class="s3" d="m245.9 476.6c0.1 36.2 0.1 70.9 0.1 70.9l-29.8-18.2c-3-1.9-6.6-2.9-10.2-2.9h-107.3c-10.8 0-19.6-8.8-19.6-19.6v-30.2c0-10.7 8.8-19.5 19.6-19.5h127.7c10.8 0 19.5 8.7 19.5 19.5z"/>
				</g>
				<g id="&lt;Group&gt;">
					<path id="&lt;Path&gt;" class="s7" d="m113.4 483.6c0.4-3.4 3.2-6.5 6.6-6.5 2.8 0.1 5.1 2.2 7.1 4.1h0.3c2-1.9 4.2-4 7-4.1 3.4 0 6.2 3.1 6.7 6.5 0.4 3.3-0.9 6.6-2.8 9.5-2.7 4.2-10.8 10.3-10.8 10.3q-0.2-0.1-0.3-0.1c-0.1 0-0.2-0.2-0.2-0.2-4.4-2.4-8.2-5.8-10.9-10-1.8-2.9-3.2-6.2-2.7-9.5z"/>
				</g>
				<g id="&lt;Group&gt;">
					<path id="&lt;Path&gt;" class="s38" d="m172.5 504.5h28v-27.4h-28z"/>
					<path id="&lt;Path&gt;" class="s11" d="m194.7 485.4h-16.4"/>
					<path id="&lt;Path&gt;" class="s11" d="m194.7 494.8h-16.4"/>
				</g>
			</g>
			<g id="&lt;Group&gt;">
				<g id="&lt;Group&gt;">
					<path id="&lt;Path&gt;" class="s3" d="m723.5 341.2c-0.1 40-0.1 121.8-0.1 121.8l32.9-20.1c3.4-2.1 7.3-3.2 11.3-3.2h104.5c12 0 21.7-9.7 21.7-21.6v-76.9c0-11.9-9.7-21.6-21.7-21.6h-127c-12 0-21.6 9.7-21.6 21.6z"/>
				</g>
				<g id="&lt;Group&gt;">
					<path id="&lt;Path&gt;" class="s6" d="m801.3 374.1h-30.3v-30.3h30.3z"/>
					<path id="&lt;Path&gt;" class="s6" d="m801.3 416.7h-30.3v-30.2h30.3z"/>
					<path id="&lt;Path&gt;" class="s6" d="m856.4 374.1h-30.2v-30.3h30.2z"/>
					<path id="&lt;Path&gt;" class="s7" d="m856.4 416.7h-30.2v-30.2h30.2z"/>
					<path id="&lt;Path&gt;" class="s3" d="m772.8 350.3l14.5 16.7 22.7-32.3"/>
					<path id="&lt;Path&gt;" class="s3" d="m772.8 394.8l14.5 16.7 22.7-32.3"/>
					<path id="&lt;Path&gt;" class="s3" d="m826.2 350.3l14.4 16.7 22.9-32.1"/>
				</g>
			</g>
		</g>
	</g>
</svg>