<svg version="1.2" xmlns="http://www.w3.org/2000/svg" viewBox="0 0 194 194" width="194" height="194">
	<title>Snigdha OS Avatar</title>
	<style>
		.s0 { fill: #754ffe } 
		.s1 { fill: #000000 } 
	</style>
	<path id="Background" class="s0" d="m97 194c-53.6 0-97-43.4-97-97 0-53.6 43.4-97 97-97 53.6 0 97 43.4 97 97 0 53.6-43.4 97-97 97z"/>
	<filter id="f0">
		<feFlood flood-color="#ffffff" flood-opacity="1" />
		<feBlend mode="normal" in2="SourceGraphic"/>
		<feComposite in2="SourceAlpha" operator="in" />
	</filter>
	<g id="Folder 1" filter="url(#f0)">
		<path id="Layer" class="s1" d="m112.8 22.3c-6.1-1.9-12.5-3-18.9-3.2-6.5-0.3-12.9 0.4-19.1 1.9-6.3 1.4-12.3 3.8-17.9 6.9-5.7 3.1-10.9 6.9-15.5 11.4q1.8 0.6 3.5 1.4 1.7 0.9 3.3 2 1.5 1.1 2.9 2.5 1.4 1.3 2.5 2.9 0.8 1.1 1.5 2.3 0.6 1.2 1.2 2.5 0.5 1.2 1 2.5 0.4 1.3 0.6 2.6 3.9-2.1 8-3.7 4-1.6 8.3-2.7 4.2-1.1 8.6-1.6 4.3-0.6 8.7-0.6c3.3-0.1 6.6 0.1 9.8 0.7 3.3 0.5 6.6 1.4 9.7 2.6 3.1 1.2 6 2.6 8.9 4.4 2.7 1.7 5.4 3.7 7.8 6 19.9 18.2 13.2 32.6 10.1 56.3-0.5 2.7-0.6 5.4-0.3 8.1 0.2 2.8 0.9 5.4 1.9 8 1 2.6 2.4 5 4 7.1 1.6 2.2 3.6 4.1 5.8 5.8-3.1-14.7 7.8-36.8 9-39.3 2.8-8.7 3.8-17.9 3.1-26.9-0.8-9.1-3.4-17.9-7.6-26-4.2-8.1-10-15.3-17-21.1-7.1-5.8-15.2-10.2-23.9-12.8z"/>
		<path id="Layer" class="s1" d="m123.7 67.2c-9.9-9.7-23.8-12.9-37.1-11.8l-4 2.7c4.8 0.2 9.5 1.1 14.1 2.5 4.6 1.5 9 3.6 13 6.2 4 2.6 7.7 5.8 10.9 9.4 3.2 3.6 5.9 7.6 8 11.9q0.4 0.9 0.8 1.7 0.4 0.9 0.8 1.8 0.3 0.9 0.6 1.7 0.3 1 0.6 1.8l4.2-7.8c-1.1-8.5-4.9-12.9-11.9-20.1z"/>
		<path id="Layer" class="s1" d="m125.1 94.7c-19.2-48.8-90.9-36.4-92.1 16.8 0.1 3.7 0 11.2 0 14.9 0 0.6 0.2 1.1 0.5 1.5 0.4 0.6 0.9 0.9 1.4 1.1 0.5 0.2 1.1 0.3 1.7 0.1 0.6-0.1 1.1-0.4 1.5-0.8l13.8-15.7q0.1-0.1 0.2-0.1 0.1-0.1 0.3-0.2 0.1 0 0.2-0.1 0.2 0 0.3-0.1l2.8-0.1-6 9.7q-0.4 0.6-0.6 1.2-0.2 0.7-0.3 1.3-0.2 0.7-0.2 1.4 0 0.6 0.2 1.3c0.7 4.1 1.5 14.4-7 21.3q-0.6 0.4-1.1 1.1-0.5 0.6-0.8 1.3-0.4 0.7-0.6 1.5-0.2 0.8-0.2 1.6v14.1c0 0.9 0.2 1.9 0.6 2.7q0.6 1.4 1.5 2.4c0.7 0.6 1.6 1.2 2.4 1.6 0.9 0.3 1.8 0.5 2.8 0.5 32.4-6.6 50.5-25.6 54.5-31.9q0.1-0.1 0.2-0.3 0.1-0.1 0.3-0.2 0.1 0 0.3-0.1 0.2 0 0.4 0h17.5c1.1 0 2.2-0.3 3.3-0.7 1-0.4 2-1.1 2.8-1.9 0.8-0.8 1.4-1.7 1.8-2.7 0.5-1.1 0.7-2.2 0.7-3.3-0.4-10.8 1.6-29.2-3.1-39.2z"/>
	</g>
</svg>