<svg version="1.2" xmlns="http://www.w3.org/2000/svg" viewBox="0 0 1000 1000" width="1000" height="1000">
	<title>4884420-ai</title>
	<style>
		.s0 { fill: #282740 } 
		.s1 { fill: #53538c } 
		.s2 { opacity: .4;fill: #282740 } 
		.s3 { fill: #48cad9 } 
		.s4 { fill: #1eb3ba } 
		.s5 { fill: #ffffff } 
		.s6 { fill: #76e0e5 } 
		.s7 { opacity: .1;fill: #282740 } 
		.s8 { fill: #f4f0e1 } 
		.s9 { fill: #b7e5e5 } 
		.s10 { fill: #ed6332 } 
		.s11 { opacity: .2;fill: #48cad9 } 
		.s12 { opacity: .2;fill: #282740 } 
		.s13 { fill: #db3e0e } 
		.s14 { fill: #d8b560 } 
	</style>
	<g id="OBJECTS">
		<g id="&lt;Group&gt;">
			<g id="&lt;Group&gt;">
				<path id="&lt;Path&gt;" class="s0" d="m586.2 839.6c0 1.2-1 2.3-2.3 2.3h-201.8c-1.2 0-2.3-1.1-2.3-2.3v-8.1c0-1.3 1.1-2.3 2.3-2.3h201.8c1.3 0 2.3 1 2.3 2.3z"/>
				<g id="&lt;Group&gt;">
					<path id="&lt;Path&gt;" class="s1" d="m519.8 769.4h-34.7-4.2-34.6c0 33.3-50.2 61.5-50.2 61.5h84.8 4.2 84.8c0 0-50.1-28.2-50.1-61.5z"/>
					<path id="&lt;Path&gt;" class="s2" d="m519.8 769.4h-34.7-4.2-14.8c10.4 19.3 28.7 43.2 59.9 61.5h43.9c0 0-50.1-28.2-50.1-61.5z"/>
				</g>
			</g>
			<g id="&lt;Group&gt;">
				<g id="&lt;Group&gt;">
					<path id="&lt;Path&gt;" class="s0" d="m795 765.4c0 2.2-1.8 4-4 4h-616c-2.2 0-4-1.8-4-4v-373c0-2.2 1.8-4 4-4h616c2.2 0 4 1.8 4 4z"/>
					<g id="&lt;Group&gt;">
						<g id="&lt;Group&gt;">
							<path id="&lt;Path&gt;" class="s3" d="m771.4 744.4c0 2.2-1.8 4-4 4h-568.8c-2.2 0-4-1.8-4-4v-331c0-2.2 1.8-4 4-4h568.8c2.2 0 4 1.8 4 4z"/>
							<path id="&lt;Path&gt;" class="s4" d="m771.4 436.9v-23.5c0-2.2-1.8-4-4-4h-568.8c-2.2 0-4 1.8-4 4v23.5z"/>
						</g>
						<g id="&lt;Group&gt;">
							<path id="&lt;Path&gt;" class="s5" d="m242 423.1c0 3.2-2.6 5.8-5.8 5.8-3.1 0-5.7-2.6-5.7-5.8 0-3.2 2.6-5.7 5.7-5.7 3.2 0 5.8 2.5 5.8 5.7z"/>
							<path id="&lt;Path&gt;" class="s5" d="m218 423.1c0 3.2-2.6 5.8-5.8 5.8-3.1 0-5.7-2.6-5.7-5.8 0-3.2 2.6-5.7 5.7-5.7 3.2 0 5.8 2.5 5.8 5.7z"/>
							<path id="&lt;Path&gt;" class="s5" d="m266 423.1c0 3.2-2.6 5.8-5.8 5.8-3.1 0-5.7-2.6-5.7-5.8 0-3.2 2.6-5.7 5.7-5.7 3.2 0 5.8 2.5 5.8 5.7z"/>
						</g>
						<g id="&lt;Group&gt;">
							<g id="&lt;Group&gt;">
								<path id="&lt;Path&gt;" class="s6" d="m727.9 556.9h-489.7v-98.7h489.7z"/>
								<path id="&lt;Path&gt;" class="s6" d="m444.5 638.6h-206.3v-65.7h206.3z"/>
								<g id="&lt;Group&gt;">
									<g id="&lt;Group&gt;">
										<path id="&lt;Path&gt;" class="s6" d="m444.5 653.2h-206.3v9.7h206.3z"/>
										<path id="&lt;Path&gt;" class="s6" d="m444.5 673.2h-206.3v9.7h206.3z"/>
									</g>
									<g id="&lt;Group&gt;">
										<path id="&lt;Path&gt;" class="s6" d="m444.5 693.2h-206.3v9.7h206.3z"/>
										<path id="&lt;Path&gt;" class="s6" d="m444.5 713.2h-206.3v9.7h206.3z"/>
									</g>
								</g>
							</g>
							<path id="&lt;Path&gt;" class="s6" d="m565 682.9h-102v-110h102z"/>
							<g id="&lt;Group&gt;">
								<path id="&lt;Path&gt;" class="s6" d="m564.9 693.2h-103v9.7h103z"/>
								<path id="&lt;Path&gt;" class="s6" d="m564.9 713.2h-103v9.7h103z"/>
							</g>
							<path id="&lt;Path&gt;" class="s6" d="m727.9 638.6h-141.7v-65.7h141.7z"/>
							<g id="&lt;Group&gt;">
								<g id="&lt;Group&gt;">
									<path id="&lt;Path&gt;" class="s6" d="m725.4 653.2h-139.2v9.7h139.2z"/>
									<path id="&lt;Path&gt;" class="s6" d="m725.4 673.2h-139.2v9.7h139.2z"/>
								</g>
								<g id="&lt;Group&gt;">
									<path id="&lt;Path&gt;" class="s6" d="m725.4 693.2h-139.2v9.7h139.2z"/>
									<path id="&lt;Path&gt;" class="s6" d="m725.4 713.2h-139.2v9.7h139.2z"/>
								</g>
							</g>
						</g>
					</g>
				</g>
				<path id="&lt;Path&gt;" class="s7" d="m795 765.4v-373c0-2.2-1.8-4-4-4h-54.1c-16.6 296.9-317.2 381-317.2 381h371.3c2.2 0 4-1.8 4-4z"/>
			</g>
		</g>
		<g id="&lt;Group&gt;">
			<g id="&lt;Group&gt;">
				<g id="&lt;Group&gt;">
					<path id="&lt;Path&gt;" class="s0" d="m223.2 646.1c-2.2 0-4.6 1.7-5.2 3.8l-7.7 24.3c-0.6 2.1-2.9 3.8-5.1 3.8h-83.4c-2.2 0-3.7 1.7-3.3 3.9l24.6 136c0.4 2.2 2.5 4 4.7 4h132c2.2 0 4.3-1.8 4.6-4l24.8-167.9c0.4-2.2-1.2-3.9-3.4-3.9z"/>
					<g id="&lt;Group&gt;">
						<path id="&lt;Path&gt;" class="s5" d="m280.9 777.5h-134v-190h108.3l25.7 26z"/>
						<path id="&lt;Path&gt;" class="s8" d="m255.2 587.5l25.7 26h-25.7z"/>
						<g id="&lt;Group&gt;">
							<g id="&lt;Group&gt;">
								<g id="&lt;Group&gt;">
									<path id="&lt;Path&gt;" class="s9" d="m268.5 641h-109.3v-3.1h109.3z"/>
									<path id="&lt;Path&gt;" class="s9" d="m268.5 653.6h-109.3v-3.2h109.3z"/>
								</g>
								<g id="&lt;Group&gt;">
									<path id="&lt;Path&gt;" class="s9" d="m268.5 666.2h-109.3v-3.2h109.3z"/>
									<path id="&lt;Path&gt;" class="s9" d="m268.5 678.7h-109.3v-3.1h109.3z"/>
								</g>
								<g id="&lt;Group&gt;">
									<path id="&lt;Path&gt;" class="s9" d="m268.5 691.3h-109.3v-3.1h109.3z"/>
									<path id="&lt;Path&gt;" class="s9" d="m268.5 703.9h-109.3v-3.2h109.3z"/>
								</g>
							</g>
							<g id="&lt;Group&gt;">
								<path id="&lt;Compound Path&gt;" class="s10" d="m177.7 616.6c0-6.2 4.7-10.6 11.1-10.6 3.8 0 6.8 1.4 8.8 3.8l-3.7 3.3c-1.3-1.5-2.8-2.3-4.8-2.3-3.3 0-5.6 2.3-5.6 5.8 0 3.4 2.3 5.8 5.6 5.8 2 0 3.5-0.9 4.8-2.4l3.7 3.3c-2 2.4-5 3.8-8.8 3.8-6.4 0-11.1-4.4-11.1-10.5z"/>
								<path id="&lt;Compound Path&gt;" class="s10" d="m221.5 626.7v-10.8l-5.2 8.8h-2.6l-5.2-8.5v10.5h-5.3v-20.3h4.7l7.2 11.7 6.9-11.7h4.7l0.1 20.3z"/>
								<path id="&lt;Compound Path&gt;" class="s10" d="m232.5 624.9l1.9-4.3c1.8 1.2 4.4 2 6.7 2 2.4 0 3.3-0.6 3.3-1.6 0-3.2-11.5-0.9-11.5-8.4 0-3.6 2.9-6.6 9-6.6 2.6 0 5.3 0.6 7.3 1.8l-1.7 4.2c-2-1-3.9-1.5-5.7-1.5-2.4 0-3.2 0.8-3.2 1.8 0 3.1 11.5 0.8 11.5 8.3 0 3.5-3 6.5-9 6.5-3.4 0-6.7-0.9-8.6-2.2z"/>
							</g>
						</g>
					</g>
					<path id="&lt;Path&gt;" class="s1" d="m223.2 666.1c-2.2 0-4.6 1.7-5.2 3.8l-7.7 24.3c-0.6 2.1-2.9 3.8-5.1 3.8h-83.4c-2.2 0-3.7 1.7-3.3 3.9l24.6 136c0.4 2.2 2.5 4 4.7 4h132c2.2 0 4.3-1.8 4.6-4l24.8-167.9c0.4-2.2-1.2-3.9-3.4-3.9z"/>
				</g>
				<path id="&lt;Path&gt;" class="s2" d="m284.4 837.9l24.8-167.9c0.4-2.2-1.2-3.9-3.4-3.9h-8c-13.4 127.6-109.9 159.2-155.6 167l0.9 4.8c0.4 2.2 2.5 4 4.7 4h132c2.2 0 4.3-1.8 4.6-4z"/>
			</g>
			<g id="&lt;Group&gt;">
				<g id="&lt;Group&gt;">
					<g id="&lt;Group&gt;">
						<path id="&lt;Path&gt;" class="s0" d="m870.9 837.4c0 2.2-1.7 3.9-3.8 3.9h-240.5c-2.1 0-3.9-1.7-3.9-3.9v-174.7c0-2.1 1.8-3.8 3.9-3.8h240.5c2.1 0 3.8 1.7 3.8 3.8z"/>
						<path id="&lt;Path&gt;" class="s1" d="m861.2 817.1c0 2-1.6 3.6-3.5 3.6h-221.7c-1.9 0-3.5-1.6-3.5-3.6v-147.5c0-2 1.6-3.5 3.5-3.5h221.7c1.9 0 3.5 1.5 3.5 3.5z"/>
						<g id="&lt;Group&gt;">
							<g id="&lt;Group&gt;">
								<path id="&lt;Path&gt;" class="s1" d="m861.2 830.2c0 0.8-0.6 1.4-1.4 1.4h-226c-0.7 0-1.3-0.6-1.3-1.4 0-0.7 0.6-1.3 1.3-1.3h226c0.8 0 1.4 0.6 1.4 1.3z"/>
								<path id="&lt;Path&gt;" class="s10" d="m784.3 830.2c0 0.8-0.6 1.4-1.3 1.4h-149.2c-0.7 0-1.3-0.6-1.3-1.4 0-0.7 0.6-1.3 1.3-1.3h149.2c0.7 0 1.3 0.6 1.3 1.3z"/>
							</g>
							<path id="&lt;Path&gt;" class="s10" d="m787.8 830.4c0 2.9-2.4 5.3-5.3 5.3-2.9 0-5.3-2.4-5.3-5.3 0-2.9 2.4-5.3 5.3-5.3 2.9 0 5.3 2.4 5.3 5.3z"/>
						</g>
					</g>
					<g id="&lt;Group&gt;">
						<path id="&lt;Path&gt;" class="s11" d="m807.7 745.5c0 33.6-27.3 60.9-60.9 60.9-33.6 0-60.8-27.3-60.8-60.9 0-33.6 27.2-60.8 60.8-60.8 33.6 0 60.9 27.2 60.9 60.8z"/>
						<path id="&lt;Path&gt;" class="s3" d="m794.4 745.5c0 26.3-21.3 47.6-47.6 47.6-26.2 0-47.5-21.3-47.5-47.6 0-26.2 21.3-47.5 47.5-47.5 26.3 0 47.6 21.3 47.6 47.5z"/>
						<path id="&lt;Path&gt;" class="s1" d="m737.4 725.6v39.9l26-19.6z"/>
					</g>
				</g>
				<path id="&lt;Path&gt;" class="s12" d="m867.1 841.3c2.1 0 3.8-1.7 3.8-3.9v-174.7c0-2.1-1.7-3.8-3.8-3.8h-22.5c0 121-62.4 166.6-96 182.4z"/>
			</g>
			<g id="&lt;Group&gt;">
				<path id="&lt;Path&gt;" class="s5" d="m690.9 442.6c0 1.1-0.9 2-2 2h-241.9c-1.1 0-2-0.9-2-2v-159.2c0-1.1 0.9-2 2-2h241.9c1.1 0 2 0.9 2 2z"/>
				<g id="&lt;Group&gt;">
					<g id="&lt;Group&gt;">
						<path id="&lt;Path&gt;" class="s1" d="m681.9 433.3c0 0.9-0.8 1.8-1.8 1.8h-224.4c-0.9 0-1.8-0.9-1.8-1.8v-140.5c0-1 0.9-1.8 1.8-1.8h224.4c1 0 1.8 0.8 1.8 1.8z"/>
						<path id="&lt;Path&gt;" class="s3" d="m632.3 340.2c-5.2-6-13.7-6-18.9 0l-64.3 74.3c-5.2 6.1-13.7 6.1-18.9 0l-29.2-33.8c-5.2-6-13.7-6-18.9 0l-28.2 32.6v21.9c0 0.9 0.9 1.7 1.8 1.7h224.4c1 0 1.8-0.8 1.8-1.7v-37.5z"/>
					</g>
					<path id="&lt;Path&gt;" class="s3" d="m557.8 334c0 13.1-10.6 23.7-23.6 23.7-13.1 0-23.7-10.6-23.7-23.7 0-13 10.6-23.6 23.7-23.6 13 0 23.6 10.6 23.6 23.6z"/>
				</g>
				<path id="&lt;Path&gt;" class="s7" d="m688.9 444.6c1.1 0 2-0.9 2-2v-159.2c0-1.1-0.9-2-2-2h-28.7c-5.1 95.6-44 141.4-77.2 163.2z"/>
			</g>
			<g id="&lt;Group&gt;">
				<g id="&lt;Group&gt;">
					<g id="&lt;Group&gt;">
						<path id="&lt;Path&gt;" class="s0" d="m480.4 598.6c0 1.1-0.9 2.1-2.1 2.1h-162.9c-1.2 0-2.1-1-2.1-2.1v-116.3c0-1.2 0.9-2.1 2.1-2.1h162.9c1.2 0 2.1 0.9 2.1 2.1z"/>
						<path id="&lt;Path&gt;" class="s1" d="m480.4 494.8v-12.5c0-1.2-0.9-2.1-2.1-2.1h-162.9c-1.2 0-2.1 0.9-2.1 2.1v12.5z"/>
					</g>
					<g id="&lt;Group&gt;">
						<path id="&lt;Path&gt;" class="s5" d="m338.5 487.5c0 1.7-1.4 3.1-3.1 3.1-1.6 0-3-1.4-3-3.1 0-1.7 1.4-3.1 3-3.1 1.7 0 3.1 1.4 3.1 3.1z"/>
						<path id="&lt;Path&gt;" class="s5" d="m325.7 487.5c0 1.7-1.3 3.1-3 3.1-1.7 0-3.1-1.4-3.1-3.1 0-1.7 1.4-3.1 3.1-3.1 1.7 0 3 1.4 3 3.1z"/>
						<path id="&lt;Path&gt;" class="s5" d="m351.3 487.5c0 1.7-1.4 3.1-3.1 3.1-1.7 0-3-1.4-3-3.1 0-1.7 1.3-3.1 3-3.1 1.7 0 3.1 1.4 3.1 3.1z"/>
					</g>
				</g>
				<g id="&lt;Group&gt;">
					<path id="&lt;Path&gt;" class="s5" d="m468.5 528.4h-107.9v-4.4h107.9z"/>
					<g id="&lt;Group&gt;">
						<path id="&lt;Path&gt;" class="s6" d="m357.2 514.4h-32v-4.4h32z"/>
						<path id="&lt;Path&gt;" class="s6" d="m342.2 542.4h-17v-4.4h17z"/>
						<path id="&lt;Path&gt;" class="s6" d="m357.2 556.4h-32v-4.4h32z"/>
						<path id="&lt;Path&gt;" class="s6" d="m350.1 570.4h-24.9v-4.4h24.9z"/>
						<g id="&lt;Group&gt;">
							<path id="&lt;Path&gt;" class="s5" d="m437.6 514.4h-62.1v-4.4h62.1z"/>
							<path id="&lt;Path&gt;" class="s6" d="m350.1 528.4h-24.9v-4.4h24.9z"/>
							<path id="&lt;Path&gt;" class="s5" d="m422.7 542.4h-73.4v-4.4h73.4z"/>
							<path id="&lt;Path&gt;" class="s5" d="m437.6 556.4h-62.1v-4.4h62.1z"/>
							<path id="&lt;Path&gt;" class="s5" d="m468.5 570.4h-107.9v-4.4h107.9z"/>
							<path id="&lt;Path&gt;" class="s6" d="m342.2 584.4h-17v-4.4h17z"/>
							<path id="&lt;Path&gt;" class="s5" d="m422.7 584.4h-73.4v-4.4h73.4z"/>
						</g>
					</g>
				</g>
				<path id="&lt;Path&gt;" class="s2" d="m480.4 482.3c0-1.2-0.9-2.1-2.1-2.1h-40c-0.9 74.5-52 108.7-75.4 120.5h115.4c1.2 0 2.1-1 2.1-2.1z"/>
			</g>
			<g id="&lt;Group&gt;">
				<g id="&lt;Group&gt;">
					<g id="&lt;Group&gt;">
						<g id="&lt;Group&gt;">
							<path id="&lt;Path&gt;" class="s0" d="m742.2 496.3c0 1.2-1 2.1-2.2 2.1h-142.9c-1.1 0-2.1-0.9-2.1-2.1v-76.2c0-1.2 1-2.2 2.1-2.2h142.9c1.2 0 2.2 1 2.2 2.2z"/>
							<path id="&lt;Path&gt;" class="s1" d="m742.2 432.6v-12.5c0-1.2-1-2.2-2.2-2.2h-142.9c-1.1 0-2.1 1-2.1 2.2v12.5z"/>
						</g>
						<g id="&lt;Group&gt;">
							<path id="&lt;Path&gt;" class="s5" d="m620.2 425.2c0 1.7-1.3 3.1-3 3.1-1.7 0-3.1-1.4-3.1-3.1 0-1.7 1.4-3 3.1-3 1.7 0 3 1.3 3 3z"/>
							<path id="&lt;Path&gt;" class="s5" d="m607.5 425.2c0 1.7-1.4 3.1-3.1 3.1-1.7 0-3.1-1.4-3.1-3.1 0-1.7 1.4-3 3.1-3 1.7 0 3.1 1.3 3.1 3z"/>
							<path id="&lt;Path&gt;" class="s5" d="m633 425.2c0 1.7-1.4 3.1-3 3.1-1.7 0-3.1-1.4-3.1-3.1 0-1.7 1.4-3 3.1-3 1.6 0 3 1.3 3 3z"/>
						</g>
					</g>
				</g>
				<g id="&lt;Group&gt;">
					<g id="&lt;Group&gt;">
						<path id="&lt;Path&gt;" class="s6" d="m672 448.4q-5 15.2-10 30.4c-0.7 2 2.5 2.9 3.1 0.9q5.1-15.2 10.1-30.5c0.7-2-2.5-2.8-3.2-0.8z"/>
					</g>
					<g id="&lt;Group&gt;">
						<path id="&lt;Path&gt;" class="s6" d="m659.9 469.7q-4.1-2.8-8.3-5.7 4.2-2.8 8.3-5.7c1.8-1.2 0.1-4-1.6-2.8q-5.2 3.5-10.4 7.1c-1.1 0.7-1.1 2.1 0 2.8q5.2 3.6 10.4 7.2c1.7 1.2 3.4-1.7 1.6-2.9z"/>
						<path id="&lt;Path&gt;" class="s6" d="m677.3 469.7q4.1-2.8 8.3-5.7-4.2-2.8-8.3-5.7c-1.8-1.2-0.1-4 1.6-2.8q5.2 3.5 10.4 7.1c1 0.7 1 2.1 0 2.8q-5.2 3.6-10.4 7.2c-1.7 1.2-3.4-1.7-1.6-2.9z"/>
					</g>
				</g>
				<path id="&lt;Path&gt;" class="s2" d="m740 498.4c1.2 0 2.2-0.9 2.2-2.1v-76.2c0-1.2-1-2.2-2.2-2.2h-32c-2.4 47.3-29.4 69.9-51.6 80.5z"/>
			</g>
		</g>
		<g id="&lt;Group&gt;">
			<g id="&lt;Group&gt;">
				<path id="&lt;Compound Path&gt;" fill-rule="evenodd" class="s5" d="m848.4 642.8l-6.9 16.9-34.1-14 2.2-5.4-34.5-14.2c-13 27.3-45.3 40-73.6 28.4-29.3-12.1-43.4-45.7-31.3-75.1 12-29.3 45.7-43.3 75-31.3 28.3 11.6 42.3 43.3 32.4 71.9l34.5 14.2 2.2-5.4zm-106.5-86.5c-24.8-10.2-53.3 1.7-63.5 26.5-10.2 24.8 1.7 53.3 26.5 63.5 24.8 10.2 53.3-1.7 63.5-26.5 10.2-24.8-1.7-53.3-26.5-63.5z"/>
				<path id="&lt;Path&gt;" class="s5" d="m707.7 566.3c-5.4 2.3-8 8.5-5.7 14 2.3 5.4 8.5 8 13.9 5.7 5.5-2.3 8-8.5 5.8-14-2.3-5.4-8.5-8-14-5.7z"/>
			</g>
			<g id="&lt;Group&gt;">
				<g id="&lt;Group&gt;">
					<path id="&lt;Compound Path&gt;" fill-rule="evenodd" class="s10" d="m901.2 401.3v7.4c0 1.1-0.9 2-2 2h-7.9c-1 6.7-3.6 12.8-7.5 18l5.7 5.6c0.7 0.8 0.7 2.1 0 2.8l-5.3 5.3c-0.8 0.8-2.1 0.8-2.9 0l-5.6-5.6c-5.1 3.8-11.3 6.5-17.9 7.4v8c0 1.1-0.9 2-2 2h-7.5c-1.1 0-2-0.9-2-2v-8c-6.7-0.9-12.8-3.6-17.9-7.4l-5.7 5.6c-0.7 0.8-2 0.8-2.8 0l-5.3-5.3c-0.7-0.7-0.7-2 0-2.8l5.7-5.6c-3.9-5.2-6.5-11.3-7.5-18h-7.9c-1.1 0-2-0.9-2-2v-7.4c0-1.1 0.9-2 2-2h7.9c1-6.7 3.6-12.8 7.5-18l-5.7-5.6c-0.7-0.8-0.7-2 0-2.8l5.3-5.3c0.8-0.8 2.1-0.8 2.8 0l5.7 5.6c5.1-3.8 11.3-6.4 17.9-7.4v-8c0-1.1 0.9-2 2-2h7.5c1.1 0 2 0.9 2 2v8c6.6 1 12.8 3.6 17.9 7.4l5.6-5.6c0.8-0.8 2.1-0.8 2.9 0l5.3 5.3c0.7 0.8 0.7 2 0 2.8l-5.7 5.6c3.9 5.2 6.5 11.3 7.5 18h7.9c1.1 0 2 0.9 2 2zm-20.2 3.7c0-16-12.9-29-29-29-16 0-29 13-29 29 0 16 13 29 29 29 16.1 0 29-13 29-29z"/>
					<path id="&lt;Compound Path&gt;" fill-rule="evenodd" class="s10" d="m821 323.8v6c0 0.8-0.8 1.5-1.6 1.5h-6.3c-0.8 5.3-2.9 10.2-5.9 14.3l4.4 4.4c0.6 0.6 0.6 1.7 0 2.3l-4.2 4.2c-0.6 0.6-1.6 0.6-2.2 0l-4.5-4.5c-4.1 3.1-8.9 5.1-14.2 5.9v6.3c0 0.9-0.7 1.6-1.6 1.6h-5.9c-0.9 0-1.6-0.7-1.6-1.6v-6.3c-5.3-0.8-10.1-2.8-14.2-5.9l-4.5 4.5c-0.6 0.6-1.6 0.6-2.2 0l-4.2-4.2c-0.6-0.6-0.6-1.7 0-2.3l4.5-4.4c-3.1-4.1-5.2-9-5.9-14.3h-6.3c-0.9 0-1.6-0.7-1.6-1.5v-6c0-0.8 0.7-1.5 1.6-1.5h6.3c0.7-5.3 2.8-10.2 5.9-14.3l-4.5-4.4c-0.6-0.6-0.6-1.7 0-2.3l4.2-4.2c0.6-0.6 1.6-0.6 2.2 0l4.5 4.5c4.1-3 8.9-5.1 14.2-5.9v-6.3c0-0.9 0.7-1.6 1.6-1.6h5.9c0.9 0 1.6 0.7 1.6 1.6v6.3c5.3 0.8 10.1 2.9 14.2 5.9l4.5-4.5c0.6-0.6 1.6-0.6 2.2 0l4.2 4.2c0.6 0.6 0.6 1.7 0 2.3l-4.4 4.4c3 4.1 5.1 9 5.9 14.3h6.3c0.8 0 1.6 0.7 1.6 1.5zm-23.3 3c0-8.7-7-15.8-15.7-15.8-8.7 0-15.8 7.1-15.8 15.8 0 8.7 7.1 15.8 15.8 15.8 8.7 0 15.7-7.1 15.7-15.8z"/>
				</g>
				<g id="&lt;Group&gt;">
					<g id="&lt;Group&gt;">
						<path id="&lt;Path&gt;" class="s10" d="m370.6 836.8c0.1 4.7-3.7 8.6-8.4 8.6h-4.2c-4.8 0-8.5-3.9-8.4-8.6l3-130.5c0.1-4.7 3.5-8.6 7.5-8.6 4 0 7.3 3.9 7.4 8.6z"/>
						<path id="&lt;Path&gt;" class="s13" d="m358 845.4h4.2c1.5 0 2.9-0.4 4.1-1.1l-1.4-61.9c-0.1-3-2.3-5.5-4.8-5.5-2.6 0-4.8 2.5-4.8 5.5l-1.5 61.9c1.3 0.7 2.7 1.1 4.2 1.1z"/>
					</g>
					<g id="&lt;Group&gt;">
						<path id="&lt;Path&gt;" class="s10" d="m377.7 651.3v24.1l-17.6 17.4-17.7-17.4v-24.1c-12.3 6.4-20.7 19.3-20.7 34.1 0 21.2 17.2 38.3 38.4 38.3 21.1 0 38.3-17.1 38.3-38.3 0-14.8-8.4-27.7-20.7-34.1z"/>
						<g id="&lt;Group&gt;">
							<path id="&lt;Path&gt;" class="s13" d="m360.1 716.3c-14.2 0-26.8-6.3-35.4-16.1 5.8 13.8 19.4 23.5 35.4 23.5 15.9 0 29.6-9.7 35.4-23.5-8.6 9.8-21.3 16.1-35.4 16.1z"/>
						</g>
					</g>
				</g>
				<g id="&lt;Group&gt;">
					<g id="&lt;Group&gt;">
						<g id="&lt;Group&gt;">
							<path id="&lt;Path&gt;" class="s10" d="m397.5 383.7c0 3-2.5 5.4-5.5 5.4h-154.7c-3.1 0-5.5-2.4-5.5-5.4v-81.4c0-3 2.4-5.4 5.5-5.4h154.7c3 0 5.5 2.4 5.5 5.4z"/>
							<path id="&lt;Path&gt;" class="s13" d="m392 296.9h-154.7q-1.2 0-2.2 0.4l74.5 54c2.7 2 7.3 2 10.1 0l74.5-54q-1-0.4-2.2-0.4z"/>
						</g>
						<path id="&lt;Path&gt;" class="s7" d="m392 296.9h-27.9c-6.9 57.3-51.8 81.8-85.8 92.2h113.7c3 0 5.5-2.4 5.5-5.4v-81.4c0-3-2.5-5.4-5.5-5.4z"/>
					</g>
					<g id="&lt;Group&gt;">
						<g id="&lt;Group&gt;">
							<path id="&lt;Path&gt;" class="s3" d="m318.6 221.3c-14.9 30.6-48.1 37.4-48.1 37.4 6.3 54.6 48.1 65.9 48.1 65.9 0 0 41.7-11.3 48.1-65.9 0 0-33.3-6.8-48.1-37.4z"/>
							<path id="&lt;Path&gt;" class="s6" d="m318.6 245.6c-9.1 18.7-29.4 22.8-29.4 22.8 3.9 33.3 29.4 40.2 29.4 40.2 0 0 25.4-6.9 29.3-40.2 0 0-20.3-4.1-29.3-22.8z"/>
							<path id="&lt;Path&gt;" class="s0" d="m331.4 268.5q-6.7 8.1-13.3 16.3-4.2-3.2-8.4-6.4c-2.7-2-5.3 2.5-2.7 4.5q5.2 3.8 10.3 7.7c0.8 0.7 2.4 0.4 3.1-0.4q7.3-9 14.6-18.1c2.1-2.6-1.5-6.2-3.6-3.6z"/>
						</g>
						<path id="&lt;Path&gt;" class="s7" d="m291 306.4c13.2 14.3 27.6 18.2 27.6 18.2 0 0 41.7-11.3 48.1-65.9 0 0-10.3-2.1-22-9.3-9.4 33.9-37.1 50.1-53.7 57z"/>
					</g>
				</g>
			</g>
		</g>
		<g id="&lt;Group&gt;">
			<g id="&lt;Group&gt;">
				<g id="&lt;Group&gt;">
					<path id="&lt;Path&gt;" class="s5" d="m186.9 468.3c-3 0-5.9 0.4-8.5 1.3-4.2-16.6-19.1-28.8-37-28.8-21 0-38 17-38 38.1q0 2.3 0.2 4.5-2-0.4-4.1-0.4c-11.3 0-20.5 9.2-20.5 20.5 0 11.4 9.2 20.6 20.5 20.6h87.4c15.4 0 27.9-12.5 27.9-27.9 0-15.4-12.5-27.9-27.9-27.9z"/>
					<g id="&lt;Group&gt;">
						<path id="&lt;Path&gt;" class="s12" d="m201.1 472.2c1.8 3.7 2.8 7.7 2.8 12.1 0 15.4-12.5 27.9-27.9 27.9h-87.4c-3 0-5.9-0.7-8.5-1.9 2.8 8 10.5 13.8 19.4 13.8h87.4c15.4 0 27.9-12.5 27.9-27.9 0-10.2-5.5-19.1-13.7-24z"/>
					</g>
				</g>
				<g id="&lt;Group&gt;">
					<path id="&lt;Path&gt;" class="s3" d="m168.4 488.3l-8.7-11.1-8.7 11.1h5.3v8.7h6.8v-8.7z"/>
					<path id="&lt;Path&gt;" class="s3" d="m121.4 487.6l8.7 11.1 8.6-11.1h-5.2v-8.7h-6.8v8.7z"/>
				</g>
			</g>
			<g id="&lt;Group&gt;">
				<g id="&lt;Group&gt;">
					<g id="&lt;Group&gt;">
						<path id="&lt;Path&gt;" class="s5" d="m693.6 255.6c-2.8 0-5.5 0.4-8 1.2-3.9-15.6-18-27.1-34.8-27.1-19.9 0-36 16-36 35.9q0 2.1 0.3 4.2-1.9-0.4-3.9-0.4c-10.7 0-19.4 8.7-19.4 19.4 0 10.7 8.7 19.4 19.4 19.4h82.4c14.5 0 26.3-11.8 26.3-26.3 0-14.5-11.8-26.3-26.3-26.3z"/>
						<g id="&lt;Group&gt;">
							<path id="&lt;Path&gt;" class="s12" d="m707 259.3c1.7 3.4 2.6 7.3 2.6 11.4 0 14.5-11.8 26.3-26.3 26.3h-82.4c-2.8 0-5.5-0.7-8-1.8 2.7 7.6 9.9 13 18.3 13h82.4c14.5 0 26.3-11.8 26.3-26.3 0-9.6-5.2-18-12.9-22.6z"/>
						</g>
					</g>
				</g>
				<path id="&lt;Path&gt;" class="s3" d="m664.1 270.4l-10.6-13.6-10.6 13.6h6.4v10.6h8.3v-10.6z"/>
			</g>
			<g id="&lt;Group&gt;">
				<g id="&lt;Group&gt;">
					<g id="&lt;Group&gt;">
						<path id="&lt;Path&gt;" class="s5" d="m879.2 534.2q-3 0-5.6 0.8c-2.7-10.8-12.6-18.9-24.3-18.9-13.8 0-25 11.2-25 25q0 1.5 0.2 3-1.3-0.3-2.7-0.3c-7.4 0-13.5 6.1-13.5 13.5 0 7.5 6.1 13.5 13.5 13.5h57.4c10.1 0 18.3-8.2 18.3-18.3 0-10.1-8.2-18.3-18.3-18.3z"/>
						<g id="&lt;Group&gt;">
							<path id="&lt;Path&gt;" class="s12" d="m888.5 536.7c1.2 2.4 1.8 5.1 1.8 8 0 10.1-8.2 18.3-18.3 18.3h-57.3c-2 0-3.9-0.5-5.6-1.2 1.8 5.2 6.8 9 12.7 9h57.4c10.1 0 18.3-8.2 18.3-18.3 0-6.7-3.6-12.6-9-15.8z"/>
						</g>
					</g>
				</g>
				<path id="&lt;Path&gt;" class="s3" d="m842.8 542.4l7.8 10 7.9-10h-4.8v-7.8h-6.1v7.8z"/>
			</g>
		</g>
		<g id="&lt;Group&gt;">
			<g id="&lt;Group&gt;">
				<g id="&lt;Group&gt;">
					<g id="&lt;Group&gt;">
						<g id="&lt;Group&gt;">
							<path id="&lt;Path&gt;" class="s14" d="m165 329.5h-2v-11.6h2z"/>
						</g>
						<g id="&lt;Group&gt;">
							<path id="&lt;Path&gt;" class="s14" d="m165 353.6h-2v-11.6h2z"/>
						</g>
					</g>
					<g id="&lt;Group&gt;">
						<g id="&lt;Group&gt;">
							<path id="&lt;Path&gt;" class="s14" d="m181.8 336.7h-11.6v-2h11.6z"/>
						</g>
						<g id="&lt;Group&gt;">
							<path id="&lt;Path&gt;" class="s14" d="m157.8 336.7h-11.6v-2h11.6z"/>
						</g>
					</g>
				</g>
				<g id="&lt;Group&gt;">
					<g id="&lt;Group&gt;">
						<g id="&lt;Group&gt;">
							<path id="&lt;Path&gt;" class="s14" d="m169.1 332l-1.4-1.4 8.2-8.2 1.4 1.4z"/>
						</g>
						<g id="&lt;Group&gt;">
							<path id="&lt;Path&gt;" class="s14" d="m152.1 349l-1.4-1.4 8.2-8.2 1.4 1.4z"/>
						</g>
					</g>
					<g id="&lt;Group&gt;">
						<g id="&lt;Group&gt;">
							<path id="&lt;Path&gt;" class="s14" d="m175.9 349l-8.2-8.2 1.4-1.4 8.2 8.2z"/>
						</g>
						<g id="&lt;Group&gt;">
							<path id="&lt;Path&gt;" class="s14" d="m158.9 332l-8.2-8.2 1.4-1.4 8.2 8.2z"/>
						</g>
					</g>
				</g>
			</g>
			<g id="&lt;Group&gt;">
				<g id="&lt;Group&gt;">
					<g id="&lt;Group&gt;">
						<g id="&lt;Group&gt;">
							<path id="&lt;Path&gt;" class="s14" d="m214 262.6h-1.2v-7.1h1.2z"/>
						</g>
						<g id="&lt;Group&gt;">
							<path id="&lt;Path&gt;" class="s14" d="m214 277.4h-1.2v-7.2h1.2z"/>
						</g>
					</g>
					<g id="&lt;Group&gt;">
						<g id="&lt;Group&gt;">
							<path id="&lt;Path&gt;" class="s14" d="m224.3 267h-7.1v-1.2h7.1z"/>
						</g>
						<g id="&lt;Group&gt;">
							<path id="&lt;Path&gt;" class="s14" d="m209.6 267h-7.2v-1.2h7.2z"/>
						</g>
					</g>
				</g>
				<g id="&lt;Group&gt;">
					<g id="&lt;Group&gt;">
						<g id="&lt;Group&gt;">
							<path id="&lt;Path&gt;" class="s14" d="m216.5 264.2l-0.8-0.9 5-5 0.8 0.8z"/>
						</g>
						<g id="&lt;Group&gt;">
							<path id="&lt;Path&gt;" class="s14" d="m206.1 274.6l-0.9-0.9 5-5 0.9 0.9z"/>
						</g>
					</g>
					<g id="&lt;Group&gt;">
						<g id="&lt;Group&gt;">
							<path id="&lt;Path&gt;" class="s14" d="m220.7 274.6l-5-5 0.8-0.9 5 5z"/>
						</g>
						<g id="&lt;Group&gt;">
							<path id="&lt;Path&gt;" class="s14" d="m210.2 264.2l-5-5.1 0.9-0.8 5 5z"/>
						</g>
					</g>
				</g>
			</g>
			<g id="&lt;Group&gt;">
				<g id="&lt;Group&gt;">
					<g id="&lt;Group&gt;">
						<g id="&lt;Group&gt;">
							<path id="&lt;Path&gt;" class="s14" d="m904.2 478.6h-2v-11.6h2z"/>
						</g>
						<g id="&lt;Group&gt;">
							<path id="&lt;Path&gt;" class="s14" d="m904.2 502.6h-2v-11.6h2z"/>
						</g>
					</g>
					<g id="&lt;Group&gt;">
						<g id="&lt;Group&gt;">
							<path id="&lt;Path&gt;" class="s14" d="m921 485.8h-11.6v-2h11.6z"/>
						</g>
						<g id="&lt;Group&gt;">
							<path id="&lt;Path&gt;" class="s14" d="m897 485.8h-11.6v-2h11.6z"/>
						</g>
					</g>
				</g>
				<g id="&lt;Group&gt;">
					<g id="&lt;Group&gt;">
						<g id="&lt;Group&gt;">
							<path id="&lt;Path&gt;" class="s14" d="m908.3 481.1l-1.4-1.4 8.2-8.2 1.4 1.4z"/>
						</g>
						<g id="&lt;Group&gt;">
							<path id="&lt;Path&gt;" class="s14" d="m891.3 498.1l-1.4-1.4 8.2-8.2 1.4 1.4z"/>
						</g>
					</g>
					<g id="&lt;Group&gt;">
						<g id="&lt;Group&gt;">
							<path id="&lt;Path&gt;" class="s14" d="m915.1 498.1l-8.2-8.2 1.4-1.4 8.2 8.2z"/>
						</g>
						<g id="&lt;Group&gt;">
							<path id="&lt;Path&gt;" class="s14" d="m898.1 481.1l-8.2-8.2 1.4-1.4 8.2 8.2z"/>
						</g>
					</g>
				</g>
			</g>
			<g id="&lt;Group&gt;">
				<g id="&lt;Group&gt;">
					<g id="&lt;Group&gt;">
						<g id="&lt;Group&gt;">
							<path id="&lt;Path&gt;" class="s14" d="m867.3 606.8h-1.2v-7.1h1.2z"/>
						</g>
						<g id="&lt;Group&gt;">
							<path id="&lt;Path&gt;" class="s14" d="m867.3 621.5h-1.2v-7.1h1.2z"/>
						</g>
					</g>
					<g id="&lt;Group&gt;">
						<g id="&lt;Group&gt;">
							<path id="&lt;Path&gt;" class="s14" d="m877.7 611.2h-7.1v-1.2h7.1z"/>
						</g>
						<g id="&lt;Group&gt;">
							<path id="&lt;Path&gt;" class="s14" d="m862.9 611.2h-7.1v-1.2h7.1z"/>
						</g>
					</g>
				</g>
				<g id="&lt;Group&gt;">
					<g id="&lt;Group&gt;">
						<g id="&lt;Group&gt;">
							<path id="&lt;Path&gt;" class="s14" d="m869.9 608.3l-0.9-0.8 5-5.1 0.9 0.9z"/>
						</g>
						<g id="&lt;Group&gt;">
							<path id="&lt;Path&gt;" class="s14" d="m859.4 618.8l-0.8-0.9 5-5 0.9 0.8z"/>
						</g>
					</g>
					<g id="&lt;Group&gt;">
						<g id="&lt;Group&gt;">
							<path id="&lt;Path&gt;" class="s14" d="m874 618.8l-5-5.1 0.9-0.8 5 5z"/>
						</g>
						<g id="&lt;Group&gt;">
							<path id="&lt;Path&gt;" class="s14" d="m863.6 608.3l-5-5 0.8-0.9 5.1 5.1z"/>
						</g>
					</g>
				</g>
			</g>
			<g id="&lt;Group&gt;">
				<g id="&lt;Group&gt;">
					<g id="&lt;Group&gt;">
						<g id="&lt;Group&gt;">
							<path id="&lt;Path&gt;" class="s14" d="m454.8 187.6h-2.7v-15.7h2.7z"/>
						</g>
						<g id="&lt;Group&gt;">
							<path id="&lt;Path&gt;" class="s14" d="m454.8 220.1h-2.7v-15.7h2.7z"/>
						</g>
					</g>
					<g id="&lt;Group&gt;">
						<g id="&lt;Group&gt;">
							<path id="&lt;Path&gt;" class="s14" d="m477.5 197.3h-15.7v-2.7h15.7z"/>
						</g>
						<g id="&lt;Group&gt;">
							<path id="&lt;Path&gt;" class="s14" d="m445 197.3h-15.7v-2.7h15.7z"/>
						</g>
					</g>
				</g>
				<g id="&lt;Group&gt;">
					<g id="&lt;Group&gt;">
						<g id="&lt;Group&gt;">
							<path id="&lt;Path&gt;" class="s14" d="m460.3 191l-1.9-1.9 11.1-11.1 1.9 1.9z"/>
						</g>
						<g id="&lt;Group&gt;">
							<path id="&lt;Path&gt;" class="s14" d="m437.3 214l-1.9-1.9 11.1-11.1 1.9 1.9z"/>
						</g>
					</g>
					<g id="&lt;Group&gt;">
						<g id="&lt;Group&gt;">
							<path id="&lt;Path&gt;" class="s14" d="m469.5 214l-11.1-11.1 1.9-1.9 11.1 11.1z"/>
						</g>
						<g id="&lt;Group&gt;">
							<path id="&lt;Path&gt;" class="s14" d="m446.5 191l-11.1-11.1 1.9-1.9 11.1 11.1z"/>
						</g>
					</g>
				</g>
			</g>
			<g id="&lt;Group&gt;">
				<g id="&lt;Group&gt;">
					<g id="&lt;Group&gt;">
						<g id="&lt;Group&gt;">
							<path id="&lt;Path&gt;" class="s14" d="m868 306.5h-1.3v-7.1h1.3z"/>
						</g>
						<g id="&lt;Group&gt;">
							<path id="&lt;Path&gt;" class="s14" d="m868 321.3h-1.3v-7.1h1.3z"/>
						</g>
					</g>
					<g id="&lt;Group&gt;">
						<g id="&lt;Group&gt;">
							<path id="&lt;Path&gt;" class="s14" d="m878.3 311h-7.1v-1.2h7.1z"/>
						</g>
						<g id="&lt;Group&gt;">
							<path id="&lt;Path&gt;" class="s14" d="m863.5 311h-7.1v-1.2h7.1z"/>
						</g>
					</g>
				</g>
				<g id="&lt;Group&gt;">
					<g id="&lt;Group&gt;">
						<g id="&lt;Group&gt;">
							<path id="&lt;Path&gt;" class="s14" d="m870.5 308.1l-0.9-0.9 5.1-5 0.8 0.9z"/>
						</g>
						<g id="&lt;Group&gt;">
							<path id="&lt;Path&gt;" class="s14" d="m860 318.5l-0.8-0.8 5-5.1 0.9 0.9z"/>
						</g>
					</g>
					<g id="&lt;Group&gt;">
						<g id="&lt;Group&gt;">
							<path id="&lt;Path&gt;" class="s14" d="m874.7 318.5l-5.1-5 0.9-0.9 5 5.1z"/>
						</g>
						<g id="&lt;Group&gt;">
							<path id="&lt;Path&gt;" class="s14" d="m864.2 308.1l-5-5 0.8-0.9 5.1 5z"/>
						</g>
					</g>
				</g>
			</g>
			<g id="&lt;Group&gt;">
				<g id="&lt;Group&gt;">
					<g id="&lt;Group&gt;">
						<g id="&lt;Group&gt;">
							<path id="&lt;Path&gt;" class="s14" d="m758.1 225.1h-2v-11.6h2z"/>
						</g>
						<g id="&lt;Group&gt;">
							<path id="&lt;Path&gt;" class="s14" d="m758.1 249.1h-2v-11.6h2z"/>
						</g>
					</g>
					<g id="&lt;Group&gt;">
						<g id="&lt;Group&gt;">
							<path id="&lt;Path&gt;" class="s14" d="m774.9 232.3h-11.6v-2h11.6z"/>
						</g>
						<g id="&lt;Group&gt;">
							<path id="&lt;Path&gt;" class="s14" d="m750.9 232.3h-11.6v-2h11.6z"/>
						</g>
					</g>
				</g>
				<g id="&lt;Group&gt;">
					<g id="&lt;Group&gt;">
						<g id="&lt;Group&gt;">
							<path id="&lt;Path&gt;" class="s14" d="m762.2 227.6l-1.4-1.4 8.2-8.2 1.4 1.4z"/>
						</g>
						<g id="&lt;Group&gt;">
							<path id="&lt;Path&gt;" class="s14" d="m745.2 244.6l-1.4-1.4 8.2-8.2 1.4 1.4z"/>
						</g>
					</g>
					<g id="&lt;Group&gt;">
						<g id="&lt;Group&gt;">
							<path id="&lt;Path&gt;" class="s14" d="m769 244.6l-8.2-8.2 1.4-1.4 8.2 8.2z"/>
						</g>
						<g id="&lt;Group&gt;">
							<path id="&lt;Path&gt;" class="s14" d="m752 227.6l-8.2-8.2 1.4-1.4 8.2 8.2z"/>
						</g>
					</g>
				</g>
			</g>
			<g id="&lt;Group&gt;">
				<g id="&lt;Group&gt;">
					<g id="&lt;Group&gt;">
						<g id="&lt;Group&gt;">
							<path id="&lt;Path&gt;" class="s14" d="m95 409.4h-1.2v-7.1h1.2z"/>
						</g>
						<g id="&lt;Group&gt;">
							<path id="&lt;Path&gt;" class="s14" d="m95 424.2h-1.2v-7.1h1.2z"/>
						</g>
					</g>
					<g id="&lt;Group&gt;">
						<g id="&lt;Group&gt;">
							<path id="&lt;Path&gt;" class="s14" d="m105.3 413.9h-7.1v-1.3h7.1z"/>
						</g>
						<g id="&lt;Group&gt;">
							<path id="&lt;Path&gt;" class="s14" d="m90.6 413.9h-7.2v-1.3h7.2z"/>
						</g>
					</g>
				</g>
				<g id="&lt;Group&gt;">
					<g id="&lt;Group&gt;">
						<g id="&lt;Group&gt;">
							<path id="&lt;Path&gt;" class="s14" d="m97.5 411l-0.9-0.9 5.1-5 0.8 0.8z"/>
						</g>
						<g id="&lt;Group&gt;">
							<path id="&lt;Path&gt;" class="s14" d="m87.1 421.4l-0.9-0.9 5-5 0.9 0.9z"/>
						</g>
					</g>
					<g id="&lt;Group&gt;">
						<g id="&lt;Group&gt;">
							<path id="&lt;Path&gt;" class="s14" d="m101.7 421.4l-5.1-5 0.9-0.9 5 5z"/>
						</g>
						<g id="&lt;Group&gt;">
							<path id="&lt;Path&gt;" class="s14" d="m91.2 411l-5-5.1 0.9-0.8 5 5z"/>
						</g>
					</g>
				</g>
			</g>
			<path id="&lt;Path&gt;" class="s14" d="m161.2 215.4c0 2.2-1.8 4.1-4.1 4.1-2.2 0-4-1.9-4-4.1 0-2.2 1.8-4.1 4-4.1 2.3 0 4.1 1.9 4.1 4.1z"/>
			<path id="&lt;Path&gt;" class="s14" d="m259.8 143.4c0 3-2.4 5.3-5.3 5.3-3 0-5.3-2.3-5.3-5.3 0-2.9 2.3-5.3 5.3-5.3 2.9 0 5.3 2.4 5.3 5.3z"/>
			<path id="&lt;Path&gt;" class="s14" d="m914.8 641c0 2.9-2.4 5.3-5.4 5.3-2.9 0-5.3-2.4-5.3-5.3 0-2.9 2.4-5.3 5.3-5.3 3 0 5.4 2.4 5.4 5.3z"/>
			<path id="&lt;Path&gt;" class="s14" d="m825 245.6c0 2.2-1.8 4-4 4-2.3 0-4.1-1.8-4.1-4 0-2.3 1.8-4.1 4.1-4.1 2.2 0 4 1.8 4 4.1z"/>
			<path id="&lt;Path&gt;" class="s14" d="m514.6 247.9c0 2.3-1.9 4.1-4.1 4.1-2.2 0-4.1-1.8-4.1-4.1 0-2.2 1.9-4 4.1-4 2.2 0 4.1 1.8 4.1 4z"/>
			<path id="&lt;Path&gt;" class="s14" d="m643.5 158.9c0 2.9-2.4 5.3-5.3 5.3-2.9 0-5.3-2.4-5.3-5.3 0-3 2.4-5.4 5.3-5.4 2.9 0 5.3 2.4 5.3 5.4z"/>
			<path id="&lt;Path&gt;" class="s14" d="m104.9 599.7c0 2.9-2.4 5.3-5.3 5.3-2.9 0-5.3-2.4-5.3-5.3 0-3 2.4-5.3 5.3-5.3 2.9 0 5.3 2.3 5.3 5.3z"/>
			<path id="&lt;Path&gt;" class="s14" d="m357.9 201c0 2.2-1.8 4-4.1 4-2.2 0-4-1.8-4-4 0-2.3 1.8-4.1 4-4.1 2.3 0 4.1 1.8 4.1 4.1z"/>
		</g>
	</g>
</svg>