<svg version="1.2" xmlns="http://www.w3.org/2000/svg" viewBox="0 0 1000 1000" width="1000" height="1000">
	<title>6380326-ai</title>
	<style>
		.s0 { fill: #3d3d3d } 
	</style>
	<g id="OBJECTS">
		<filter id="f0">
			<feFlood flood-color="#754ffe" flood-opacity="1" />
			<feBlend mode="normal" in2="SourceGraphic"/>
			<feComposite in2="SourceAlpha" operator="in" />
		</filter>
		<g id="&lt;Group&gt;" filter="url(#f0)">
			<g id="&lt;Group&gt;">
				<g id="&lt;Group&gt;">
					<g id="&lt;Group&gt;">
						<path id="&lt;Compound Path&gt;" fill-rule="evenodd" class="s0" d="m770 514.7c-1.4 27.9-21.1 57.9-60.6 57.9h-153.2c-3 0-5.4-2.4-5.4-5.4v-127.1c0-3 2.4-5.4 5.4-5.4h10.5l-37.3-37.3-37.2 37.2h7.8c3 0 5.3 2.4 5.3 5.4v57.6c8.4 2.4 14.1 10 14.1 18.7 0 10.6-8.7 19.3-19.4 19.3-10.7 0-19.4-8.7-19.4-19.3 0-8.7 5.8-16.3 14.1-18.7v-52.3h-15.5c-2.1 0-4.1-1.3-4.9-3.3-0.8-2-0.4-4.3 1.2-5.8l50.1-50.1c1.9-2 5.6-2 7.6 0l50.2 50.2c1.5 1.5 2 3.8 1.2 5.8-0.9 2-2.8 3.3-5 3.3h-18.1v116.5h147.9c32.6 0 48.7-24.8 50-47.7 1.2-23.5-12-48.7-44.2-52.1l-1.8-0.2c-2.7-0.2-4.9-2.6-4.8-5.4q0-0.3 0-0.6c0-10.8-4.2-21.1-11.9-28.8-7.8-7.7-18-12-28.9-12-8.9 0-17.3 2.9-24.5 8.2-1.4 1.1-3.2 1.4-4.9 0.8-1.6-0.5-2.9-1.8-3.4-3.5-1.2-3.9-2.5-7.8-4-11.5q-0.4 0-0.9 0c-8.3 0-15-6.8-15-15.1 0-8.2 6.7-15 15-15 8.3 0 15 6.8 15 15 0 4-1.6 7.8-4.4 10.7 0.9 2.2 1.7 4.2 2.4 6.1 7.5-4.2 16-6.4 24.7-6.4 26.8 0 49.2 20.8 51.4 47.4 36.9 5.4 52.3 36.3 50.8 62.9zm-270 10.2c4.8 0 8.7-3.9 8.7-8.6 0-4.8-3.9-8.7-8.7-8.7-4.8 0-8.7 3.9-8.7 8.7 0 4.7 3.9 8.6 8.7 8.6z"/>
						<path id="&lt;Compound Path&gt;" fill-rule="evenodd" class="s0" d="m356.7 423.3c-7.2-5.3-15.6-8.2-24.5-8.2-22.5 0-40.8 18.3-40.8 40.8q0 0.3 0 0.6c0.1 2.8-2.1 5.2-4.8 5.4l-1.8 0.2c-32.2 3.4-45.4 28.6-44.2 52.1 1.3 22.9 17.4 47.7 50 47.7h8c2.2-5.9 7.8-9.7 14.1-9.7 8.3 0 15 6.7 15 15 0 8.3-6.7 15-15 15-6.3 0-11.9-3.8-14.1-9.6h-8c-39.5 0-59.2-30-60.6-57.9-1.4-26.6 13.9-57.5 50.8-62.9 2.2-26.6 24.6-47.4 51.4-47.4 8.7 0 17.2 2.2 24.7 6.4 8.1-23 21.9-43.9 40-60.4q-0.9-2.9-0.9-6c0-10.7 8.6-19.4 19.3-19.4 10.7 0 19.4 8.7 19.4 19.4 0 10.7-8.7 19.4-19.4 19.4-4.5 0-8.8-1.6-12.3-4.5-17.9 16.7-31.1 37.9-38 61.3-0.5 1.7-1.8 3-3.4 3.5-1.7 0.6-3.5 0.3-4.9-0.8zm58.6-70.2c4.8 0 8.7-3.9 8.7-8.7 0-4.8-3.9-8.7-8.7-8.7-4.8 0-8.7 3.9-8.7 8.7 0 4.8 3.9 8.7 8.7 8.7z"/>
						<g id="&lt;Group&gt;">
							<path id="&lt;Path&gt;" class="s0" d="m613.9 375.4c-1.6 0-3.1-0.6-4.2-1.9-27.1-32.9-67-51.7-109.6-51.7-3 0-5.4-2.4-5.4-5.4 0-3 2.4-5.4 5.4-5.4 45.8 0 88.8 20.3 117.9 55.6 1.9 2.3 1.6 5.7-0.7 7.6-1 0.8-2.2 1.2-3.4 1.2z"/>
						</g>
						<g id="&lt;Group&gt;">
							<path id="&lt;Path&gt;" class="s0" d="m443.4 333.1c-2.1 0-4.1-1.2-5-3.3-1.1-2.8 0.2-5.9 2.9-7.1 9.5-3.9 19.5-6.9 29.6-8.9 2.9-0.6 5.8 1.3 6.3 4.3 0.6 2.9-1.3 5.7-4.2 6.3-9.4 1.8-18.7 4.6-27.5 8.3q-1 0.4-2.1 0.4z"/>
						</g>
						<path id="&lt;Path&gt;" class="s0" d="m528.2 630.7c-0.8-2-2.7-3.3-4.9-3.3h-18v-31.2c5.7-2.1 9.7-7.6 9.7-14 0-8.2-6.7-14.9-15-14.9-8.3 0-15 6.7-15 14.9 0 6.4 4 11.9 9.7 14v36.5c0 3 2.4 5.4 5.3 5.4h10.4l-37.9 37.8-38.4-38.4h10.7c2.9 0 5.3-2.4 5.3-5.4v-64.9c0-2.9-2.4-5.3-5.3-5.3h-81.2c-3 0-5.4 2.4-5.4 5.3 0 3 2.4 5.4 5.4 5.4h75.8v54.2h-18.2c-2.2 0-4.1 1.3-5 3.3-0.8 2-0.3 4.3 1.2 5.8l51.4 51.4c1 1 2.3 1.5 3.7 1.5 1.5 0 2.8-0.5 3.8-1.5l50.8-50.8c1.5-1.5 2-3.8 1.1-5.8z"/>
					</g>
				</g>
			</g>
		</g>
	</g>
</svg>