<svg version="1.2" xmlns="http://www.w3.org/2000/svg" viewBox="0 0 900 900" width="900" height="900">
	<title>snigdhaos-forum-banner</title>
	<style>
		.s0 { fill: #a8a8a8 } 
		.s1 { fill: #3f3f3f } 
	</style>
	<g id="_Artboards_">
	</g>
	<g id="layer">
		<filter id="f0">
			<feFlood flood-color="#754ffe" flood-opacity="1" />
			<feBlend mode="normal" in2="SourceGraphic"/>
			<feComposite in2="SourceAlpha" operator="in" />
		</filter>
		<g id="&lt;Group&gt;" filter="url(#f0)">
			<g id="&lt;Group&gt;">
				<path id="&lt;Compound Path&gt;" fill-rule="evenodd" class="s0" d="m420 766.8q-0.1 0-0.1 0l-65.1-12.8q-0.1 0-0.2-0.1 0-0.1 0.1-0.2l3.3-5.5-58.8-17.6q0 0 0 0 0 0 0-0.1 0 0 0 0 0 0 0 0 0 0 0 0 0 0 0 0 0 0 0 0l-72.7-53.6q0 0 0 0 0 0 0 0 0 0 0 0 0 0 0 0 0 0 0 0 0 0 0 0-0.1 0-0.1 0 0 0 0 0 0 0 0 0 0 0 0 0 0 0 0 0 0 0 0 0 0 0 0 0 0 0 0 0 0 0 0 0 0 0 0 0 0 0 0 0l-59.3-79.7q-0.1-0.1 0-0.2 0-0.1 0.1-0.1l14.8 0.5-43.4-77.6q0-0.1 0-0.1 0 0 0 0 0 0 0-0.1l45.7-155.5-52 55.9q-0.1 0.1-0.2 0-0.1 0-0.1-0.2l17.2-78q0-0.1 0-0.1 0 0 0 0 0 0 0 0l74.9-121.1q0-0.1 0.1-0.1 0 0 0 0 0 0 0 0 0 0 0 0l76.5-53.8q0.1 0 0.1 0 0 0 0 0 0 0 0 0 0-0.1 0-0.1l87.7-31.6q0 0 0 0 0 0 0.1 0l103-2.7q0.1 0 0.1 0 0 0 0 0 0 0 0 0l78 17.8q0 0 0 0 0.1 0 0.1 0l53.7 30.6q0 0 0.1 0l60.8 51.3q0.1 0 0.1 0.1l50.7 73.3q0.1 0 0.1 0 0 0 0 0 0 0 0 0l17.1 43.9c0 0.1 0 0.2-0.1 0.2q-0.1 0.1-0.2 0l-17-18.5-0.1 34.4 26.5 12.1q0.1 0.1 0.1 0.2l7.5 55.8q0 0.1 0 0.1 0 0 0 0l-20.1 84.9 11.4 6.1c0.1 0.1 0.1 0.2 0.1 0.3l-32.3 81.1q0 0 0 0 0 0 0 0 0 0 0 0 0 0 0 0 0 0 0 0l-56.9 74.2q0 0 0 0 0 0 0 0 0 0 0 0 0 0 0 0 0 0 0 0 0 0 0 0 0 0.1 0 0.1l-67.6 48.8q0 0-0.1 0l-74 29.4c-0.1 0-0.2 0-0.3-0.1l-6.8-12.7-27.7 5.7-4.6 14.4q-0.1 0.2-0.2 0.2l-70 0.8q0 0 0 0zm74.3-15.3l-72.2 14.9 67.7-0.8zm-135.7-3.6l61.1 18.3-7.9-52.5-35.8 5.2zm140.1-46.7l-78 65 73.8-15.2 11.5-36.1zm-86.5 12.4l8 52.5 77.9-64.9zm-57 39.9l60.9 12-57.7-17.3zm167.8-8l6.7 12.4 71.7-28.5zm-16.6-30.2l-11.4 35.6 27.4-5.7zm-206 15l57.9 17.4 17.3-28.8-25.7 3.7zm206.2-15.5l16.4 30.4 79.9-16.4-92.8-24.8zm-220.5-15.8l13.5 31.1 49.5-7.7zm-58.1-21.6l71 52.3-13.5-30.9zm282.2 26.3l93.1 24.8-20.1-37.6-71.7 8.7zm103.5-16.5l-9.6 41.1 66.5-48zm-30 3.6l20 37.5 9.6-41zm-250-51.9l16.4 83.3 25.9-3.8 29.2-48.7zm-47.7 59.5l63.7 23.7-16.4-83.4-90.1-38.8zm119.5-28.2l-29 48.1 35.5-5.1zm93.9 31l7.1 13.1 3.3-10.4zm-93.6-31.2l6.6 43.2 85.8-12.4zm94.2 31l9.9 2.7 1.2-4zm38.9-88l-39.6 87.7 12-1.5zm-132.8 56.7l92.4 30.9-35.4-56.3zm57.4-25.6l35.5 56.4 40.7-90.4zm76.7-33.8l-28.4 88.9 71.4-8.6zm-313.1 66.3l58.4 21.7-42.6-98.1zm313.5-66.3l43 80.3 29.8-3.7 7.9-33.4zm81 43.4l-7.8 33.2 57-6.9zm0.1-0.4l49.5 26.5-3.5-72.4-35.5 0.7zm46.5-45.9l3.4 71.8 26.8-72.4zm30.7-0.6l-26.7 72.2 55.8-72.8zm-515.9-8.9l43.6 77.9-10.3-76.8zm33.7 1.1l10.2 76.6 15.7-75.7zm-48.7-1.7l57.2 76.9-42.7-76.4zm165.7 41.3l71.8 30.9 18.3-87.5-99.3 9.8zm90.5-56.2l-18.3 87.1 57.1-25.5zm116.8 27.7l80.4 43.1 10.6-45zm-116.5-27.9l38.8 61.7 76.3-33.9zm-180.9 17.6l89.6 38.6-9.1-46.5zm417.9-118.5l-120.9 128.3 91.3-1.9zm-237.2 100.5l115.5 27.8-52.7-159.6zm63-132.1l52.8 159.5 42.7-142.5zm95.9 17.2l-42.7 142.3 121-128.4zm78.5 15.3l-29.4 125.7 35.4-0.7zm0.3-0.6l6.1 125.5 30.4-0.6 12.2-33zm48.9 92.3l-12 32.6 29-0.6zm0.1-0.5l17 31.9 5.8-93.3zm23.1-62.3l-5.7 92.7 20.1-84.9zm14.8 7.9l-20 84.4 31.1-78.4zm-532.5 79.7l25.5 0.9-28.4-21.9zm85.4-119l-58.8 119.8 80.8-7.9zm-88.2 97.4l28.9 22.2-3.5-104.3-35.2 8.8zm25.8-82.2l3.4 104.1 58.7-119.6zm-56.8 102.6l33.5 1.1-2.9-21.3-73.6-56.7zm119.6-118l22 112 99.2-9.8zm0.1-0.4l121.5 102.5 62.8-131.9zm-163 40.7l73.8 56.8-9.8-72.8zm522.9-38.9l48.6 91.8 23-62zm-477.4-116.6l-45.6 155.1 64.2-16.1zm549.6 146.1l14.4 7.8 19.6-82.7zm-72.1-30l71.6 29.8 0.4-61.3zm72.4-31.6l-0.4 60.8 34.4-75.7zm-549.5-84.9l18.6 139.3 35.2-8.8-2.6-80zm51.6 51l2.6 79.4 62.1-15.5zm346.5 51.4l78.1 14-55.5-89.1zm130.9-110l-52 123.8 72.1-31.5 0.4-82.9zm-85.9-39.3l33.6 162.8 52-123.7zm-22.3 73.6l55.4 88.8-33.4-161.9zm-175.5-27.3l-127.9 115.2 184-29.4zm-193.7 50.9l65 64.2 9.5-126.5-76.7-4.7zm74.9-62.4l-9.5 126.5 128.1-115.4-15-22.9zm175.8 97.2l95.4 17.1 22.7-75.5-20.7-33.2zm50.2-167.4l-50.2 166.9 97.2-91.5zm-75.2 52.9l24.7 113.8 50.1-166.7zm272.8 31.2l-0.4 82.5 34.2-14.9-7.6-55.6zm-304.3-2.8l55.8 85.2-24.6-113.3zm-281.1-21.1l-17 77.2 52-55.9 5.2-18.8zm35.4 21.3l51.2 50.6-2.2-66.7-38.5-2.3zm400-6.1l20.5 32.9 21.9-72.8zm129.2-1.4l20.4 9.4 0.2-34.7-6.8-7.5zm-298.6-15.8l14.8 22.6 30.9-27.8zm-225.4 4.4l-4.8 17.4 9.6-17.1zm347.7-62.8l46.9 75.2 42.7-40.1zm90.7 35.1l85.2 38.9 13.9-33-13.7-14.9zm-394.2 30.1l76.4 4.7-78.6-71.1zm134.4-77.7l-57 82.4 103.2-11.8zm-136.3 11.1l78.7 71.1-4.3-77.2zm74.7-6.2l4.3 77.2 56.8-82.2zm428.1 56.4l16.5 18-16.4-41.9zm-539.5 14l38.3 2.4-2.2-66.1zm-5.4-0.3l4.9 0.3 36.1-63.7-29.6 22.1zm-40.3-2.5l39.9 2.5 11.4-40.8zm73.8-119.7l-73.7 119 51.3-38.3zm145.7 47.5l45.9 70.2 46-5.2zm70.5 4.7l22.1 60.1 74.8-52.9zm-70.6-5.2l92.1 65.1-22-59.9zm358.7 53.7l6.7 7.3 0.1-23.5zm-13.6-14.9l13.3 14.6 7-16.7zm-46.8-50.4l-39.5 59 85.5-8.9zm-130 23.8l89.8 35.2-15.1-110.1zm75.1-74.9l15.1 109.8 39.5-59-22.9-25zm55.1 50.7l46.2 50.4 20.5-2.2-64.1-52.1zm2.8-4.2l63.4 51.6-49.8-71.9zm-446.5-31.3l-22.3 80.6 29.8-22.3zm215.5 52.2l97.3 7.2-56.7-112.6-59.6 53.7zm40.9-105.5l56.6 112.3 25.9-105zm82.9 7.4l-25.9 104.9 74.6-74.8-21.3-27.6zm-260.7 31.4l-70.5 72.6 74.3-6.1zm-78.5 13.6l7.6 58.6 40.8-67.2zm49-8.6l-40.5 66.4 69.6-71.5zm95.7 56.4l70.2 5.2-18.9-51.4zm-65.8-61.4l3.7 66.4 61.1-5zm0.1-0.5l65.1 61.6 14.9-100-56.4 18.6zm80.4-38.5l-14.9 100 51.3-46.3-21.5-58.6zm262.7 65.6l21 22.9 2.6-3.8zm-1.9-2l25.6 20.8 13.7-20.4-58.5-21.4zm-19.8-21.6l58.4 21.4-59.8-50.4-8.1 18.6zm-11.4-3.7l29 23.6-17.9-19.5zm-214.4-43.3l21.5 58.5 59.3-53.5-45.9-16.5zm-98.9 4.3l-74.7 52.5 53.4-17.6zm-21.6 35.4l-51.6 17 46.2-8.1zm0.6-0.2l-5.4 9 29.1-5.2-0.6-11.4zm333.6 3l11.3 4.1-8.9-9.7zm-310.1-10.7l0.6 11.3 22.7-19zm288.8-16.8l21 27.2 2.5-5.6-19.5-21.3zm-290.8-10.7l-21.2 34.7 22.7-7.5zm295.3 11.2l19.1 20.8 8.1-18.4zm-295-11.7l1.6 27.7 24.2-8 60.7-50.9zm87.3-31.3l-60.5 50.6 55.7-18.3zm207.3 42.5l26.9 2.4-51.8-29.5zm-4.5-0.4l3.9 0.3-22.4-24.3zm-27.4-2.5l26.9 2.4-20.8-27zm-82-7.3l81.5 7.2 6.2-24.8zm-47.2-16.6l45.6 16.4 11.2-35.1zm57.1-18.8l-11.1 35.2 88-17.6zm-103.1 3.2l-4.7 31.9 14.6-4.9zm0.3-0.4l10 27.3 34.5-11.4zm0.7-0.1l44.4 15.9 56.3-18.5z"/>
			</g>
			<g id="&lt;Group&gt;">
				<path id="&lt;Path&gt;" class="s0" d="m371 268.8c0-1.3-1.1-2.3-2.3-2.3-1.3 0-2.3 1-2.3 2.3 0 1.2 1 2.3 2.3 2.3 1.2 0 2.3-1.1 2.3-2.3z"/>
				<path id="&lt;Path&gt;" class="s0" d="m737.4 305.5c0-1.3-1.1-2.3-2.3-2.3-1.3 0-2.3 1-2.3 2.3 0 1.2 1 2.3 2.3 2.3 1.2 0 2.3-1.1 2.3-2.3z"/>
				<path id="&lt;Path&gt;" class="s0" d="m754.5 349.3c0-1.2-1-2.2-2.3-2.2-1.2 0-2.3 1-2.3 2.2 0 1.3 1.1 2.3 2.3 2.3 1.3 0 2.3-1 2.3-2.3z"/>
				<path id="&lt;Path&gt;" class="s0" d="m572 150.2c0-1.2-1.1-2.2-2.3-2.2-1.3 0-2.3 1-2.3 2.2 0 1.3 1 2.3 2.3 2.3 1.2 0 2.3-1 2.3-2.3z"/>
				<path id="&lt;Path&gt;" class="s0" d="m493.9 132.5c0-1.3-1-2.3-2.2-2.3-1.3 0-2.3 1-2.3 2.3 0 1.2 1 2.3 2.3 2.3 1.2 0 2.2-1.1 2.2-2.3z"/>
				<path id="&lt;Path&gt;" class="s0" d="m226.6 220.7c0-1.3-1-2.3-2.3-2.3-1.3 0-2.3 1-2.3 2.3 0 1.2 1 2.3 2.3 2.3 1.3 0 2.3-1.1 2.3-2.3z"/>
				<path id="&lt;Path&gt;" class="s0" d="m187 363.4c0-1.3-1-2.3-2.3-2.3-1.3 0-2.3 1-2.3 2.3 0 1.2 1 2.3 2.3 2.3 1.3 0 2.3-1.1 2.3-2.3z"/>
				<path id="&lt;Path&gt;" class="s0" d="m234.2 280c0-1.2-1-2.3-2.3-2.3-1.3 0-2.3 1.1-2.3 2.3 0 1.3 1 2.3 2.3 2.3 1.3 0 2.3-1 2.3-2.3z"/>
				<path id="&lt;Path&gt;" class="s0" d="m244.8 599.6c0-1.3-1-2.3-2.3-2.3-1.2 0-2.3 1-2.3 2.3 0 1.3 1.1 2.3 2.3 2.3 1.3 0 2.3-1 2.3-2.3z"/>
				<path id="&lt;Path&gt;" class="s0" d="m407.6 669.8c0-1.3-1.1-2.3-2.3-2.3-1.3 0-2.3 1-2.3 2.3 0 1.2 1 2.2 2.3 2.2 1.2 0 2.3-1 2.3-2.2z"/>
				<path id="&lt;Path&gt;" class="s0" d="m426 581.8c0-1.3-1-2.3-2.3-2.3-1.2 0-2.3 1-2.3 2.3 0 1.3 1.1 2.3 2.3 2.3 1.3 0 2.3-1 2.3-2.3z"/>
				<path id="&lt;Path&gt;" class="s0" d="m244.8 599.6c0-1.3-1-2.3-2.3-2.3-1.2 0-2.3 1-2.3 2.3 0 1.3 1.1 2.3 2.3 2.3 1.3 0 2.3-1 2.3-2.3z"/>
				<path id="&lt;Path&gt;" class="s0" d="m304 478.9c0-1.2-1-2.3-2.3-2.3-1.2 0-2.2 1.1-2.2 2.3 0 1.3 1 2.3 2.2 2.3 1.3 0 2.3-1 2.3-2.3z"/>
				<path id="&lt;Path&gt;" class="s0" d="m352 722.5c0-1.2-1-2.2-2.3-2.2-1.3 0-2.3 1-2.3 2.2 0 1.3 1 2.3 2.3 2.3 1.3 0 2.3-1 2.3-2.3z"/>
				<path id="&lt;Path&gt;" class="s0" d="m501 701c0-1.3-1-2.3-2.3-2.3-1.3 0-2.3 1-2.3 2.3 0 1.2 1 2.3 2.3 2.3 1.3 0 2.3-1.1 2.3-2.3z"/>
				<path id="&lt;Path&gt;" class="s0" d="m422.3 766.6c0-1.3-1.1-2.3-2.3-2.3-1.3 0-2.3 1-2.3 2.3 0 1.2 1 2.3 2.3 2.3 1.2 0 2.3-1.1 2.3-2.3z"/>
				<path id="&lt;Path&gt;" class="s0" d="m407.6 669.8c0-1.3-1.1-2.3-2.3-2.3-1.3 0-2.3 1-2.3 2.3 0 1.2 1 2.2 2.3 2.2 1.2 0 2.3-1 2.3-2.2z"/>
				<path id="&lt;Path&gt;" class="s0" d="m357.1 753.8c0-1.3-1-2.3-2.3-2.3-1.2 0-2.3 1-2.3 2.3 0 1.2 1.1 2.3 2.3 2.3 1.3 0 2.3-1.1 2.3-2.3z"/>
				<path id="&lt;Path&gt;" class="s0" d="m422.3 766.6c0-1.3-1.1-2.3-2.3-2.3-1.3 0-2.3 1-2.3 2.3 0 1.2 1 2.3 2.3 2.3 1.2 0 2.3-1.1 2.3-2.3z"/>
				<path id="&lt;Path&gt;" class="s0" d="m301.6 730.4c0-1.3-1.1-2.3-2.3-2.3-1.3 0-2.3 1-2.3 2.3 0 1.2 1 2.2 2.3 2.2 1.2 0 2.3-1 2.3-2.2z"/>
				<path id="&lt;Path&gt;" class="s0" d="m352 722.5c0-1.2-1-2.2-2.3-2.2-1.3 0-2.3 1-2.3 2.2 0 1.3 1 2.3 2.3 2.3 1.3 0 2.3-1 2.3-2.3z"/>
				<path id="&lt;Path&gt;" class="s0" d="m228.9 676.8c0-1.3-1.1-2.3-2.3-2.3-1.3 0-2.3 1-2.3 2.3 0 1.2 1 2.2 2.3 2.2 1.2 0 2.3-1 2.3-2.2z"/>
				<path id="&lt;Path&gt;" class="s0" d="m301.6 730.4c0-1.3-1.1-2.3-2.3-2.3-1.3 0-2.3 1-2.3 2.3 0 1.2 1 2.2 2.3 2.2 1.2 0 2.3-1 2.3-2.2z"/>
				<path id="&lt;Path&gt;" class="s0" d="m244.8 599.6c0-1.3-1-2.3-2.3-2.3-1.2 0-2.3 1-2.3 2.3 0 1.3 1.1 2.3 2.3 2.3 1.3 0 2.3-1 2.3-2.3z"/>
				<path id="&lt;Path&gt;" class="s0" d="m228.9 676.8c0-1.3-1.1-2.3-2.3-2.3-1.3 0-2.3 1-2.3 2.3 0 1.2 1 2.2 2.3 2.2 1.2 0 2.3-1 2.3-2.2z"/>
				<path id="&lt;Path&gt;" class="s0" d="m169.5 597.1c0-1.3-1-2.3-2.3-2.3-1.2 0-2.2 1-2.2 2.3 0 1.3 1 2.3 2.2 2.3 1.3 0 2.3-1 2.3-2.3z"/>
				<path id="&lt;Path&gt;" class="s0" d="m244.8 599.6c0-1.3-1-2.3-2.3-2.3-1.2 0-2.3 1-2.3 2.3 0 1.3 1.1 2.3 2.3 2.3 1.3 0 2.3-1 2.3-2.3z"/>
				<path id="&lt;Path&gt;" class="s0" d="m141.1 519.7c0-1.3-1.1-2.3-2.3-2.3-1.3 0-2.3 1-2.3 2.3 0 1.3 1 2.3 2.3 2.3 1.2 0 2.3-1 2.3-2.3z"/>
				<path id="&lt;Path&gt;" class="s0" d="m228.9 676.8c0-1.3-1.1-2.3-2.3-2.3-1.3 0-2.3 1-2.3 2.3 0 1.2 1 2.2 2.3 2.2 1.2 0 2.3-1 2.3-2.2z"/>
				<path id="&lt;Path&gt;" class="s0" d="m187 363.4c0-1.3-1-2.3-2.3-2.3-1.3 0-2.3 1-2.3 2.3 0 1.2 1 2.3 2.3 2.3 1.3 0 2.3-1.1 2.3-2.3z"/>
				<path id="&lt;Path&gt;" class="s0" d="m304 478.9c0-1.2-1-2.3-2.3-2.3-1.2 0-2.2 1.1-2.2 2.3 0 1.3 1 2.3 2.2 2.3 1.3 0 2.3-1 2.3-2.3z"/>
				<path id="&lt;Path&gt;" class="s0" d="m141.1 519.7c0-1.3-1.1-2.3-2.3-2.3-1.3 0-2.3 1-2.3 2.3 0 1.3 1 2.3 2.3 2.3 1.2 0 2.3-1 2.3-2.3z"/>
				<path id="&lt;Path&gt;" class="s0" d="m187 363.4c0-1.3-1-2.3-2.3-2.3-1.3 0-2.3 1-2.3 2.3 0 1.2 1 2.3 2.3 2.3 1.3 0 2.3-1.1 2.3-2.3z"/>
				<path id="&lt;Path&gt;" class="s0" d="m134.5 419.9c0-1.3-1-2.3-2.3-2.3-1.3 0-2.3 1-2.3 2.3 0 1.2 1 2.2 2.3 2.2 1.3 0 2.3-1 2.3-2.2z"/>
				<path id="&lt;Path&gt;" class="s0" d="m151.6 341.8c0-1.2-1-2.3-2.3-2.3-1.2 0-2.2 1.1-2.2 2.3 0 1.3 1 2.3 2.2 2.3 1.3 0 2.3-1 2.3-2.3z"/>
				<path id="&lt;Path&gt;" class="s0" d="m313.6 351.8c0-1.3-1-2.3-2.3-2.3-1.3 0-2.3 1-2.3 2.3 0 1.3 1 2.3 2.3 2.3 1.3 0 2.3-1 2.3-2.3z"/>
				<path id="&lt;Path&gt;" class="s0" d="m304 478.9c0-1.2-1-2.3-2.3-2.3-1.2 0-2.2 1.1-2.2 2.3 0 1.3 1 2.3 2.2 2.3 1.3 0 2.3-1 2.3-2.3z"/>
				<path id="&lt;Path&gt;" class="s0" d="m426 581.8c0-1.3-1-2.3-2.3-2.3-1.2 0-2.3 1-2.3 2.3 0 1.3 1.1 2.3 2.3 2.3 1.3 0 2.3-1 2.3-2.3z"/>
				<path id="&lt;Path&gt;" class="s0" d="m501 701c0-1.3-1-2.3-2.3-2.3-1.3 0-2.3 1-2.3 2.3 0 1.2 1 2.3 2.3 2.3 1.3 0 2.3-1.1 2.3-2.3z"/>
				<path id="&lt;Path&gt;" class="s0" d="m407.6 669.8c0-1.3-1.1-2.3-2.3-2.3-1.3 0-2.3 1-2.3 2.3 0 1.2 1 2.2 2.3 2.2 1.2 0 2.3-1 2.3-2.2z"/>
				<path id="&lt;Path&gt;" class="s0" d="m542.1 609.8c0-1.3-1-2.3-2.3-2.3-1.2 0-2.2 1-2.2 2.3 0 1.2 1 2.3 2.2 2.3 1.3 0 2.3-1.1 2.3-2.3z"/>
				<path id="&lt;Path&gt;" class="s0" d="m426 581.8c0-1.3-1-2.3-2.3-2.3-1.2 0-2.3 1-2.3 2.3 0 1.3 1.1 2.3 2.3 2.3 1.3 0 2.3-1 2.3-2.3z"/>
				<path id="&lt;Path&gt;" class="s0" d="m489.1 449.3c0-1.2-1-2.3-2.3-2.3-1.3 0-2.3 1.1-2.3 2.3 0 1.3 1 2.3 2.3 2.3 1.3 0 2.3-1 2.3-2.3z"/>
				<path id="&lt;Path&gt;" class="s0" d="m304 478.9c0-1.2-1-2.3-2.3-2.3-1.2 0-2.2 1.1-2.2 2.3 0 1.3 1 2.3 2.2 2.3 1.3 0 2.3-1 2.3-2.3z"/>
				<path id="&lt;Path&gt;" class="s0" d="m464.2 334.6c0-1.2-1-2.2-2.3-2.2-1.3 0-2.3 1-2.3 2.2 0 1.3 1 2.3 2.3 2.3 1.3 0 2.3-1 2.3-2.3z"/>
				<path id="&lt;Path&gt;" class="s0" d="m313.6 351.8c0-1.3-1-2.3-2.3-2.3-1.3 0-2.3 1-2.3 2.3 0 1.3 1 2.3 2.3 2.3 1.3 0 2.3-1 2.3-2.3z"/>
				<path id="&lt;Path&gt;" class="s0" d="m234.2 280c0-1.2-1-2.3-2.3-2.3-1.3 0-2.3 1.1-2.3 2.3 0 1.3 1 2.3 2.3 2.3 1.3 0 2.3-1 2.3-2.3z"/>
				<path id="&lt;Path&gt;" class="s0" d="m151.6 341.8c0-1.2-1-2.3-2.3-2.3-1.2 0-2.2 1.1-2.2 2.3 0 1.3 1 2.3 2.2 2.3 1.3 0 2.3-1 2.3-2.3z"/>
				<path id="&lt;Path&gt;" class="s0" d="m226.6 220.7c0-1.3-1-2.3-2.3-2.3-1.3 0-2.3 1-2.3 2.3 0 1.2 1 2.3 2.3 2.3 1.3 0 2.3-1.1 2.3-2.3z"/>
				<path id="&lt;Path&gt;" class="s0" d="m234.2 280c0-1.2-1-2.3-2.3-2.3-1.3 0-2.3 1.1-2.3 2.3 0 1.3 1 2.3 2.3 2.3 1.3 0 2.3-1 2.3-2.3z"/>
				<path id="&lt;Path&gt;" class="s0" d="m371 268.8c0-1.3-1.1-2.3-2.3-2.3-1.3 0-2.3 1-2.3 2.3 0 1.2 1 2.3 2.3 2.3 1.2 0 2.3-1.1 2.3-2.3z"/>
				<path id="&lt;Path&gt;" class="s0" d="m313.6 351.8c0-1.3-1-2.3-2.3-2.3-1.3 0-2.3 1-2.3 2.3 0 1.3 1 2.3 2.3 2.3 1.3 0 2.3-1 2.3-2.3z"/>
				<path id="&lt;Path&gt;" class="s0" d="m305.4 206.8c0-1.3-1-2.3-2.3-2.3-1.2 0-2.2 1-2.2 2.3 0 1.2 1 2.2 2.2 2.2 1.3 0 2.3-1 2.3-2.2z"/>
				<path id="&lt;Path&gt;" class="s0" d="m234.2 280c0-1.2-1-2.3-2.3-2.3-1.3 0-2.3 1.1-2.3 2.3 0 1.3 1 2.3 2.3 2.3 1.3 0 2.3-1 2.3-2.3z"/>
				<path id="&lt;Path&gt;" class="s0" d="m303.1 166.8c0-1.2-1-2.3-2.2-2.3-1.3 0-2.3 1.1-2.3 2.3 0 1.3 1 2.3 2.3 2.3 1.2 0 2.2-1 2.2-2.3z"/>
				<path id="&lt;Path&gt;" class="s0" d="m226.6 220.7c0-1.3-1-2.3-2.3-2.3-1.3 0-2.3 1-2.3 2.3 0 1.2 1 2.3 2.3 2.3 1.3 0 2.3-1.1 2.3-2.3z"/>
				<path id="&lt;Path&gt;" class="s0" d="m305.4 206.8c0-1.3-1-2.3-2.3-2.3-1.2 0-2.2 1-2.2 2.3 0 1.2 1 2.2 2.2 2.2 1.3 0 2.3-1 2.3-2.2z"/>
				<path id="&lt;Path&gt;" class="s0" d="m303.1 166.8c0-1.2-1-2.3-2.2-2.3-1.3 0-2.3 1.1-2.3 2.3 0 1.3 1 2.3 2.3 2.3 1.2 0 2.2-1 2.2-2.3z"/>
				<path id="&lt;Path&gt;" class="s0" d="m390.8 135.2c0-1.3-1-2.3-2.2-2.3-1.3 0-2.3 1-2.3 2.3 0 1.2 1 2.2 2.3 2.2 1.2 0 2.2-1 2.2-2.2z"/>
				<path id="&lt;Path&gt;" class="s0" d="m305.4 206.8c0-1.3-1-2.3-2.3-2.3-1.2 0-2.2 1-2.2 2.3 0 1.2 1 2.2 2.2 2.2 1.3 0 2.3-1 2.3-2.2z"/>
				<path id="&lt;Path&gt;" class="s0" d="m371 268.8c0-1.3-1.1-2.3-2.3-2.3-1.3 0-2.3 1-2.3 2.3 0 1.2 1 2.3 2.3 2.3 1.2 0 2.3-1.1 2.3-2.3z"/>
				<path id="&lt;Path&gt;" class="s0" d="m489.1 449.3c0-1.2-1-2.3-2.3-2.3-1.3 0-2.3 1.1-2.3 2.3 0 1.3 1 2.3 2.3 2.3 1.3 0 2.3-1 2.3-2.3z"/>
				<path id="&lt;Path&gt;" class="s0" d="m542.1 609.8c0-1.3-1-2.3-2.3-2.3-1.2 0-2.2 1-2.2 2.3 0 1.2 1 2.3 2.2 2.3 1.3 0 2.3-1.1 2.3-2.3z"/>
				<path id="&lt;Path&gt;" class="s0" d="m492.3 765.8c0-1.3-1.1-2.3-2.3-2.3-1.3 0-2.3 1-2.3 2.3 0 1.2 1 2.3 2.3 2.3 1.2 0 2.3-1.1 2.3-2.3z"/>
				<path id="&lt;Path&gt;" class="s0" d="m422.3 766.6c0-1.3-1.1-2.3-2.3-2.3-1.3 0-2.3 1-2.3 2.3 0 1.2 1 2.3 2.3 2.3 1.2 0 2.3-1.1 2.3-2.3z"/>
				<path id="&lt;Path&gt;" class="s0" d="m605.8 728.9c0-1.3-1-2.3-2.2-2.3-1.3 0-2.3 1-2.3 2.3 0 1.3 1 2.3 2.3 2.3 1.2 0 2.2-1 2.2-2.3z"/>
				<path id="&lt;Path&gt;" class="s0" d="m542.1 609.8c0-1.3-1-2.3-2.3-2.3-1.2 0-2.2 1-2.2 2.3 0 1.2 1 2.3 2.2 2.3 1.3 0 2.3-1.1 2.3-2.3z"/>
				<path id="&lt;Path&gt;" class="s0" d="m501 701c0-1.3-1-2.3-2.3-2.3-1.3 0-2.3 1-2.3 2.3 0 1.2 1 2.3 2.3 2.3 1.3 0 2.3-1.1 2.3-2.3z"/>
				<path id="&lt;Path&gt;" class="s0" d="m531.8 758.3c0-1.3-1-2.3-2.3-2.3-1.2 0-2.3 1-2.3 2.3 0 1.2 1.1 2.3 2.3 2.3 1.3 0 2.3-1.1 2.3-2.3z"/>
				<path id="&lt;Path&gt;" class="s0" d="m605.8 728.9c0-1.3-1-2.3-2.2-2.3-1.3 0-2.3 1-2.3 2.3 0 1.3 1 2.3 2.3 2.3 1.2 0 2.2-1 2.2-2.3z"/>
				<path id="&lt;Path&gt;" class="s0" d="m501 701c0-1.3-1-2.3-2.3-2.3-1.3 0-2.3 1-2.3 2.3 0 1.2 1 2.3 2.3 2.3 1.3 0 2.3-1.1 2.3-2.3z"/>
				<path id="&lt;Path&gt;" class="s0" d="m673.5 680.1c0-1.3-1.1-2.3-2.3-2.3-1.3 0-2.3 1-2.3 2.3 0 1.3 1 2.3 2.3 2.3 1.2 0 2.3-1 2.3-2.3z"/>
				<path id="&lt;Path&gt;" class="s0" d="m663.9 480.5c0-1.2-1-2.3-2.3-2.3-1.2 0-2.3 1.1-2.3 2.3 0 1.3 1.1 2.3 2.3 2.3 1.3 0 2.3-1 2.3-2.3z"/>
				<path id="&lt;Path&gt;" class="s0" d="m605.8 728.9c0-1.3-1-2.3-2.2-2.3-1.3 0-2.3 1-2.3 2.3 0 1.3 1 2.3 2.3 2.3 1.2 0 2.2-1 2.2-2.3z"/>
				<path id="&lt;Path&gt;" class="s0" d="m673.5 680.1c0-1.3-1.1-2.3-2.3-2.3-1.3 0-2.3 1-2.3 2.3 0 1.3 1 2.3 2.3 2.3 1.2 0 2.3-1 2.3-2.3z"/>
				<path id="&lt;Path&gt;" class="s0" d="m542.1 609.8c0-1.3-1-2.3-2.3-2.3-1.2 0-2.2 1-2.2 2.3 0 1.2 1 2.3 2.2 2.3 1.3 0 2.3-1.1 2.3-2.3z"/>
				<path id="&lt;Path&gt;" class="s0" d="m730.3 605.9c0-1.3-1-2.3-2.3-2.3-1.2 0-2.2 1-2.2 2.3 0 1.3 1 2.3 2.2 2.3 1.3 0 2.3-1 2.3-2.3z"/>
				<path id="&lt;Path&gt;" class="s0" d="m673.5 680.1c0-1.3-1.1-2.3-2.3-2.3-1.3 0-2.3 1-2.3 2.3 0 1.3 1 2.3 2.3 2.3 1.2 0 2.3-1 2.3-2.3z"/>
				<path id="&lt;Path&gt;" class="s0" d="m736.2 510.6c0-1.3-1-2.3-2.2-2.3-1.3 0-2.3 1-2.3 2.3 0 1.2 1 2.3 2.3 2.3 1.2 0 2.2-1.1 2.2-2.3z"/>
				<path id="&lt;Path&gt;" class="s0" d="m762.6 524.8c0-1.3-1.1-2.3-2.3-2.3-1.3 0-2.3 1-2.3 2.3 0 1.2 1 2.3 2.3 2.3 1.2 0 2.3-1.1 2.3-2.3z"/>
				<path id="&lt;Path&gt;" class="s0" d="m730.3 605.9c0-1.3-1-2.3-2.3-2.3-1.2 0-2.2 1-2.2 2.3 0 1.3 1 2.3 2.2 2.3 1.3 0 2.3-1 2.3-2.3z"/>
				<path id="&lt;Path&gt;" class="s0" d="m771.2 433.6c0-1.3-1-2.3-2.3-2.3-1.2 0-2.3 1-2.3 2.3 0 1.2 1.1 2.3 2.3 2.3 1.3 0 2.3-1.1 2.3-2.3z"/>
				<path id="&lt;Path&gt;" class="s0" d="m736.2 510.6c0-1.3-1-2.3-2.2-2.3-1.3 0-2.3 1-2.3 2.3 0 1.2 1 2.3 2.3 2.3 1.2 0 2.2-1.1 2.2-2.3z"/>
				<path id="&lt;Path&gt;" class="s0" d="m730.3 605.9c0-1.3-1-2.3-2.3-2.3-1.2 0-2.2 1-2.2 2.3 0 1.3 1 2.3 2.2 2.3 1.3 0 2.3-1 2.3-2.3z"/>
				<path id="&lt;Path&gt;" class="s0" d="m663.9 480.5c0-1.2-1-2.3-2.3-2.3-1.2 0-2.3 1.1-2.3 2.3 0 1.3 1.1 2.3 2.3 2.3 1.3 0 2.3-1 2.3-2.3z"/>
				<path id="&lt;Path&gt;" class="s0" d="m542.1 609.8c0-1.3-1-2.3-2.3-2.3-1.2 0-2.2 1-2.2 2.3 0 1.2 1 2.3 2.2 2.3 1.3 0 2.3-1.1 2.3-2.3z"/>
				<path id="&lt;Path&gt;" class="s0" d="m630 316.7c0-1.2-1-2.3-2.2-2.3-1.3 0-2.3 1.1-2.3 2.3 0 1.3 1 2.3 2.3 2.3 1.2 0 2.2-1 2.2-2.3z"/>
				<path id="&lt;Path&gt;" class="s0" d="m489.1 449.3c0-1.2-1-2.3-2.3-2.3-1.3 0-2.3 1.1-2.3 2.3 0 1.3 1 2.3 2.3 2.3 1.3 0 2.3-1 2.3-2.3z"/>
				<path id="&lt;Path&gt;" class="s0" d="m663.9 480.5c0-1.2-1-2.3-2.3-2.3-1.2 0-2.3 1.1-2.3 2.3 0 1.3 1.1 2.3 2.3 2.3 1.3 0 2.3-1 2.3-2.3z"/>
				<path id="&lt;Path&gt;" class="s0" d="m539.6 281.3c0-1.2-1-2.3-2.3-2.3-1.2 0-2.3 1.1-2.3 2.3 0 1.3 1.1 2.3 2.3 2.3 1.3 0 2.3-1 2.3-2.3z"/>
				<path id="&lt;Path&gt;" class="s0" d="m464.2 334.6c0-1.2-1-2.2-2.3-2.2-1.3 0-2.3 1-2.3 2.2 0 1.3 1 2.3 2.3 2.3 1.3 0 2.3-1 2.3-2.3z"/>
				<path id="&lt;Path&gt;" class="s0" d="m489.1 449.3c0-1.2-1-2.3-2.3-2.3-1.3 0-2.3 1.1-2.3 2.3 0 1.3 1 2.3 2.3 2.3 1.3 0 2.3-1 2.3-2.3z"/>
				<path id="&lt;Path&gt;" class="s0" d="m539.6 281.3c0-1.2-1-2.3-2.3-2.3-1.2 0-2.3 1.1-2.3 2.3 0 1.3 1.1 2.3 2.3 2.3 1.3 0 2.3-1 2.3-2.3z"/>
				<path id="&lt;Path&gt;" class="s0" d="m371 268.8c0-1.3-1.1-2.3-2.3-2.3-1.3 0-2.3 1-2.3 2.3 0 1.2 1 2.3 2.3 2.3 1.2 0 2.3-1.1 2.3-2.3z"/>
				<path id="&lt;Path&gt;" class="s0" d="m464.2 334.6c0-1.2-1-2.2-2.3-2.2-1.3 0-2.3 1-2.3 2.2 0 1.3 1 2.3 2.3 2.3 1.3 0 2.3-1 2.3-2.3z"/>
				<path id="&lt;Path&gt;" class="s0" d="m390.8 135.2c0-1.3-1-2.3-2.2-2.3-1.3 0-2.3 1-2.3 2.3 0 1.2 1 2.2 2.3 2.2 1.2 0 2.2-1 2.2-2.2z"/>
				<path id="&lt;Path&gt;" class="s0" d="m371 268.8c0-1.3-1.1-2.3-2.3-2.3-1.3 0-2.3 1-2.3 2.3 0 1.2 1 2.3 2.3 2.3 1.2 0 2.3-1.1 2.3-2.3z"/>
				<path id="&lt;Path&gt;" class="s0" d="m482.6 168.1c0-1.2-1-2.2-2.2-2.2-1.3 0-2.3 1-2.3 2.2 0 1.3 1 2.3 2.3 2.3 1.2 0 2.2-1 2.2-2.3z"/>
				<path id="&lt;Path&gt;" class="s0" d="m493.9 132.5c0-1.3-1-2.3-2.2-2.3-1.3 0-2.3 1-2.3 2.3 0 1.2 1 2.3 2.3 2.3 1.2 0 2.2-1.1 2.2-2.3z"/>
				<path id="&lt;Path&gt;" class="s0" d="m390.8 135.2c0-1.3-1-2.3-2.2-2.3-1.3 0-2.3 1-2.3 2.3 0 1.2 1 2.2 2.3 2.2 1.2 0 2.2-1 2.2-2.2z"/>
				<path id="&lt;Path&gt;" class="s0" d="m482.6 168.1c0-1.2-1-2.2-2.2-2.2-1.3 0-2.3 1-2.3 2.2 0 1.3 1 2.3 2.3 2.3 1.2 0 2.2-1 2.2-2.3z"/>
				<path id="&lt;Path&gt;" class="s0" d="m539.6 281.3c0-1.2-1-2.3-2.3-2.3-1.2 0-2.3 1.1-2.3 2.3 0 1.3 1.1 2.3 2.3 2.3 1.3 0 2.3-1 2.3-2.3z"/>
				<path id="&lt;Path&gt;" class="s0" d="m572 150.2c0-1.2-1.1-2.2-2.3-2.2-1.3 0-2.3 1-2.3 2.2 0 1.3 1 2.3 2.3 2.3 1.2 0 2.3-1 2.3-2.3z"/>
				<path id="&lt;Path&gt;" class="s0" d="m482.6 168.1c0-1.2-1-2.2-2.2-2.2-1.3 0-2.3 1-2.3 2.2 0 1.3 1 2.3 2.3 2.3 1.2 0 2.2-1 2.2-2.3z"/>
				<path id="&lt;Path&gt;" class="s0" d="m625.7 180.9c0-1.3-1-2.3-2.3-2.3-1.2 0-2.3 1-2.3 2.3 0 1.3 1.1 2.3 2.3 2.3 1.3 0 2.3-1 2.3-2.3z"/>
				<path id="&lt;Path&gt;" class="s0" d="m572 150.2c0-1.2-1.1-2.2-2.3-2.2-1.3 0-2.3 1-2.3 2.2 0 1.3 1 2.3 2.3 2.3 1.2 0 2.3-1 2.3-2.3z"/>
				<path id="&lt;Path&gt;" class="s0" d="m614.8 205.9c0-1.3-1-2.3-2.3-2.3-1.2 0-2.3 1-2.3 2.3 0 1.3 1.1 2.3 2.3 2.3 1.3 0 2.3-1 2.3-2.3z"/>
				<path id="&lt;Path&gt;" class="s0" d="m625.7 180.9c0-1.3-1-2.3-2.3-2.3-1.2 0-2.3 1-2.3 2.3 0 1.3 1.1 2.3 2.3 2.3 1.3 0 2.3-1 2.3-2.3z"/>
				<path id="&lt;Path&gt;" class="s0" d="m686.6 232.2c0-1.3-1-2.3-2.3-2.3-1.3 0-2.3 1-2.3 2.3 0 1.2 1 2.2 2.3 2.2 1.3 0 2.3-1 2.3-2.2z"/>
				<path id="&lt;Path&gt;" class="s0" d="m614.8 205.9c0-1.3-1-2.3-2.3-2.3-1.2 0-2.3 1-2.3 2.3 0 1.3 1.1 2.3 2.3 2.3 1.3 0 2.3-1 2.3-2.3z"/>
				<path id="&lt;Path&gt;" class="s0" d="m539.6 281.3c0-1.2-1-2.3-2.3-2.3-1.2 0-2.3 1.1-2.3 2.3 0 1.3 1.1 2.3 2.3 2.3 1.3 0 2.3-1 2.3-2.3z"/>
				<path id="&lt;Path&gt;" class="s0" d="m630 316.7c0-1.2-1-2.3-2.2-2.3-1.3 0-2.3 1.1-2.3 2.3 0 1.3 1 2.3 2.3 2.3 1.2 0 2.2-1 2.2-2.3z"/>
				<path id="&lt;Path&gt;" class="s0" d="m663.9 480.5c0-1.2-1-2.3-2.3-2.3-1.2 0-2.3 1.1-2.3 2.3 0 1.3 1.1 2.3 2.3 2.3 1.3 0 2.3-1 2.3-2.3z"/>
				<path id="&lt;Path&gt;" class="s0" d="m736.2 510.6c0-1.3-1-2.3-2.2-2.3-1.3 0-2.3 1-2.3 2.3 0 1.2 1 2.3 2.3 2.3 1.2 0 2.2-1.1 2.2-2.3z"/>
				<path id="&lt;Path&gt;" class="s0" d="m737.4 305.5c0-1.3-1.1-2.3-2.3-2.3-1.3 0-2.3 1-2.3 2.3 0 1.2 1 2.3 2.3 2.3 1.2 0 2.3-1.1 2.3-2.3z"/>
				<path id="&lt;Path&gt;" class="s0" d="m614.8 205.9c0-1.3-1-2.3-2.3-2.3-1.2 0-2.3 1-2.3 2.3 0 1.3 1.1 2.3 2.3 2.3 1.3 0 2.3-1 2.3-2.3z"/>
				<path id="&lt;Path&gt;" class="s0" d="m686.6 232.2c0-1.3-1-2.3-2.3-2.3-1.3 0-2.3 1-2.3 2.3 0 1.2 1 2.2 2.3 2.2 1.3 0 2.3-1 2.3-2.2z"/>
				<path id="&lt;Path&gt;" class="s0" d="m630 316.7c0-1.2-1-2.3-2.2-2.3-1.3 0-2.3 1.1-2.3 2.3 0 1.3 1 2.3 2.3 2.3 1.2 0 2.2-1 2.2-2.3z"/>
				<path id="&lt;Path&gt;" class="s0" d="m737.4 305.5c0-1.3-1.1-2.3-2.3-2.3-1.3 0-2.3 1-2.3 2.3 0 1.2 1 2.3 2.3 2.3 1.2 0 2.3-1.1 2.3-2.3z"/>
				<path id="&lt;Path&gt;" class="s0" d="m630 316.7c0-1.2-1-2.3-2.2-2.3-1.3 0-2.3 1.1-2.3 2.3 0 1.3 1 2.3 2.3 2.3 1.2 0 2.2-1 2.2-2.3z"/>
				<path id="&lt;Path&gt;" class="s0" d="m763.7 377.7c0-1.2-1.1-2.3-2.3-2.3-1.3 0-2.3 1.1-2.3 2.3 0 1.3 1 2.3 2.3 2.3 1.2 0 2.3-1 2.3-2.3z"/>
				<path id="&lt;Path&gt;" class="s0" d="m771.2 433.6c0-1.3-1-2.3-2.3-2.3-1.2 0-2.3 1-2.3 2.3 0 1.2 1.1 2.3 2.3 2.3 1.3 0 2.3-1.1 2.3-2.3z"/>
				<path id="&lt;Path&gt;" class="s0" d="m663.9 480.5c0-1.2-1-2.3-2.3-2.3-1.2 0-2.3 1.1-2.3 2.3 0 1.3 1.1 2.3 2.3 2.3 1.3 0 2.3-1 2.3-2.3z"/>
				<path id="&lt;Path&gt;" class="s0" d="m737.4 305.5c0-1.3-1.1-2.3-2.3-2.3-1.3 0-2.3 1-2.3 2.3 0 1.2 1 2.3 2.3 2.3 1.2 0 2.3-1.1 2.3-2.3z"/>
			</g>
		</g>
		<filter id="f1">
			<feFlood flood-color="#754ffe" flood-opacity="1" />
			<feBlend mode="normal" in2="SourceGraphic"/>
			<feComposite in2="SourceAlpha" operator="in" />
		</filter>
		<g id="&lt;Group&gt;" filter="url(#f1)">
			<g id="&lt;Group&gt;">
				<path id="&lt;Compound Path&gt;" fill-rule="evenodd" class="s1" d="m419.8 779.7q0 0-0.1 0l-80.8-17.8q0 0-0.1 0 0 0 0-0.1l-125.5-77.6q0 0-0.1 0 0 0 0 0 0 0 0 0 0 0 0 0 0 0 0 0 0 0 0 0 0 0 0 0 0 0 0 0 0-0.1 0-0.1l-55.8-79.3q0 0 0-0.1 0 0 0 0l-32.8-90.8q0 0 0 0 0 0 0 0 0 0 0 0 0 0 0 0 0 0 0 0 0 0 0 0 0-0.1 0-0.1 0 0 0 0-0.1 0-0.1-0.1l-2.7-106.7q0 0 0-0.1 0 0 0 0 0 0 0 0l18.4-80.8q0-0.1 0-0.1l31.8-55.7q0 0 0 0 0 0 0 0 0 0 0 0 0 0 0 0 0-0.1 0-0.1l53.1-63q0-0.1 0.1-0.1l75.9-52.6q0.1 0 0.1 0 0 0 0 0 0 0 0 0l45.4-17.8c0.2-0.1 0.4 0 0.5 0.2 0.1 0.1 0.1 0.4 0 0.5l-18.8 17.2 35 0.2 12.5-27.4q0.1-0.1 0.3-0.2l57.9-7.8q0 0 0 0 0.1 0 0.1 0l87.8 20.8 6.3-11.7c0-0.1 0.3-0.2 0.5-0.1l84 33.4q0 0 0 0 0 0 0 0 0 0 0.1 0l76.8 58.9q0 0 0.1 0v0.1q0 0 0 0l50.5 70q0.1 0.1 0.1 0.1 0 0 0 0 0 0 0 0l30.4 76.7c0.1 0.2 0 0.4-0.2 0.5l-12.9 7 5.8 28.5 14.8 4.7c0.2 0.1 0.3 0.2 0.3 0.4l0.9 72.5q0 0-0.1 0.1 0 0 0 0l-13.2 67.5q-0.1 0.2-0.3 0.3-0.1 0-0.3-0.1l-5.5-3.3-18.2 60.6q0 0 0 0.1 0 0-0.1 0.1l-55.5 75.2q0 0.1 0 0.1 0 0 0 0 0 0 0 0 0 0 0 0 0 0 0 0 0 0 0 0 0 0 0 0 0 0 0 0l-82.6 61.5c-0.1 0.1-0.2 0.1-0.4 0-0.1 0-0.2-0.2-0.2-0.3l0.5-14.9-80.1 44.7q-0.1 0.1-0.3 0l-160.3-47.1 57.3 53.3c0.1 0.1 0.2 0.3 0.1 0.5-0.1 0.1-0.2 0.2-0.4 0.2zm-80.4-18.5l79.1 17.4-57.4-53.4-19.1-5.3zm23.8-36.1l159.4 46.8-16.5-65.9zm143.7-19.2l16.5 65.7 58.3-75.7zm75.9-10.2l-58.1 75.5 78.8-44 1.1-34.4zm-283.3 12.5l39.1 52.2 2.5-40.7zm-83.5-23.1l121.3 75-39-52.2zm388.2 42.6l-0.5 14.5 76.9-57.3zm1.2-34.9l-1.2 34 79.6-44.5zm-263.1 21l18.9 10.7 51.9-52.5-68.4 2.2zm72-41.9l-51.9 52.6 143.5-19.2-9-36.1zm-72.3 47.3l16.3 4.5-16-9zm-43.3-12l42.5 11.8 0.3-4.8-65.1-36.8zm-22.3-30.8l65.1 36.9 2.4-39.2zm-60.9 7.7l82 22.8-22.7-30.4zm282.2-15l9 36 75.7-10.1 22.7-29.5zm107.8-2.8l-22 28.6 21.2-2.8zm0.8-0.8l-0.9 26.4 78-10.4zm-401.2-31.6l8.7 49.5 60-7.7zm-46-27.9l53.1 75.5-17.8-54zm448.2 58.9l78.3 16.2 22.3-59.9zm101.6-44.1l-21.7 58.3 53-71.8zm-513.4 7.3l16.6 50.4-8-45.2zm153.4-33.1l-73 80.6 68.1-2.2zm-79.8 3.8l6.3 76.3 73.1-80.8zm-69 3.9l74.4 72.4-6.2-76.2zm4.8 30.2l67.3 41-72.5-70.4zm144.8-38.7l-4.8 79.1 69.1-2.3 66.1-67zm131.1 10.3l-65.6 66.5 81.6-2.8zm0.8 0l16 63.8 106.8-3.6zm0.6-0.5l123.3 60.5-8.2-83.2zm164.6-32.4l-40 92.8 101.5-44.1 24.4-65.6zm-48.6 9.6l8.1 82.4 39.6-91.8zm-403.1 45.9l8.9 5.4-5.2-29.7-11.4 0.7zm-36.1-22l35 21.3-7.6-22.9zm574.2-49.3l-23.9 64.1 31.7-13.7zm-3.3-27.9l3.8 26.3 7.9 50.4 17.7-59.1zm-603.8-11.9l31.9 88.4 28.2-1.6-8.1-24.8zm223.6 77.7l130.3 9.8-119.1-132.2-23.4 15.3zm237.5-115.1l-105.2 124.7 115.3-22.6zm-136.5-65.7l30.5 190.1 105.6-125.3zm-271.4 166.7l7.7 23.1 11.2-0.6zm182.1-108.9l118.8 131.9-30.4-189.8zm-98.6 64.8l-62.9 66.5 68.1-3.8zm-84.2 42.1l20.3 24.2 63.4-67-102.9-15.3zm85-42.2l5.2 62.8 79.2-4.5zm0.2-0.8l84.8 58.6-12.1-106.2zm324-56.5l10 102.4 48.2-9.5 31.9-74zm-462.1 36.5l51.5 61.4-18.7-56.5zm553-17.3l-31.7 73.5 85.7-16.8-3.9-26.6zm81.4 48l5.2 3.1 11.6-58.9zm-30.5-18.3l29.8 17.9 18.8-62.8-53.9 8.2zm-570.4-8.3l102.9 15.4-47.4-52.7-60.5 22.2zm56.3-37.6l47.3 52.5 5.4-71.9zm53.5-19.7l-5.3 71.8 66.6-94.3zm62.1-22.3l-66.4 94 71.8-46.9zm348.5 57.8l49.1 29.4-5.2-36.1zm-553.3 16.9l31.9 4.8-4.8-14.7zm15.3-45.7l-16.3 45.1 27.8-10.2zm-19.2-58.2l2.6 101.9 16.2-44.9zm19.6 57l11.9 35.9 60.1-22.1-55-61zm568.6-65.3l-31.6 94.5 44.3-6.7zm-122.3 75.8l89.4 18.7-26.1-58.5zm64-40.3l26 58.5 31.7-94.8zm59-35.9l12.8 88.1 53.8-8.2zm-379.5 38l5.3 46.4 23-15zm-172.3-20.2l55.3 61.4 53.3-19.6 7.5-100.2zm551.8-19l66.7 79.9-15.6-75.5-37.2-11.9zm52 4.7l14.9 72.6-0.8-68.1zm-312.2 7.6l135.9 64.7 28.7-119.1zm165.2-53.8l-28.4 118.2 63.3-39.9zm-284.3 79.7l28.7 31.9 87.3-57zm-209.5-30.5l19 57.9 16.8-46.5zm153.8-46.8l-7.4 99.4 61.7-22.6zm0.7-0.5l54.4 77 117-25.4zm340-2.5l34.9 78.3 57.9-36.5zm-494.7 48.9l36 11.3-18.1-90zm44.5-73.5l-7.5 84.8 115.6-58.2zm-26.1-6.4l17.9 89.2 7.4-83zm327.3-13.6l-17.6 98.3 164.4-54.3zm-191.1 46.5l171.7 51.7-94.1-100.1zm78.3-48.8l94.5 100.4 17.5-98.3-77.9-23.4zm370.9 81.1l36 11.5-5.7-27.8zm-103.4-32.3l87.4 39.5-1.4-12zm91.3 29.2l-2.7 10.1 12.8-6.9zm-4.4-1.4l1.2 10.3 2.4-9.1zm4.6 0.6l10.9 3.5 31.3-16.8-16.8-81.8zm-4.7-1.5l3.9 1.2 25.5-95.8-38.4 20.5zm-92.3-29.4l91.5 29.2-8.9-73.4zm123.7-61.5l16.1 78.8 12.5-6.7zm-542.2-13.4l77.1 76.9 36.2-92.5zm-31.8 50.3l107.8 26.6-76.9-76.6-28.4 21.9zm145.9-65.6l-36 92 77.2-48.2zm155.4 45.5l146.5 44-132.1-124.5zm15.4-80.6l132.1 124.5-1.9-94zm177.9 41.5l-44.4 82.9 82.5-44.1-3.7-30.7zm-46.9-11l1.9 93.3 44.1-82.5zm-473.5 63.7l25 6.1 2.4-27.2zm30.3-53.7l-29.6 51.9 27.2-24.9zm-2.5 28.1l-21.6 19.7 21.3-16.3zm221.3-11.6l77.2 23.2 14.3-80.3zm306.6-7.4l3.6 30.1 38.1-20.3zm-382.8-14.7l40.7 43.3 33.6-21zm-144.2 32.8l-0.3 3.6 27.6-21.3-5.4-2.4zm2.6-28.5l-2.5 27.4 21.1-19.3zm524.3 9.5l42 9.9-49.1-68zm-382.3-14.5l74.9 22.5 91-56.8zm-89.1-17.3l-26.4 32.5 112.8-15.5-60.7-40.6zm-32.8 30.1l5.3 2.3 4-10.8zm469.6-6.4l33.9 7.9-7.1-58.1zm-459-3.2l-3.8 10.4 22-27.2zm-30.2 1.1l18.9 8.3 10.7-9.8 21.7-59.4zm442-8.9l46.5 10.9 27.2-50.9-74.5 3.6zm-389.3-53.4l-21.8 59.6 21.1-19.4 21.4-26.3zm128.3-30.8l-40.2 88.2 167.6-34.7zm-102 47.3l60.6 40.6-9.2-87.7zm52.2-47.9l9.2 87.7 39.9-87.5-33.8-14.2zm181.4 54.4l128.7 30.1-0.8-36.2zm-238.5-8.9l-18.1 22.2 21.7-19.8zm331.7-41.9l-94.3 50 128.9-6.2-0.6-31.2zm-224.5-3.8l127.7 53.5-32.5-74.1-85.6-0.5zm159.8-20l-30.6 73.5 94.3-50zm-63.7-0.4l32.4 73.9 30.5-73.6zm163.2 37.4l0.6 30.8 73.2-3.5zm-366 28.4l3.7 2.4 52-47.7-2.2-20.6zm-21.4-14.4l20.8 13.9 52.4-64.5zm387.4-14.9l73.5 27.2-74.1-56.8zm-33.9-12.5l33.1 12.2-0.6-29.4zm-63.2-23.4l62.2 23 32.4-17.2zm-196.5 5.7l33.5 14.1 9.5-20.7-35.5-0.2zm-18.2-6.8l2.1 20.4 14.6-13.4zm1.5-0.2l15.8 6.6 7.1-6.5zm211.1 0.4l93.4 5.8-85.6-20.3zm8.2-15.2l84.6 20-78.5-31.2zm-72.7 14.9l61.9 0.3-77.1-35zm-12-34.1l75.6 34.3 7.9-14.5zm-73.7 33.6l84.9 0.5-15.4-35-57.3 7.7zm-60.8-0.3l23.7 0.1 17.8-16.3z"/>
			</g>
			<g id="&lt;Group&gt;">
				<path id="&lt;Path&gt;" class="s1" d="m306.2 154.8c0 2.7-2.2 4.9-4.8 4.9-2.7 0-4.9-2.2-4.9-4.9 0-2.6 2.2-4.8 4.9-4.8 2.6 0 4.8 2.2 4.8 4.8z"/>
				<path id="&lt;Path&gt;" class="s1" d="m350.5 137.1c0 2-1.7 3.7-3.7 3.7-2.1 0-3.7-1.7-3.7-3.7 0-2 1.6-3.7 3.7-3.7 2 0 3.7 1.7 3.7 3.7z"/>
				<path id="&lt;Path&gt;" class="s1" d="m145.4 326.2c0 2.6-2.2 4.8-4.8 4.8-2.7 0-4.9-2.2-4.9-4.8 0-2.7 2.2-4.9 4.9-4.9 2.6 0 4.8 2.2 4.8 4.9z"/>
				<path id="&lt;Path&gt;" class="s1" d="m127 407c0 2.6-2.2 4.8-4.8 4.8-2.7 0-4.9-2.2-4.9-4.8 0-2.7 2.2-4.9 4.9-4.9 2.6 0 4.8 2.2 4.8 4.9z"/>
				<path id="&lt;Path&gt;" class="s1" d="m218.4 683.9c0 2.6-2.2 4.8-4.9 4.8-2.7 0-4.8-2.2-4.8-4.8 0-2.7 2.1-4.9 4.8-4.9 2.7 0 4.9 2.2 4.9 4.9z"/>
				<path id="&lt;Path&gt;" class="s1" d="m366.2 724.9c0 2.7-2.2 4.8-4.9 4.8-2.6 0-4.8-2.1-4.8-4.8 0-2.7 2.2-4.9 4.8-4.9 2.7 0 4.9 2.2 4.9 4.9z"/>
				<path id="&lt;Path&gt;" class="s1" d="m279.8 676c0 2.7-2.1 4.8-4.8 4.8-2.7 0-4.8-2.1-4.8-4.8 0-2.7 2.1-4.8 4.8-4.8 2.7 0 4.8 2.1 4.8 4.8z"/>
				<path id="&lt;Path&gt;" class="s1" d="m610.8 665c0 2.7-2.1 4.8-4.8 4.8-2.7 0-4.8-2.1-4.8-4.8 0-2.7 2.1-4.8 4.8-4.8 2.7 0 4.8 2.1 4.8 4.8z"/>
				<path id="&lt;Path&gt;" class="s1" d="m683.5 496.4c0 2.7-2.2 4.9-4.8 4.9-2.7 0-4.9-2.2-4.9-4.9 0-2.6 2.2-4.8 4.9-4.8 2.6 0 4.8 2.2 4.8 4.8z"/>
				<path id="&lt;Path&gt;" class="s1" d="m592.4 477.3c0 2.7-2.2 4.9-4.8 4.9-2.7 0-4.9-2.2-4.9-4.9 0-2.6 2.2-4.8 4.9-4.8 2.6 0 4.8 2.2 4.8 4.8z"/>
				<path id="&lt;Path&gt;" class="s1" d="m610.8 665c0 2.7-2.1 4.8-4.8 4.8-2.7 0-4.8-2.1-4.8-4.8 0-2.7 2.1-4.8 4.8-4.8 2.7 0 4.8 2.1 4.8 4.8z"/>
				<path id="&lt;Path&gt;" class="s1" d="m485.8 603.7c0 2.6-2.1 4.8-4.8 4.8-2.7 0-4.8-2.2-4.8-4.8 0-2.7 2.1-4.9 4.8-4.9 2.7 0 4.8 2.2 4.8 4.9z"/>
				<path id="&lt;Path&gt;" class="s1" d="m738.2 554c0 2.7-2.2 4.8-4.9 4.8-2.6 0-4.8-2.1-4.8-4.8 0-2.7 2.2-4.8 4.8-4.8 2.7 0 4.9 2.1 4.9 4.8z"/>
				<path id="&lt;Path&gt;" class="s1" d="m715.8 399.7c0 2.6-2.1 4.8-4.8 4.8-2.7 0-4.8-2.2-4.8-4.8 0-2.7 2.1-4.9 4.8-4.9 2.7 0 4.8 2.2 4.8 4.9z"/>
				<path id="&lt;Path&gt;" class="s1" d="m783.8 481.2c0 2.7-2.2 4.9-4.8 4.9-2.7 0-4.9-2.2-4.9-4.9 0-2.7 2.2-4.8 4.9-4.8 2.6 0 4.8 2.1 4.8 4.8z"/>
				<path id="&lt;Path&gt;" class="s1" d="m683.5 496.4c0 2.7-2.2 4.9-4.8 4.9-2.7 0-4.9-2.2-4.9-4.9 0-2.6 2.2-4.8 4.9-4.8 2.6 0 4.8 2.2 4.8 4.8z"/>
				<path id="&lt;Path&gt;" class="s1" d="m769.4 548.7c0 2-1.7 3.7-3.7 3.7-2 0-3.7-1.7-3.7-3.7 0-2 1.7-3.7 3.7-3.7 2 0 3.7 1.7 3.7 3.7z"/>
				<path id="&lt;Path&gt;" class="s1" d="m783.8 481.2c0 2.7-2.2 4.9-4.8 4.9-2.7 0-4.9-2.2-4.9-4.9 0-2.7 2.2-4.8 4.9-4.8 2.6 0 4.8 2.1 4.8 4.8z"/>
				<path id="&lt;Path&gt;" class="s1" d="m746.3 606.2c0 2.7-2.2 4.9-4.9 4.9-2.6 0-4.8-2.2-4.8-4.9 0-2.7 2.2-4.8 4.8-4.8 2.7 0 4.9 2.1 4.9 4.8z"/>
				<path id="&lt;Path&gt;" class="s1" d="m738.2 554c0 2.7-2.2 4.8-4.9 4.8-2.6 0-4.8-2.1-4.8-4.8 0-2.7 2.2-4.8 4.8-4.8 2.7 0 4.9 2.1 4.9 4.8z"/>
				<path id="&lt;Path&gt;" class="s1" d="m690.8 681.5c0 2.7-2.2 4.9-4.9 4.9-2.7 0-4.8-2.2-4.8-4.9 0-2.7 2.1-4.8 4.8-4.8 2.7 0 4.9 2.1 4.9 4.8z"/>
				<path id="&lt;Path&gt;" class="s1" d="m746.8 606.2c0 3-2.4 5.4-5.4 5.4-2.9 0-5.4-2.4-5.4-5.4 0-3 2.5-5.4 5.4-5.4 3 0 5.4 2.4 5.4 5.4z"/>
				<path id="&lt;Path&gt;" class="s1" d="m610.8 665c0 2.7-2.1 4.8-4.8 4.8-2.7 0-4.8-2.1-4.8-4.8 0-2.7 2.1-4.8 4.8-4.8 2.7 0 4.8 2.1 4.8 4.8z"/>
				<path id="&lt;Path&gt;" class="s1" d="m690.8 681.5c0 2.7-2.2 4.9-4.9 4.9-2.7 0-4.8-2.2-4.8-4.9 0-2.7 2.1-4.8 4.8-4.8 2.7 0 4.9 2.1 4.9 4.8z"/>
				<path id="&lt;Path&gt;" class="s1" d="m609.2 743c0 3.2-2.6 5.8-5.8 5.8-3.2 0-5.8-2.6-5.8-5.8 0-3.2 2.6-5.8 5.8-5.8 3.2 0 5.8 2.6 5.8 5.8z"/>
				<path id="&lt;Path&gt;" class="s1" d="m613.4 665c0 4.1-3.3 7.4-7.4 7.4-4.1 0-7.4-3.3-7.4-7.4 0-4.1 3.3-7.4 7.4-7.4 4.1 0 7.4 3.3 7.4 7.4z"/>
				<path id="&lt;Path&gt;" class="s1" d="m528.1 772.5c0 2.6-2.2 4.8-4.9 4.8-2.6 0-4.8-2.2-4.8-4.8 0-2.7 2.2-4.9 4.8-4.9 2.7 0 4.9 2.2 4.9 4.9z"/>
				<path id="&lt;Path&gt;" class="s1" d="m690.8 681.5c0 2.7-2.2 4.9-4.9 4.9-2.7 0-4.8-2.2-4.8-4.9 0-2.7 2.1-4.8 4.8-4.8 2.7 0 4.9 2.1 4.9 4.8z"/>
				<path id="&lt;Path&gt;" class="s1" d="m366.2 724.9c0 2.7-2.2 4.8-4.9 4.8-2.6 0-4.8-2.1-4.8-4.8 0-2.7 2.2-4.9 4.8-4.9 2.7 0 4.9 2.2 4.9 4.9z"/>
				<path id="&lt;Path&gt;" class="s1" d="m485.8 603.7c0 2.6-2.1 4.8-4.8 4.8-2.7 0-4.8-2.2-4.8-4.8 0-2.7 2.1-4.9 4.8-4.9 2.7 0 4.8 2.2 4.8 4.9z"/>
				<path id="&lt;Path&gt;" class="s1" d="m528.1 772.5c0 2.6-2.2 4.8-4.9 4.8-2.6 0-4.8-2.2-4.8-4.8 0-2.7 2.2-4.9 4.8-4.9 2.7 0 4.9 2.2 4.9 4.9z"/>
				<path id="&lt;Path&gt;" class="s1" d="m369.5 724.9c0 4.5-3.6 8.2-8.2 8.2-4.5 0-8.1-3.7-8.1-8.2 0-4.5 3.6-8.2 8.1-8.2 4.6 0 8.2 3.7 8.2 8.2z"/>
				<path id="&lt;Path&gt;" class="s1" d="m424.7 779.3c0 2.7-2.2 4.8-4.9 4.8-2.6 0-4.8-2.1-4.8-4.8 0-2.7 2.2-4.9 4.8-4.9 2.7 0 4.9 2.2 4.9 4.9z"/>
				<path id="&lt;Path&gt;" class="s1" d="m343.8 761.5c0 2.7-2.1 4.9-4.8 4.9-2.7 0-4.8-2.2-4.8-4.9 0-2.7 2.1-4.8 4.8-4.8 2.7 0 4.8 2.1 4.8 4.8z"/>
				<path id="&lt;Path&gt;" class="s1" d="m354.2 593.8c0 2.7-2.2 4.8-4.9 4.8-2.6 0-4.8-2.1-4.8-4.8 0-2.7 2.2-4.9 4.8-4.9 2.7 0 4.9 2.2 4.9 4.9z"/>
				<path id="&lt;Path&gt;" class="s1" d="m485.8 603.7c0 2.6-2.1 4.8-4.8 4.8-2.7 0-4.8-2.2-4.8-4.8 0-2.7 2.1-4.9 4.8-4.9 2.7 0 4.8 2.2 4.8 4.9z"/>
				<path id="&lt;Path&gt;" class="s1" d="m592.4 477.3c0 2.7-2.2 4.9-4.8 4.9-2.7 0-4.9-2.2-4.9-4.9 0-2.6 2.2-4.8 4.9-4.8 2.6 0 4.8 2.2 4.8 4.8z"/>
				<path id="&lt;Path&gt;" class="s1" d="m715.8 399.7c0 2.6-2.1 4.8-4.8 4.8-2.7 0-4.8-2.2-4.8-4.8 0-2.7 2.1-4.9 4.8-4.9 2.7 0 4.8 2.2 4.8 4.9z"/>
				<path id="&lt;Path&gt;" class="s1" d="m685.2 496.4c0 3.6-2.9 6.6-6.5 6.6-3.6 0-6.5-3-6.5-6.6 0-3.6 2.9-6.5 6.5-6.5 3.6 0 6.5 2.9 6.5 6.5z"/>
				<path id="&lt;Path&gt;" class="s1" d="m621.4 357.1c0 2.6-2.2 4.8-4.9 4.8-2.6 0-4.8-2.2-4.8-4.8 0-2.7 2.2-4.9 4.8-4.9 2.7 0 4.9 2.2 4.9 4.9z"/>
				<path id="&lt;Path&gt;" class="s1" d="m595.3 477.3c0 4.3-3.5 7.7-7.7 7.7-4.3 0-7.8-3.4-7.8-7.7 0-4.2 3.5-7.7 7.8-7.7 4.2 0 7.7 3.5 7.7 7.7z"/>
				<path id="&lt;Path&gt;" class="s1" d="m455.2 412c0 2.7-2.2 4.8-4.9 4.8-2.6 0-4.8-2.1-4.8-4.8 0-2.7 2.2-4.8 4.8-4.8 2.7 0 4.9 2.1 4.9 4.8z"/>
				<path id="&lt;Path&gt;" class="s1" d="m488.6 603.7c0 4.2-3.4 7.6-7.6 7.6-4.2 0-7.6-3.4-7.6-7.6 0-4.2 3.4-7.6 7.6-7.6 4.2 0 7.6 3.4 7.6 7.6z"/>
				<path id="&lt;Path&gt;" class="s1" d="m336.4 437.8c0 2.7-2.2 4.8-4.8 4.8-2.7 0-4.9-2.1-4.9-4.8 0-2.7 2.2-4.9 4.9-4.9 2.6 0 4.8 2.2 4.8 4.9z"/>
				<path id="&lt;Path&gt;" class="s1" d="m354.2 593.8c0 2.7-2.2 4.8-4.9 4.8-2.6 0-4.8-2.1-4.8-4.8 0-2.7 2.2-4.9 4.8-4.9 2.7 0 4.9 2.2 4.9 4.9z"/>
				<path id="&lt;Path&gt;" class="s1" d="m279.8 676c0 2.7-2.1 4.8-4.8 4.8-2.7 0-4.8-2.1-4.8-4.8 0-2.7 2.1-4.8 4.8-4.8 2.7 0 4.8 2.1 4.8 4.8z"/>
				<path id="&lt;Path&gt;" class="s1" d="m344.9 761.5c0 3.3-2.6 5.9-5.9 5.9-3.3 0-5.9-2.6-5.9-5.9 0-3.3 2.6-5.9 5.9-5.9 3.3 0 5.9 2.6 5.9 5.9z"/>
				<path id="&lt;Path&gt;" class="s1" d="m218.4 683.9c0 2.6-2.2 4.8-4.9 4.8-2.7 0-4.8-2.2-4.8-4.8 0-2.7 2.1-4.9 4.8-4.9 2.7 0 4.9 2.2 4.9 4.9z"/>
				<path id="&lt;Path&gt;" class="s1" d="m279.8 676c0 2.7-2.1 4.8-4.8 4.8-2.7 0-4.8-2.1-4.8-4.8 0-2.7 2.1-4.8 4.8-4.8 2.7 0 4.8 2.1 4.8 4.8z"/>
				<path id="&lt;Path&gt;" class="s1" d="m268.2 534.3c0 2.7-2.2 4.9-4.9 4.9-2.6 0-4.8-2.2-4.8-4.9 0-2.6 2.2-4.8 4.8-4.8 2.7 0 4.9 2.2 4.9 4.8z"/>
				<path id="&lt;Path&gt;" class="s1" d="m354.2 593.8c0 2.7-2.2 4.8-4.9 4.8-2.6 0-4.8-2.1-4.8-4.8 0-2.7 2.2-4.9 4.8-4.9 2.7 0 4.9 2.2 4.9 4.9z"/>
				<path id="&lt;Path&gt;" class="s1" d="m204 602.2c0 2.7-2.2 4.9-4.9 4.9-2.7 0-4.8-2.2-4.8-4.9 0-2.7 2.1-4.8 4.8-4.8 2.7 0 4.9 2.1 4.9 4.8z"/>
				<path id="&lt;Path&gt;" class="s1" d="m279.8 676c0 2.7-2.1 4.8-4.8 4.8-2.7 0-4.8-2.1-4.8-4.8 0-2.7 2.1-4.8 4.8-4.8 2.7 0 4.8 2.1 4.8 4.8z"/>
				<path id="&lt;Path&gt;" class="s1" d="m162.6 604.6c0 2.7-2.2 4.8-4.9 4.8-2.6 0-4.8-2.1-4.8-4.8 0-2.7 2.2-4.9 4.8-4.9 2.7 0 4.9 2.2 4.9 4.9z"/>
				<path id="&lt;Path&gt;" class="s1" d="m218.4 683.9c0 2.6-2.2 4.8-4.9 4.8-2.7 0-4.8-2.2-4.8-4.8 0-2.7 2.1-4.9 4.8-4.9 2.7 0 4.9 2.2 4.9 4.9z"/>
				<path id="&lt;Path&gt;" class="s1" d="m204 602.2c0 2.7-2.2 4.9-4.9 4.9-2.7 0-4.8-2.2-4.8-4.9 0-2.7 2.1-4.8 4.8-4.8 2.7 0 4.9 2.1 4.9 4.8z"/>
				<path id="&lt;Path&gt;" class="s1" d="m162.6 604.6c0 2.7-2.2 4.8-4.9 4.8-2.6 0-4.8-2.1-4.8-4.8 0-2.7 2.2-4.9 4.8-4.9 2.7 0 4.9 2.2 4.9 4.9z"/>
				<path id="&lt;Path&gt;" class="s1" d="m129.8 513.7c0 2.7-2.2 4.9-4.9 4.9-2.6 0-4.8-2.2-4.8-4.9 0-2.6 2.2-4.8 4.8-4.8 2.7 0 4.9 2.2 4.9 4.8z"/>
				<path id="&lt;Path&gt;" class="s1" d="m205.4 602.2c0 3.5-2.8 6.4-6.3 6.4-3.5 0-6.3-2.9-6.3-6.4 0-3.5 2.8-6.3 6.3-6.3 3.5 0 6.3 2.8 6.3 6.3z"/>
				<path id="&lt;Path&gt;" class="s1" d="m268.2 534.3c0 2.7-2.2 4.9-4.9 4.9-2.6 0-4.8-2.2-4.8-4.9 0-2.6 2.2-4.8 4.8-4.8 2.7 0 4.9 2.2 4.9 4.8z"/>
				<path id="&lt;Path&gt;" class="s1" d="m455.2 412c0 2.7-2.2 4.8-4.9 4.8-2.6 0-4.8-2.1-4.8-4.8 0-2.7 2.2-4.8 4.8-4.8 2.7 0 4.9 2.1 4.9 4.8z"/>
				<path id="&lt;Path&gt;" class="s1" d="m621.4 357.1c0 2.6-2.2 4.8-4.9 4.8-2.6 0-4.8-2.2-4.8-4.8 0-2.7 2.2-4.9 4.8-4.9 2.7 0 4.9 2.2 4.9 4.9z"/>
				<path id="&lt;Path&gt;" class="s1" d="m781.1 408.7c0 1.6-1.4 3-3 3-1.6 0-3-1.4-3-3 0-1.6 1.4-3 3-3 1.6 0 3 1.4 3 3z"/>
				<path id="&lt;Path&gt;" class="s1" d="m783.8 481.2c0 2.7-2.2 4.9-4.8 4.9-2.7 0-4.9-2.2-4.9-4.9 0-2.7 2.2-4.8 4.9-4.8 2.6 0 4.8 2.1 4.8 4.8z"/>
				<path id="&lt;Path&gt;" class="s1" d="m744.8 291.1c0 2.6-2.2 4.8-4.9 4.8-2.7 0-4.8-2.2-4.8-4.8 0-2.7 2.1-4.9 4.8-4.9 2.7 0 4.9 2.2 4.9 4.9z"/>
				<path id="&lt;Path&gt;" class="s1" d="m621.4 357.1c0 2.6-2.2 4.8-4.9 4.8-2.6 0-4.8-2.2-4.8-4.8 0-2.7 2.2-4.9 4.8-4.9 2.7 0 4.9 2.2 4.9 4.9z"/>
				<path id="&lt;Path&gt;" class="s1" d="m715.8 399.7c0 2.6-2.1 4.8-4.8 4.8-2.7 0-4.8-2.2-4.8-4.8 0-2.7 2.1-4.9 4.8-4.9 2.7 0 4.8 2.2 4.8 4.9z"/>
				<path id="&lt;Path&gt;" class="s1" d="m775.2 367.7c0 2.7-2.2 4.9-4.8 4.9-2.7 0-4.9-2.2-4.9-4.9 0-2.6 2.2-4.8 4.9-4.8 2.6 0 4.8 2.2 4.8 4.8z"/>
				<path id="&lt;Path&gt;" class="s1" d="m744.8 291.1c0 2.6-2.2 4.8-4.9 4.8-2.7 0-4.8-2.2-4.8-4.8 0-2.7 2.1-4.9 4.8-4.9 2.7 0 4.9 2.2 4.9 4.9z"/>
				<path id="&lt;Path&gt;" class="s1" d="m715.8 399.7c0 2.6-2.1 4.8-4.8 4.8-2.7 0-4.8-2.2-4.8-4.8 0-2.7 2.1-4.9 4.8-4.9 2.7 0 4.8 2.2 4.8 4.9z"/>
				<path id="&lt;Path&gt;" class="s1" d="m487.5 230.9c0 2.7-2.2 4.9-4.8 4.9-2.7 0-4.9-2.2-4.9-4.9 0-2.6 2.2-4.8 4.9-4.8 2.6 0 4.8 2.2 4.8 4.8z"/>
				<path id="&lt;Path&gt;" class="s1" d="m744.8 291.1c0 2.6-2.2 4.8-4.9 4.8-2.7 0-4.8-2.2-4.8-4.8 0-2.7 2.1-4.9 4.8-4.9 2.7 0 4.9 2.2 4.9 4.9z"/>
				<path id="&lt;Path&gt;" class="s1" d="m621.4 357.1c0 2.6-2.2 4.8-4.9 4.8-2.6 0-4.8-2.2-4.8-4.8 0-2.7 2.2-4.9 4.8-4.9 2.7 0 4.9 2.2 4.9 4.9z"/>
				<path id="&lt;Path&gt;" class="s1" d="m617.4 162.1c0 2.7-2.2 4.9-4.9 4.9-2.7 0-4.8-2.2-4.8-4.9 0-2.6 2.1-4.8 4.8-4.8 2.7 0 4.9 2.2 4.9 4.8z"/>
				<path id="&lt;Path&gt;" class="s1" d="m693.2 221c0 2.1-1.7 3.8-3.8 3.8-2.1 0-3.8-1.7-3.8-3.8 0-2.1 1.7-3.8 3.8-3.8 2.1 0 3.8 1.7 3.8 3.8z"/>
				<path id="&lt;Path&gt;" class="s1" d="m518.6 156c0 2.7-2.1 4.8-4.8 4.8-2.7 0-4.9-2.1-4.9-4.8 0-2.7 2.2-4.8 4.9-4.8 2.7 0 4.8 2.1 4.8 4.8z"/>
				<path id="&lt;Path&gt;" class="s1" d="m533.3 128.7c0 2.7-2.1 4.9-4.8 4.9-2.7 0-4.8-2.2-4.8-4.9 0-2.6 2.1-4.8 4.8-4.8 2.7 0 4.8 2.2 4.8 4.8z"/>
				<path id="&lt;Path&gt;" class="s1" d="m581.7 180.1c0 1.6-1.3 2.9-2.9 2.9-1.6 0-2.9-1.3-2.9-2.9 0-1.6 1.3-2.9 2.9-2.9 1.6 0 2.9 1.3 2.9 2.9z"/>
				<path id="&lt;Path&gt;" class="s1" d="m616.1 192.9c0 1.5-1.3 2.8-2.8 2.8-1.6 0-2.9-1.3-2.9-2.8 0-1.6 1.3-2.8 2.9-2.8 1.5 0 2.8 1.2 2.8 2.8z"/>
				<path id="&lt;Path&gt;" class="s1" d="m617 261.6c0 1.6-1.3 2.9-2.9 2.9-1.5 0-2.8-1.3-2.8-2.9 0-1.5 1.3-2.8 2.8-2.8 1.6 0 2.9 1.3 2.9 2.8z"/>
				<path id="&lt;Path&gt;" class="s1" d="m616.7 224.4c0 1.5-1.2 2.8-2.8 2.8-1.6 0-2.8-1.3-2.8-2.8 0-1.6 1.2-2.9 2.8-2.9 1.6 0 2.8 1.3 2.8 2.9z"/>
				<path id="&lt;Path&gt;" class="s1" d="m664.2 272.8c0 1.6-1.3 2.9-2.9 2.9-1.5 0-2.8-1.3-2.8-2.9 0-1.5 1.3-2.8 2.8-2.8 1.6 0 2.9 1.3 2.9 2.8z"/>
				<path id="&lt;Path&gt;" class="s1" d="m699.3 280.7c0 1.6-1.3 2.8-2.9 2.8-1.5 0-2.8-1.2-2.8-2.8 0-1.5 1.3-2.8 2.8-2.8 1.6 0 2.9 1.3 2.9 2.8z"/>
				<path id="&lt;Path&gt;" class="s1" d="m703.5 312.2c0 1.5-1.3 2.8-2.8 2.8-1.6 0-2.8-1.3-2.8-2.8 0-1.6 1.2-2.8 2.8-2.8 1.5 0 2.8 1.2 2.8 2.8z"/>
				<path id="&lt;Path&gt;" class="s1" d="m712.1 386.3c0 1.6-1.2 2.8-2.8 2.8-1.5 0-2.8-1.2-2.8-2.8 0-1.5 1.3-2.8 2.8-2.8 1.6 0 2.8 1.3 2.8 2.8z"/>
				<path id="&lt;Path&gt;" class="s1" d="m728.5 392c0 1.6-1.3 2.8-2.8 2.8-1.6 0-2.8-1.2-2.8-2.8 0-1.6 1.2-2.8 2.8-2.8 1.5 0 2.8 1.2 2.8 2.8z"/>
				<path id="&lt;Path&gt;" class="s1" d="m655.1 436.3c0 1.6-1.2 2.8-2.8 2.8-1.5 0-2.8-1.2-2.8-2.8 0-1.5 1.3-2.8 2.8-2.8 1.6 0 2.8 1.3 2.8 2.8z"/>
				<path id="&lt;Path&gt;" class="s1" d="m726.8 489.7c0 1.5-1.2 2.8-2.8 2.8-1.6 0-2.8-1.3-2.8-2.8 0-1.6 1.2-2.8 2.8-2.8 1.6 0 2.8 1.2 2.8 2.8z"/>
				<path id="&lt;Path&gt;" class="s1" d="m732.1 527c0 1.6-1.2 2.8-2.8 2.8-1.5 0-2.8-1.2-2.8-2.8 0-1.6 1.3-2.8 2.8-2.8 1.6 0 2.8 1.2 2.8 2.8z"/>
				<path id="&lt;Path&gt;" class="s1" d="m649.8 570.7c0 1.5-1.2 2.8-2.8 2.8-1.6 0-2.8-1.3-2.8-2.8 0-1.6 1.2-2.8 2.8-2.8 1.6 0 2.8 1.2 2.8 2.8z"/>
				<path id="&lt;Path&gt;" class="s1" d="m600.8 581.3c0 1.6-1.2 2.8-2.8 2.8-1.6 0-2.8-1.2-2.8-2.8 0-1.5 1.2-2.8 2.8-2.8 1.6 0 2.8 1.3 2.8 2.8z"/>
				<path id="&lt;Path&gt;" class="s1" d="m509.5 706c0 1.6-1.3 2.8-2.8 2.8-1.6 0-2.8-1.2-2.8-2.8 0-1.6 1.2-2.8 2.8-2.8 1.5 0 2.8 1.2 2.8 2.8z"/>
				<path id="&lt;Path&gt;" class="s1" d="m499.8 668.7c0 1.5-1.2 2.8-2.8 2.8-1.6 0-2.8-1.3-2.8-2.8 0-1.6 1.2-2.8 2.8-2.8 1.6 0 2.8 1.2 2.8 2.8z"/>
				<path id="&lt;Path&gt;" class="s1" d="m416.8 671.7c0 1.5-1.2 2.8-2.8 2.8-1.6 0-2.8-1.3-2.8-2.8 0-1.6 1.2-2.8 2.8-2.8 1.6 0 2.8 1.2 2.8 2.8z"/>
				<path id="&lt;Path&gt;" class="s1" d="m344.1 719.7c0 1.5-1.2 2.8-2.8 2.8-1.5 0-2.8-1.3-2.8-2.8 0-1.6 1.3-2.8 2.8-2.8 1.6 0 2.8 1.2 2.8 2.8z"/>
				<path id="&lt;Path&gt;" class="s1" d="m301.5 707.7c0 1.5-1.3 2.8-2.8 2.8-1.6 0-2.8-1.3-2.8-2.8 0-1.6 1.2-2.8 2.8-2.8 1.5 0 2.8 1.2 2.8 2.8z"/>
				<path id="&lt;Path&gt;" class="s1" d="m347.5 674c0 1.6-1.3 2.8-2.8 2.8-1.6 0-2.8-1.2-2.8-2.8 0-1.6 1.2-2.8 2.8-2.8 1.5 0 2.8 1.2 2.8 2.8z"/>
				<path id="&lt;Path&gt;" class="s1" d="m208.5 632.7c0 1.5-1.3 2.8-2.8 2.8-1.6 0-2.8-1.3-2.8-2.8 0-1.6 1.2-2.8 2.8-2.8 1.5 0 2.8 1.2 2.8 2.8z"/>
				<path id="&lt;Path&gt;" class="s1" d="m197.5 627.3c0 1.6-1.3 2.8-2.8 2.8-1.6 0-2.8-1.2-2.8-2.8 0-1.5 1.2-2.8 2.8-2.8 1.5 0 2.8 1.3 2.8 2.8z"/>
				<path id="&lt;Path&gt;" class="s1" d="m189.5 603c0 1.6-1.3 2.8-2.8 2.8-1.6 0-2.8-1.2-2.8-2.8 0-1.6 1.2-2.8 2.8-2.8 1.5 0 2.8 1.2 2.8 2.8z"/>
				<path id="&lt;Path&gt;" class="s1" d="m181.1 578.3c0 1.6-1.2 2.8-2.8 2.8-1.5 0-2.8-1.2-2.8-2.8 0-1.5 1.3-2.8 2.8-2.8 1.6 0 2.8 1.3 2.8 2.8z"/>
				<path id="&lt;Path&gt;" class="s1" d="m161.8 519c0 1.6-1.2 2.8-2.8 2.8-1.6 0-2.8-1.2-2.8-2.8 0-1.6 1.2-2.8 2.8-2.8 1.6 0 2.8 1.2 2.8 2.8z"/>
				<path id="&lt;Path&gt;" class="s1" d="m156.8 502.7c0 1.5-1.2 2.8-2.8 2.8-1.6 0-2.8-1.3-2.8-2.8 0-1.6 1.2-2.8 2.8-2.8 1.6 0 2.8 1.2 2.8 2.8z"/>
				<path id="&lt;Path&gt;" class="s1" d="m271.1 598.3c0 1.6-1.2 2.8-2.8 2.8-1.5 0-2.8-1.2-2.8-2.8 0-1.5 1.3-2.8 2.8-2.8 1.6 0 2.8 1.3 2.8 2.8z"/>
				<path id="&lt;Path&gt;" class="s1" d="m217.8 480.7c0 1.5-1.2 2.8-2.8 2.8-1.6 0-2.8-1.3-2.8-2.8 0-1.6 1.2-2.8 2.8-2.8 1.6 0 2.8 1.2 2.8 2.8z"/>
				<path id="&lt;Path&gt;" class="s1" d="m145.1 466c0 1.6-1.2 2.8-2.8 2.8-1.5 0-2.8-1.2-2.8-2.8 0-1.6 1.3-2.8 2.8-2.8 1.6 0 2.8 1.2 2.8 2.8z"/>
				<path id="&lt;Path&gt;" class="s1" d="m170.1 333.1c0 1.5-1.3 2.8-2.8 2.8-1.6 0-2.8-1.3-2.8-2.8 0-1.6 1.2-2.8 2.8-2.8 1.5 0 2.8 1.2 2.8 2.8z"/>
				<path id="&lt;Path&gt;" class="s1" d="m228.8 248c0 1.6-1.2 2.8-2.8 2.8-1.6 0-2.8-1.2-2.8-2.8 0-1.6 1.2-2.8 2.8-2.8 1.6 0 2.8 1.2 2.8 2.8z"/>
				<path id="&lt;Path&gt;" class="s1" d="m172.5 299.3c0 1.6-1.3 2.8-2.8 2.8-1.6 0-2.8-1.2-2.8-2.8 0-1.5 1.2-2.8 2.8-2.8 1.5 0 2.8 1.3 2.8 2.8z"/>
				<path id="&lt;Path&gt;" class="s1" d="m253.8 225c0 1.6-1.2 2.8-2.8 2.8-1.6 0-2.8-1.2-2.8-2.8 0-1.6 1.2-2.8 2.8-2.8 1.6 0 2.8 1.2 2.8 2.8z"/>
				<path id="&lt;Path&gt;" class="s1" d="m205.8 269.3c0 1.6-1.2 2.8-2.8 2.8-1.6 0-2.8-1.2-2.8-2.8 0-1.5 1.2-2.8 2.8-2.8 1.6 0 2.8 1.3 2.8 2.8z"/>
				<path id="&lt;Path&gt;" class="s1" d="m356.5 176.8c0 1.6-1.3 2.8-2.8 2.8-1.6 0-2.8-1.2-2.8-2.8 0-1.5 1.2-2.8 2.8-2.8 1.5 0 2.8 1.3 2.8 2.8z"/>
				<path id="&lt;Path&gt;" class="s1" d="m366.5 155c0 1.6-1.3 2.8-2.8 2.8-1.6 0-2.8-1.2-2.8-2.8 0-1.6 1.2-2.8 2.8-2.8 1.5 0 2.8 1.2 2.8 2.8z"/>
				<path id="&lt;Path&gt;" class="s1" d="m322.1 163c0 1.6-1.2 2.8-2.8 2.8-1.5 0-2.8-1.2-2.8-2.8 0-1.6 1.3-2.8 2.8-2.8 1.6 0 2.8 1.2 2.8 2.8z"/>
				<path id="&lt;Path&gt;" class="s1" d="m306.8 177c0 1.6-1.2 2.8-2.8 2.8-1.6 0-2.8-1.2-2.8-2.8 0-1.6 1.2-2.8 2.8-2.8 1.6 0 2.8 1.2 2.8 2.8z"/>
				<path id="&lt;Path&gt;" class="s1" d="m330.8 154.7c0 1.5-1.2 2.8-2.8 2.8-1.6 0-2.8-1.3-2.8-2.8 0-1.6 1.2-2.8 2.8-2.8 1.6 0 2.8 1.2 2.8 2.8z"/>
				<path id="&lt;Path&gt;" class="s1" d="m452.5 155.3c0 1.6-1.3 2.8-2.8 2.8-1.6 0-2.8-1.2-2.8-2.8 0-1.5 1.2-2.8 2.8-2.8 1.5 0 2.8 1.3 2.8 2.8z"/>
				<path id="&lt;Path&gt;" class="s1" d="m392.1 289.3c0 1.6-1.2 2.8-2.8 2.8-1.5 0-2.8-1.2-2.8-2.8 0-1.5 1.3-2.8 2.8-2.8 1.6 0 2.8 1.3 2.8 2.8z"/>
				<path id="&lt;Path&gt;" class="s1" d="m357.8 310.7c0 1.5-1.2 2.8-2.8 2.8-1.6 0-2.8-1.3-2.8-2.8 0-1.6 1.2-2.8 2.8-2.8 1.6 0 2.8 1.2 2.8 2.8z"/>
				<path id="&lt;Path&gt;" class="s1" d="m470.8 312.3c0 1.6-1.2 2.8-2.8 2.8-1.6 0-2.8-1.2-2.8-2.8 0-1.5 1.2-2.8 2.8-2.8 1.6 0 2.8 1.3 2.8 2.8z"/>
				<path id="&lt;Path&gt;" class="s1" d="m524.8 140.7c0 1.5-1.2 2.8-2.8 2.8-1.6 0-2.8-1.3-2.8-2.8 0-1.6 1.2-2.8 2.8-2.8 1.6 0 2.8 1.2 2.8 2.8z"/>
				<path id="&lt;Path&gt;" class="s1" d="m617.4 162.1c0 2.7-2.2 4.9-4.9 4.9-2.7 0-4.8-2.2-4.8-4.9 0-2.6 2.1-4.8 4.8-4.8 2.7 0 4.9 2.2 4.9 4.8z"/>
				<path id="&lt;Path&gt;" class="s1" d="m438.9 119.8c0 2.7-2.2 4.8-4.9 4.8-2.6 0-4.8-2.1-4.8-4.8 0-2.7 2.2-4.9 4.8-4.9 2.7 0 4.9 2.2 4.9 4.9z"/>
				<path id="&lt;Path&gt;" class="s1" d="m518.6 156c0 2.7-2.1 4.8-4.8 4.8-2.7 0-4.9-2.1-4.9-4.8 0-2.7 2.2-4.8 4.9-4.8 2.7 0 4.8 2.1 4.8 4.8z"/>
				<path id="&lt;Path&gt;" class="s1" d="m619.9 162.1c0 4.1-3.3 7.4-7.4 7.4-4 0-7.3-3.3-7.3-7.4 0-4 3.3-7.3 7.3-7.3 4.1 0 7.4 3.3 7.4 7.3z"/>
				<path id="&lt;Path&gt;" class="s1" d="m487.5 230.9c0 2.7-2.2 4.9-4.8 4.9-2.7 0-4.9-2.2-4.9-4.9 0-2.6 2.2-4.8 4.9-4.8 2.6 0 4.8 2.2 4.8 4.8z"/>
				<path id="&lt;Path&gt;" class="s1" d="m633.4 357.1c0 9.3-7.5 16.9-16.9 16.9-9.3 0-16.9-7.6-16.9-16.9 0-9.4 7.6-16.9 16.9-16.9 9.4 0 16.9 7.5 16.9 16.9z"/>
				<path id="&lt;Path&gt;" class="s1" d="m317.8 266c0 2.7-2.1 4.8-4.8 4.8-2.7 0-4.8-2.1-4.8-4.8 0-2.7 2.1-4.8 4.8-4.8 2.7 0 4.8 2.1 4.8 4.8z"/>
				<path id="&lt;Path&gt;" class="s1" d="m455.2 412c0 2.7-2.2 4.8-4.9 4.8-2.6 0-4.8-2.1-4.8-4.8 0-2.7 2.2-4.8 4.8-4.8 2.7 0 4.9 2.1 4.9 4.8z"/>
				<path id="&lt;Path&gt;" class="s1" d="m487.5 230.9c0 2.7-2.2 4.9-4.8 4.9-2.7 0-4.9-2.2-4.9-4.9 0-2.6 2.2-4.8 4.9-4.8 2.6 0 4.8 2.2 4.8 4.8z"/>
				<path id="&lt;Path&gt;" class="s1" d="m281.2 359.7c0 2.6-2.2 4.8-4.9 4.8-2.6 0-4.8-2.2-4.8-4.8 0-2.7 2.2-4.9 4.8-4.9 2.7 0 4.9 2.2 4.9 4.9z"/>
				<path id="&lt;Path&gt;" class="s1" d="m336.4 437.8c0 2.7-2.2 4.8-4.8 4.8-2.7 0-4.9-2.1-4.9-4.8 0-2.7 2.2-4.9 4.9-4.9 2.6 0 4.8 2.2 4.8 4.9z"/>
				<path id="&lt;Path&gt;" class="s1" d="m463.3 412c0 7.2-5.8 13-13 13-7.1 0-13-5.8-13-13 0-7.2 5.9-13 13-13 7.2 0 13 5.8 13 13z"/>
				<path id="&lt;Path&gt;" class="s1" d="m281.2 359.7c0 2.6-2.2 4.8-4.9 4.8-2.6 0-4.8-2.2-4.8-4.8 0-2.7 2.2-4.9 4.8-4.9 2.7 0 4.9 2.2 4.9 4.9z"/>
				<path id="&lt;Path&gt;" class="s1" d="m268.2 534.3c0 2.7-2.2 4.9-4.9 4.9-2.6 0-4.8-2.2-4.8-4.9 0-2.6 2.2-4.8 4.8-4.8 2.7 0 4.9 2.2 4.9 4.8z"/>
				<path id="&lt;Path&gt;" class="s1" d="m338.2 437.8c0 3.6-3 6.6-6.6 6.6-3.7 0-6.7-3-6.7-6.6 0-3.7 3-6.6 6.7-6.6 3.6 0 6.6 2.9 6.6 6.6z"/>
				<path id="&lt;Path&gt;" class="s1" d="m129.8 513.7c0 2.7-2.2 4.9-4.9 4.9-2.6 0-4.8-2.2-4.8-4.9 0-2.6 2.2-4.8 4.8-4.8 2.7 0 4.9 2.2 4.9 4.8z"/>
				<path id="&lt;Path&gt;" class="s1" d="m278 534.3c0 8.1-6.6 14.7-14.7 14.7-8.1 0-14.7-6.6-14.7-14.7 0-8.1 6.6-14.7 14.7-14.7 8.1 0 14.7 6.6 14.7 14.7z"/>
				<path id="&lt;Path&gt;" class="s1" d="m164 418.7c0 2.6-2.2 4.8-4.9 4.8-2.7 0-4.8-2.2-4.8-4.8 0-2.7 2.1-4.9 4.8-4.9 2.7 0 4.9 2.2 4.9 4.9z"/>
				<path id="&lt;Path&gt;" class="s1" d="m127 407c0 2.6-2.2 4.8-4.8 4.8-2.7 0-4.9-2.2-4.9-4.8 0-2.7 2.2-4.9 4.9-4.9 2.6 0 4.8 2.2 4.8 4.9z"/>
				<path id="&lt;Path&gt;" class="s1" d="m129.8 513.7c0 2.7-2.2 4.9-4.9 4.9-2.6 0-4.8-2.2-4.8-4.9 0-2.6 2.2-4.8 4.8-4.8 2.7 0 4.9 2.2 4.9 4.8z"/>
				<path id="&lt;Path&gt;" class="s1" d="m164 418.7c0 2.6-2.2 4.8-4.9 4.8-2.7 0-4.8-2.2-4.8-4.8 0-2.7 2.1-4.9 4.8-4.9 2.7 0 4.9 2.2 4.9 4.9z"/>
				<path id="&lt;Path&gt;" class="s1" d="m281.2 359.7c0 2.6-2.2 4.8-4.9 4.8-2.6 0-4.8-2.2-4.8-4.8 0-2.7 2.2-4.9 4.8-4.9 2.7 0 4.9 2.2 4.9 4.9z"/>
				<path id="&lt;Path&gt;" class="s1" d="m145.4 326.2c0 2.6-2.2 4.8-4.8 4.8-2.7 0-4.9-2.2-4.9-4.8 0-2.7 2.2-4.9 4.9-4.9 2.6 0 4.8 2.2 4.8 4.9z"/>
				<path id="&lt;Path&gt;" class="s1" d="m164 418.7c0 2.6-2.2 4.8-4.9 4.8-2.7 0-4.8-2.2-4.8-4.8 0-2.7 2.1-4.9 4.8-4.9 2.7 0 4.9 2.2 4.9 4.9z"/>
				<path id="&lt;Path&gt;" class="s1" d="m145.4 326.2c0 2.6-2.2 4.8-4.8 4.8-2.7 0-4.9-2.2-4.9-4.8 0-2.7 2.2-4.9 4.9-4.9 2.6 0 4.8 2.2 4.8 4.9z"/>
				<path id="&lt;Path&gt;" class="s1" d="m203.1 281.8c0 2.7-2.2 4.8-4.9 4.8-2.7 0-4.8-2.1-4.8-4.8 0-2.7 2.1-4.9 4.8-4.9 2.7 0 4.9 2.2 4.9 4.9z"/>
				<path id="&lt;Path&gt;" class="s1" d="m176.2 270.5c0 2.1-1.8 3.8-3.9 3.8-2.1 0-3.8-1.7-3.8-3.8 0-2.1 1.7-3.8 3.8-3.8 2.1 0 3.9 1.7 3.9 3.8z"/>
				<path id="&lt;Path&gt;" class="s1" d="m287.3 359.7c0 6-4.9 10.9-11 10.9-6 0-10.9-4.9-10.9-10.9 0-6.1 4.9-11 10.9-11 6.1 0 11 4.9 11 11z"/>
				<path id="&lt;Path&gt;" class="s1" d="m317.8 266c0 2.7-2.1 4.8-4.8 4.8-2.7 0-4.8-2.1-4.8-4.8 0-2.7 2.1-4.8 4.8-4.8 2.7 0 4.8 2.1 4.8 4.8z"/>
				<path id="&lt;Path&gt;" class="s1" d="m487.5 230.9c0 2.7-2.2 4.9-4.8 4.9-2.7 0-4.9-2.2-4.9-4.9 0-2.6 2.2-4.8 4.9-4.8 2.6 0 4.8 2.2 4.8 4.8z"/>
				<path id="&lt;Path&gt;" class="s1" d="m520.4 156c0 3.7-3 6.6-6.6 6.6-3.7 0-6.6-2.9-6.6-6.6 0-3.7 2.9-6.6 6.6-6.6 3.6 0 6.6 2.9 6.6 6.6z"/>
				<path id="&lt;Path&gt;" class="s1" d="m306.2 154.8c0 2.7-2.2 4.9-4.8 4.9-2.7 0-4.9-2.2-4.9-4.9 0-2.6 2.2-4.8 4.9-4.8 2.6 0 4.8 2.2 4.8 4.8z"/>
				<path id="&lt;Path&gt;" class="s1" d="m317.8 266c0 2.7-2.1 4.8-4.8 4.8-2.7 0-4.8-2.1-4.8-4.8 0-2.7 2.1-4.8 4.8-4.8 2.7 0 4.8 2.1 4.8 4.8z"/>
				<path id="&lt;Path&gt;" class="s1" d="m228.7 207.4c0 1.9-1.4 3.4-3.3 3.4-1.8 0-3.3-1.5-3.3-3.4 0-1.8 1.5-3.3 3.3-3.3 1.9 0 3.3 1.5 3.3 3.3z"/>
				<path id="&lt;Path&gt;" class="s1" d="m306.2 154.8c0 2.7-2.2 4.9-4.8 4.9-2.7 0-4.9-2.2-4.9-4.9 0-2.6 2.2-4.8 4.9-4.8 2.6 0 4.8 2.2 4.8 4.8z"/>
				<path id="&lt;Path&gt;" class="s1" d="m317.8 266c0 2.7-2.1 4.8-4.8 4.8-2.7 0-4.8-2.1-4.8-4.8 0-2.7 2.1-4.8 4.8-4.8 2.7 0 4.8 2.1 4.8 4.8z"/>
				<path id="&lt;Path&gt;" class="s1" d="m381 127.6c0 2.7-2.2 4.9-4.8 4.9-2.7 0-4.9-2.2-4.9-4.9 0-2.7 2.2-4.8 4.9-4.8 2.6 0 4.8 2.1 4.8 4.8z"/>
				<path id="&lt;Path&gt;" class="s1" d="m491.5 230.9c0 4.9-4 8.8-8.8 8.8-4.9 0-8.8-3.9-8.8-8.8 0-4.8 3.9-8.8 8.8-8.8 4.8 0 8.8 4 8.8 8.8z"/>
				<path id="&lt;Path&gt;" class="s1" d="m438.9 119.8c0 2.7-2.2 4.8-4.9 4.8-2.6 0-4.8-2.1-4.8-4.8 0-2.7 2.2-4.9 4.8-4.9 2.7 0 4.9 2.2 4.9 4.9z"/>
				<path id="&lt;Path&gt;" class="s1" d="m308.3 154.8c0 3.9-3.1 7-6.9 7-3.9 0-7-3.1-7-7 0-3.8 3.1-6.9 7-6.9 3.8 0 6.9 3.1 6.9 6.9z"/>
			</g>
		</g>
	</g>
</svg>